<svg xmlns="http://www.w3.org/2000/svg" width="544" height="161.66" fill="none"><path fill="#112353" d="m20.502 74.748-.108-3.564h-3.42v-13.68h-4.32L1.962 72.192l.468 2.556h10.512v6.696h4.032v-6.696Zm-7.416-3.528H6.714l6.372-8.964zm20.91-7.668c2.16-.72 3.925-2.664 3.925-5.148 0-3.528-2.592-6.156-7.416-6.156-5.148 0-7.92 2.772-7.92 6.552 0 2.664 1.872 4.212 4.104 5.256-2.34.576-4.428 2.628-4.428 5.328 0 3.6 2.952 6.156 7.956 6.156 5.364 0 8.064-2.952 8.064-6.588 0-2.772-1.944-4.32-4.284-5.4M31.334 62.4c-2.628-.972-4.644-1.98-4.644-3.852 0-1.692 1.332-3.06 3.672-3.06 2.016 0 3.564 1.26 3.564 3.348 0 1.476-1.008 2.808-2.592 3.564m-2.016 2.808c2.7 1.008 4.932 2.016 4.932 4.068 0 1.908-1.368 3.024-3.816 3.024s-4.104-1.368-4.104-3.348c0-1.584 1.116-2.988 2.988-3.744m17.517 7.524c0-1.584-1.152-2.772-2.808-2.772-1.692 0-2.88 1.188-2.88 2.772s1.188 2.808 2.88 2.808c1.656 0 2.808-1.224 2.808-2.808m21.305 2.016-.108-3.564h-3.42v-13.68h-4.32L49.599 72.192l.468 2.556h10.512v6.696h4.032v-6.696zm-7.416-3.528H54.35l6.372-8.964zm20.694-13.428c0-3.528-2.304-6.156-6.156-6.156-3.816 0-6.156 2.628-6.156 6.156 0 3.456 2.304 6.084 6.12 6.084 3.852 0 6.192-2.628 6.192-6.084m12.024-5.796h-3.204L71.95 75.54h3.204zm2.808 17.748c0-3.456-2.304-6.084-6.12-6.084-3.852 0-6.156 2.628-6.156 6.084 0 3.528 2.268 6.156 6.12 6.156 3.816 0 6.156-2.628 6.156-6.156M78.573 57.792c0 2.124-1.26 3.708-3.312 3.708-2.088 0-3.348-1.584-3.348-3.708 0-2.196 1.26-3.78 3.348-3.78 2.052 0 3.312 1.548 3.312 3.78m14.832 11.952c0 2.232-1.26 3.78-3.276 3.78-2.088 0-3.348-1.548-3.348-3.78 0-2.088 1.26-3.708 3.312-3.708s3.312 1.584 3.312 3.708M222.859 75.748l-.108-3.564h-3.42v-13.68h-4.32l-10.692 14.688.468 2.556h10.512v6.696h4.032v-6.696zm-7.416-3.528h-6.372l6.372-8.964zm19.903-9.54-9.72 19.764h4.212l9.9-20.448v-3.132h-15.732l-.108 3.816zm10.998 11.052c0-1.584-1.152-2.772-2.808-2.772-1.692 0-2.88 1.188-2.88 2.772s1.188 2.808 2.88 2.808c1.656 0 2.808-1.224 2.808-2.808m7.065-5.724.72-5.436h8.856l-.108-3.708h-12.204l-1.512 12.168.792.792c1.224-.396 2.52-.648 4.464-.648 3.276 0 4.86 1.764 4.86 3.852 0 2.52-1.836 4.068-4.5 4.068-2.016 0-4.428-.828-5.904-1.584l-.54 3.78c1.692.864 4.248 1.44 6.516 1.44 5.04 0 8.604-3.276 8.604-7.992 0-3.996-2.916-6.876-7.92-6.876-1.008 0-1.548.108-2.124.144m23.651-9.216c0-3.528-2.304-6.156-6.156-6.156-3.816 0-6.156 2.628-6.156 6.156 0 3.456 2.304 6.084 6.12 6.084 3.852 0 6.192-2.628 6.192-6.084m12.024-5.796h-3.204L267.592 76.54h3.204zm2.808 17.748c0-3.456-2.304-6.084-6.12-6.084-3.852 0-6.156 2.628-6.156 6.084 0 3.528 2.268 6.156 6.12 6.156 3.816 0 6.156-2.628 6.156-6.156m-17.676-11.952c0 2.124-1.26 3.708-3.312 3.708-2.088 0-3.348-1.584-3.348-3.708 0-2.196 1.26-3.78 3.348-3.78 2.052 0 3.312 1.548 3.312 3.78m14.832 11.952c0 2.232-1.26 3.78-3.276 3.78-2.088 0-3.348-1.548-3.348-3.78 0-2.088 1.26-3.708 3.312-3.708s3.312 1.584 3.312 3.708M116.766 82h1.3l-.4-12.5h-1.7l-4.16 11.04-4.22-11.04h-1.72l-.42 12.5h1.26l.22-10.94 4.14 10.86h1.4l4.1-10.84zm4.695-4.54 6.2-.04c.12-.4.2-.98.2-1.46 0-2.06-1.32-3.38-3.34-3.38-2.48 0-4.32 2.04-4.32 4.92 0 2.78 1.78 4.76 4.42 4.76 1.14 0 2.16-.3 2.94-.78l-.24-1.14c-.7.46-1.66.76-2.66.76-1.92 0-3.16-1.48-3.2-3.54zm.08-.98c.2-1.52 1.26-2.78 2.9-2.78 1.44 0 2.2.96 2.2 2.36 0 .1 0 .3-.02.4zM137.476 82v-6.28c0-2-1.08-3.14-2.92-3.14-.96 0-2.16.54-3.12 1.5v-1.5l-1.24.26V82h1.24v-6.94c.76-.76 1.78-1.3 2.78-1.3 1.38 0 2.02.72 2.02 2.32V82ZM308.171 70l3.36 11h1.24l3.5-12.5h-1.28l-2.8 10.68-3.24-10.68h-1.52l-3.18 10.68-2.92-10.68h-1.32l3.56 12.5h1.22zm17.773 6.4c0-2.94-1.84-4.82-4.4-4.82s-4.52 1.94-4.52 4.86c0 2.94 1.88 4.82 4.42 4.82s4.5-1.94 4.5-4.86m-1.22.04c0 2.16-1.28 3.7-3.22 3.7s-3.24-1.5-3.24-3.74c0-2.16 1.28-3.7 3.22-3.7s3.24 1.5 3.24 3.74M340.929 81v-6.26c0-2.02-1.08-3.16-2.82-3.16-1.06 0-2.22.5-3.24 1.52-.44-1.02-1.34-1.52-2.48-1.52-.94 0-1.96.4-2.9 1.26v-1.26l-1.24.26V81h1.24v-7.18c.7-.62 1.58-1.06 2.54-1.06 1.32 0 1.94.74 1.94 2.34V81h1.24v-6.24c0-.22-.02-.7-.04-.82.7-.66 1.6-1.18 2.58-1.18 1.32 0 1.94.74 1.94 2.34V81Zm3.487-4.54 6.2-.04c.12-.4.2-.98.2-1.46 0-2.06-1.32-3.38-3.34-3.38-2.48 0-4.32 2.04-4.32 4.92 0 2.78 1.78 4.76 4.42 4.76 1.14 0 2.16-.3 2.94-.78l-.24-1.14c-.7.46-1.66.76-2.66.76-1.92 0-3.16-1.48-3.2-3.54zm.08-.98c.2-1.52 1.26-2.78 2.9-2.78 1.44 0 2.2.96 2.2 2.36 0 .1 0 .3-.02.4zM360.431 81v-6.28c0-2-1.08-3.14-2.92-3.14-.96 0-2.16.54-3.12 1.5v-1.5l-1.24.26V81h1.24v-6.94c.76-.76 1.78-1.3 2.78-1.3 1.38 0 2.02.72 2.02 2.32V81ZM420.092 93l-.036-3.636h-8.496c4.68-2.916 7.704-5.112 7.704-8.568 0-3.24-2.628-5.436-6.768-5.436-2.736 0-5.292.972-7.128 2.34l1.152 3.312c1.764-1.224 3.456-1.98 5.148-1.98 1.98 0 3.096 1.008 3.096 2.448 0 2.376-3.852 4.644-9.18 8.316V93Zm8.443-2.268c0-1.584-1.152-2.772-2.808-2.772-1.692 0-2.88 1.188-2.88 2.772s1.188 2.808 2.88 2.808c1.656 0 2.808-1.224 2.808-2.808m19.378-5.508c0-5.58-3.06-9.864-8.496-9.864-5.22 0-8.352 3.528-8.352 8.064 0 4.32 2.988 6.948 6.768 6.948 2.412 0 4.248-.936 5.508-2.196l.108.072c-1.044 3.96-4.86 6.444-9.9 7.524l1.116 3.636c8.604-1.584 13.248-7.632 13.248-14.184m-4.464-1.368c0 .54-.036 1.152-.144 1.584-.828.756-2.412 1.584-4.104 1.584-2.268 0-3.816-1.584-3.816-3.996 0-2.52 1.512-4.212 3.888-4.212 2.628 0 4.176 2.376 4.176 5.04m18.791-8.064c0-3.528-2.304-6.156-6.156-6.156-3.816 0-6.156 2.628-6.156 6.156 0 3.456 2.304 6.084 6.12 6.084 3.852 0 6.192-2.628 6.192-6.084m12.024-5.796h-3.204L452.772 93.54h3.204zm2.808 17.748c0-3.456-2.304-6.084-6.12-6.084-3.852 0-6.156 2.628-6.156 6.084 0 3.528 2.268 6.156 6.12 6.156 3.816 0 6.156-2.628 6.156-6.156m-17.676-11.952c0 2.124-1.26 3.708-3.312 3.708-2.088 0-3.348-1.584-3.348-3.708 0-2.196 1.26-3.78 3.348-3.78 2.052 0 3.312 1.548 3.312 3.78m14.832 11.952c0 2.232-1.26 3.78-3.276 3.78-2.088 0-3.348-1.548-3.348-3.78 0-2.088 1.26-3.708 3.312-3.708s3.312 1.584 3.312 3.708M414.14 119.22l-7.1-10.72h-1.44V121h1.24v-10.7l7.16 10.82h1.38V108.5h-1.24zm12.628-2.82c0-2.94-1.84-4.82-4.4-4.82s-4.52 1.94-4.52 4.86c0 2.94 1.88 4.82 4.42 4.82s4.5-1.94 4.5-4.86m-1.22.04c0 2.16-1.28 3.7-3.22 3.7s-3.24-1.5-3.24-3.74c0-2.16 1.28-3.7 3.22-3.7s3.24 1.5 3.24 3.74m10.805 4.56v-6.28c0-2-1.08-3.14-2.92-3.14-.96 0-2.16.54-3.12 1.5v-1.5l-1.24.26V121h1.24v-6.94c.76-.76 1.78-1.3 2.78-1.3 1.38 0 2.02.72 2.02 2.32V121Zm10.817-4.7c0-2.74-1.58-4.66-4-4.66-1.18 0-2.14.58-2.76 1.16v-5.54l-1.24.26v13.78l1.24-.54c.6.28 1.5.5 2.24.5 2.64 0 4.52-2.08 4.52-4.96m-1.28.06c0 2.2-1.22 3.78-3.18 3.78-.88 0-1.74-.28-2.3-.72v-5.62c.66-.6 1.52-1.02 2.52-1.02 1.82 0 2.96 1.5 2.96 3.58m4.975-7.54c0-.46-.28-.88-.84-.88s-.84.42-.84.88c0 .48.28.92.84.92s.84-.44.84-.92m-.22 12.18v-9.42l-1.24.26V121Zm10.2 0v-6.28c0-2-1.08-3.14-2.92-3.14-.96 0-2.16.54-3.12 1.5v-1.5l-1.24.26V121h1.24v-6.94c.76-.76 1.78-1.3 2.78-1.3 1.38 0 2.02.72 2.02 2.32V121Zm7.598-2.02c-.56.64-1.4 1.2-2.38 1.2-1.08 0-1.88-.62-1.88-1.6 0-1.22 1.12-1.92 4.26-2.28zm.08.92c.14.9.8 1.38 2 1.3l.08-1.02c-.8.02-.92-.26-.92-.92v-4.4c.02-2.32-1.16-3.28-3.28-3.28-1.2 0-2.58.52-3.4 1.1l.28 1.16c.78-.58 2-1.1 3-1.1 1.52 0 2.16.74 2.16 2.18v.54c-4.26.24-5.56 1.6-5.56 3.26 0 1.46 1.22 2.54 2.9 2.54 1.08 0 2.06-.6 2.68-1.36zm5.169-4.78c.72-1.64 1.62-2.36 2.58-2.36.52 0 1 .16 1.4.4l.32-1.16c-.42-.24-1-.42-1.6-.42-1.2 0-2.1.78-2.7 1.96v-1.96l-1.24.26V121h1.24zm13.142-3.28h-1.3l-2.82 7.56-2.88-7.56h-1.34l3.58 9.02-.62 1.62c-.66 1.74-1.18 2.12-1.88 2.12-.5 0-.96-.16-1.4-.4l-.38 1.14c.56.24 1.08.42 1.78.42 1.24 0 2.12-.64 2.96-2.88l.74-1.98zm10.847 7.14c-.56.64-1.4 1.2-2.38 1.2-1.08 0-1.88-.62-1.88-1.6 0-1.22 1.12-1.92 4.26-2.28zm.08.92c.14.9.8 1.38 2 1.3l.08-1.02c-.8.02-.92-.26-.92-.92v-4.4c.02-2.32-1.16-3.28-3.28-3.28-1.2 0-2.58.52-3.4 1.1l.28 1.16c.78-.58 2-1.1 3-1.1 1.52 0 2.16.74 2.16 2.18v.54c-4.26.24-5.56 1.6-5.56 3.26 0 1.46 1.22 2.54 2.9 2.54 1.08 0 2.06-.6 2.68-1.36zm11.209 1.1v-6.28c0-2-1.08-3.14-2.92-3.14-.96 0-2.16.54-3.12 1.5v-1.5l-1.24.26V121h1.24v-6.94c.76-.76 1.78-1.3 2.78-1.3 1.38 0 2.02.72 2.02 2.32V121Zm8.978-8.86c-.6-.28-1.44-.5-2.22-.5-2.64 0-4.54 2.02-4.54 4.86 0 2.78 1.64 4.76 4.1 4.76 1.14 0 2.06-.56 2.66-1.12v.86h1.24v-13.74l-1.24.26zm0 1.32v5.64c-.64.6-1.5 1.02-2.44 1.02-1.86 0-3.04-1.52-3.04-3.64 0-2.16 1.24-3.72 3.2-3.72.88 0 1.72.26 2.28.7M415.24 148.02v-5.24h-4.86v1.16H414v3.4c-.8.44-1.82.76-3 .76-2.86 0-4.76-2.06-4.76-5.36 0-3.4 2-5.34 4.72-5.34 1.3 0 2.62.44 3.56 1.04l.42-1.16c-.92-.56-2.42-1.04-3.96-1.04-3.5 0-6.04 2.56-6.04 6.54 0 3.96 2.42 6.48 6.04 6.48 1.42 0 3.04-.42 4.26-1.24m3.36-3.56 6.2-.04c.12-.4.2-.98.2-1.46 0-2.06-1.32-3.38-3.34-3.38-2.48 0-4.32 2.04-4.32 4.92 0 2.78 1.78 4.76 4.42 4.76 1.14 0 2.16-.3 2.94-.78l-.24-1.14c-.7.46-1.66.76-2.66.76-1.92 0-3.16-1.48-3.2-3.54zm.08-.98c.2-1.52 1.26-2.78 2.9-2.78 1.44 0 2.2.96 2.2 2.36 0 .1 0 .3-.02.4zm15.935 5.52v-6.28c0-2-1.08-3.14-2.92-3.14-.96 0-2.16.54-3.12 1.5v-1.5l-1.24.26V149h1.24v-6.94c.76-.76 1.78-1.3 2.78-1.3 1.38 0 2.02.72 2.02 2.32V149Zm8.977-8.86c-.6-.28-1.44-.5-2.22-.5-2.64 0-4.54 2.02-4.54 4.86 0 2.78 1.64 4.76 4.1 4.76 1.14 0 2.06-.56 2.66-1.12v.86h1.24v-13.74l-1.24.26zm0 1.32v5.64c-.64.6-1.5 1.02-2.44 1.02-1.86 0-3.04-1.52-3.04-3.64 0-2.16 1.24-3.72 3.2-3.72.88 0 1.72.26 2.28.7m4.774 3 6.2-.04c.12-.4.2-.98.2-1.46 0-2.06-1.32-3.38-3.34-3.38-2.48 0-4.32 2.04-4.32 4.92 0 2.78 1.78 4.76 4.42 4.76 1.14 0 2.16-.3 2.94-.78l-.24-1.14c-.7.46-1.66.76-2.66.76-1.92 0-3.16-1.48-3.2-3.54zm.08-.98c.2-1.52 1.26-2.78 2.9-2.78 1.44 0 2.2.96 2.2 2.36 0 .1 0 .3-.02.4zm9.894-.36c.72-1.64 1.62-2.36 2.58-2.36.52 0 1 .16 1.4.4l.32-1.16c-.42-.24-1-.42-1.6-.42-1.2 0-2.1.78-2.7 1.96v-1.96l-1.24.26V149h1.24zM476.5 149v-1.18h-6.28v-4.5h5.24v-1.16h-5.24v-4.48h6.28v-1.18h-7.56V149Zm8.777 0-3.16-4.74 2.92-4.42h-1.38l-2.24 3.56-2.28-3.56h-1.38l2.96 4.46-3.16 4.7h1.4l2.46-3.86 2.48 3.86zm2.751-8.24v-1.22l-1.24.26v13.86h1.24v-4.88c.6.28 1.52.48 2.24.48 2.64 0 4.52-2.04 4.52-4.88 0-2.78-1.62-4.74-4.1-4.74-1.12 0-2.04.54-2.66 1.12m0 1.04c.66-.6 1.52-1.02 2.46-1.02 1.86 0 3.02 1.5 3.02 3.62 0 2.16-1.22 3.74-3.18 3.74-.88 0-1.74-.28-2.3-.72zm13.833 5.18c-.56.64-1.4 1.2-2.38 1.2-1.08 0-1.88-.62-1.88-1.6 0-1.22 1.12-1.92 4.26-2.28zm.08.92c.14.9.8 1.38 2 1.3l.08-1.02c-.8.02-.92-.26-.92-.92v-4.4c.02-2.32-1.16-3.28-3.28-3.28-1.2 0-2.58.52-3.4 1.1l.28 1.16c.78-.58 2-1.1 3-1.1 1.52 0 2.16.74 2.16 2.18v.54c-4.26.24-5.56 1.6-5.56 3.26 0 1.46 1.22 2.54 2.9 2.54 1.08 0 2.06-.6 2.68-1.36zm11.209 1.1v-6.28c0-2-1.08-3.14-2.92-3.14-.96 0-2.16.54-3.12 1.5v-1.5l-1.24.26V149h1.24v-6.94c.76-.76 1.78-1.3 2.78-1.3 1.38 0 2.02.72 2.02 2.32V149Zm8.317-2.5c0-1.7-1.4-2.3-2.7-2.68-1.18-.36-2.26-.68-2.26-1.72 0-.88.72-1.4 1.84-1.4.8 0 1.74.26 2.5.68l.36-1.12a6.3 6.3 0 0 0-2.78-.68c-1.72 0-3.1.98-3.1 2.64 0 1.6 1.4 2.22 2.66 2.6 1.14.36 2.3.68 2.3 1.78 0 1-.96 1.54-2.06 1.54-.94 0-1.92-.32-2.7-.84l-.34 1.14c.78.5 1.92.82 3 .82 1.84 0 3.28-1.08 3.28-2.76m3.715-9.68c0-.46-.28-.88-.84-.88s-.84.42-.84.88c0 .48.28.92.84.92s.84-.44.84-.92m-.22 12.18v-9.42l-1.24.26V149Zm9.879-9.16h-1.3l-2.8 7.56-2.9-7.56h-1.34l3.62 9.18h1.12zm2.079 4.62 6.2-.04c.12-.4.2-.98.2-1.46 0-2.06-1.32-3.38-3.34-3.38-2.48 0-4.32 2.04-4.32 4.92 0 2.78 1.78 4.76 4.42 4.76 1.14 0 2.16-.3 2.94-.78l-.24-1.14c-.7.46-1.66.76-2.66.76-1.92 0-3.16-1.48-3.2-3.54zm.08-.98c.2-1.52 1.26-2.78 2.9-2.78 1.44 0 2.2.96 2.2 2.36 0 .1 0 .3-.02.4z"/><path fill="#c33" d="M0 0h202v36H0z"/><path fill="#992626" d="M202 0h207v36H202z"/><path fill="#ffc1c1" d="M409 0h16v36h-16z"/><path stroke="#ffc1c1" d="M409.5 28v32"/></svg>