<svg xmlns="http://www.w3.org/2000/svg" width="560" height="202" fill="none"><path fill="#112353" d="M.493 65.736c0 5.544 3.06 9.864 8.496 9.864 5.22 0 8.352-3.492 8.352-7.992 0-4.356-2.952-7.056-6.696-7.056-2.556 0-4.356.936-5.688 2.232l-.108-.072c1.116-3.96 4.968-6.48 10.008-7.524l-1.116-3.672C5.173 53.1.493 59.184.493 65.736m4.464 1.368c0-.54.036-1.152.144-1.62.828-.72 2.412-1.548 4.104-1.548 2.268 0 3.816 1.584 3.816 3.996 0 2.52-1.512 4.212-3.888 4.212-2.628 0-4.176-2.376-4.176-5.04m19.439-.036.72-5.436h8.855l-.107-3.708H21.66l-1.512 12.168.792.792c1.224-.396 2.52-.648 4.464-.648 3.276 0 4.86 1.764 4.86 3.852 0 2.52-1.836 4.068-4.5 4.068-2.016 0-4.428-.828-5.904-1.584l-.54 3.78c1.692.864 4.248 1.44 6.516 1.44 5.04 0 8.604-3.276 8.604-7.992 0-3.996-2.916-6.876-7.92-6.876-1.008 0-1.548.108-2.124.144m18.458 5.724c0-1.584-1.152-2.772-2.808-2.772-1.692 0-2.88 1.188-2.88 2.772s1.188 2.808 2.88 2.808c1.656 0 2.808-1.224 2.808-2.808m11.817-3.924c2.484-.936 4.536-2.988 4.536-5.652 0-3.456-2.952-5.796-7.416-5.796-2.916 0-5.292 1.008-7.128 2.376l1.152 3.276c1.62-1.188 3.384-2.016 5.148-2.016 2.34 0 3.672 1.044 3.672 2.88 0 2.592-3.24 3.672-6.66 4.392v3.276a15.3 15.3 0 0 1 3.096-.216c2.844.072 4.5 1.152 4.5 3.276 0 2.376-1.836 3.636-4.572 3.6-2.124 0-4.248-.648-5.76-1.62l-.612 3.636c1.728.936 4.104 1.512 6.588 1.512 4.824 0 8.748-2.664 8.748-7.236 0-2.628-1.764-5.112-5.292-5.688m18.863-11.016c0-3.528-2.304-6.156-6.156-6.156-3.816 0-6.156 2.628-6.156 6.156 0 3.456 2.304 6.084 6.12 6.084 3.852 0 6.192-2.628 6.192-6.084m12.024-5.796h-3.204L64.066 75.6h3.204zm2.808 17.748c0-3.456-2.304-6.084-6.12-6.084-3.852 0-6.156 2.628-6.156 6.084 0 3.528 2.268 6.156 6.12 6.156 3.816 0 6.156-2.628 6.156-6.156M70.69 57.852c0 2.124-1.26 3.708-3.312 3.708-2.088 0-3.348-1.584-3.348-3.708 0-2.196 1.26-3.78 3.348-3.78 2.052 0 3.312 1.548 3.312 3.78m14.832 11.952c0 2.232-1.26 3.78-3.276 3.78-2.088 0-3.348-1.548-3.348-3.78 0-2.088 1.26-3.708 3.312-3.708s3.312 1.584 3.312 3.708M103.457 65.472l3.36 11h1.24l3.5-12.5h-1.28l-2.8 10.68-3.24-10.68h-1.52l-3.18 10.68-2.92-10.68h-1.32l3.56 12.5h1.22zm17.63 11v-6.28c0-2-1.08-3.14-2.86-3.14-1.02 0-2.22.5-3.18 1.46v-5.78l-1.24.26v13.48h1.24v-6.94c.76-.76 1.78-1.3 2.84-1.3 1.32 0 1.96.72 1.96 2.32v5.92zm4.298-12.18c0-.46-.28-.88-.84-.88s-.84.42-.84.88c0 .48.28.92.84.92s.84-.44.84-.92m-.22 12.18v-9.42l-1.24.26v9.16zm7.48-.18-.22-1.08c-.56.24-1.16.44-1.76.44-.96 0-1.38-.56-1.34-1.72l.14-5.48h3.04l.06-1.1h-3.06l.06-2.14h-1.18l-.06 2.08-1.38.32-.06.78 1.4.08-.14 5.42c-.06 1.92.72 2.88 2.46 2.88.66 0 1.4-.18 2.04-.48m2.584-4.36 6.2-.04c.12-.4.2-.98.2-1.46 0-2.06-1.32-3.38-3.34-3.38-2.48 0-4.32 2.04-4.32 4.92 0 2.78 1.78 4.76 4.42 4.76 1.14 0 2.16-.3 2.94-.78l-.24-1.14c-.7.46-1.66.76-2.66.76-1.92 0-3.16-1.48-3.2-3.54zm.08-.98c.2-1.52 1.26-2.78 2.9-2.78 1.44 0 2.2.96 2.2 2.36 0 .1 0 .3-.02.4zM352.47 131h1.22v-9.7l-3.6 1.32.06 1.14 2.32-.88zm13.884-4.72c0-2.92-2.08-4.98-4.84-4.98-2.74 0-4.8 2.06-4.8 4.98s2.06 4.98 4.8 4.98c2.76 0 4.84-2.06 4.84-4.98m-1.24 0c0 2.16-1.48 3.8-3.6 3.8-2.1 0-3.56-1.64-3.56-3.8s1.46-3.8 3.56-3.8c2.12 0 3.6 1.64 3.6 3.8m4.575 3.94c0-.54-.42-1-1-1s-1 .46-1 1 .42 1.04 1 1.04 1-.5 1-1.04m10.805.48-.06-1.18h-1.9v-8.28h-1.08l-6.42 8.6.16.86h6.14v3.98h1.2v-3.98zm-3.16-1.18h-4.7l4.7-6.3zm10.36-8.16c0-1.82-1.26-3.34-3.32-3.34-2.04 0-3.32 1.52-3.32 3.34 0 1.78 1.28 3.3 3.32 3.3 2.06 0 3.32-1.52 3.32-3.3m6.1-3.14h-1.08l-10.14 13.08h1.1zm1.5 9.94c0-1.78-1.28-3.3-3.32-3.3-2.06 0-3.32 1.52-3.32 3.3 0 1.82 1.26 3.34 3.32 3.34 2.04 0 3.32-1.52 3.32-3.34m-8.5-6.8c0 1.3-.9 2.44-2.42 2.44-1.5 0-2.4-1.14-2.4-2.44 0-1.38.9-2.48 2.4-2.48 1.52 0 2.42 1.1 2.42 2.48m7.6 6.8c0 1.38-.9 2.48-2.42 2.48-1.5 0-2.4-1.1-2.4-2.48 0-1.3.9-2.44 2.4-2.44 1.52 0 2.42 1.14 2.42 2.44m13.134-3.56c1.66-.42 2.4-1.62 2.4-2.84 0-1.9-1.26-3.26-4.26-3.26h-3.9V131h4.06c3.16 0 4.5-1.44 4.5-3.48 0-1.46-.96-2.56-2.8-2.92m1.12-2.74c0 1.48-1.24 2.3-3.12 2.3h-2.48v-4.5h2.68c1.98 0 2.92.86 2.92 2.2m.4 5.66c0 1.42-.92 2.32-3.12 2.32h-2.88v-4.52h2.56c2.22 0 3.44.74 3.44 2.2m4.796 3.48v-13.74l-1.24.26V131Zm7.661-2.02c-.56.64-1.4 1.2-2.38 1.2-1.08 0-1.88-.62-1.88-1.6 0-1.22 1.12-1.92 4.26-2.28zm.08.92c.14.9.8 1.38 2 1.3l.08-1.02c-.8.02-.92-.26-.92-.92v-4.4c.02-2.32-1.16-3.28-3.28-3.28-1.2 0-2.58.52-3.4 1.1l.28 1.16c.78-.58 2-1.1 3-1.1 1.52 0 2.16.74 2.16 2.18v.54c-4.26.24-5.56 1.6-5.56 3.26 0 1.46 1.22 2.54 2.9 2.54 1.08 0 2.06-.6 2.68-1.36zm10.649.58-.26-1.14c-.7.46-1.62.76-2.54.76-1.94 0-3.24-1.46-3.24-3.7 0-2.18 1.24-3.66 3.22-3.66.96 0 1.84.28 2.54.74l.32-1.12c-.78-.5-1.74-.78-2.86-.78-2.6 0-4.5 2-4.5 4.86 0 2.84 1.72 4.82 4.48 4.82 1.06 0 2.06-.3 2.84-.78m3.584-4.04 4.12 4.56h1.58l-4.42-4.8 4.4-4.36h-1.56l-4.12 4.22h-.04v-8.8l-1.24.26V131h1.24v-4.56zM241.633 195h1.22v-9.7l-3.6 1.32.06 1.14 2.32-.88zm5.383-4.16.58-4.1h4.98l-.06-1.2h-5.94l-.8 6.16.42.4c.72-.24 1.22-.38 2.38-.38 1.88 0 3.02 1.26 3.02 2.78 0 1.84-1.3 3.02-3.06 3.02-1.1 0-2.2-.42-3-.86l-.24 1.22c.8.46 2.06.82 3.2.82 2.44 0 4.36-1.74 4.36-4.26 0-2.22-1.64-3.8-4.16-3.8-.76 0-1.22.08-1.68.2m9.354 3.38c0-.54-.42-1-1-1s-1 .46-1 1 .42 1.04 1 1.04 1-.5 1-1.04m1.34-3.98c0 2.76 1.54 5.02 4.26 5.02 2.5 0 4.1-1.76 4.1-4.12 0-2.4-1.72-3.72-3.62-3.72-1.38 0-2.48.58-3.36 1.4l-.04-.02c.58-2.54 2.62-4.6 5.98-5.4l-.36-1.16c-4.74 1.1-6.96 4.68-6.96 8m1.3.26c0-.22.02-.46.06-.66.82-.78 1.92-1.32 3.14-1.32 1.46 0 2.6 1 2.6 2.68 0 1.7-1.08 2.92-2.8 2.92-1.9 0-3-1.7-3-3.62m14.819-5.14c0-1.82-1.26-3.34-3.32-3.34-2.04 0-3.32 1.52-3.32 3.34 0 1.78 1.28 3.3 3.32 3.3 2.06 0 3.32-1.52 3.32-3.3m6.1-3.14h-1.08l-10.14 13.08h1.1zm1.5 9.94c0-1.78-1.28-3.3-3.32-3.3-2.06 0-3.32 1.52-3.32 3.3 0 1.82 1.26 3.34 3.32 3.34 2.04 0 3.32-1.52 3.32-3.34m-8.5-6.8c0 1.3-.9 2.44-2.42 2.44-1.5 0-2.4-1.14-2.4-2.44 0-1.38.9-2.48 2.4-2.48 1.52 0 2.42 1.1 2.42 2.48m7.6 6.8c0 1.38-.9 2.48-2.42 2.48-1.5 0-2.4-1.1-2.4-2.48 0-1.3.9-2.44 2.4-2.44 1.52 0 2.42 1.14 2.42 2.44m12.314-9.66h-1.5l-4.74 12.5h1.3l1.32-3.58h5.66l1.32 3.58h1.3zm1.6 7.76h-4.78l2.4-6.5zm10.304 2.24c0-1.7-1.4-2.3-2.7-2.68-1.18-.36-2.26-.68-2.26-1.72 0-.88.72-1.4 1.84-1.4.8 0 1.74.26 2.5.68l.36-1.12a6.3 6.3 0 0 0-2.78-.68c-1.72 0-3.1.98-3.1 2.64 0 1.6 1.4 2.22 2.66 2.6 1.14.36 2.3.68 2.3 1.78 0 1-.96 1.54-2.06 1.54-.94 0-1.92-.32-2.7-.84l-.34 1.14c.78.5 1.92.82 3 .82 1.84 0 3.28-1.08 3.28-2.76m3.714-9.68c0-.46-.28-.88-.84-.88s-.84.42-.84.88c0 .48.28.92.84.92s.84-.44.84-.92m-.22 12.18v-9.42l-1.24.26V195Zm7.7-2.02c-.56.64-1.4 1.2-2.38 1.2-1.08 0-1.88-.62-1.88-1.6 0-1.22 1.12-1.92 4.26-2.28zm.08.92c.14.9.8 1.38 2 1.3l.08-1.02c-.8.02-.92-.26-.92-.92v-4.4c.02-2.32-1.16-3.28-3.28-3.28-1.2 0-2.58.52-3.4 1.1l.28 1.16c.78-.58 2-1.1 3-1.1 1.52 0 2.16.74 2.16 2.18v.54c-4.26.24-5.56 1.6-5.56 3.26 0 1.46 1.22 2.54 2.9 2.54 1.08 0 2.06-.6 2.68-1.36zm11.209 1.1v-6.28c0-2-1.08-3.14-2.92-3.14-.96 0-2.16.54-3.12 1.5v-1.5l-1.24.26V195h1.24v-6.94c.76-.76 1.78-1.3 2.78-1.3 1.38 0 2.02.72 2.02 2.32V195ZM406.241 105.462h1.098v-8.73l-3.24 1.188.054 1.026 2.088-.792zm5.196-.702c0-.486-.378-.9-.9-.9s-.9.414-.9.9.378.936.9.936.9-.45.9-.936m1.206-3.582c0 2.484 1.386 4.518 3.834 4.518 2.25 0 3.69-1.584 3.69-3.708 0-2.16-1.548-3.348-3.258-3.348-1.242 0-2.232.522-3.024 1.26l-.036-.018c.522-2.286 2.358-4.14 5.382-4.86l-.324-1.044c-4.266.99-6.264 4.212-6.264 7.2m1.17.234c0-.198.018-.414.054-.594.738-.702 1.728-1.188 2.826-1.188 1.314 0 2.34.9 2.34 2.412 0 1.53-.972 2.628-2.52 2.628-1.71 0-2.7-1.53-2.7-3.258m13.336-4.626c0-1.638-1.134-3.006-2.988-3.006-1.836 0-2.988 1.368-2.988 3.006 0 1.602 1.152 2.97 2.988 2.97 1.854 0 2.988-1.368 2.988-2.97m5.49-2.826h-.972l-9.126 11.772h.99zm1.35 8.946c0-1.602-1.152-2.97-2.988-2.97-1.854 0-2.988 1.368-2.988 2.97 0 1.638 1.134 3.006 2.988 3.006 1.836 0 2.988-1.368 2.988-3.006m-7.65-6.12c0 1.17-.81 2.196-2.178 2.196-1.35 0-2.16-1.026-2.16-2.196 0-1.242.81-2.232 2.16-2.232 1.368 0 2.178.99 2.178 2.232m6.84 6.12c0 1.242-.81 2.232-2.178 2.232-1.35 0-2.16-.99-2.16-2.232 0-1.17.81-2.196 2.16-2.196 1.368 0 2.178 1.026 2.178 2.196m14.323.954-6.39-9.648h-1.296v11.25h1.116v-9.63l6.444 9.738h1.242V94.212h-1.116zm8.179-.216c-.504.576-1.26 1.08-2.142 1.08-.972 0-1.692-.558-1.692-1.44 0-1.098 1.008-1.728 3.834-2.052zm.072.828c.126.81.72 1.242 1.8 1.17l.072-.918c-.72.018-.828-.234-.828-.828v-3.96c.018-2.088-1.044-2.952-2.952-2.952-1.08 0-2.322.468-3.06.99l.252 1.044c.702-.522 1.8-.99 2.7-.99 1.368 0 1.944.666 1.944 1.962v.486c-3.834.216-5.004 1.44-5.004 2.934 0 1.314 1.098 2.286 2.61 2.286.972 0 1.854-.54 2.412-1.224zm7.64.828-.198-.972c-.504.216-1.044.396-1.584.396-.864 0-1.242-.504-1.206-1.548l.126-4.932h2.736l.054-.99h-2.754l.054-1.926h-1.062l-.054 1.872-1.242.288-.054.702 1.26.072-.126 4.878c-.054 1.728.648 2.592 2.214 2.592.594 0 1.26-.162 1.836-.432m3.152-10.8c0-.414-.252-.792-.756-.792s-.756.378-.756.792c0 .432.252.828.756.828s.756-.396.756-.828m-.198 10.962v-8.478l-1.116.234v8.244zm8.892-8.244h-1.17l-2.52 6.804-2.61-6.804h-1.206l3.258 8.262h1.008zm1.871 4.158 5.58-.036c.108-.36.18-.882.18-1.314 0-1.854-1.188-3.042-3.006-3.042-2.232 0-3.888 1.836-3.888 4.428 0 2.502 1.602 4.284 3.978 4.284 1.026 0 1.944-.27 2.646-.702l-.216-1.026c-.63.414-1.494.684-2.394.684-1.728 0-2.844-1.332-2.88-3.186zm.072-.882c.18-1.368 1.134-2.502 2.61-2.502 1.296 0 1.98.864 1.98 2.124 0 .09 0 .27-.018.36zM421.908 75.221c0-2.628-1.872-4.482-4.356-4.482-2.466 0-4.32 1.854-4.32 4.482s1.854 4.482 4.32 4.482c2.484 0 4.356-1.854 4.356-4.482m-1.116 0c0 1.944-1.332 3.42-3.24 3.42-1.89 0-3.204-1.476-3.204-3.42s1.314-3.42 3.204-3.42c1.908 0 3.24 1.476 3.24 3.42m4.117 3.546c0-.486-.378-.9-.9-.9s-.9.414-.9.9.378.936.9.936.9-.45.9-.936m4.892-2.304c1.332-.504 2.466-1.566 2.466-2.952 0-1.62-1.242-2.772-3.24-2.772-1.224 0-2.376.54-3.186 1.188l.414.936c.774-.612 1.71-1.08 2.664-1.08 1.314 0 2.16.666 2.16 1.872 0 1.422-1.566 2.322-3.726 2.844v.918a9 9 0 0 1 1.638-.162c1.458.036 2.52.792 2.52 2.16 0 1.476-1.134 2.358-2.718 2.358-1.062 0-2.034-.324-2.646-.702l-.288 1.026c.702.432 1.854.702 2.898.702 2.16 0 3.924-1.35 3.924-3.474 0-1.44-1.062-2.718-2.88-2.862m9.485-5.67c0-1.638-1.134-3.006-2.988-3.006-1.836 0-2.988 1.368-2.988 3.006 0 1.602 1.152 2.97 2.988 2.97 1.854 0 2.988-1.368 2.988-2.97m5.49-2.826h-.972l-9.126 11.772h.99zm1.35 8.946c0-1.602-1.152-2.97-2.988-2.97-1.854 0-2.988 1.368-2.988 2.97 0 1.638 1.134 3.006 2.988 3.006 1.836 0 2.988-1.368 2.988-3.006m-7.65-6.12c0 1.17-.81 2.196-2.178 2.196-1.35 0-2.16-1.026-2.16-2.196 0-1.242.81-2.232 2.16-2.232 1.368 0 2.178.99 2.178 2.232m6.84 6.12c0 1.242-.81 2.232-2.178 2.232-1.35 0-2.16-.99-2.16-2.232 0-1.17.81-2.196 2.16-2.196 1.368 0 2.178 1.026 2.178 2.196m13.855-5.184c0-2.07-1.422-3.51-4.392-3.51h-2.826v11.25h1.152v-3.96l1.53-.018c2.79-.036 4.536-1.296 4.536-3.762m-1.188.054c0 1.746-1.152 2.592-3.276 2.628l-1.602.036v-5.166h1.638c2.106 0 3.24.9 3.24 2.502m7.374 5.868c-.504.576-1.26 1.08-2.142 1.08-.972 0-1.692-.558-1.692-1.44 0-1.098 1.008-1.728 3.834-2.052zm.072.828c.126.81.72 1.242 1.8 1.17l.072-.918c-.72.018-.828-.234-.828-.828v-3.96c.018-2.088-1.044-2.952-2.952-2.952-1.08 0-2.322.468-3.06.99l.252 1.044c.702-.522 1.8-.99 2.7-.99 1.368 0 1.944.666 1.944 1.962v.486c-3.834.216-5.004 1.44-5.004 2.934 0 1.314 1.098 2.286 2.61 2.286.972 0 1.854-.54 2.412-1.224zm9.584.522-.234-1.026a4.27 4.27 0 0 1-2.286.684c-1.746 0-2.916-1.314-2.916-3.33 0-1.962 1.116-3.294 2.898-3.294.864 0 1.656.252 2.286.666l.288-1.008c-.702-.45-1.566-.702-2.574-.702-2.34 0-4.05 1.8-4.05 4.374 0 2.556 1.548 4.338 4.032 4.338a4.93 4.93 0 0 0 2.556-.702m3.405-10.494c0-.414-.252-.792-.756-.792s-.756.378-.756.792c0 .432.252.828.756.828s.756-.396.756-.828m-.198 10.962v-8.478l-1.116.234v8.244zm9.216-10.962c0-.414-.27-.792-.756-.792-.504 0-.756.378-.756.792 0 .432.252.828.756.828.486 0 .756-.396.756-.828m-2.358-1.206c-.378-.18-.954-.36-1.512-.36-1.44 0-2.448.792-2.484 2.97l-.018 1.296-1.242.288-.072.702 1.332.09v7.182h1.098v-7.218h2.538l.054-.99h-2.592v-1.368c0-1.332.45-1.926 1.368-1.926.45 0 .882.162 1.26.342 0 .018.27-.99.27-1.008m2.16 12.168v-8.478l-1.116.234v8.244zm8.64-.468-.234-1.026a4.27 4.27 0 0 1-2.286.684c-1.746 0-2.916-1.314-2.916-3.33 0-1.962 1.116-3.294 2.898-3.294.864 0 1.656.252 2.286.666l.288-1.008c-.702-.45-1.566-.702-2.574-.702-2.34 0-4.05 1.8-4.05 4.374 0 2.556 1.548 4.338 4.032 4.338a4.93 4.93 0 0 0 2.556-.702m7.483.468v-11.25h-1.134v11.25zm7.732-2.25c0-1.53-1.26-2.07-2.43-2.412-1.062-.324-2.034-.612-2.034-1.548 0-.792.648-1.26 1.656-1.26.72 0 1.566.234 2.25.612l.324-1.008a5.64 5.64 0 0 0-2.502-.612c-1.548 0-2.79.882-2.79 2.376 0 1.44 1.26 1.998 2.394 2.34 1.026.324 2.07.612 2.07 1.602 0 .9-.864 1.386-1.854 1.386-.846 0-1.728-.288-2.43-.756l-.306 1.026c.702.45 1.728.738 2.7.738 1.656 0 2.952-.972 2.952-2.484m3.127 2.25V67.103l-1.116.234v12.132zm6.895-1.818c-.504.576-1.26 1.08-2.142 1.08-.972 0-1.692-.558-1.692-1.44 0-1.098 1.008-1.728 3.834-2.052zm.072.828c.126.81.72 1.242 1.8 1.17l.072-.918c-.72.018-.828-.234-.828-.828v-3.96c.018-2.088-1.044-2.952-2.952-2.952-1.08 0-2.322.468-3.06.99l.252 1.044c.702-.522 1.8-.99 2.7-.99 1.368 0 1.944.666 1.944 1.962v.486c-3.834.216-5.004 1.44-5.004 2.934 0 1.314 1.098 2.286 2.61 2.286.972 0 1.854-.54 2.412-1.224zm10.088.99v-5.652c0-1.8-.972-2.826-2.628-2.826-.864 0-1.944.486-2.808 1.35v-1.35l-1.116.234v8.244h1.116v-6.246c.684-.684 1.602-1.17 2.502-1.17 1.242 0 1.818.648 1.818 2.088v5.328zm8.08-7.974a5 5 0 0 0-1.998-.45c-2.376 0-4.086 1.818-4.086 4.374 0 2.502 1.476 4.284 3.69 4.284 1.026 0 1.854-.504 2.394-1.008v.774h1.116V67.103l-1.116.234zm0 1.188v5.076c-.576.54-1.35.918-2.196.918-1.674 0-2.736-1.368-2.736-3.276 0-1.944 1.116-3.348 2.88-3.348.792 0 1.548.234 2.052.63m4.296 2.7 5.58-.036c.108-.36.18-.882.18-1.314 0-1.854-1.188-3.042-3.006-3.042-2.232 0-3.888 1.836-3.888 4.428 0 2.502 1.602 4.284 3.978 4.284 1.026 0 1.944-.27 2.646-.702l-.216-1.026c-.63.414-1.494.684-2.394.684-1.728 0-2.844-1.332-2.88-3.186zm.072-.882c.18-1.368 1.134-2.502 2.61-2.502 1.296 0 1.98.864 1.98 2.124 0 .09 0 .27-.018.36zm8.905-.324c.648-1.476 1.458-2.124 2.322-2.124.468 0 .9.144 1.26.36l.288-1.044a3 3 0 0 0-1.44-.378c-1.08 0-1.89.702-2.43 1.764v-1.764l-1.116.234v8.244h1.116zM425.614 56.725v-1.062h-4.86c2.43-1.836 4.446-3.114 4.446-5.076 0-1.53-1.206-2.592-2.952-2.592-1.206 0-2.214.468-3.06 1.134l.396.954c.792-.612 1.656-1.044 2.556-1.044 1.17 0 1.89.738 1.89 1.692 0 1.44-1.872 2.718-4.86 4.968v1.026zm3.23-.702c0-.486-.378-.9-.9-.9s-.9.414-.9.9.378.936.9.936.9-.45.9-.936m9.848-3.546c0-2.628-1.872-4.482-4.356-4.482-2.466 0-4.32 1.854-4.32 4.482s1.854 4.482 4.32 4.482c2.484 0 4.356-1.854 4.356-4.482m-1.116 0c0 1.944-1.332 3.42-3.24 3.42-1.89 0-3.204-1.476-3.204-3.42s1.314-3.42 3.204-3.42c1.908 0 3.24 1.476 3.24 3.42m8.229-4.428c0-1.638-1.134-3.006-2.988-3.006-1.836 0-2.988 1.368-2.988 3.006 0 1.602 1.152 2.97 2.988 2.97 1.854 0 2.988-1.368 2.988-2.97m5.49-2.826h-.972l-9.126 11.772h.99zm1.35 8.946c0-1.602-1.152-2.97-2.988-2.97-1.854 0-2.988 1.368-2.988 2.97 0 1.638 1.134 3.006 2.988 3.006 1.836 0 2.988-1.368 2.988-3.006m-7.65-6.12c0 1.17-.81 2.196-2.178 2.196-1.35 0-2.16-1.026-2.16-2.196 0-1.242.81-2.232 2.16-2.232 1.368 0 2.178.99 2.178 2.232m6.84 6.12c0 1.242-.81 2.232-2.178 2.232-1.35 0-2.16-.99-2.16-2.232 0-1.17.81-2.196 2.16-2.196 1.368 0 2.178 1.026 2.178 2.196m17.112-3.114c0-3.474-2.394-5.814-5.526-5.814-3.222 0-5.544 2.448-5.544 5.886 0 3.474 2.394 5.832 5.526 5.832 3.222 0 5.544-2.466 5.544-5.904m-1.17.072c0 2.844-1.818 4.806-4.32 4.806-2.556 0-4.41-1.98-4.41-4.878 0-2.844 1.818-4.788 4.338-4.788 2.556 0 4.392 1.962 4.392 4.86m7.416 5.436-.198-.972c-.504.216-1.044.396-1.584.396-.864 0-1.242-.504-1.206-1.548l.126-4.932h2.736l.054-.99h-2.754l.054-1.926h-1.062l-.054 1.872-1.242.288-.054.702 1.26.072-.126 4.878c-.054 1.728.648 2.592 2.214 2.592.594 0 1.26-.162 1.836-.432m8.372.162v-5.652c0-1.8-.972-2.826-2.574-2.826-.918 0-1.998.45-2.862 1.314v-5.202l-1.116.234v12.132h1.116v-6.246c.684-.684 1.602-1.17 2.556-1.17 1.188 0 1.764.648 1.764 2.088v5.328zm3.13-4.086 5.58-.036c.108-.36.18-.882.18-1.314 0-1.854-1.188-3.042-3.006-3.042-2.232 0-3.888 1.836-3.888 4.428 0 2.502 1.602 4.284 3.978 4.284 1.026 0 1.944-.27 2.646-.702l-.216-1.026c-.63.414-1.494.684-2.394.684-1.728 0-2.844-1.332-2.88-3.186zm.072-.882c.18-1.368 1.134-2.502 2.61-2.502 1.296 0 1.98.864 1.98 2.124 0 .09 0 .27-.018.36zm8.905-.324c.648-1.476 1.458-2.124 2.322-2.124.468 0 .9.144 1.26.36l.288-1.044a3 3 0 0 0-1.44-.378c-1.08 0-1.89.702-2.43 1.764v-1.764l-1.116.234v8.244h1.116zM296.492 163.782h1.22v-9.7l-3.6 1.32.06 1.14 2.32-.88zm5.383-4.16.58-4.1h4.98l-.06-1.2h-5.94l-.8 6.16.42.4c.72-.24 1.22-.38 2.38-.38 1.88 0 3.02 1.26 3.02 2.78 0 1.84-1.3 3.02-3.06 3.02-1.1 0-2.2-.42-3-.86l-.24 1.22c.8.46 2.06.82 3.2.82 2.44 0 4.36-1.74 4.36-4.26 0-2.22-1.64-3.8-4.16-3.8-.76 0-1.22.08-1.68.2m9.355 3.38c0-.54-.42-1-1-1s-1 .46-1 1 .42 1.04 1 1.04 1-.5 1-1.04m5.435-2.56c1.48-.56 2.74-1.74 2.74-3.28 0-1.8-1.38-3.08-3.6-3.08-1.36 0-2.64.6-3.54 1.32l.46 1.04c.86-.68 1.9-1.2 2.96-1.2 1.46 0 2.4.74 2.4 2.08 0 1.58-1.74 2.58-4.14 3.16v1.02c.64-.12 1.24-.18 1.82-.18 1.62.04 2.8.88 2.8 2.4 0 1.64-1.26 2.62-3.02 2.62-1.18 0-2.26-.36-2.94-.78l-.32 1.14c.78.48 2.06.78 3.22.78 2.4 0 4.36-1.5 4.36-3.86 0-1.6-1.18-3.02-3.2-3.18m10.539-6.3c0-1.82-1.26-3.34-3.32-3.34-2.04 0-3.32 1.52-3.32 3.34 0 1.78 1.28 3.3 3.32 3.3 2.06 0 3.32-1.52 3.32-3.3m6.1-3.14h-1.08l-10.14 13.08h1.1zm1.5 9.94c0-1.78-1.28-3.3-3.32-3.3-2.06 0-3.32 1.52-3.32 3.3 0 1.82 1.26 3.34 3.32 3.34 2.04 0 3.32-1.52 3.32-3.34m-8.5-6.8c0 1.3-.9 2.44-2.42 2.44-1.5 0-2.4-1.14-2.4-2.44 0-1.38.9-2.48 2.4-2.48 1.52 0 2.42 1.1 2.42 2.48m7.6 6.8c0 1.38-.9 2.48-2.42 2.48-1.5 0-2.4-1.1-2.4-2.48 0-1.3.9-2.44 2.4-2.44 1.52 0 2.42 1.14 2.42 2.44m14.834 2.84v-1.2h-6.18v-11.3h-1.28v12.5zm6.711-2.02c-.56.64-1.4 1.2-2.38 1.2-1.08 0-1.88-.62-1.88-1.6 0-1.22 1.12-1.92 4.26-2.28zm.08.92c.14.9.8 1.38 2 1.3l.08-1.02c-.8.02-.92-.26-.92-.92v-4.4c.02-2.32-1.16-3.28-3.28-3.28-1.2 0-2.58.52-3.4 1.1l.28 1.16c.78-.58 2-1.1 3-1.1 1.52 0 2.16.74 2.16 2.18v.54c-4.26.24-5.56 1.6-5.56 3.26 0 1.46 1.22 2.54 2.9 2.54 1.08 0 2.06-.6 2.68-1.36zm8.489.92-.22-1.08c-.56.24-1.16.44-1.76.44-.96 0-1.38-.56-1.34-1.72l.14-5.48h3.04l.06-1.1h-3.06l.06-2.14h-1.18l-.06 2.08-1.38.32-.06.78 1.4.08-.14 5.42c-.06 1.92.72 2.88 2.46 2.88.66 0 1.4-.18 2.04-.48m3.502-12c0-.46-.28-.88-.84-.88s-.84.42-.84.88c0 .48.28.92.84.92s.84-.44.84-.92m-.22 12.18v-9.42l-1.24.26v9.16zm10.199 0v-6.28c0-2-1.08-3.14-2.92-3.14-.96 0-2.16.54-3.12 1.5v-1.5l-1.24.26v9.16h1.24v-6.94c.76-.76 1.78-1.3 2.78-1.3 1.38 0 2.02.72 2.02 2.32v5.92zm9.178 0-3.16-4.74 2.92-4.42h-1.38l-2.24 3.56-2.28-3.56h-1.38l2.96 4.46-3.16 4.7h1.4l2.46-3.86 2.48 3.86z"/><path fill="#c33" d="M252 0H1v36h251z"/><path fill="#e08585" d="M407 0h-39v36h39z"/><path fill="#d65c5c" d="M368 0h-59v36h59z"/><path fill="#992626" d="M309 0h-57v36h57z"/><path fill="#ffc1c1" d="M414 0h-7v36h7z"/><path fill="#ffe6e6" d="M426 0h-8v36h8z"/><path fill="#ffd3d3" d="M418 0h-4v36h4z"/><path stroke="#e08585" d="M368.5 27v87"/><path stroke="#d65c5c" d="M309.5 26.523v116"/><path stroke="#992626" d="M252.5 31v143"/><path stroke="#ffc1c1" d="M407.5 26.523v67"/><path stroke="#ffd3d3" d="M417.5 30.523v36"/><path stroke="#ffe5e5" d="M425.5 28.523v15"/></svg>