<svg xmlns="http://www.w3.org/2000/svg" width="25" height="26" fill="currentColor"><path fill="#fff" d="M24.615 18.38v5.448c0 .108-.016.21-.04.302a1.17 1.17 0 0 1-1.139.938H1.171a1.17 1.17 0 0 1-1.155-1.04A1 1 0 0 1 0 23.82v-5.448c0-.643.527-1.162 1.163-1.162a1.164 1.164 0 0 1 1.162 1.162v4.363h19.972v-4.363c0-.643.527-1.162 1.163-1.162.317 0 .612.132.82.341.203.217.335.511.335.83"/><path fill="#fff" d="M19.012 12.923 13.3 18.635c-.007.016-.023.023-.031.031-.21.21-.48.342-.752.38-.023 0-.046.008-.07.008q-.07.009-.14.007l-.132-.007c-.023 0-.046-.007-.07-.007a1.32 1.32 0 0 1-.752-.38l-.031-.032-5.712-5.712a1.35 1.35 0 0 1-.395-.962c0-.348.132-.697.395-.961a1.366 1.366 0 0 1 1.921 0l3.433 3.433.004-12.577c0-.743.613-1.356 1.356-1.356.372 0 .713.155.962.395.248.248.394.581.394.961v12.578l3.433-3.433a1.366 1.366 0 0 1 1.922 0 1.39 1.39 0 0 1-.023 1.922"/></svg>