<svg xmlns="http://www.w3.org/2000/svg" width="530" height="140" fill="none"><path fill="#112353" d="M1.714 64.484c0 5.544 3.06 9.864 8.496 9.864 5.22 0 8.352-3.492 8.352-7.992 0-4.356-2.952-7.056-6.696-7.056-2.556 0-4.356.936-5.688 2.232l-.108-.072c1.116-3.96 4.968-6.48 10.008-7.524l-1.116-3.672c-8.568 1.584-13.248 7.668-13.248 14.22m4.464 1.368c0-.54.036-1.152.144-1.62.828-.72 2.412-1.548 4.104-1.548 2.268 0 3.816 1.584 3.816 3.996 0 2.52-1.512 4.212-3.888 4.212-2.628 0-4.176-2.376-4.176-5.04m32.975 7.704-.108-3.564h-3.42v-13.68h-4.32L20.613 71l.468 2.556h10.512v6.696h4.032v-6.696zm-7.416-3.528h-6.372l6.372-8.964zM52.432 56.6c0-3.528-2.304-6.156-6.156-6.156-3.816 0-6.156 2.628-6.156 6.156 0 3.456 2.304 6.084 6.12 6.084 3.852 0 6.192-2.628 6.192-6.084m12.024-5.796h-3.204L42.964 74.348h3.204zm2.808 17.748c0-3.456-2.304-6.084-6.12-6.084-3.852 0-6.156 2.628-6.156 6.084 0 3.528 2.268 6.156 6.12 6.156 3.816 0 6.156-2.628 6.156-6.156M49.588 56.6c0 2.124-1.26 3.708-3.312 3.708-2.088 0-3.348-1.584-3.348-3.708 0-2.196 1.26-3.78 3.348-3.78 2.052 0 3.312 1.548 3.312 3.78M64.42 68.552c0 2.232-1.26 3.78-3.276 3.78-2.088 0-3.348-1.548-3.348-3.78 0-2.088 1.26-3.708 3.312-3.708s3.312 1.584 3.312 3.708M302.421 68.616c2.484-.936 4.536-2.988 4.536-5.652 0-3.456-2.952-5.796-7.416-5.796-2.916 0-5.292 1.008-7.128 2.376l1.152 3.276c1.62-1.188 3.384-2.016 5.148-2.016 2.34 0 3.672 1.044 3.672 2.88 0 2.592-3.24 3.672-6.66 4.392v3.276a15.3 15.3 0 0 1 3.096-.216c2.844.072 4.5 1.152 4.5 3.276 0 2.376-1.836 3.636-4.572 3.6-2.124 0-4.248-.648-5.76-1.62l-.612 3.636c1.728.936 4.104 1.512 6.588 1.512 4.824 0 8.748-2.664 8.748-7.236 0-2.628-1.764-5.112-5.292-5.688m7.416-3.132c0 5.544 3.06 9.864 8.496 9.864 5.22 0 8.352-3.492 8.352-7.992 0-4.356-2.952-7.056-6.696-7.056-2.556 0-4.356.936-5.688 2.232l-.108-.072c1.116-3.96 4.968-6.48 10.008-7.524l-1.116-3.672c-8.568 1.584-13.248 7.668-13.248 14.22m4.464 1.368c0-.54.036-1.152.144-1.62.828-.72 2.412-1.548 4.104-1.548 2.268 0 3.816 1.584 3.816 3.996 0 2.52-1.512 4.212-3.888 4.212-2.628 0-4.176-2.376-4.176-5.04m26.531-9.252c0-3.528-2.304-6.156-6.156-6.156-3.816 0-6.156 2.628-6.156 6.156 0 3.456 2.304 6.084 6.12 6.084 3.852 0 6.192-2.628 6.192-6.084m12.024-5.796h-3.204l-18.288 23.544h3.204zm2.808 17.748c0-3.456-2.304-6.084-6.12-6.084-3.852 0-6.156 2.628-6.156 6.084 0 3.528 2.268 6.156 6.12 6.156 3.816 0 6.156-2.628 6.156-6.156M337.988 57.6c0 2.124-1.26 3.708-3.312 3.708-2.088 0-3.348-1.584-3.348-3.708 0-2.196 1.26-3.78 3.348-3.78 2.052 0 3.312 1.548 3.312 3.78m14.832 11.952c0 2.232-1.26 3.78-3.276 3.78-2.088 0-3.348-1.548-3.348-3.78 0-2.088 1.26-3.708 3.312-3.708s3.312 1.584 3.312 3.708M87.826 74.808h1.3l-.4-12.5h-1.7l-4.16 11.04-4.22-11.04h-1.72l-.42 12.5h1.26l.22-10.94 4.14 10.86h1.4l4.1-10.84zm4.695-4.54 6.2-.04c.12-.4.2-.98.2-1.46 0-2.06-1.32-3.38-3.34-3.38-2.48 0-4.32 2.04-4.32 4.92 0 2.78 1.78 4.76 4.42 4.76 1.14 0 2.16-.3 2.94-.78l-.24-1.14c-.7.46-1.66.76-2.66.76-1.92 0-3.16-1.48-3.2-3.54zm.08-.98c.2-1.52 1.26-2.78 2.9-2.78 1.44 0 2.2.96 2.2 2.36 0 .1 0 .3-.02.4zm15.934 5.52v-6.28c0-2-1.08-3.14-2.92-3.14-.96 0-2.16.54-3.12 1.5v-1.5l-1.24.26v9.16h1.24v-6.94c.76-.76 1.78-1.3 2.78-1.3 1.38 0 2.02.72 2.02 2.32v5.92zM371.23 62.808l3.36 11h1.24l3.5-12.5h-1.28l-2.8 10.68-3.24-10.68h-1.52l-3.18 10.68-2.92-10.68h-1.32l3.56 12.5h1.22zm17.773 6.4c0-2.94-1.84-4.82-4.4-4.82s-4.52 1.94-4.52 4.86c0 2.94 1.88 4.82 4.42 4.82s4.5-1.94 4.5-4.86m-1.22.04c0 2.16-1.28 3.7-3.22 3.7s-3.24-1.5-3.24-3.74c0-2.16 1.28-3.7 3.22-3.7s3.24 1.5 3.24 3.74m16.205 4.56v-6.26c0-2.02-1.08-3.16-2.82-3.16-1.06 0-2.22.5-3.24 1.52-.44-1.02-1.34-1.52-2.48-1.52-.94 0-1.96.4-2.9 1.26v-1.26l-1.24.26v9.16h1.24v-7.18c.7-.62 1.58-1.06 2.54-1.06 1.32 0 1.94.74 1.94 2.34v5.9h1.24v-6.24c0-.22-.02-.7-.04-.82.7-.66 1.6-1.18 2.58-1.18 1.32 0 1.94.74 1.94 2.34v5.9zm3.487-4.54 6.2-.04c.12-.4.2-.98.2-1.46 0-2.06-1.32-3.38-3.34-3.38-2.48 0-4.32 2.04-4.32 4.92 0 2.78 1.78 4.76 4.42 4.76 1.14 0 2.16-.3 2.94-.78l-.24-1.14c-.7.46-1.66.76-2.66.76-1.92 0-3.16-1.48-3.2-3.54zm.08-.98c.2-1.52 1.26-2.78 2.9-2.78 1.44 0 2.2.96 2.2 2.36 0 .1 0 .3-.02.4zm15.935 5.52v-6.28c0-2-1.08-3.14-2.92-3.14-.96 0-2.16.54-3.12 1.5v-1.5l-1.24.26v9.16h1.24v-6.94c.76-.76 1.78-1.3 2.78-1.3 1.38 0 2.02.72 2.02 2.32v5.92z"/><path fill="#006ac3" d="M270.059-.192h-270v36h270Z"/><path fill="#112353" d="M424.059-.192h-154v36h154z"/></svg>