<svg xmlns="http://www.w3.org/2000/svg" width="64" height="67" fill="none"><rect width="64" height="67" rx="32"/><path fill="#C33" d="M47.412 41.694c-4.758-2.106-6.24-3.51-6.24-5.538 0-2.652 2.964-5.616 7.8-9.048l-3.978-3.666c-6.318 3.744-12.402 8.736-12.402 15.6 0 4.68 3.666 8.502 8.034 8.502 3.822 0 6.396-2.496 6.786-5.85m-18.798 0c-4.758-2.106-6.24-3.51-6.24-5.538 0-2.652 2.964-5.616 7.8-9.048l-3.978-3.666c-6.318 3.744-12.402 8.736-12.402 15.6 0 4.68 3.666 8.502 8.034 8.502 3.822 0 6.396-2.496 6.786-5.85"/></svg>