<svg xmlns="http://www.w3.org/2000/svg" xml:space="preserve" id="Layer_1" x="0" y="0" version="1.1" viewBox="0 0 621.9 228.6"><style>.st1{fill:#0042e1}</style><path d="M254.9 228.6c-1.5 0-2.7-.4-3.5-1.2s-1.5-1.5-2-2.1l-4.9-6.5c-3.8 1.3-8 1.9-12.9 1.9-8.9 0-16.5-1.4-23-4.3s-11.6-7.2-15.3-13.1q-5.55-8.7-6-21.9c-.1-4.1-.1-8.3-.1-12.4s0-8.3.1-12.6c.3-8.7 2.3-16 6.1-21.9s8.9-10.4 15.5-13.4c6.5-3 14.2-4.5 22.8-4.5 8.8 0 16.4 1.5 23 4.5 6.5 3 11.7 7.4 15.5 13.4 3.8 5.9 5.8 13.2 6.1 21.9q.3 6.3.3 12.6c0 4.1-.1 8.3-.3 12.4-.6 11.9-4 21.2-10.4 27.7l10.5 15q.15.15.3.6c.1.3.1.6.1.9.1.8-.1 1.5-.7 2.1s-1.3.9-2.2.9zm-23.3-28.7c5.1 0 9.3-1.5 12.5-4.6q4.8-4.65 5.1-14.7.3-6.3.3-12t-.3-11.7c-.1-4.5-.9-8.2-2.5-11.1-1.5-2.8-3.6-4.9-6.2-6.3-2.6-1.3-5.6-2-9-2-3.3 0-6.2.7-8.8 2s-4.7 3.4-6.2 6.3c-1.5 2.8-2.4 6.5-2.5 11.1-.1 4-.1 7.9-.1 11.7s0 7.8.1 12c.2 6.7 1.9 11.7 5.1 14.7 3.4 3.1 7.5 4.6 12.5 4.6M335.6 220.7c-8.7 0-16.3-1.4-22.8-4.3s-11.5-7.2-15.1-13.1-5.3-13.5-5.3-22.6v-59c0-1.1.3-1.9 1-2.6s1.5-1 2.6-1h18.6c1.1 0 1.9.3 2.6 1s1 1.5 1 2.6v58.8c0 6.3 1.5 11 4.6 14.1 3 3.1 7.3 4.7 12.8 4.7 5.4 0 9.6-1.6 12.6-4.7s4.6-7.8 4.6-14.1v-58.8c0-1.1.4-1.9 1.1-2.6s1.6-1 2.5-1h18.8c1 0 1.8.3 2.5 1s1.1 1.5 1.1 2.6v59c0 9.2-1.8 16.7-5.3 22.6-3.6 5.9-8.6 10.3-15 13.1-6.5 2.9-14.1 4.3-22.9 4.3M401.7 219.3c-1.1 0-1.9-.3-2.6-1s-1-1.5-1-2.6v-93.9c0-1.1.3-1.9 1-2.6s1.5-1 2.6-1H421c1.1 0 1.9.3 2.6 1s1 1.5 1 2.6v93.9c0 1.1-.3 1.9-1 2.6s-1.5 1-2.6 1zM470.7 219.3c-1.1 0-1.9-.3-2.6-1s-1-1.5-1-2.6v-74.8h-25.7c-1.1 0-1.9-.4-2.6-1.1s-1-1.6-1-2.5v-15.5c0-1.1.3-1.9 1-2.6s1.5-1 2.6-1h77.7c1.1 0 1.9.3 2.6 1s1 1.5 1 2.6v15.5c0 1-.3 1.8-1 2.5s-1.5 1.1-2.6 1.1h-25.7v74.8c0 1.1-.3 1.9-1 2.6s-1.5 1-2.6 1zM565.5 219.3c-1 0-1.8-.3-2.5-1s-1.1-1.5-1.1-2.6v-31.1l-33.5-61.8c-.1-.3-.2-.6-.3-.8s-.1-.5-.1-.8q0-1.2.9-2.1c.6-.6 1.4-.9 2.2-.9h18.1c1.4 0 2.6.4 3.4 1.1s1.3 1.4 1.5 2l20.8 37.3 20.8-37.3c.3-.6.8-1.2 1.7-2 .8-.7 2-1.1 3.4-1.1h18.1c.9 0 1.6.3 2.2.9q.9.9.9 2.1c0 .3 0 .6-.1.8s-.1.5-.2.8L588 184.6v31.1c0 1.1-.3 1.9-1 2.6s-1.5 1-2.6 1zM172.9 199.5c-.7-.7-1.5-1-2.6-1h-47.2v-20.1H166c1.1 0 1.9-.4 2.6-1.1s1-1.6 1-2.5v-12.6c0-1.1-.3-2-1-2.7s-1.5-1.1-2.6-1.1h-63.6c-2.4 0-4.4 2-4.4 4.4v52.8c0 1.1.3 1.9 1 2.6s1.5 1 2.6 1h68.6c1.1 0 1.9-.3 2.6-1s1-1.5 1-2.6V202c.2-1-.2-1.9-.9-2.5M149.6 138.9h20.9c1.1 0 1.9-.3 2.6-1s1-1.5 1-2.6v-13.6c0-1.1-.3-1.9-1-2.6s-1.5-1-2.6-1h-68.7c-1.1 0-1.9.3-2.6 1s-1 1.5-1 2.6V136c0 1.6 1.3 2.9 2.9 2.9h48.5M32.9 102.6c-1.1 0-1.9-.3-2.6-1s-1-1.5-1-2.6V24.1H3.6c-1.1 0-1.9-.4-2.6-1.1s-1-1.6-1-2.5V5.1c0-1.1.3-2 1-2.6.7-.7 1.5-1 2.6-1h77.7c1.1 0 1.9.3 2.6 1s1 1.5 1 2.6v15.5c0 1-.3 1.8-1 2.5s-1.5 1.1-2.6 1.1H55.6V99c0 1.1-.3 1.9-1 2.6s-1.5 1-2.6 1zM231.9 104c-9.2 0-17-1.5-23.5-4.5s-11.6-7.4-15.2-13.1c-3.6-5.8-5.6-13-6-21.5-.1-3.9-.1-8.2-.1-12.7s0-8.9.1-13c.4-8.4 2.4-15.5 6.1-21.3s8.8-10.3 15.3-13.3S222.9 0 231.9 0c6.4 0 12.2.8 17.6 2.4s10.1 3.9 14.2 6.9c4 3 7.2 6.7 9.5 11s3.4 9.1 3.5 14.5c.1.9-.2 1.6-.8 2.2s-1.4.9-2.2.9h-19.5c-1.3 0-2.2-.3-2.9-.8s-1.3-1.5-1.7-3c-1.4-5.1-3.5-8.6-6.6-10.5-3-1.9-6.8-2.8-11.2-2.8-5.3 0-9.5 1.5-12.6 4.4q-4.65 4.35-5.1 14.7-.45 11.85 0 24.3.45 10.2 5.1 14.7c3.1 2.9 7.3 4.4 12.6 4.4 4.4 0 8.2-1 11.3-2.9s5.2-5.4 6.5-10.4c.4-1.4.9-2.4 1.7-3 .7-.5 1.7-.8 3-.8h19.5c.9 0 1.6.3 2.2.9s.9 1.3.8 2.2c-.1 5.4-1.3 10.2-3.5 14.5-2.3 4.3-5.4 7.9-9.5 11s-8.8 5.3-14.2 6.9c-5.5 1.5-11.3 2.3-17.7 2.3M295.5 102.6c-1.1 0-1.9-.3-2.6-1s-1-1.5-1-2.6V5.1c0-1.1.3-1.9 1-2.6s1.5-1 2.6-1h18.6c1.1 0 1.9.3 2.6 1s1 1.5 1 2.6v34.8h35.7V5.1c0-1.1.3-1.9 1-2.6s1.5-1 2.6-1h18.6c1.1 0 1.9.3 2.6 1s1 1.5 1 2.6V99c0 1.1-.3 1.9-1 2.6s-1.5 1-2.6 1H357c-1.1 0-1.9-.3-2.6-1s-1-1.5-1-2.6V63h-35.7v36c0 1.1-.3 1.9-1 2.6s-1.5 1-2.6 1zM136 61.7h30c1.1 0 1.9-.4 2.6-1.1s1-1.6 1-2.5V45.5c0-1.1-.3-2-1-2.7s-1.5-1.1-2.6-1.1h-42.9V22.2h47.4c1.1 0 1.9-.3 2.6-1s1-1.5 1-2.6V5.1c0-1.1-.3-1.9-1-2.6s-1.5-1-2.6-1h-68.7c-1.1 0-1.9.3-2.6 1s-1 1.5-1 2.6v52.2c0 2.4 2 4.4 4.4 4.4H136M172.9 82.8c-.7-.7-1.5-1-2.6-1H102c-2.1 0-3.9 1.7-3.9 3.9V99c0 1.1.3 1.9 1 2.6s1.5 1 2.6 1h68.6c1.1 0 1.9-.3 2.6-1s1-1.5 1-2.6V85.4c.1-1.1-.3-1.9-1-2.6" class="st1"/><path d="M172.9 82.8c-.7-.7-1.5-1-2.6-1H102c-2.1 0-3.9 1.7-3.9 3.9V99c0 1.1.3 1.9 1 2.6s1.5 1 2.6 1h68.6c1.1 0 1.9-.3 2.6-1s1-1.5 1-2.6V85.4c.1-1.1-.3-1.9-1-2.6" class="st1"/></svg>