<svg xmlns="http://www.w3.org/2000/svg" width="26" height="37" fill="none"><path fill="#FFDFD0" d="M24.384 4.422a1.77 1.77 0 0 0-1.982 1.564l-.954 8.007c-.038.306-.266.496-.572.496h-.038c-.306 0-.534-.266-.534-.572l.458-10.41a1.79 1.79 0 0 0-1.716-1.867 1.79 1.79 0 0 0-1.868 1.716l-.457 10.41c0 .305-.267.533-.572.533-.267 0-.496-.23-.533-.534L14.853 1.68C14.777.687 13.94-.037 12.947 0c-.992.076-1.716.915-1.677 1.907l.723 11.59a.506.506 0 0 1-.572.573h-.19c-.267 0-.457-.191-.533-.458L9.058 4.12c-.152-.992-1.105-1.601-2.059-1.45A1.747 1.747 0 0 0 5.55 4.73s1.41 7.74 1.64 9.38.305 2.594.381 4.08c.039.839-.648 1.373-1.486.572 0 0-1.525-1.868-2.403-2.784-.877-.914-1.83-1.22-2.745-.648a1.97 1.97 0 0 0-.572 2.821s3.852 6.33 6.253 8.96c.762.84 1.677 1.678 2.708 2.098l.493 5.68c.076.762.686 1.334 1.449 1.334h7.855c.763 0 1.41-.572 1.45-1.335l.496-5.834c2.287-1.029 2.44-4.233 2.898-7.55.57-4.04 1.981-15.098 1.981-15.098a1.796 1.796 0 0 0-1.564-1.983"/></svg>