<svg width="26" height="37" viewBox="0 0 26 37" fill="none" xmlns="http://www.w3.org/2000/svg">
<path d="M24.384 4.42201C23.392 4.30733 22.5163 4.99396 22.4016 5.98594L21.4483 13.9932C21.4096 14.2985 21.1817 14.4892 20.8764 14.4892H20.8376C20.5323 14.4892 20.3044 14.2226 20.3044 13.9172L20.7617 3.50743C20.8004 2.51545 20.0378 1.6769 19.0459 1.63969C18.0539 1.60096 17.2153 2.36354 17.1781 3.35553L16.7209 13.7653C16.7209 14.0707 16.4542 14.2985 16.1489 14.2985C15.8823 14.2985 15.6529 14.0691 15.6157 13.7653L14.8531 1.67858C14.7772 0.686599 13.9386 -0.0372556 12.9466 0.00148419C11.9546 0.0774462 11.2308 0.915987 11.2695 1.90797L11.9934 13.4986C12.0321 13.8412 11.764 14.1093 11.4214 14.0706H11.2308C10.9642 14.0706 10.7735 13.8799 10.6976 13.6133L9.0577 4.1198C8.90578 3.12781 7.95255 2.51865 6.99931 2.67056C6.00733 2.82249 5.35943 3.77571 5.55008 4.72896C5.55008 4.72896 6.96057 12.4697 7.18996 14.1096C7.41933 15.7495 7.49529 16.7028 7.57126 18.1891C7.60998 19.0277 6.92336 19.5624 6.08481 18.7611C6.08481 18.7611 4.55962 16.8933 3.68233 15.9773C2.80504 15.0628 1.8518 14.7575 0.937299 15.3294C-0.0546831 15.9401 -0.282546 17.2359 0.365354 18.1504C0.365354 18.1504 4.21722 24.4807 6.61786 27.1109C7.38046 27.9494 8.29496 28.788 9.32568 29.208L9.8187 34.8874C9.89466 35.65 10.5053 36.222 11.2679 36.222H19.1234C19.886 36.222 20.5339 35.65 20.5726 34.8874L21.0686 29.0532C23.3564 28.024 23.5083 24.82 23.9671 21.5031C24.5376 17.4621 25.9481 6.40453 25.9481 6.40453C26.0627 5.41255 25.3374 4.5353 24.3841 4.42209L24.384 4.42201Z" fill="#93614B"/>
</svg>
