<svg width="557" height="199" viewBox="0 0 557 199" fill="none" xmlns="http://www.w3.org/2000/svg">
<path d="M0.492676 65.736C0.492676 71.28 3.55268 75.6 8.98869 75.6C14.2086 75.6 17.3406 72.108 17.3406 67.608C17.3406 63.252 14.3886 60.552 10.6446 60.552C8.08868 60.552 6.28868 61.488 4.95668 62.784L4.84868 62.712C5.96468 58.752 9.81665 56.232 14.8566 55.188L13.7406 51.516C5.17268 53.1 0.492676 59.184 0.492676 65.736ZM4.95668 67.104C4.95668 66.564 4.99268 65.952 5.10068 65.484C5.92868 64.764 7.51268 63.936 9.20465 63.936C11.4726 63.936 13.0206 65.52 13.0206 67.932C13.0206 70.452 11.5086 72.144 9.13265 72.144C6.50468 72.144 4.95668 69.768 4.95668 67.104V67.104ZM24.3955 67.068L25.1155 61.632H33.9715L33.8635 57.924H21.6595L20.1475 70.092L20.9395 70.884C22.1635 70.488 23.4595 70.236 25.4035 70.236C28.6795 70.236 30.2635 72 30.2635 74.088C30.2635 76.608 28.4275 78.156 25.7635 78.156C23.7475 78.156 21.3355 77.328 19.8595 76.572L19.3195 80.352C21.0115 81.216 23.5675 81.792 25.8355 81.792C30.8755 81.792 34.4395 78.516 34.4395 73.8C34.4395 69.804 31.5235 66.924 26.5195 66.924C25.5115 66.924 24.9715 67.032 24.3955 67.068V67.068ZM42.8537 72.792C42.8537 71.208 41.7017 70.02 40.0457 70.02C38.3537 70.02 37.1657 71.208 37.1657 72.792C37.1657 74.376 38.3537 75.6 40.0457 75.6C41.7017 75.6 42.8537 74.376 42.8537 72.792ZM54.6709 68.868C57.1549 67.932 59.2069 65.88 59.2069 63.216C59.2069 59.76 56.2549 57.42 51.7909 57.42C48.8749 57.42 46.4989 58.428 44.6629 59.796L45.8149 63.072C47.4349 61.884 49.1989 61.056 50.9629 61.056C53.3029 61.056 54.6349 62.1 54.6349 63.936C54.6349 66.528 51.3949 67.608 47.9749 68.328V71.604C49.0189 71.424 50.0989 71.352 51.0709 71.388C53.9149 71.46 55.5709 72.54 55.5709 74.664C55.5709 77.04 53.7349 78.3 50.9989 78.264C48.8749 78.264 46.7509 77.616 45.2389 76.644L44.6269 80.28C46.3549 81.216 48.7309 81.792 51.2149 81.792C56.0389 81.792 59.9629 79.128 59.9629 74.556C59.9629 71.928 58.1989 69.444 54.6709 68.868ZM73.5344 57.852C73.5344 54.324 71.2304 51.696 67.3784 51.696C63.5624 51.696 61.2224 54.324 61.2224 57.852C61.2224 61.308 63.5264 63.936 67.3424 63.936C71.1944 63.936 73.5344 61.308 73.5344 57.852ZM85.5584 52.056H82.3544L64.0664 75.6H67.2704L85.5584 52.056ZM88.3664 69.804C88.3664 66.348 86.0624 63.72 82.2464 63.72C78.3944 63.72 76.0904 66.348 76.0904 69.804C76.0904 73.332 78.3584 75.96 82.2104 75.96C86.0264 75.96 88.3664 73.332 88.3664 69.804ZM70.6904 57.852C70.6904 59.976 69.4304 61.56 67.3784 61.56C65.2904 61.56 64.0304 59.976 64.0304 57.852C64.0304 55.656 65.2904 54.072 67.3784 54.072C69.4304 54.072 70.6904 55.62 70.6904 57.852ZM85.5224 69.804C85.5224 72.036 84.2624 73.584 82.2464 73.584C80.1584 73.584 78.8984 72.036 78.8984 69.804C78.8984 67.716 80.1584 66.096 82.2104 66.096C84.2624 66.096 85.5224 67.68 85.5224 69.804Z" fill="#112353"/>
<path d="M103.457 65.472L106.817 76.472H108.057L111.557 63.972H110.277L107.477 74.652L104.237 63.972H102.717L99.537 74.652L96.6166 63.972H95.2966L98.8566 76.472H100.077L103.457 65.472ZM121.087 76.472V70.192C121.087 68.192 120.007 67.052 118.227 67.052C117.207 67.052 116.007 67.552 115.047 68.512C115.047 68.472 115.047 62.732 115.047 62.732L113.807 62.992V76.472H115.047V69.532C115.807 68.772 116.827 68.232 117.887 68.232C119.207 68.232 119.847 68.952 119.847 70.552V76.472H121.087ZM125.385 64.292C125.385 63.832 125.105 63.412 124.545 63.412C123.985 63.412 123.705 63.832 123.705 64.292C123.705 64.772 123.985 65.212 124.545 65.212C125.105 65.212 125.385 64.772 125.385 64.292V64.292ZM125.165 76.472V67.052L123.925 67.312V76.472H125.165ZM132.645 76.292L132.425 75.212C131.865 75.452 131.265 75.652 130.665 75.652C129.705 75.652 129.285 75.092 129.325 73.932L129.465 68.452H132.505L132.565 67.352H129.505L129.565 65.212H128.385L128.325 67.292L126.945 67.612L126.885 68.392L128.285 68.472L128.145 73.892C128.085 75.812 128.865 76.772 130.605 76.772C131.265 76.772 132.005 76.592 132.645 76.292V76.292ZM135.229 71.932L141.429 71.892C141.549 71.492 141.629 70.912 141.629 70.432C141.629 68.372 140.309 67.052 138.289 67.052C135.809 67.052 133.969 69.092 133.969 71.972C133.969 74.752 135.749 76.732 138.389 76.732C139.529 76.732 140.549 76.432 141.329 75.952L141.089 74.812C140.389 75.272 139.429 75.572 138.429 75.572C136.509 75.572 135.269 74.092 135.229 72.032V71.932ZM135.309 70.952C135.509 69.432 136.569 68.172 138.209 68.172C139.649 68.172 140.409 69.132 140.409 70.532C140.409 70.632 140.409 70.832 140.389 70.932L135.309 70.952Z" fill="#112353"/>
<path d="M352.47 131H353.69V121.3L350.09 122.62L350.15 123.76L352.47 122.88V131ZM366.354 126.28C366.354 123.36 364.274 121.3 361.514 121.3C358.774 121.3 356.714 123.36 356.714 126.28C356.714 129.2 358.774 131.26 361.514 131.26C364.274 131.26 366.354 129.2 366.354 126.28ZM365.114 126.28C365.114 128.44 363.634 130.08 361.514 130.08C359.414 130.08 357.954 128.44 357.954 126.28C357.954 124.12 359.414 122.48 361.514 122.48C363.634 122.48 365.114 124.12 365.114 126.28ZM369.689 130.22C369.689 129.68 369.269 129.22 368.689 129.22C368.109 129.22 367.689 129.68 367.689 130.22C367.689 130.76 368.109 131.26 368.689 131.26C369.269 131.26 369.689 130.76 369.689 130.22ZM380.494 130.7L380.434 129.52H378.534V121.24H377.454L371.034 129.84L371.194 130.7H377.334V134.68H378.534V130.7H380.494ZM377.334 129.52H372.634L377.334 123.22V129.52ZM387.694 121.36C387.694 119.54 386.434 118.02 384.374 118.02C382.334 118.02 381.054 119.54 381.054 121.36C381.054 123.14 382.334 124.66 384.374 124.66C386.434 124.66 387.694 123.14 387.694 121.36ZM393.794 118.22H392.714L382.574 131.3H383.674L393.794 118.22ZM395.294 128.16C395.294 126.38 394.014 124.86 391.974 124.86C389.914 124.86 388.654 126.38 388.654 128.16C388.654 129.98 389.914 131.5 391.974 131.5C394.014 131.5 395.294 129.98 395.294 128.16ZM386.794 121.36C386.794 122.66 385.894 123.8 384.374 123.8C382.874 123.8 381.974 122.66 381.974 121.36C381.974 119.98 382.874 118.88 384.374 118.88C385.894 118.88 386.794 119.98 386.794 121.36ZM394.394 128.16C394.394 129.54 393.494 130.64 391.974 130.64C390.474 130.64 389.574 129.54 389.574 128.16C389.574 126.86 390.474 125.72 391.974 125.72C393.494 125.72 394.394 126.86 394.394 128.16ZM407.528 124.6C409.188 124.18 409.928 122.98 409.928 121.76C409.928 119.86 408.668 118.5 405.668 118.5H401.768V131H405.828C408.988 131 410.328 129.56 410.328 127.52C410.328 126.06 409.368 124.96 407.528 124.6V124.6ZM408.648 121.86C408.648 123.34 407.408 124.16 405.528 124.16C405.528 124.16 403.068 124.16 403.048 124.16V119.66H405.728C407.708 119.66 408.648 120.52 408.648 121.86ZM409.048 127.52C409.048 128.94 408.128 129.84 405.928 129.84H403.048V125.32H405.608C407.828 125.32 409.048 126.06 409.048 127.52V127.52ZM413.844 131V117.26L412.604 117.52V131H413.844ZM421.505 128.98C420.945 129.62 420.105 130.18 419.125 130.18C418.045 130.18 417.245 129.56 417.245 128.58C417.245 127.36 418.365 126.66 421.505 126.3V128.98ZM421.585 129.9C421.725 130.8 422.385 131.28 423.585 131.2L423.665 130.18C422.865 130.2 422.745 129.92 422.745 129.26C422.745 129.26 422.745 124.92 422.745 124.86C422.765 122.54 421.585 121.58 419.465 121.58C418.265 121.58 416.885 122.1 416.065 122.68L416.345 123.84C417.125 123.26 418.345 122.74 419.345 122.74C420.865 122.74 421.505 123.48 421.505 124.92C421.505 124.98 421.505 125.46 421.505 125.46C417.245 125.7 415.945 127.06 415.945 128.72C415.945 130.18 417.165 131.26 418.845 131.26C419.925 131.26 420.905 130.66 421.525 129.9H421.585ZM432.234 130.48L431.974 129.34C431.274 129.8 430.354 130.1 429.434 130.1C427.494 130.1 426.194 128.64 426.194 126.4C426.194 124.22 427.434 122.74 429.414 122.74C430.374 122.74 431.254 123.02 431.954 123.48L432.274 122.36C431.494 121.86 430.534 121.58 429.414 121.58C426.814 121.58 424.914 123.58 424.914 126.44C424.914 129.28 426.634 131.26 429.394 131.26C430.454 131.26 431.454 130.96 432.234 130.48V130.48ZM435.818 126.44L439.938 131H441.518L437.098 126.2L441.498 121.84H439.938L435.818 126.06H435.778V117.26L434.538 117.52V131H435.778V126.44H435.818Z" fill="#112353"/>
<path d="M241.633 195H242.853V185.3L239.253 186.62L239.313 187.76L241.633 186.88V195ZM247.016 190.84L247.596 186.74H252.576L252.516 185.54H246.576L245.776 191.7L246.196 192.1C246.916 191.86 247.416 191.72 248.576 191.72C250.456 191.72 251.596 192.98 251.596 194.5C251.596 196.34 250.296 197.52 248.536 197.52C247.436 197.52 246.336 197.1 245.536 196.66L245.296 197.88C246.096 198.34 247.356 198.7 248.496 198.7C250.936 198.7 252.856 196.96 252.856 194.44C252.856 192.22 251.216 190.64 248.696 190.64C247.936 190.64 247.476 190.72 247.016 190.84V190.84ZM256.37 194.22C256.37 193.68 255.95 193.22 255.37 193.22C254.79 193.22 254.37 193.68 254.37 194.22C254.37 194.76 254.79 195.26 255.37 195.26C255.95 195.26 256.37 194.76 256.37 194.22ZM257.71 190.24C257.71 193 259.25 195.26 261.97 195.26C264.47 195.26 266.07 193.5 266.07 191.14C266.07 188.74 264.35 187.42 262.45 187.42C261.07 187.42 259.97 188 259.09 188.82L259.05 188.8C259.63 186.26 261.67 184.2 265.03 183.4L264.67 182.24C259.93 183.34 257.71 186.92 257.71 190.24ZM259.01 190.5C259.01 190.28 259.03 190.04 259.07 189.84C259.89 189.06 260.99 188.52 262.21 188.52C263.67 188.52 264.81 189.52 264.81 191.2C264.81 192.9 263.73 194.12 262.01 194.12C260.11 194.12 259.01 192.42 259.01 190.5V190.5ZM273.829 185.36C273.829 183.54 272.569 182.02 270.509 182.02C268.469 182.02 267.189 183.54 267.189 185.36C267.189 187.14 268.469 188.66 270.509 188.66C272.569 188.66 273.829 187.14 273.829 185.36ZM279.929 182.22H278.849L268.709 195.3H269.809L279.929 182.22ZM281.429 192.16C281.429 190.38 280.149 188.86 278.109 188.86C276.049 188.86 274.789 190.38 274.789 192.16C274.789 193.98 276.049 195.5 278.109 195.5C280.149 195.5 281.429 193.98 281.429 192.16ZM272.929 185.36C272.929 186.66 272.029 187.8 270.509 187.8C269.009 187.8 268.109 186.66 268.109 185.36C268.109 183.98 269.009 182.88 270.509 182.88C272.029 182.88 272.929 183.98 272.929 185.36ZM280.529 192.16C280.529 193.54 279.629 194.64 278.109 194.64C276.609 194.64 275.709 193.54 275.709 192.16C275.709 190.86 276.609 189.72 278.109 189.72C279.629 189.72 280.529 190.86 280.529 192.16ZM292.843 182.5H291.343L286.603 195H287.903L289.223 191.42H294.883L296.203 195H297.503L292.843 182.5ZM294.443 190.26H289.663L292.063 183.76L294.443 190.26ZM304.747 192.5C304.747 190.8 303.347 190.2 302.047 189.82C300.867 189.46 299.787 189.14 299.787 188.1C299.787 187.22 300.507 186.7 301.627 186.7C302.427 186.7 303.367 186.96 304.127 187.38L304.487 186.26C303.707 185.86 302.707 185.58 301.707 185.58C299.987 185.58 298.607 186.56 298.607 188.22C298.607 189.82 300.007 190.44 301.267 190.82C302.407 191.18 303.567 191.5 303.567 192.6C303.567 193.6 302.607 194.14 301.507 194.14C300.567 194.14 299.587 193.82 298.807 193.3L298.467 194.44C299.247 194.94 300.387 195.26 301.467 195.26C303.307 195.26 304.747 194.18 304.747 192.5V192.5ZM308.461 182.82C308.461 182.36 308.181 181.94 307.621 181.94C307.061 181.94 306.781 182.36 306.781 182.82C306.781 183.3 307.061 183.74 307.621 183.74C308.181 183.74 308.461 183.3 308.461 182.82ZM308.241 195V185.58L307.001 185.84V195H308.241ZM315.941 192.98C315.381 193.62 314.541 194.18 313.561 194.18C312.481 194.18 311.681 193.56 311.681 192.58C311.681 191.36 312.801 190.66 315.941 190.3V192.98ZM316.021 193.9C316.161 194.8 316.821 195.28 318.021 195.2L318.101 194.18C317.301 194.2 317.181 193.92 317.181 193.26C317.181 193.26 317.181 188.92 317.181 188.86C317.201 186.54 316.021 185.58 313.901 185.58C312.701 185.58 311.321 186.1 310.501 186.68L310.781 187.84C311.561 187.26 312.781 186.74 313.781 186.74C315.301 186.74 315.941 187.48 315.941 188.92C315.941 188.98 315.941 189.46 315.941 189.46C311.681 189.7 310.381 191.06 310.381 192.72C310.381 194.18 311.601 195.26 313.281 195.26C314.361 195.26 315.341 194.66 315.961 193.9H316.021ZM327.23 195V188.72C327.23 186.72 326.15 185.58 324.31 185.58C323.35 185.58 322.15 186.12 321.19 187.08V185.58L319.95 185.84V195H321.19V188.06C321.95 187.3 322.97 186.76 323.97 186.76C325.35 186.76 325.99 187.48 325.99 189.08V195H327.23Z" fill="#112353"/>
<path d="M406.241 105.462H407.339V96.732L404.099 97.92L404.153 98.946L406.241 98.154V105.462ZM411.437 104.76C411.437 104.274 411.059 103.86 410.537 103.86C410.015 103.86 409.637 104.274 409.637 104.76C409.637 105.246 410.015 105.696 410.537 105.696C411.059 105.696 411.437 105.246 411.437 104.76ZM412.643 101.178C412.643 103.662 414.029 105.696 416.477 105.696C418.727 105.696 420.167 104.112 420.167 101.988C420.167 99.828 418.619 98.64 416.909 98.64C415.667 98.64 414.677 99.162 413.885 99.9L413.849 99.882C414.371 97.596 416.207 95.742 419.231 95.022L418.907 93.978C414.641 94.968 412.643 98.19 412.643 101.178V101.178ZM413.813 101.412C413.813 101.214 413.831 100.998 413.867 100.818C414.605 100.116 415.595 99.63 416.693 99.63C418.007 99.63 419.033 100.53 419.033 102.042C419.033 103.572 418.061 104.67 416.513 104.67C414.803 104.67 413.813 103.14 413.813 101.412ZM427.149 96.786C427.149 95.148 426.015 93.78 424.161 93.78C422.325 93.78 421.173 95.148 421.173 96.786C421.173 98.388 422.325 99.756 424.161 99.756C426.015 99.756 427.149 98.388 427.149 96.786ZM432.639 93.96H431.667L422.541 105.732H423.531L432.639 93.96ZM433.989 102.906C433.989 101.304 432.837 99.936 431.001 99.936C429.147 99.936 428.013 101.304 428.013 102.906C428.013 104.544 429.147 105.912 431.001 105.912C432.837 105.912 433.989 104.544 433.989 102.906ZM426.339 96.786C426.339 97.956 425.529 98.982 424.161 98.982C422.811 98.982 422.001 97.956 422.001 96.786C422.001 95.544 422.811 94.554 424.161 94.554C425.529 94.554 426.339 95.544 426.339 96.786ZM433.179 102.906C433.179 104.148 432.369 105.138 431.001 105.138C429.651 105.138 428.841 104.148 428.841 102.906C428.841 101.736 429.651 100.71 431.001 100.71C432.369 100.71 433.179 101.736 433.179 102.906ZM447.502 103.86L441.112 94.212H439.816V105.462H440.932V95.832L447.376 105.57H448.618V94.212H447.502V103.86ZM455.681 103.644C455.177 104.22 454.421 104.724 453.539 104.724C452.567 104.724 451.847 104.166 451.847 103.284C451.847 102.186 452.855 101.556 455.681 101.232V103.644ZM455.753 104.472C455.879 105.282 456.473 105.714 457.553 105.642L457.625 104.724C456.905 104.742 456.797 104.49 456.797 103.896C456.797 103.896 456.797 99.99 456.797 99.936C456.815 97.848 455.753 96.984 453.845 96.984C452.765 96.984 451.523 97.452 450.785 97.974L451.037 99.018C451.739 98.496 452.837 98.028 453.737 98.028C455.105 98.028 455.681 98.694 455.681 99.99C455.681 100.044 455.681 100.476 455.681 100.476C451.847 100.692 450.677 101.916 450.677 103.41C450.677 104.724 451.775 105.696 453.287 105.696C454.259 105.696 455.141 105.156 455.699 104.472H455.753ZM463.393 105.3L463.195 104.328C462.691 104.544 462.151 104.724 461.611 104.724C460.747 104.724 460.369 104.22 460.405 103.176L460.531 98.244H463.267L463.321 97.254H460.567L460.621 95.328H459.559L459.505 97.2L458.263 97.488L458.209 98.19L459.469 98.262L459.343 103.14C459.289 104.868 459.991 105.732 461.557 105.732C462.151 105.732 462.817 105.57 463.393 105.3V105.3ZM466.545 94.5C466.545 94.086 466.293 93.708 465.789 93.708C465.285 93.708 465.033 94.086 465.033 94.5C465.033 94.932 465.285 95.328 465.789 95.328C466.293 95.328 466.545 94.932 466.545 94.5ZM466.347 105.462V96.984L465.231 97.218V105.462H466.347ZM475.239 97.218H474.069L471.549 104.022L468.939 97.218H467.733L470.991 105.48H471.999L475.239 97.218ZM477.11 101.376L482.69 101.34C482.798 100.98 482.87 100.458 482.87 100.026C482.87 98.172 481.682 96.984 479.864 96.984C477.632 96.984 475.976 98.82 475.976 101.412C475.976 103.914 477.578 105.696 479.954 105.696C480.98 105.696 481.898 105.426 482.6 104.994L482.384 103.968C481.754 104.382 480.89 104.652 479.99 104.652C478.262 104.652 477.146 103.32 477.11 101.466V101.376ZM477.182 100.494C477.362 99.126 478.316 97.992 479.792 97.992C481.088 97.992 481.772 98.856 481.772 100.116C481.772 100.206 481.772 100.386 481.754 100.476L477.182 100.494Z" fill="#112353"/>
<path d="M421.908 75.221C421.908 72.593 420.036 70.739 417.552 70.739C415.086 70.739 413.232 72.593 413.232 75.221C413.232 77.849 415.086 79.703 417.552 79.703C420.036 79.703 421.908 77.849 421.908 75.221ZM420.792 75.221C420.792 77.165 419.46 78.641 417.552 78.641C415.662 78.641 414.348 77.165 414.348 75.221C414.348 73.277 415.662 71.801 417.552 71.801C419.46 71.801 420.792 73.277 420.792 75.221ZM424.909 78.767C424.909 78.281 424.531 77.867 424.009 77.867C423.487 77.867 423.109 78.281 423.109 78.767C423.109 79.253 423.487 79.703 424.009 79.703C424.531 79.703 424.909 79.253 424.909 78.767ZM429.801 76.463C431.133 75.959 432.267 74.897 432.267 73.511C432.267 71.891 431.025 70.739 429.027 70.739C427.803 70.739 426.651 71.279 425.841 71.927L426.255 72.863C427.029 72.251 427.965 71.783 428.919 71.783C430.233 71.783 431.079 72.449 431.079 73.655C431.079 75.077 429.513 75.977 427.353 76.499V77.417C427.929 77.309 428.469 77.255 428.991 77.255C430.449 77.291 431.511 78.047 431.511 79.415C431.511 80.891 430.377 81.773 428.793 81.773C427.731 81.773 426.759 81.449 426.147 81.071L425.859 82.097C426.561 82.529 427.713 82.799 428.757 82.799C430.917 82.799 432.681 81.449 432.681 79.325C432.681 77.885 431.619 76.607 429.801 76.463V76.463ZM439.286 70.793C439.286 69.155 438.152 67.787 436.298 67.787C434.462 67.787 433.31 69.155 433.31 70.793C433.31 72.395 434.462 73.763 436.298 73.763C438.152 73.763 439.286 72.395 439.286 70.793ZM444.776 67.967H443.804L434.678 79.739H435.668L444.776 67.967ZM446.126 76.913C446.126 75.311 444.974 73.943 443.138 73.943C441.284 73.943 440.15 75.311 440.15 76.913C440.15 78.551 441.284 79.919 443.138 79.919C444.974 79.919 446.126 78.551 446.126 76.913ZM438.476 70.793C438.476 71.963 437.666 72.989 436.298 72.989C434.948 72.989 434.138 71.963 434.138 70.793C434.138 69.551 434.948 68.561 436.298 68.561C437.666 68.561 438.476 69.551 438.476 70.793ZM445.316 76.913C445.316 78.155 444.506 79.145 443.138 79.145C441.788 79.145 440.978 78.155 440.978 76.913C440.978 75.743 441.788 74.717 443.138 74.717C444.506 74.717 445.316 75.743 445.316 76.913ZM459.171 71.729C459.171 69.659 457.749 68.219 454.779 68.219C454.635 68.219 451.953 68.219 451.953 68.219V79.469H453.105V75.509L454.635 75.491C457.425 75.455 459.171 74.195 459.171 71.729V71.729ZM457.983 71.783C457.983 73.529 456.831 74.375 454.707 74.411L453.105 74.447V69.281C453.105 69.281 454.599 69.281 454.743 69.281C456.849 69.281 457.983 70.181 457.983 71.783ZM465.357 77.651C464.853 78.227 464.097 78.731 463.215 78.731C462.243 78.731 461.523 78.173 461.523 77.291C461.523 76.193 462.531 75.563 465.357 75.239V77.651ZM465.429 78.479C465.555 79.289 466.149 79.721 467.229 79.649L467.301 78.731C466.581 78.749 466.473 78.497 466.473 77.903C466.473 77.903 466.473 73.997 466.473 73.943C466.491 71.855 465.429 70.991 463.521 70.991C462.441 70.991 461.199 71.459 460.461 71.981L460.713 73.025C461.415 72.503 462.513 72.035 463.413 72.035C464.781 72.035 465.357 72.701 465.357 73.997C465.357 74.051 465.357 74.483 465.357 74.483C461.523 74.699 460.353 75.923 460.353 77.417C460.353 78.731 461.451 79.703 462.963 79.703C463.935 79.703 464.817 79.163 465.375 78.479H465.429ZM475.013 79.001L474.779 77.975C474.149 78.389 473.321 78.659 472.493 78.659C470.747 78.659 469.577 77.345 469.577 75.329C469.577 73.367 470.693 72.035 472.475 72.035C473.339 72.035 474.131 72.287 474.761 72.701L475.049 71.693C474.347 71.243 473.483 70.991 472.475 70.991C470.135 70.991 468.425 72.791 468.425 75.365C468.425 77.921 469.973 79.703 472.457 79.703C473.411 79.703 474.311 79.433 475.013 79.001V79.001ZM478.418 68.507C478.418 68.093 478.166 67.715 477.662 67.715C477.158 67.715 476.906 68.093 476.906 68.507C476.906 68.939 477.158 69.335 477.662 69.335C478.166 69.335 478.418 68.939 478.418 68.507ZM478.22 79.469V70.991L477.104 71.225V79.469H478.22ZM487.436 68.507C487.436 68.093 487.166 67.715 486.68 67.715C486.176 67.715 485.924 68.093 485.924 68.507C485.924 68.939 486.176 69.335 486.68 69.335C487.166 69.335 487.436 68.939 487.436 68.507ZM485.078 67.301C484.7 67.121 484.124 66.941 483.566 66.941C482.126 66.941 481.118 67.733 481.082 69.911L481.064 71.207L479.822 71.495L479.75 72.197L481.082 72.287V79.469H482.18V72.251H484.718L484.772 71.261H482.18V69.893C482.18 68.561 482.63 67.967 483.548 67.967C483.998 67.967 484.43 68.129 484.808 68.309C484.808 68.327 485.078 67.319 485.078 67.301ZM487.238 79.469V70.991L486.122 71.225V79.469H487.238ZM495.878 79.001L495.644 77.975C495.014 78.389 494.186 78.659 493.358 78.659C491.612 78.659 490.442 77.345 490.442 75.329C490.442 73.367 491.558 72.035 493.34 72.035C494.204 72.035 494.996 72.287 495.626 72.701L495.914 71.693C495.212 71.243 494.348 70.991 493.34 70.991C491 70.991 489.29 72.791 489.29 75.365C489.29 77.921 490.838 79.703 493.322 79.703C494.276 79.703 495.176 79.433 495.878 79.001V79.001ZM503.361 79.469V68.219H502.227V79.469H503.361ZM511.093 77.219C511.093 75.689 509.833 75.149 508.663 74.807C507.601 74.483 506.629 74.195 506.629 73.259C506.629 72.467 507.277 71.999 508.285 71.999C509.005 71.999 509.851 72.233 510.535 72.611L510.859 71.603C510.157 71.243 509.257 70.991 508.357 70.991C506.809 70.991 505.567 71.873 505.567 73.367C505.567 74.807 506.827 75.365 507.961 75.707C508.987 76.031 510.031 76.319 510.031 77.309C510.031 78.209 509.167 78.695 508.177 78.695C507.331 78.695 506.449 78.407 505.747 77.939L505.441 78.965C506.143 79.415 507.169 79.703 508.141 79.703C509.797 79.703 511.093 78.731 511.093 77.219ZM514.22 79.469V67.103L513.104 67.337V79.469H514.22ZM521.115 77.651C520.611 78.227 519.855 78.731 518.973 78.731C518.001 78.731 517.281 78.173 517.281 77.291C517.281 76.193 518.289 75.563 521.115 75.239V77.651ZM521.187 78.479C521.313 79.289 521.907 79.721 522.987 79.649L523.059 78.731C522.339 78.749 522.231 78.497 522.231 77.903C522.231 77.903 522.231 73.997 522.231 73.943C522.249 71.855 521.187 70.991 519.279 70.991C518.199 70.991 516.957 71.459 516.219 71.981L516.471 73.025C517.173 72.503 518.271 72.035 519.171 72.035C520.539 72.035 521.115 72.701 521.115 73.997C521.115 74.051 521.115 74.483 521.115 74.483C517.281 74.699 516.111 75.923 516.111 77.417C516.111 78.731 517.209 79.703 518.721 79.703C519.693 79.703 520.575 79.163 521.133 78.479H521.187ZM531.275 79.469V73.817C531.275 72.017 530.303 70.991 528.647 70.991C527.783 70.991 526.703 71.477 525.839 72.341V70.991L524.723 71.225V79.469H525.839V73.223C526.523 72.539 527.441 72.053 528.341 72.053C529.583 72.053 530.159 72.701 530.159 74.141V79.469H531.275ZM539.355 71.495C538.815 71.243 538.059 71.045 537.357 71.045C534.981 71.045 533.271 72.863 533.271 75.419C533.271 77.921 534.747 79.703 536.961 79.703C537.987 79.703 538.815 79.199 539.355 78.695C539.355 78.731 539.355 79.469 539.355 79.469H540.471V67.103L539.355 67.337V71.495ZM539.355 72.683C539.355 72.683 539.355 77.795 539.355 77.759C538.779 78.299 538.005 78.677 537.159 78.677C535.485 78.677 534.423 77.309 534.423 75.401C534.423 73.457 535.539 72.053 537.303 72.053C538.095 72.053 538.851 72.287 539.355 72.683V72.683ZM543.651 75.383L549.231 75.347C549.339 74.987 549.411 74.465 549.411 74.033C549.411 72.179 548.223 70.991 546.405 70.991C544.173 70.991 542.517 72.827 542.517 75.419C542.517 77.921 544.119 79.703 546.495 79.703C547.521 79.703 548.439 79.433 549.141 79.001L548.925 77.975C548.295 78.389 547.431 78.659 546.531 78.659C544.803 78.659 543.687 77.327 543.651 75.473V75.383ZM543.723 74.501C543.903 73.133 544.857 71.999 546.333 71.999C547.629 71.999 548.313 72.863 548.313 74.123C548.313 74.213 548.313 74.393 548.295 74.483L543.723 74.501ZM552.628 74.177C553.276 72.701 554.086 72.053 554.95 72.053C555.418 72.053 555.85 72.197 556.21 72.413L556.498 71.369C556.12 71.153 555.598 70.991 555.058 70.991C553.978 70.991 553.168 71.693 552.628 72.755V70.991L551.512 71.225V79.469H552.628V74.177Z" fill="#112353"/>
<path d="M425.614 56.725V55.663C425.614 55.663 420.79 55.663 420.754 55.663C423.184 53.827 425.2 52.549 425.2 50.587C425.2 49.057 423.994 47.995 422.248 47.995C421.042 47.995 420.034 48.463 419.188 49.129L419.584 50.083C420.376 49.471 421.24 49.039 422.14 49.039C423.31 49.039 424.03 49.777 424.03 50.731C424.03 52.171 422.158 53.449 419.17 55.699V56.725H425.614ZM428.844 56.023C428.844 55.537 428.466 55.123 427.944 55.123C427.422 55.123 427.044 55.537 427.044 56.023C427.044 56.509 427.422 56.959 427.944 56.959C428.466 56.959 428.844 56.509 428.844 56.023ZM438.692 52.477C438.692 49.849 436.82 47.995 434.336 47.995C431.87 47.995 430.016 49.849 430.016 52.477C430.016 55.105 431.87 56.959 434.336 56.959C436.82 56.959 438.692 55.105 438.692 52.477ZM437.576 52.477C437.576 54.421 436.244 55.897 434.336 55.897C432.446 55.897 431.132 54.421 431.132 52.477C431.132 50.533 432.446 49.057 434.336 49.057C436.244 49.057 437.576 50.533 437.576 52.477ZM445.805 48.049C445.805 46.411 444.671 45.043 442.817 45.043C440.981 45.043 439.829 46.411 439.829 48.049C439.829 49.651 440.981 51.019 442.817 51.019C444.671 51.019 445.805 49.651 445.805 48.049ZM451.295 45.223H450.323L441.197 56.995H442.187L451.295 45.223ZM452.645 54.169C452.645 52.567 451.493 51.199 449.657 51.199C447.803 51.199 446.669 52.567 446.669 54.169C446.669 55.807 447.803 57.175 449.657 57.175C451.493 57.175 452.645 55.807 452.645 54.169ZM444.995 48.049C444.995 49.219 444.185 50.245 442.817 50.245C441.467 50.245 440.657 49.219 440.657 48.049C440.657 46.807 441.467 45.817 442.817 45.817C444.185 45.817 444.995 46.807 444.995 48.049ZM451.835 54.169C451.835 55.411 451.025 56.401 449.657 56.401C448.307 56.401 447.497 55.411 447.497 54.169C447.497 52.999 448.307 51.973 449.657 51.973C451.025 51.973 451.835 52.999 451.835 54.169ZM468.947 51.055C468.947 47.581 466.553 45.241 463.421 45.241C460.199 45.241 457.877 47.689 457.877 51.127C457.877 54.601 460.271 56.959 463.403 56.959C466.625 56.959 468.947 54.493 468.947 51.055V51.055ZM467.777 51.127C467.777 53.971 465.959 55.933 463.457 55.933C460.901 55.933 459.047 53.953 459.047 51.055C459.047 48.211 460.865 46.267 463.385 46.267C465.941 46.267 467.777 48.229 467.777 51.127ZM475.193 56.563L474.995 55.591C474.491 55.807 473.951 55.987 473.411 55.987C472.547 55.987 472.169 55.483 472.205 54.439L472.331 49.507H475.067L475.121 48.517H472.367L472.421 46.591H471.359L471.305 48.463L470.063 48.751L470.009 49.453L471.269 49.525L471.143 54.403C471.089 56.131 471.791 56.995 473.357 56.995C473.951 56.995 474.617 56.833 475.193 56.563V56.563ZM483.565 56.725V51.073C483.565 49.273 482.593 48.247 480.991 48.247C480.073 48.247 478.993 48.697 478.129 49.561C478.129 49.525 478.129 44.359 478.129 44.359L477.013 44.593V56.725H478.129V50.479C478.813 49.795 479.731 49.309 480.685 49.309C481.873 49.309 482.449 49.957 482.449 51.397V56.725H483.565ZM486.695 52.639L492.275 52.603C492.383 52.243 492.455 51.721 492.455 51.289C492.455 49.435 491.267 48.247 489.449 48.247C487.217 48.247 485.561 50.083 485.561 52.675C485.561 55.177 487.163 56.959 489.539 56.959C490.565 56.959 491.483 56.689 492.185 56.257L491.969 55.231C491.339 55.645 490.475 55.915 489.575 55.915C487.847 55.915 486.731 54.583 486.695 52.729V52.639ZM486.767 51.757C486.947 50.389 487.901 49.255 489.377 49.255C490.673 49.255 491.357 50.119 491.357 51.379C491.357 51.469 491.357 51.649 491.339 51.739L486.767 51.757ZM495.672 51.433C496.32 49.957 497.13 49.309 497.994 49.309C498.462 49.309 498.894 49.453 499.254 49.669L499.542 48.625C499.164 48.409 498.642 48.247 498.102 48.247C497.022 48.247 496.212 48.949 495.672 50.011V48.247L494.556 48.481V56.725H495.672V51.433Z" fill="#112353"/>
<path d="M296.492 163.782H297.712V154.082L294.112 155.402L294.172 156.542L296.492 155.662V163.782ZM301.875 159.622L302.455 155.522H307.435L307.375 154.322H301.435L300.635 160.482L301.055 160.882C301.775 160.642 302.275 160.502 303.435 160.502C305.315 160.502 306.455 161.762 306.455 163.282C306.455 165.122 305.155 166.302 303.395 166.302C302.295 166.302 301.195 165.882 300.395 165.442L300.155 166.662C300.955 167.122 302.215 167.482 303.355 167.482C305.795 167.482 307.715 165.742 307.715 163.222C307.715 161.002 306.075 159.422 303.555 159.422C302.795 159.422 302.335 159.502 301.875 159.622V159.622ZM311.23 163.002C311.23 162.462 310.81 162.002 310.23 162.002C309.65 162.002 309.23 162.462 309.23 163.002C309.23 163.542 309.65 164.042 310.23 164.042C310.81 164.042 311.23 163.542 311.23 163.002ZM316.665 160.442C318.145 159.882 319.405 158.702 319.405 157.162C319.405 155.362 318.025 154.082 315.805 154.082C314.445 154.082 313.165 154.682 312.265 155.402L312.725 156.442C313.585 155.762 314.625 155.242 315.685 155.242C317.145 155.242 318.085 155.982 318.085 157.322C318.085 158.902 316.345 159.902 313.945 160.482V161.502C314.585 161.382 315.185 161.322 315.765 161.322C317.385 161.362 318.565 162.202 318.565 163.722C318.565 165.362 317.305 166.342 315.545 166.342C314.365 166.342 313.285 165.982 312.605 165.562L312.285 166.702C313.065 167.182 314.345 167.482 315.505 167.482C317.905 167.482 319.865 165.982 319.865 163.622C319.865 162.022 318.685 160.602 316.665 160.442V160.442ZM327.204 154.142C327.204 152.322 325.944 150.802 323.884 150.802C321.844 150.802 320.564 152.322 320.564 154.142C320.564 155.922 321.844 157.442 323.884 157.442C325.944 157.442 327.204 155.922 327.204 154.142ZM333.304 151.002H332.224L322.084 164.082H323.184L333.304 151.002ZM334.804 160.942C334.804 159.162 333.524 157.642 331.484 157.642C329.424 157.642 328.164 159.162 328.164 160.942C328.164 162.762 329.424 164.282 331.484 164.282C333.524 164.282 334.804 162.762 334.804 160.942ZM326.304 154.142C326.304 155.442 325.404 156.582 323.884 156.582C322.384 156.582 321.484 155.442 321.484 154.142C321.484 152.762 322.384 151.662 323.884 151.662C325.404 151.662 326.304 152.762 326.304 154.142ZM333.904 160.942C333.904 162.322 333.004 163.422 331.484 163.422C329.984 163.422 329.084 162.322 329.084 160.942C329.084 159.642 329.984 158.502 331.484 158.502C333.004 158.502 333.904 159.642 333.904 160.942ZM348.738 163.782V162.582H342.558V151.282H341.278V163.782H348.738ZM355.449 161.762C354.889 162.402 354.049 162.962 353.069 162.962C351.989 162.962 351.189 162.342 351.189 161.362C351.189 160.142 352.309 159.442 355.449 159.082V161.762ZM355.529 162.682C355.669 163.582 356.329 164.062 357.529 163.982L357.609 162.962C356.809 162.982 356.689 162.702 356.689 162.042C356.689 162.042 356.689 157.702 356.689 157.642C356.709 155.322 355.529 154.362 353.409 154.362C352.209 154.362 350.829 154.882 350.009 155.462L350.289 156.622C351.069 156.042 352.289 155.522 353.289 155.522C354.809 155.522 355.449 156.262 355.449 157.702C355.449 157.762 355.449 158.242 355.449 158.242C351.189 158.482 349.889 159.842 349.889 161.502C349.889 162.962 351.109 164.042 352.789 164.042C353.869 164.042 354.849 163.442 355.469 162.682H355.529ZM364.018 163.602L363.798 162.522C363.238 162.762 362.638 162.962 362.038 162.962C361.078 162.962 360.658 162.402 360.698 161.242L360.838 155.762H363.878L363.938 154.662H360.878L360.938 152.522H359.758L359.698 154.602L358.318 154.922L358.258 155.702L359.658 155.782L359.518 161.202C359.458 163.122 360.238 164.082 361.978 164.082C362.638 164.082 363.378 163.902 364.018 163.602V163.602ZM367.52 151.602C367.52 151.142 367.24 150.722 366.68 150.722C366.12 150.722 365.84 151.142 365.84 151.602C365.84 152.082 366.12 152.522 366.68 152.522C367.24 152.522 367.52 152.082 367.52 151.602ZM367.3 163.782V154.362L366.06 154.622V163.782H367.3ZM377.499 163.782V157.502C377.499 155.502 376.419 154.362 374.579 154.362C373.619 154.362 372.419 154.902 371.459 155.862V154.362L370.219 154.622V163.782H371.459V156.842C372.219 156.082 373.239 155.542 374.239 155.542C375.619 155.542 376.259 156.262 376.259 157.862V163.782H377.499ZM386.677 163.782L383.517 159.042L386.437 154.622H385.057L382.817 158.182L380.537 154.622H379.157L382.117 159.082L378.957 163.782H380.357L382.817 159.922L385.297 163.782H386.677Z" fill="#112353"/>
<path d="M252 0H1V36H252V0Z" fill="#CC3333"/>
<path d="M407 0H368V36H407V0Z" fill="#E08585"/>
<path d="M368 0H309V36H368V0Z" fill="#D65C5C"/>
<path d="M309 0H252V36H309V0Z" fill="#992626"/>
<path d="M414 0H407V36H414V0Z" fill="#FFC1C1"/>
<path d="M426 0H418V36H426V0Z" fill="#FFE6E6"/>
<path d="M418 0H414V36H418V0Z" fill="#FFD3D3"/>
<path d="M368.5 27V114" stroke="#E08585"/>
<path d="M309.5 26.5228V142.523" stroke="#D65C5C"/>
<path d="M252.5 31V174" stroke="#992626"/>
<path d="M407.5 26.5228V93.523" stroke="#FFC1C1"/>
<path d="M417.5 30.5228V66.523" stroke="#FFD3D3"/>
<path d="M425.5 28.5228V43.523" stroke="#FFE5E5"/>
</svg>
