<svg width="468" height="142" viewBox="0 0 468 142" fill="none" xmlns="http://www.w3.org/2000/svg">
<path d="M13.4964 60.68L3.77639 80.444H7.98839L17.8884 59.996V56.864H2.15639L2.04839 60.68H13.4964ZM37.8518 65.432C37.8518 59.996 34.2518 56.36 28.9238 56.36C23.6318 56.36 20.0678 60.032 20.0678 65.468C20.0678 70.904 23.5598 74.54 28.8878 74.54C34.2518 74.54 37.8518 70.868 37.8518 65.432ZM33.6758 65.468C33.6758 68.816 31.7678 71.048 28.9238 71.048C26.1158 71.048 24.2078 68.816 24.2078 65.468C24.2078 62.084 26.1158 59.852 28.9238 59.852C31.7678 59.852 33.6758 62.084 33.6758 65.468ZM52.1868 56.792C52.1868 53.264 49.8828 50.636 46.0308 50.636C42.2148 50.636 39.8748 53.264 39.8748 56.792C39.8748 60.248 42.1788 62.876 45.9948 62.876C49.8468 62.876 52.1868 60.248 52.1868 56.792ZM64.2108 50.996H61.0068L42.7188 74.54H45.9228L64.2108 50.996ZM67.0188 68.744C67.0188 65.288 64.7148 62.66 60.8988 62.66C57.0468 62.66 54.7428 65.288 54.7428 68.744C54.7428 72.272 57.0108 74.9 60.8628 74.9C64.6788 74.9 67.0188 72.272 67.0188 68.744ZM49.3428 56.792C49.3428 58.916 48.0828 60.5 46.0308 60.5C43.9428 60.5 42.6828 58.916 42.6828 56.792C42.6828 54.596 43.9428 53.012 46.0308 53.012C48.0828 53.012 49.3428 54.56 49.3428 56.792ZM64.1748 68.744C64.1748 70.976 62.9148 72.524 60.8988 72.524C58.8108 72.524 57.5508 70.976 57.5508 68.744C57.5508 66.656 58.8108 65.036 60.8628 65.036C62.9148 65.036 64.1748 66.62 64.1748 68.744Z" fill="#112353"/>
<path d="M85.4566 63L88.8166 74H90.0566L93.5566 61.5H92.2766L89.4766 72.18L86.2366 61.5H84.7166L81.5366 72.18L78.6166 61.5H77.2966L80.8566 74H82.0766L85.4566 63ZM103.087 74V67.72C103.087 65.72 102.007 64.58 100.227 64.58C99.2072 64.58 98.0072 65.08 97.0472 66.04C97.0472 66 97.0472 60.26 97.0472 60.26L95.8072 60.52V74H97.0472V67.06C97.8072 66.3 98.8272 65.76 99.8872 65.76C101.207 65.76 101.847 66.48 101.847 68.08V74H103.087ZM107.385 61.82C107.385 61.36 107.105 60.94 106.545 60.94C105.985 60.94 105.705 61.36 105.705 61.82C105.705 62.3 105.985 62.74 106.545 62.74C107.105 62.74 107.385 62.3 107.385 61.82ZM107.165 74V64.58L105.925 64.84V74H107.165ZM114.645 73.82L114.425 72.74C113.865 72.98 113.265 73.18 112.665 73.18C111.705 73.18 111.285 72.62 111.325 71.46L111.465 65.98H114.505L114.565 64.88H111.505L111.565 62.74H110.385L110.325 64.82L108.945 65.14L108.885 65.92L110.285 66L110.145 71.42C110.085 73.34 110.865 74.3 112.605 74.3C113.265 74.3 114.005 74.12 114.645 73.82ZM117.229 69.46L123.429 69.42C123.549 69.02 123.629 68.44 123.629 67.96C123.629 65.9 122.309 64.58 120.289 64.58C117.809 64.58 115.969 66.62 115.969 69.5C115.969 72.28 117.749 74.26 120.389 74.26C121.529 74.26 122.549 73.96 123.329 73.48L123.089 72.34C122.389 72.8 121.429 73.1 120.429 73.1C118.509 73.1 117.269 71.62 117.229 69.56V69.46ZM117.309 68.48C117.509 66.96 118.569 65.7 120.209 65.7C121.649 65.7 122.409 66.66 122.409 68.06C122.409 68.16 122.409 68.36 122.389 68.46L117.309 68.48Z" fill="#112353"/>
<path d="M281.689 141H282.909V131.3L279.309 132.62L279.369 133.76L281.689 132.88V141ZM295.573 136.28C295.573 133.36 293.493 131.3 290.733 131.3C287.993 131.3 285.933 133.36 285.933 136.28C285.933 139.2 287.993 141.26 290.733 141.26C293.493 141.26 295.573 139.2 295.573 136.28ZM294.333 136.28C294.333 138.44 292.853 140.08 290.733 140.08C288.633 140.08 287.173 138.44 287.173 136.28C287.173 134.12 288.633 132.48 290.733 132.48C292.853 132.48 294.333 134.12 294.333 136.28ZM303.475 131.36C303.475 129.54 302.215 128.02 300.155 128.02C298.115 128.02 296.835 129.54 296.835 131.36C296.835 133.14 298.115 134.66 300.155 134.66C302.215 134.66 303.475 133.14 303.475 131.36ZM309.575 128.22H308.495L298.355 141.3H299.455L309.575 128.22ZM311.075 138.16C311.075 136.38 309.795 134.86 307.755 134.86C305.695 134.86 304.435 136.38 304.435 138.16C304.435 139.98 305.695 141.5 307.755 141.5C309.795 141.5 311.075 139.98 311.075 138.16ZM302.575 131.36C302.575 132.66 301.675 133.8 300.155 133.8C298.655 133.8 297.755 132.66 297.755 131.36C297.755 129.98 298.655 128.88 300.155 128.88C301.675 128.88 302.575 129.98 302.575 131.36ZM310.175 138.16C310.175 139.54 309.275 140.64 307.755 140.64C306.255 140.64 305.355 139.54 305.355 138.16C305.355 136.86 306.255 135.72 307.755 135.72C309.275 135.72 310.175 136.86 310.175 138.16ZM323.309 134.6C324.969 134.18 325.709 132.98 325.709 131.76C325.709 129.86 324.449 128.5 321.449 128.5H317.549V141H321.609C324.769 141 326.109 139.56 326.109 137.52C326.109 136.06 325.149 134.96 323.309 134.6ZM324.429 131.86C324.429 133.34 323.189 134.16 321.309 134.16C321.309 134.16 318.849 134.16 318.829 134.16V129.66H321.509C323.489 129.66 324.429 130.52 324.429 131.86ZM324.829 137.52C324.829 138.94 323.909 139.84 321.709 139.84H318.829V135.32H321.389C323.609 135.32 324.829 136.06 324.829 137.52ZM329.625 141V127.26L328.385 127.52V141H329.625ZM337.286 138.98C336.726 139.62 335.886 140.18 334.906 140.18C333.826 140.18 333.026 139.56 333.026 138.58C333.026 137.36 334.146 136.66 337.286 136.3V138.98ZM337.366 139.9C337.506 140.8 338.166 141.28 339.366 141.2L339.446 140.18C338.646 140.2 338.526 139.92 338.526 139.26C338.526 139.26 338.526 134.92 338.526 134.86C338.546 132.54 337.366 131.58 335.246 131.58C334.046 131.58 332.666 132.1 331.846 132.68L332.126 133.84C332.906 133.26 334.126 132.74 335.126 132.74C336.646 132.74 337.286 133.48 337.286 134.92C337.286 134.98 337.286 135.46 337.286 135.46C333.026 135.7 331.726 137.06 331.726 138.72C331.726 140.18 332.946 141.26 334.626 141.26C335.706 141.26 336.686 140.66 337.306 139.9H337.366ZM348.015 140.48L347.755 139.34C347.055 139.8 346.135 140.1 345.215 140.1C343.275 140.1 341.975 138.64 341.975 136.4C341.975 134.22 343.215 132.74 345.195 132.74C346.155 132.74 347.035 133.02 347.735 133.48L348.055 132.36C347.275 131.86 346.315 131.58 345.195 131.58C342.595 131.58 340.695 133.58 340.695 136.44C340.695 139.28 342.415 141.26 345.175 141.26C346.235 141.26 347.235 140.96 348.015 140.48ZM351.599 136.44L355.719 141H357.299L352.879 136.2L357.279 131.84H355.719L351.599 136.06H351.559V127.26L350.319 127.52V141H351.559V136.44H351.599Z" fill="#112353"/>
<path d="M347.551 78.84L348.131 74.74H353.111L353.051 73.54H347.111L346.311 79.7L346.731 80.1C347.451 79.86 347.951 79.72 349.111 79.72C350.991 79.72 352.131 80.98 352.131 82.5C352.131 84.34 350.831 85.52 349.071 85.52C347.971 85.52 346.871 85.1 346.071 84.66L345.831 85.88C346.631 86.34 347.891 86.7 349.031 86.7C351.471 86.7 353.391 84.96 353.391 82.44C353.391 80.22 351.751 78.64 349.231 78.64C348.471 78.64 348.011 78.72 347.551 78.84ZM360.77 73.36C360.77 71.54 359.51 70.02 357.45 70.02C355.41 70.02 354.13 71.54 354.13 73.36C354.13 75.14 355.41 76.66 357.45 76.66C359.51 76.66 360.77 75.14 360.77 73.36ZM366.87 70.22H365.79L355.65 83.3H356.75L366.87 70.22ZM368.37 80.16C368.37 78.38 367.09 76.86 365.05 76.86C362.99 76.86 361.73 78.38 361.73 80.16C361.73 81.98 362.99 83.5 365.05 83.5C367.09 83.5 368.37 81.98 368.37 80.16ZM359.87 73.36C359.87 74.66 358.97 75.8 357.45 75.8C355.95 75.8 355.05 74.66 355.05 73.36C355.05 71.98 355.95 70.88 357.45 70.88C358.97 70.88 359.87 71.98 359.87 73.36ZM367.47 80.16C367.47 81.54 366.57 82.64 365.05 82.64C363.55 82.64 362.65 81.54 362.65 80.16C362.65 78.86 363.55 77.72 365.05 77.72C366.57 77.72 367.47 78.86 367.47 80.16ZM379.784 70.5H378.284L373.544 83H374.844L376.164 79.42H381.824L383.144 83H384.444L379.784 70.5ZM381.384 78.26H376.604L379.004 71.76L381.384 78.26ZM391.688 80.5C391.688 78.8 390.288 78.2 388.988 77.82C387.808 77.46 386.728 77.14 386.728 76.1C386.728 75.22 387.448 74.7 388.568 74.7C389.368 74.7 390.308 74.96 391.068 75.38L391.428 74.26C390.648 73.86 389.648 73.58 388.648 73.58C386.928 73.58 385.548 74.56 385.548 76.22C385.548 77.82 386.948 78.44 388.208 78.82C389.348 79.18 390.508 79.5 390.508 80.6C390.508 81.6 389.548 82.14 388.448 82.14C387.508 82.14 386.528 81.82 385.748 81.3L385.408 82.44C386.188 82.94 387.328 83.26 388.408 83.26C390.248 83.26 391.688 82.18 391.688 80.5ZM395.402 70.82C395.402 70.36 395.122 69.94 394.562 69.94C394.002 69.94 393.722 70.36 393.722 70.82C393.722 71.3 394.002 71.74 394.562 71.74C395.122 71.74 395.402 71.3 395.402 70.82ZM395.182 83V73.58L393.942 73.84V83H395.182ZM402.882 80.98C402.322 81.62 401.482 82.18 400.502 82.18C399.422 82.18 398.622 81.56 398.622 80.58C398.622 79.36 399.742 78.66 402.882 78.3V80.98ZM402.962 81.9C403.102 82.8 403.762 83.28 404.962 83.2L405.042 82.18C404.242 82.2 404.122 81.92 404.122 81.26C404.122 81.26 404.122 76.92 404.122 76.86C404.142 74.54 402.962 73.58 400.842 73.58C399.642 73.58 398.262 74.1 397.442 74.68L397.722 75.84C398.502 75.26 399.722 74.74 400.722 74.74C402.242 74.74 402.882 75.48 402.882 76.92C402.882 76.98 402.882 77.46 402.882 77.46C398.622 77.7 397.322 79.06 397.322 80.72C397.322 82.18 398.542 83.26 400.222 83.26C401.302 83.26 402.282 82.66 402.902 81.9H402.962ZM414.171 83V76.72C414.171 74.72 413.091 73.58 411.251 73.58C410.291 73.58 409.091 74.12 408.131 75.08V73.58L406.891 73.84V83H408.131V76.06C408.891 75.3 409.911 74.76 410.911 74.76C412.291 74.76 412.931 75.48 412.931 77.08V83H414.171Z" fill="#112353"/>
<path d="M386.299 60H387.519V50.3L383.919 51.62L383.979 52.76L386.299 51.88V60ZM400.182 55.28C400.182 52.36 398.102 50.3 395.342 50.3C392.602 50.3 390.542 52.36 390.542 55.28C390.542 58.2 392.602 60.26 395.342 60.26C398.102 60.26 400.182 58.2 400.182 55.28ZM398.942 55.28C398.942 57.44 397.462 59.08 395.342 59.08C393.242 59.08 391.782 57.44 391.782 55.28C391.782 53.12 393.242 51.48 395.342 51.48C397.462 51.48 398.942 53.12 398.942 55.28ZM408.085 50.36C408.085 48.54 406.825 47.02 404.765 47.02C402.725 47.02 401.445 48.54 401.445 50.36C401.445 52.14 402.725 53.66 404.765 53.66C406.825 53.66 408.085 52.14 408.085 50.36ZM414.185 47.22H413.105L402.965 60.3H404.065L414.185 47.22ZM415.685 57.16C415.685 55.38 414.405 53.86 412.365 53.86C410.305 53.86 409.045 55.38 409.045 57.16C409.045 58.98 410.305 60.5 412.365 60.5C414.405 60.5 415.685 58.98 415.685 57.16ZM407.185 50.36C407.185 51.66 406.285 52.8 404.765 52.8C403.265 52.8 402.365 51.66 402.365 50.36C402.365 48.98 403.265 47.88 404.765 47.88C406.285 47.88 407.185 48.98 407.185 50.36ZM414.785 57.16C414.785 58.54 413.885 59.64 412.365 59.64C410.865 59.64 409.965 58.54 409.965 57.16C409.965 55.86 410.865 54.72 412.365 54.72C413.885 54.72 414.785 55.86 414.785 57.16ZM433.799 53.7C433.799 49.84 431.139 47.24 427.659 47.24C424.079 47.24 421.499 49.96 421.499 53.78C421.499 57.64 424.159 60.26 427.639 60.26C431.219 60.26 433.799 57.52 433.799 53.7ZM432.499 53.78C432.499 56.94 430.479 59.12 427.699 59.12C424.859 59.12 422.799 56.92 422.799 53.7C422.799 50.54 424.819 48.38 427.619 48.38C430.459 48.38 432.499 50.56 432.499 53.78ZM440.738 59.82L440.518 58.74C439.958 58.98 439.358 59.18 438.758 59.18C437.798 59.18 437.378 58.62 437.418 57.46L437.558 51.98H440.598L440.658 50.88H437.598L437.658 48.74H436.478L436.418 50.82L435.038 51.14L434.978 51.92L436.378 52L436.238 57.42C436.178 59.34 436.958 60.3 438.698 60.3C439.358 60.3 440.098 60.12 440.738 59.82ZM450.04 60V53.72C450.04 51.72 448.96 50.58 447.18 50.58C446.16 50.58 444.96 51.08 444 52.04C444 52 444 46.26 444 46.26L442.76 46.52V60H444V53.06C444.76 52.3 445.78 51.76 446.84 51.76C448.16 51.76 448.8 52.48 448.8 54.08V60H450.04ZM453.518 55.46L459.718 55.42C459.838 55.02 459.918 54.44 459.918 53.96C459.918 51.9 458.598 50.58 456.578 50.58C454.098 50.58 452.258 52.62 452.258 55.5C452.258 58.28 454.038 60.26 456.678 60.26C457.818 60.26 458.838 59.96 459.618 59.48L459.378 58.34C458.678 58.8 457.718 59.1 456.718 59.1C454.798 59.1 453.558 57.62 453.518 55.56V55.46ZM453.598 54.48C453.798 52.96 454.858 51.7 456.498 51.7C457.938 51.7 458.698 52.66 458.698 54.06C458.698 54.16 458.698 54.36 458.678 54.46L453.598 54.48ZM463.493 54.12C464.213 52.48 465.113 51.76 466.073 51.76C466.593 51.76 467.073 51.92 467.473 52.16L467.793 51C467.373 50.76 466.793 50.58 466.193 50.58C464.993 50.58 464.093 51.36 463.493 52.54V50.58L462.253 50.84V60H463.493V54.12Z" fill="#112353"/>
<path d="M317.455 112H318.675V102.3L315.075 103.62L315.135 104.76L317.455 103.88V112ZM331.338 107.28C331.338 104.36 329.258 102.3 326.498 102.3C323.758 102.3 321.698 104.36 321.698 107.28C321.698 110.2 323.758 112.26 326.498 112.26C329.258 112.26 331.338 110.2 331.338 107.28ZM330.098 107.28C330.098 109.44 328.618 111.08 326.498 111.08C324.398 111.08 322.938 109.44 322.938 107.28C322.938 105.12 324.398 103.48 326.498 103.48C328.618 103.48 330.098 105.12 330.098 107.28ZM339.241 102.36C339.241 100.54 337.981 99.02 335.921 99.02C333.881 99.02 332.601 100.54 332.601 102.36C332.601 104.14 333.881 105.66 335.921 105.66C337.981 105.66 339.241 104.14 339.241 102.36ZM345.341 99.22H344.261L334.121 112.3H335.221L345.341 99.22ZM346.841 109.16C346.841 107.38 345.561 105.86 343.521 105.86C341.461 105.86 340.201 107.38 340.201 109.16C340.201 110.98 341.461 112.5 343.521 112.5C345.561 112.5 346.841 110.98 346.841 109.16ZM338.341 102.36C338.341 103.66 337.441 104.8 335.921 104.8C334.421 104.8 333.521 103.66 333.521 102.36C333.521 100.98 334.421 99.88 335.921 99.88C337.441 99.88 338.341 100.98 338.341 102.36ZM345.941 109.16C345.941 110.54 345.041 111.64 343.521 111.64C342.021 111.64 341.121 110.54 341.121 109.16C341.121 107.86 342.021 106.72 343.521 106.72C345.041 106.72 345.941 107.86 345.941 109.16ZM360.775 112V110.8H354.595V99.5H353.315V112H360.775ZM367.486 109.98C366.926 110.62 366.086 111.18 365.106 111.18C364.026 111.18 363.226 110.56 363.226 109.58C363.226 108.36 364.346 107.66 367.486 107.3V109.98ZM367.566 110.9C367.706 111.8 368.366 112.28 369.566 112.2L369.646 111.18C368.846 111.2 368.726 110.92 368.726 110.26C368.726 110.26 368.726 105.92 368.726 105.86C368.746 103.54 367.566 102.58 365.446 102.58C364.246 102.58 362.866 103.1 362.046 103.68L362.326 104.84C363.106 104.26 364.326 103.74 365.326 103.74C366.846 103.74 367.486 104.48 367.486 105.92C367.486 105.98 367.486 106.46 367.486 106.46C363.226 106.7 361.926 108.06 361.926 109.72C361.926 111.18 363.146 112.26 364.826 112.26C365.906 112.26 366.886 111.66 367.506 110.9H367.566ZM376.055 111.82L375.835 110.74C375.275 110.98 374.675 111.18 374.075 111.18C373.115 111.18 372.695 110.62 372.735 109.46L372.875 103.98H375.915L375.975 102.88H372.915L372.975 100.74H371.795L371.735 102.82L370.355 103.14L370.295 103.92L371.695 104L371.555 109.42C371.495 111.34 372.275 112.3 374.015 112.3C374.675 112.3 375.415 112.12 376.055 111.82ZM379.557 99.82C379.557 99.36 379.277 98.94 378.717 98.94C378.157 98.94 377.877 99.36 377.877 99.82C377.877 100.3 378.157 100.74 378.717 100.74C379.277 100.74 379.557 100.3 379.557 99.82ZM379.337 112V102.58L378.097 102.84V112H379.337ZM389.536 112V105.72C389.536 103.72 388.456 102.58 386.616 102.58C385.656 102.58 384.456 103.12 383.496 104.08V102.58L382.256 102.84V112H383.496V105.06C384.256 104.3 385.276 103.76 386.276 103.76C387.656 103.76 388.296 104.48 388.296 106.08V112H389.536ZM398.714 112L395.554 107.26L398.474 102.84H397.094L394.854 106.4L392.574 102.84H391.194L394.154 107.3L390.994 112H392.394L394.854 108.14L397.334 112H398.714Z" fill="#112353"/>
<rect width="273" height="36" fill="#CC3333"/>
<rect x="273" width="34" height="36" fill="#992626"/>
<rect x="307" width="35" height="36" fill="#D65C5C"/>
<rect x="342" width="15" height="36" fill="#E08585"/>
<rect x="357" width="69" height="36" fill="#FFC1C1"/>
<line x1="291.5" y1="29" x2="291.5" y2="119" stroke="#992626"/>
<line x1="325.5" y1="29" x2="325.5" y2="93" stroke="#D65C5C"/>
<line x1="349.5" y1="29" x2="349.5" y2="68" stroke="#E08585"/>
<line x1="389.5" y1="29" x2="389.5" y2="44" stroke="#FFC1C1"/>
</svg>
