<?xml version="1.0" encoding="UTF-8" standalone="no"?>
<svg
   width="560"
   height="268"
   viewBox="0 0 560 268"
   fill="none"
   version="1.1"
   id="svg153"
   sodipodi:docname="contractorRace.svg"
   inkscape:version="1.1.1 (c3084ef, 2021-09-22)"
   xmlns:inkscape="http://www.inkscape.org/namespaces/inkscape"
   xmlns:sodipodi="http://sodipodi.sourceforge.net/DTD/sodipodi-0.dtd"
   xmlns="http://www.w3.org/2000/svg"
   xmlns:svg="http://www.w3.org/2000/svg">
  <defs
     id="defs157" />
  <sodipodi:namedview
     id="namedview155"
     pagecolor="#ffffff"
     bordercolor="#666666"
     borderopacity="1.0"
     inkscape:pageshadow="2"
     inkscape:pageopacity="0.0"
     inkscape:pagecheckerboard="0"
     showgrid="false"
     inkscape:snap-bbox="true"
     inkscape:snap-global="false"
     width="559px"
     inkscape:zoom="2.0483871"
     inkscape:cx="262.40157"
     inkscape:cy="134.00787"
     inkscape:window-width="1440"
     inkscape:window-height="847"
     inkscape:window-x="0"
     inkscape:window-y="25"
     inkscape:window-maximized="1"
     inkscape:current-layer="svg153" />
  <path
     d="m 0.49273,128.736 c 0,5.544 3.06,9.864 8.49601,9.864 5.21996,0 8.35196,-3.492 8.35196,-7.992 0,-4.356 -2.952,-7.056 -6.696,-7.056 -2.55597,0 -4.35597,0.936 -5.68797,2.232 l -0.108,-0.072 c 1.116,-3.96 4.96797,-6.48 10.00797,-7.524 l -1.116,-3.672 C 5.17273,116.1 0.49273,122.184 0.49273,128.736 Z m 4.464,1.368 c 0,-0.54 0.036,-1.152 0.144,-1.62 0.828,-0.72 2.412,-1.548 4.10397,-1.548 2.268,0 3.816,1.584 3.816,3.996 0,2.52 -1.512,4.212 -3.888,4.212 -2.62797,0 -4.17597,-2.376 -4.17597,-5.04 z m 19.43887,-0.036 0.72,-5.436 h 8.856 l -0.108,-3.708 h -12.204 l -1.512,12.168 0.792,0.792 c 1.224,-0.396 2.52,-0.648 4.464,-0.648 3.276,0 4.86,1.764 4.86,3.852 0,2.52 -1.836,4.068 -4.5,4.068 -2.016,0 -4.428,-0.828 -5.904,-1.584 l -0.54,3.78 c 1.692,0.864 4.248,1.44 6.516,1.44 5.04,0 8.604,-3.276 8.604,-7.992 0,-3.996 -2.916,-6.876 -7.92,-6.876 -1.008,0 -1.548,0.108 -2.124,0.144 z m 18.4582,5.724 c 0,-1.584 -1.152,-2.772 -2.808,-2.772 -1.692,0 -2.88,1.188 -2.88,2.772 0,1.584 1.188,2.808 2.88,2.808 1.656,0 2.808,-1.224 2.808,-2.808 z m 11.8172,-3.924 c 2.484,-0.936 4.536,-2.988 4.536,-5.652 0,-3.456 -2.952,-5.796 -7.416,-5.796 -2.916,0 -5.292,1.008 -7.128,2.376 l 1.152,3.276 c 1.62,-1.188 3.384,-2.016 5.148,-2.016 2.34,0 3.672,1.044 3.672,2.88 0,2.592 -3.24,3.672 -6.66,4.392 v 3.276 c 1.044,-0.18 2.124,-0.252 3.096,-0.216 2.844,0.072 4.5,1.152 4.5,3.276 0,2.376 -1.836,3.636 -4.572,3.6 -2.124,0 -4.248,-0.648 -5.76,-1.62 l -0.612,3.636 c 1.728,0.936 4.104,1.512 6.588,1.512 4.824,0 8.748,-2.664 8.748,-7.236 0,-2.628 -1.764,-5.112 -5.292,-5.688 z m 18.8635,-11.016 c 0,-3.528 -2.304,-6.156 -6.156,-6.156 -3.816,0 -6.156,2.628 -6.156,6.156 0,3.456 2.304,6.084 6.12,6.084 3.852,0 6.192,-2.628 6.192,-6.084 z m 12.024,-5.796 h -3.204 L 64.0665,138.6 h 3.204 z m 2.808,17.748 c 0,-3.456 -2.304,-6.084 -6.12,-6.084 -3.852,0 -6.156,2.628 -6.156,6.084 0,3.528 2.268,6.156 6.12,6.156 3.816,0 6.156,-2.628 6.156,-6.156 z m -17.676,-11.952 c 0,2.124 -1.26,3.708 -3.312,3.708 -2.088,0 -3.348,-1.584 -3.348,-3.708 0,-2.196 1.26,-3.78 3.348,-3.78 2.052,0 3.312,1.548 3.312,3.78 z m 14.832,11.952 c 0,2.232 -1.26,3.78 -3.276,3.78 -2.088,0 -3.348,-1.548 -3.348,-3.78 0,-2.088 1.26,-3.708 3.312,-3.708 2.052,0 3.312,1.584 3.312,3.708 z"
     fill="#112353"
     id="path109" />
  <path
     d="m 199.604,23.756 2.52,-0.168 3.892,6.412 h 3.892 l -4.592,-7.14 c 2.38,-0.812 3.78,-2.548 3.78,-5.04 0,-3.22 -2.352,-5.32 -6.776,-5.32 0.056,0 -6.132,0 -6.132,0 V 30 h 3.416 z m -0.028,-2.688 v -5.712 c 0,0 2.184,0 2.212,0 2.436,0 3.808,0.868 3.808,2.688 0,1.904 -1.372,2.856 -3.472,2.968 z m 19.435,7.448 c 0.476,1.288 1.624,2.044 4.088,1.764 l 0.252,-2.492 c -0.98,-0.056 -1.148,-0.196 -1.148,-1.176 v -4.62 c 0.084,-3.556 -1.456,-5.32 -5.432,-5.32 -2.128,0 -4.144,0.728 -5.404,1.512 l 0.672,2.604 c 1.372,-0.784 2.968,-1.372 4.284,-1.372 1.848,0 2.576,0.728 2.576,2.464 v 0.308 c -5.908,0.196 -7.644,2.212 -7.644,4.592 0,2.044 1.68,3.64 4.004,3.64 1.596,0 2.716,-0.784 3.64,-1.904 z m -0.112,-1.624 c -0.588,0.644 -1.428,1.12 -2.464,1.12 -1.176,0 -1.932,-0.7 -1.932,-1.68 0,-1.372 1.176,-2.016 4.396,-2.408 z m 17.121,2.464 -0.532,-2.688 c -1.008,0.644 -2.24,1.008 -3.584,1.008 -2.184,0 -3.668,-1.54 -3.668,-4.172 0,-2.492 1.288,-4.116 3.668,-4.116 1.204,0 2.436,0.364 3.5,1.036 l 0.7,-2.66 c -1.176,-0.7 -2.688,-1.092 -4.452,-1.092 -4.06,0 -6.804,2.716 -6.804,6.916 0,4.228 2.492,6.832 6.692,6.832 1.736,0 3.36,-0.392 4.48,-1.064 z m 5.091,-5.18 c 0,0 8.428,-0.112 8.456,-0.112 0.168,-0.56 0.28,-1.456 0.28,-2.156 0,-3.164 -1.904,-5.236 -5.32,-5.236 -3.864,0 -6.664,2.8 -6.664,7 0,4.116 2.744,6.748 6.888,6.748 1.736,0 3.444,-0.392 4.676,-1.064 l -0.42,-2.744 c -1.176,0.728 -2.66,1.176 -4.032,1.176 -2.296,0 -3.724,-1.428 -3.864,-3.528 z m 0.084,-1.932 c 0.168,-1.596 1.26,-3.08 3.08,-3.08 1.708,0 2.464,1.092 2.464,2.828 0,0.028 0,0.168 0,0.224 z"
     fill="#112353"
     id="path111" />
  <path
     d="m 103.457,128.472 3.36,11 h 1.24 l 3.5,-12.5 h -1.28 l -2.8,10.68 -3.24,-10.68 h -1.52 l -3.18,10.68 -2.9204,-10.68 h -1.32 l 3.56,12.5 h 1.2204 z m 17.63,11 v -6.28 c 0,-2 -1.08,-3.14 -2.86,-3.14 -1.02,0 -2.22,0.5 -3.18,1.46 0,-0.04 0,-5.78 0,-5.78 l -1.24,0.26 v 13.48 h 1.24 v -6.94 c 0.76,-0.76 1.78,-1.3 2.84,-1.3 1.32,0 1.96,0.72 1.96,2.32 v 5.92 z m 4.298,-12.18 c 0,-0.46 -0.28,-0.88 -0.84,-0.88 -0.56,0 -0.84,0.42 -0.84,0.88 0,0.48 0.28,0.92 0.84,0.92 0.56,0 0.84,-0.44 0.84,-0.92 z m -0.22,12.18 v -9.42 l -1.24,0.26 v 9.16 z m 7.48,-0.18 -0.22,-1.08 c -0.56,0.24 -1.16,0.44 -1.76,0.44 -0.96,0 -1.38,-0.56 -1.34,-1.72 l 0.14,-5.48 h 3.04 l 0.06,-1.1 h -3.06 l 0.06,-2.14 h -1.18 l -0.06,2.08 -1.38,0.32 -0.06,0.78 1.4,0.08 -0.14,5.42 c -0.06,1.92 0.72,2.88 2.46,2.88 0.66,0 1.4,-0.18 2.04,-0.48 z m 2.584,-4.36 6.2,-0.04 c 0.12,-0.4 0.2,-0.98 0.2,-1.46 0,-2.06 -1.32,-3.38 -3.34,-3.38 -2.48,0 -4.32,2.04 -4.32,4.92 0,2.78 1.78,4.76 4.42,4.76 1.14,0 2.16,-0.3 2.94,-0.78 l -0.24,-1.14 c -0.7,0.46 -1.66,0.76 -2.66,0.76 -1.92,0 -3.16,-1.48 -3.2,-3.54 z m 0.08,-0.98 c 0.2,-1.52 1.26,-2.78 2.9,-2.78 1.44,0 2.2,0.96 2.2,2.36 0,0.1 0,0.3 -0.02,0.4 z"
     fill="#112353"
     id="path113" />
  <path
     d="m 352.47,194 h 1.22 v -9.7 l -3.6,1.32 0.06,1.14 2.32,-0.88 z m 13.884,-4.72 c 0,-2.92 -2.08,-4.98 -4.84,-4.98 -2.74,0 -4.8,2.06 -4.8,4.98 0,2.92 2.06,4.98 4.8,4.98 2.76,0 4.84,-2.06 4.84,-4.98 z m -1.24,0 c 0,2.16 -1.48,3.8 -3.6,3.8 -2.1,0 -3.56,-1.64 -3.56,-3.8 0,-2.16 1.46,-3.8 3.56,-3.8 2.12,0 3.6,1.64 3.6,3.8 z m 4.575,3.94 c 0,-0.54 -0.42,-1 -1,-1 -0.58,0 -1,0.46 -1,1 0,0.54 0.42,1.04 1,1.04 0.58,0 1,-0.5 1,-1.04 z m 10.805,0.48 -0.06,-1.18 h -1.9 v -8.28 h -1.08 l -6.42,8.6 0.16,0.86 h 6.14 v 3.98 h 1.2 v -3.98 z m -3.16,-1.18 h -4.7 l 4.7,-6.3 z m 10.36,-8.16 c 0,-1.82 -1.26,-3.34 -3.32,-3.34 -2.04,0 -3.32,1.52 -3.32,3.34 0,1.78 1.28,3.3 3.32,3.3 2.06,0 3.32,-1.52 3.32,-3.3 z m 6.1,-3.14 h -1.08 l -10.14,13.08 h 1.1 z m 1.5,9.94 c 0,-1.78 -1.28,-3.3 -3.32,-3.3 -2.06,0 -3.32,1.52 -3.32,3.3 0,1.82 1.26,3.34 3.32,3.34 2.04,0 3.32,-1.52 3.32,-3.34 z m -8.5,-6.8 c 0,1.3 -0.9,2.44 -2.42,2.44 -1.5,0 -2.4,-1.14 -2.4,-2.44 0,-1.38 0.9,-2.48 2.4,-2.48 1.52,0 2.42,1.1 2.42,2.48 z m 7.6,6.8 c 0,1.38 -0.9,2.48 -2.42,2.48 -1.5,0 -2.4,-1.1 -2.4,-2.48 0,-1.3 0.9,-2.44 2.4,-2.44 1.52,0 2.42,1.14 2.42,2.44 z m 13.134,-3.56 c 1.66,-0.42 2.4,-1.62 2.4,-2.84 0,-1.9 -1.26,-3.26 -4.26,-3.26 h -3.9 V 194 h 4.06 c 3.16,0 4.5,-1.44 4.5,-3.48 0,-1.46 -0.96,-2.56 -2.8,-2.92 z m 1.12,-2.74 c 0,1.48 -1.24,2.3 -3.12,2.3 0,0 -2.46,0 -2.48,0 v -4.5 h 2.68 c 1.98,0 2.92,0.86 2.92,2.2 z m 0.4,5.66 c 0,1.42 -0.92,2.32 -3.12,2.32 h -2.88 v -4.52 h 2.56 c 2.22,0 3.44,0.74 3.44,2.2 z m 4.796,3.48 v -13.74 l -1.24,0.26 V 194 Z m 7.661,-2.02 c -0.56,0.64 -1.4,1.2 -2.38,1.2 -1.08,0 -1.88,-0.62 -1.88,-1.6 0,-1.22 1.12,-1.92 4.26,-2.28 z m 0.08,0.92 c 0.14,0.9 0.8,1.38 2,1.3 l 0.08,-1.02 c -0.8,0.02 -0.92,-0.26 -0.92,-0.92 0,0 0,-4.34 0,-4.4 0.02,-2.32 -1.16,-3.28 -3.28,-3.28 -1.2,0 -2.58,0.52 -3.4,1.1 l 0.28,1.16 c 0.78,-0.58 2,-1.1 3,-1.1 1.52,0 2.16,0.74 2.16,2.18 0,0.06 0,0.54 0,0.54 -4.26,0.24 -5.56,1.6 -5.56,3.26 0,1.46 1.22,2.54 2.9,2.54 1.08,0 2.06,-0.6 2.68,-1.36 z m 10.649,0.58 -0.26,-1.14 c -0.7,0.46 -1.62,0.76 -2.54,0.76 -1.94,0 -3.24,-1.46 -3.24,-3.7 0,-2.18 1.24,-3.66 3.22,-3.66 0.96,0 1.84,0.28 2.54,0.74 l 0.32,-1.12 c -0.78,-0.5 -1.74,-0.78 -2.86,-0.78 -2.6,0 -4.5,2 -4.5,4.86 0,2.84 1.72,4.82 4.48,4.82 1.06,0 2.06,-0.3 2.84,-0.78 z m 3.584,-4.04 4.12,4.56 h 1.58 l -4.42,-4.8 4.4,-4.36 h -1.56 l -4.12,4.22 h -0.04 v -8.8 l -1.24,0.26 V 194 h 1.24 v -4.56 z"
     fill="#112353"
     id="path115" />
  <path
     d="m 241.633,258 h 1.22 v -9.7 l -3.6,1.32 0.06,1.14 2.32,-0.88 z m 5.383,-4.16 0.58,-4.1 h 4.98 l -0.06,-1.2 h -5.94 l -0.8,6.16 0.42,0.4 c 0.72,-0.24 1.22,-0.38 2.38,-0.38 1.88,0 3.02,1.26 3.02,2.78 0,1.84 -1.3,3.02 -3.06,3.02 -1.1,0 -2.2,-0.42 -3,-0.86 l -0.24,1.22 c 0.8,0.46 2.06,0.82 3.2,0.82 2.44,0 4.36,-1.74 4.36,-4.26 0,-2.22 -1.64,-3.8 -4.16,-3.8 -0.76,0 -1.22,0.08 -1.68,0.2 z m 9.354,3.38 c 0,-0.54 -0.42,-1 -1,-1 -0.58,0 -1,0.46 -1,1 0,0.54 0.42,1.04 1,1.04 0.58,0 1,-0.5 1,-1.04 z m 1.34,-3.98 c 0,2.76 1.54,5.02 4.26,5.02 2.5,0 4.1,-1.76 4.1,-4.12 0,-2.4 -1.72,-3.72 -3.62,-3.72 -1.38,0 -2.48,0.58 -3.36,1.4 l -0.04,-0.02 c 0.58,-2.54 2.62,-4.6 5.98,-5.4 l -0.36,-1.16 c -4.74,1.1 -6.96,4.68 -6.96,8 z m 1.3,0.26 c 0,-0.22 0.02,-0.46 0.06,-0.66 0.82,-0.78 1.92,-1.32 3.14,-1.32 1.46,0 2.6,1 2.6,2.68 0,1.7 -1.08,2.92 -2.8,2.92 -1.9,0 -3,-1.7 -3,-3.62 z m 14.819,-5.14 c 0,-1.82 -1.26,-3.34 -3.32,-3.34 -2.04,0 -3.32,1.52 -3.32,3.34 0,1.78 1.28,3.3 3.32,3.3 2.06,0 3.32,-1.52 3.32,-3.3 z m 6.1,-3.14 h -1.08 l -10.14,13.08 h 1.1 z m 1.5,9.94 c 0,-1.78 -1.28,-3.3 -3.32,-3.3 -2.06,0 -3.32,1.52 -3.32,3.3 0,1.82 1.26,3.34 3.32,3.34 2.04,0 3.32,-1.52 3.32,-3.34 z m -8.5,-6.8 c 0,1.3 -0.9,2.44 -2.42,2.44 -1.5,0 -2.4,-1.14 -2.4,-2.44 0,-1.38 0.9,-2.48 2.4,-2.48 1.52,0 2.42,1.1 2.42,2.48 z m 7.6,6.8 c 0,1.38 -0.9,2.48 -2.42,2.48 -1.5,0 -2.4,-1.1 -2.4,-2.48 0,-1.3 0.9,-2.44 2.4,-2.44 1.52,0 2.42,1.14 2.42,2.44 z m 12.314,-9.66 h -1.5 l -4.74,12.5 h 1.3 l 1.32,-3.58 h 5.66 l 1.32,3.58 h 1.3 z m 1.6,7.76 h -4.78 l 2.4,-6.5 z m 10.304,2.24 c 0,-1.7 -1.4,-2.3 -2.7,-2.68 -1.18,-0.36 -2.26,-0.68 -2.26,-1.72 0,-0.88 0.72,-1.4 1.84,-1.4 0.8,0 1.74,0.26 2.5,0.68 l 0.36,-1.12 c -0.78,-0.4 -1.78,-0.68 -2.78,-0.68 -1.72,0 -3.1,0.98 -3.1,2.64 0,1.6 1.4,2.22 2.66,2.6 1.14,0.36 2.3,0.68 2.3,1.78 0,1 -0.96,1.54 -2.06,1.54 -0.94,0 -1.92,-0.32 -2.7,-0.84 l -0.34,1.14 c 0.78,0.5 1.92,0.82 3,0.82 1.84,0 3.28,-1.08 3.28,-2.76 z m 3.714,-9.68 c 0,-0.46 -0.28,-0.88 -0.84,-0.88 -0.56,0 -0.84,0.42 -0.84,0.88 0,0.48 0.28,0.92 0.84,0.92 0.56,0 0.84,-0.44 0.84,-0.92 z m -0.22,12.18 v -9.42 l -1.24,0.26 V 258 Z m 7.7,-2.02 c -0.56,0.64 -1.4,1.2 -2.38,1.2 -1.08,0 -1.88,-0.62 -1.88,-1.6 0,-1.22 1.12,-1.92 4.26,-2.28 z m 0.08,0.92 c 0.14,0.9 0.8,1.38 2,1.3 l 0.08,-1.02 c -0.8,0.02 -0.92,-0.26 -0.92,-0.92 0,0 0,-4.34 0,-4.4 0.02,-2.32 -1.16,-3.28 -3.28,-3.28 -1.2,0 -2.58,0.52 -3.4,1.1 l 0.28,1.16 c 0.78,-0.58 2,-1.1 3,-1.1 1.52,0 2.16,0.74 2.16,2.18 0,0.06 0,0.54 0,0.54 -4.26,0.24 -5.56,1.6 -5.56,3.26 0,1.46 1.22,2.54 2.9,2.54 1.08,0 2.06,-0.6 2.68,-1.36 z m 11.209,1.1 v -6.28 c 0,-2 -1.08,-3.14 -2.92,-3.14 -0.96,0 -2.16,0.54 -3.12,1.5 v -1.5 l -1.24,0.26 V 258 h 1.24 v -6.94 c 0.76,-0.76 1.78,-1.3 2.78,-1.3 1.38,0 2.02,0.72 2.02,2.32 V 258 Z"
     fill="#112353"
     id="path117" />
  <path
     d="m 406.241,168.462 h 1.098 v -8.73 l -3.24,1.188 0.054,1.026 2.088,-0.792 z m 5.196,-0.702 c 0,-0.486 -0.378,-0.9 -0.9,-0.9 -0.522,0 -0.9,0.414 -0.9,0.9 0,0.486 0.378,0.936 0.9,0.936 0.522,0 0.9,-0.45 0.9,-0.936 z m 1.206,-3.582 c 0,2.484 1.386,4.518 3.834,4.518 2.25,0 3.69,-1.584 3.69,-3.708 0,-2.16 -1.548,-3.348 -3.258,-3.348 -1.242,0 -2.232,0.522 -3.024,1.26 l -0.036,-0.018 c 0.522,-2.286 2.358,-4.14 5.382,-4.86 l -0.324,-1.044 c -4.266,0.99 -6.264,4.212 -6.264,7.2 z m 1.17,0.234 c 0,-0.198 0.018,-0.414 0.054,-0.594 0.738,-0.702 1.728,-1.188 2.826,-1.188 1.314,0 2.34,0.9 2.34,2.412 0,1.53 -0.972,2.628 -2.52,2.628 -1.71,0 -2.7,-1.53 -2.7,-3.258 z m 13.336,-4.626 c 0,-1.638 -1.134,-3.006 -2.988,-3.006 -1.836,0 -2.988,1.368 -2.988,3.006 0,1.602 1.152,2.97 2.988,2.97 1.854,0 2.988,-1.368 2.988,-2.97 z m 5.49,-2.826 h -0.972 l -9.126,11.772 h 0.99 z m 1.35,8.946 c 0,-1.602 -1.152,-2.97 -2.988,-2.97 -1.854,0 -2.988,1.368 -2.988,2.97 0,1.638 1.134,3.006 2.988,3.006 1.836,0 2.988,-1.368 2.988,-3.006 z m -7.65,-6.12 c 0,1.17 -0.81,2.196 -2.178,2.196 -1.35,0 -2.16,-1.026 -2.16,-2.196 0,-1.242 0.81,-2.232 2.16,-2.232 1.368,0 2.178,0.99 2.178,2.232 z m 6.84,6.12 c 0,1.242 -0.81,2.232 -2.178,2.232 -1.35,0 -2.16,-0.99 -2.16,-2.232 0,-1.17 0.81,-2.196 2.16,-2.196 1.368,0 2.178,1.026 2.178,2.196 z m 14.323,0.954 -6.39,-9.648 h -1.296 v 11.25 h 1.116 v -9.63 l 6.444,9.738 h 1.242 v -11.358 h -1.116 z m 8.179,-0.216 c -0.504,0.576 -1.26,1.08 -2.142,1.08 -0.972,0 -1.692,-0.558 -1.692,-1.44 0,-1.098 1.008,-1.728 3.834,-2.052 z m 0.072,0.828 c 0.126,0.81 0.72,1.242 1.8,1.17 l 0.072,-0.918 c -0.72,0.018 -0.828,-0.234 -0.828,-0.828 0,0 0,-3.906 0,-3.96 0.018,-2.088 -1.044,-2.952 -2.952,-2.952 -1.08,0 -2.322,0.468 -3.06,0.99 l 0.252,1.044 c 0.702,-0.522 1.8,-0.99 2.7,-0.99 1.368,0 1.944,0.666 1.944,1.962 0,0.054 0,0.486 0,0.486 -3.834,0.216 -5.004,1.44 -5.004,2.934 0,1.314 1.098,2.286 2.61,2.286 0.972,0 1.854,-0.54 2.412,-1.224 z m 7.64,0.828 -0.198,-0.972 c -0.504,0.216 -1.044,0.396 -1.584,0.396 -0.864,0 -1.242,-0.504 -1.206,-1.548 l 0.126,-4.932 h 2.736 l 0.054,-0.99 h -2.754 l 0.054,-1.926 h -1.062 l -0.054,1.872 -1.242,0.288 -0.054,0.702 1.26,0.072 -0.126,4.878 c -0.054,1.728 0.648,2.592 2.214,2.592 0.594,0 1.26,-0.162 1.836,-0.432 z m 3.152,-10.8 c 0,-0.414 -0.252,-0.792 -0.756,-0.792 -0.504,0 -0.756,0.378 -0.756,0.792 0,0.432 0.252,0.828 0.756,0.828 0.504,0 0.756,-0.396 0.756,-0.828 z m -0.198,10.962 v -8.478 l -1.116,0.234 v 8.244 z m 8.892,-8.244 h -1.17 l -2.52,6.804 -2.61,-6.804 h -1.206 l 3.258,8.262 h 1.008 z m 1.871,4.158 5.58,-0.036 c 0.108,-0.36 0.18,-0.882 0.18,-1.314 0,-1.854 -1.188,-3.042 -3.006,-3.042 -2.232,0 -3.888,1.836 -3.888,4.428 0,2.502 1.602,4.284 3.978,4.284 1.026,0 1.944,-0.27 2.646,-0.702 l -0.216,-1.026 c -0.63,0.414 -1.494,0.684 -2.394,0.684 -1.728,0 -2.844,-1.332 -2.88,-3.186 z m 0.072,-0.882 c 0.18,-1.368 1.134,-2.502 2.61,-2.502 1.296,0 1.98,0.864 1.98,2.124 0,0.09 0,0.27 -0.018,0.36 z"
     fill="#112353"
     id="path119" />
  <path
     d="m 421.908,138.221 c 0,-2.628 -1.872,-4.482 -4.356,-4.482 -2.466,0 -4.32,1.854 -4.32,4.482 0,2.628 1.854,4.482 4.32,4.482 2.484,0 4.356,-1.854 4.356,-4.482 z m -1.116,0 c 0,1.944 -1.332,3.42 -3.24,3.42 -1.89,0 -3.204,-1.476 -3.204,-3.42 0,-1.944 1.314,-3.42 3.204,-3.42 1.908,0 3.24,1.476 3.24,3.42 z m 4.117,3.546 c 0,-0.486 -0.378,-0.9 -0.9,-0.9 -0.522,0 -0.9,0.414 -0.9,0.9 0,0.486 0.378,0.936 0.9,0.936 0.522,0 0.9,-0.45 0.9,-0.936 z m 4.892,-2.304 c 1.332,-0.504 2.466,-1.566 2.466,-2.952 0,-1.62 -1.242,-2.772 -3.24,-2.772 -1.224,0 -2.376,0.54 -3.186,1.188 l 0.414,0.936 c 0.774,-0.612 1.71,-1.08 2.664,-1.08 1.314,0 2.16,0.666 2.16,1.872 0,1.422 -1.566,2.322 -3.726,2.844 v 0.918 c 0.576,-0.108 1.116,-0.162 1.638,-0.162 1.458,0.036 2.52,0.792 2.52,2.16 0,1.476 -1.134,2.358 -2.718,2.358 -1.062,0 -2.034,-0.324 -2.646,-0.702 l -0.288,1.026 c 0.702,0.432 1.854,0.702 2.898,0.702 2.16,0 3.924,-1.35 3.924,-3.474 0,-1.44 -1.062,-2.718 -2.88,-2.862 z m 9.485,-5.67 c 0,-1.638 -1.134,-3.006 -2.988,-3.006 -1.836,0 -2.988,1.368 -2.988,3.006 0,1.602 1.152,2.97 2.988,2.97 1.854,0 2.988,-1.368 2.988,-2.97 z m 5.49,-2.826 h -0.972 l -9.126,11.772 h 0.99 z m 1.35,8.946 c 0,-1.602 -1.152,-2.97 -2.988,-2.97 -1.854,0 -2.988,1.368 -2.988,2.97 0,1.638 1.134,3.006 2.988,3.006 1.836,0 2.988,-1.368 2.988,-3.006 z m -7.65,-6.12 c 0,1.17 -0.81,2.196 -2.178,2.196 -1.35,0 -2.16,-1.026 -2.16,-2.196 0,-1.242 0.81,-2.232 2.16,-2.232 1.368,0 2.178,0.99 2.178,2.232 z m 6.84,6.12 c 0,1.242 -0.81,2.232 -2.178,2.232 -1.35,0 -2.16,-0.99 -2.16,-2.232 0,-1.17 0.81,-2.196 2.16,-2.196 1.368,0 2.178,1.026 2.178,2.196 z m 13.855,-5.184 c 0,-2.07 -1.422,-3.51 -4.392,-3.51 -0.144,0 -2.826,0 -2.826,0 v 11.25 h 1.152 v -3.96 l 1.53,-0.018 c 2.79,-0.036 4.536,-1.296 4.536,-3.762 z m -1.188,0.054 c 0,1.746 -1.152,2.592 -3.276,2.628 l -1.602,0.036 v -5.166 c 0,0 1.494,0 1.638,0 2.106,0 3.24,0.9 3.24,2.502 z m 7.374,5.868 c -0.504,0.576 -1.26,1.08 -2.142,1.08 -0.972,0 -1.692,-0.558 -1.692,-1.44 0,-1.098 1.008,-1.728 3.834,-2.052 z m 0.072,0.828 c 0.126,0.81 0.72,1.242 1.8,1.17 l 0.072,-0.918 c -0.72,0.018 -0.828,-0.234 -0.828,-0.828 0,0 0,-3.906 0,-3.96 0.018,-2.088 -1.044,-2.952 -2.952,-2.952 -1.08,0 -2.322,0.468 -3.06,0.99 l 0.252,1.044 c 0.702,-0.522 1.8,-0.99 2.7,-0.99 1.368,0 1.944,0.666 1.944,1.962 0,0.054 0,0.486 0,0.486 -3.834,0.216 -5.004,1.44 -5.004,2.934 0,1.314 1.098,2.286 2.61,2.286 0.972,0 1.854,-0.54 2.412,-1.224 z m 9.584,0.522 -0.234,-1.026 c -0.63,0.414 -1.458,0.684 -2.286,0.684 -1.746,0 -2.916,-1.314 -2.916,-3.33 0,-1.962 1.116,-3.294 2.898,-3.294 0.864,0 1.656,0.252 2.286,0.666 l 0.288,-1.008 c -0.702,-0.45 -1.566,-0.702 -2.574,-0.702 -2.34,0 -4.05,1.8 -4.05,4.374 0,2.556 1.548,4.338 4.032,4.338 0.954,0 1.854,-0.27 2.556,-0.702 z m 3.405,-10.494 c 0,-0.414 -0.252,-0.792 -0.756,-0.792 -0.504,0 -0.756,0.378 -0.756,0.792 0,0.432 0.252,0.828 0.756,0.828 0.504,0 0.756,-0.396 0.756,-0.828 z m -0.198,10.962 v -8.478 l -1.116,0.234 v 8.244 z m 9.216,-10.962 c 0,-0.414 -0.27,-0.792 -0.756,-0.792 -0.504,0 -0.756,0.378 -0.756,0.792 0,0.432 0.252,0.828 0.756,0.828 0.486,0 0.756,-0.396 0.756,-0.828 z m -2.358,-1.206 c -0.378,-0.18 -0.954,-0.36 -1.512,-0.36 -1.44,0 -2.448,0.792 -2.484,2.97 l -0.018,1.296 -1.242,0.288 -0.072,0.702 1.332,0.09 v 7.182 h 1.098 v -7.218 h 2.538 l 0.054,-0.99 h -2.592 v -1.368 c 0,-1.332 0.45,-1.926 1.368,-1.926 0.45,0 0.882,0.162 1.26,0.342 0,0.018 0.27,-0.99 0.27,-1.008 z m 2.16,12.168 v -8.478 l -1.116,0.234 v 8.244 z m 8.64,-0.468 -0.234,-1.026 c -0.63,0.414 -1.458,0.684 -2.286,0.684 -1.746,0 -2.916,-1.314 -2.916,-3.33 0,-1.962 1.116,-3.294 2.898,-3.294 0.864,0 1.656,0.252 2.286,0.666 l 0.288,-1.008 c -0.702,-0.45 -1.566,-0.702 -2.574,-0.702 -2.34,0 -4.05,1.8 -4.05,4.374 0,2.556 1.548,4.338 4.032,4.338 0.954,0 1.854,-0.27 2.556,-0.702 z m 7.483,0.468 v -11.25 h -1.134 v 11.25 z m 7.732,-2.25 c 0,-1.53 -1.26,-2.07 -2.43,-2.412 -1.062,-0.324 -2.034,-0.612 -2.034,-1.548 0,-0.792 0.648,-1.26 1.656,-1.26 0.72,0 1.566,0.234 2.25,0.612 l 0.324,-1.008 c -0.702,-0.36 -1.602,-0.612 -2.502,-0.612 -1.548,0 -2.79,0.882 -2.79,2.376 0,1.44 1.26,1.998 2.394,2.34 1.026,0.324 2.07,0.612 2.07,1.602 0,0.9 -0.864,1.386 -1.854,1.386 -0.846,0 -1.728,-0.288 -2.43,-0.756 l -0.306,1.026 c 0.702,0.45 1.728,0.738 2.7,0.738 1.656,0 2.952,-0.972 2.952,-2.484 z m 3.127,2.25 v -12.366 l -1.116,0.234 v 12.132 z m 6.895,-1.818 c -0.504,0.576 -1.26,1.08 -2.142,1.08 -0.972,0 -1.692,-0.558 -1.692,-1.44 0,-1.098 1.008,-1.728 3.834,-2.052 z m 0.072,0.828 c 0.126,0.81 0.72,1.242 1.8,1.17 l 0.072,-0.918 c -0.72,0.018 -0.828,-0.234 -0.828,-0.828 0,0 0,-3.906 0,-3.96 0.018,-2.088 -1.044,-2.952 -2.952,-2.952 -1.08,0 -2.322,0.468 -3.06,0.99 l 0.252,1.044 c 0.702,-0.522 1.8,-0.99 2.7,-0.99 1.368,0 1.944,0.666 1.944,1.962 0,0.054 0,0.486 0,0.486 -3.834,0.216 -5.004,1.44 -5.004,2.934 0,1.314 1.098,2.286 2.61,2.286 0.972,0 1.854,-0.54 2.412,-1.224 z m 10.088,0.99 v -5.652 c 0,-1.8 -0.972,-2.826 -2.628,-2.826 -0.864,0 -1.944,0.486 -2.808,1.35 v -1.35 l -1.116,0.234 v 8.244 h 1.116 v -6.246 c 0.684,-0.684 1.602,-1.17 2.502,-1.17 1.242,0 1.818,0.648 1.818,2.088 v 5.328 z m 8.08,-7.974 c -0.54,-0.252 -1.296,-0.45 -1.998,-0.45 -2.376,0 -4.086,1.818 -4.086,4.374 0,2.502 1.476,4.284 3.69,4.284 1.026,0 1.854,-0.504 2.394,-1.008 0,0.036 0,0.774 0,0.774 h 1.116 v -12.366 l -1.116,0.234 z m 0,1.188 c 0,0 0,5.112 0,5.076 -0.576,0.54 -1.35,0.918 -2.196,0.918 -1.674,0 -2.736,-1.368 -2.736,-3.276 0,-1.944 1.116,-3.348 2.88,-3.348 0.792,0 1.548,0.234 2.052,0.63 z m 4.296,2.7 5.58,-0.036 c 0.108,-0.36 0.18,-0.882 0.18,-1.314 0,-1.854 -1.188,-3.042 -3.006,-3.042 -2.232,0 -3.888,1.836 -3.888,4.428 0,2.502 1.602,4.284 3.978,4.284 1.026,0 1.944,-0.27 2.646,-0.702 l -0.216,-1.026 c -0.63,0.414 -1.494,0.684 -2.394,0.684 -1.728,0 -2.844,-1.332 -2.88,-3.186 z m 0.072,-0.882 c 0.18,-1.368 1.134,-2.502 2.61,-2.502 1.296,0 1.98,0.864 1.98,2.124 0,0.09 0,0.27 -0.018,0.36 z m 8.905,-0.324 c 0.648,-1.476 1.458,-2.124 2.322,-2.124 0.468,0 0.9,0.144 1.26,0.36 l 0.288,-1.044 c -0.378,-0.216 -0.9,-0.378 -1.44,-0.378 -1.08,0 -1.89,0.702 -2.43,1.764 v -1.764 l -1.116,0.234 v 8.244 h 1.116 z"
     fill="#112353"
     id="path121" />
  <path
     d="m 425.614,119.725 v -1.062 c 0,0 -4.824,0 -4.86,0 2.43,-1.836 4.446,-3.114 4.446,-5.076 0,-1.53 -1.206,-2.592 -2.952,-2.592 -1.206,0 -2.214,0.468 -3.06,1.134 l 0.396,0.954 c 0.792,-0.612 1.656,-1.044 2.556,-1.044 1.17,0 1.89,0.738 1.89,1.692 0,1.44 -1.872,2.718 -4.86,4.968 v 1.026 z m 3.23,-0.702 c 0,-0.486 -0.378,-0.9 -0.9,-0.9 -0.522,0 -0.9,0.414 -0.9,0.9 0,0.486 0.378,0.936 0.9,0.936 0.522,0 0.9,-0.45 0.9,-0.936 z m 9.848,-3.546 c 0,-2.628 -1.872,-4.482 -4.356,-4.482 -2.466,0 -4.32,1.854 -4.32,4.482 0,2.628 1.854,4.482 4.32,4.482 2.484,0 4.356,-1.854 4.356,-4.482 z m -1.116,0 c 0,1.944 -1.332,3.42 -3.24,3.42 -1.89,0 -3.204,-1.476 -3.204,-3.42 0,-1.944 1.314,-3.42 3.204,-3.42 1.908,0 3.24,1.476 3.24,3.42 z m 8.229,-4.428 c 0,-1.638 -1.134,-3.006 -2.988,-3.006 -1.836,0 -2.988,1.368 -2.988,3.006 0,1.602 1.152,2.97 2.988,2.97 1.854,0 2.988,-1.368 2.988,-2.97 z m 5.49,-2.826 h -0.972 l -9.126,11.772 h 0.99 z m 1.35,8.946 c 0,-1.602 -1.152,-2.97 -2.988,-2.97 -1.854,0 -2.988,1.368 -2.988,2.97 0,1.638 1.134,3.006 2.988,3.006 1.836,0 2.988,-1.368 2.988,-3.006 z m -7.65,-6.12 c 0,1.17 -0.81,2.196 -2.178,2.196 -1.35,0 -2.16,-1.026 -2.16,-2.196 0,-1.242 0.81,-2.232 2.16,-2.232 1.368,0 2.178,0.99 2.178,2.232 z m 6.84,6.12 c 0,1.242 -0.81,2.232 -2.178,2.232 -1.35,0 -2.16,-0.99 -2.16,-2.232 0,-1.17 0.81,-2.196 2.16,-2.196 1.368,0 2.178,1.026 2.178,2.196 z m 17.112,-3.114 c 0,-3.474 -2.394,-5.814 -5.526,-5.814 -3.222,0 -5.544,2.448 -5.544,5.886 0,3.474 2.394,5.832 5.526,5.832 3.222,0 5.544,-2.466 5.544,-5.904 z m -1.17,0.072 c 0,2.844 -1.818,4.806 -4.32,4.806 -2.556,0 -4.41,-1.98 -4.41,-4.878 0,-2.844 1.818,-4.788 4.338,-4.788 2.556,0 4.392,1.962 4.392,4.86 z m 7.416,5.436 -0.198,-0.972 c -0.504,0.216 -1.044,0.396 -1.584,0.396 -0.864,0 -1.242,-0.504 -1.206,-1.548 l 0.126,-4.932 h 2.736 l 0.054,-0.99 h -2.754 l 0.054,-1.926 h -1.062 l -0.054,1.872 -1.242,0.288 -0.054,0.702 1.26,0.072 -0.126,4.878 c -0.054,1.728 0.648,2.592 2.214,2.592 0.594,0 1.26,-0.162 1.836,-0.432 z m 8.372,0.162 v -5.652 c 0,-1.8 -0.972,-2.826 -2.574,-2.826 -0.918,0 -1.998,0.45 -2.862,1.314 0,-0.036 0,-5.202 0,-5.202 l -1.116,0.234 v 12.132 h 1.116 v -6.246 c 0.684,-0.684 1.602,-1.17 2.556,-1.17 1.188,0 1.764,0.648 1.764,2.088 v 5.328 z m 3.13,-4.086 5.58,-0.036 c 0.108,-0.36 0.18,-0.882 0.18,-1.314 0,-1.854 -1.188,-3.042 -3.006,-3.042 -2.232,0 -3.888,1.836 -3.888,4.428 0,2.502 1.602,4.284 3.978,4.284 1.026,0 1.944,-0.27 2.646,-0.702 l -0.216,-1.026 c -0.63,0.414 -1.494,0.684 -2.394,0.684 -1.728,0 -2.844,-1.332 -2.88,-3.186 z m 0.072,-0.882 c 0.18,-1.368 1.134,-2.502 2.61,-2.502 1.296,0 1.98,0.864 1.98,2.124 0,0.09 0,0.27 -0.018,0.36 z m 8.905,-0.324 c 0.648,-1.476 1.458,-2.124 2.322,-2.124 0.468,0 0.9,0.144 1.26,0.36 l 0.288,-1.044 c -0.378,-0.216 -0.9,-0.378 -1.44,-0.378 -1.08,0 -1.89,0.702 -2.43,1.764 v -1.764 l -1.116,0.234 v 8.244 h 1.116 z"
     fill="#112353"
     id="path123" />
  <path
     d="m 296.492,226.782 h 1.22 v -9.7 l -3.6,1.32 0.06,1.14 2.32,-0.88 z m 5.383,-4.16 0.58,-4.1 h 4.98 l -0.06,-1.2 h -5.94 l -0.8,6.16 0.42,0.4 c 0.72,-0.24 1.22,-0.38 2.38,-0.38 1.88,0 3.02,1.26 3.02,2.78 0,1.84 -1.3,3.02 -3.06,3.02 -1.1,0 -2.2,-0.42 -3,-0.86 l -0.24,1.22 c 0.8,0.46 2.06,0.82 3.2,0.82 2.44,0 4.36,-1.74 4.36,-4.26 0,-2.22 -1.64,-3.8 -4.16,-3.8 -0.76,0 -1.22,0.08 -1.68,0.2 z m 9.355,3.38 c 0,-0.54 -0.42,-1 -1,-1 -0.58,0 -1,0.46 -1,1 0,0.54 0.42,1.04 1,1.04 0.58,0 1,-0.5 1,-1.04 z m 5.435,-2.56 c 1.48,-0.56 2.74,-1.74 2.74,-3.28 0,-1.8 -1.38,-3.08 -3.6,-3.08 -1.36,0 -2.64,0.6 -3.54,1.32 l 0.46,1.04 c 0.86,-0.68 1.9,-1.2 2.96,-1.2 1.46,0 2.4,0.74 2.4,2.08 0,1.58 -1.74,2.58 -4.14,3.16 v 1.02 c 0.64,-0.12 1.24,-0.18 1.82,-0.18 1.62,0.04 2.8,0.88 2.8,2.4 0,1.64 -1.26,2.62 -3.02,2.62 -1.18,0 -2.26,-0.36 -2.94,-0.78 l -0.32,1.14 c 0.78,0.48 2.06,0.78 3.22,0.78 2.4,0 4.36,-1.5 4.36,-3.86 0,-1.6 -1.18,-3.02 -3.2,-3.18 z m 10.539,-6.3 c 0,-1.82 -1.26,-3.34 -3.32,-3.34 -2.04,0 -3.32,1.52 -3.32,3.34 0,1.78 1.28,3.3 3.32,3.3 2.06,0 3.32,-1.52 3.32,-3.3 z m 6.1,-3.14 h -1.08 l -10.14,13.08 h 1.1 z m 1.5,9.94 c 0,-1.78 -1.28,-3.3 -3.32,-3.3 -2.06,0 -3.32,1.52 -3.32,3.3 0,1.82 1.26,3.34 3.32,3.34 2.04,0 3.32,-1.52 3.32,-3.34 z m -8.5,-6.8 c 0,1.3 -0.9,2.44 -2.42,2.44 -1.5,0 -2.4,-1.14 -2.4,-2.44 0,-1.38 0.9,-2.48 2.4,-2.48 1.52,0 2.42,1.1 2.42,2.48 z m 7.6,6.8 c 0,1.38 -0.9,2.48 -2.42,2.48 -1.5,0 -2.4,-1.1 -2.4,-2.48 0,-1.3 0.9,-2.44 2.4,-2.44 1.52,0 2.42,1.14 2.42,2.44 z m 14.834,2.84 v -1.2 h -6.18 v -11.3 h -1.28 v 12.5 z m 6.711,-2.02 c -0.56,0.64 -1.4,1.2 -2.38,1.2 -1.08,0 -1.88,-0.62 -1.88,-1.6 0,-1.22 1.12,-1.92 4.26,-2.28 z m 0.08,0.92 c 0.14,0.9 0.8,1.38 2,1.3 l 0.08,-1.02 c -0.8,0.02 -0.92,-0.26 -0.92,-0.92 0,0 0,-4.34 0,-4.4 0.02,-2.32 -1.16,-3.28 -3.28,-3.28 -1.2,0 -2.58,0.52 -3.4,1.1 l 0.28,1.16 c 0.78,-0.58 2,-1.1 3,-1.1 1.52,0 2.16,0.74 2.16,2.18 0,0.06 0,0.54 0,0.54 -4.26,0.24 -5.56,1.6 -5.56,3.26 0,1.46 1.22,2.54 2.9,2.54 1.08,0 2.06,-0.6 2.68,-1.36 z m 8.489,0.92 -0.22,-1.08 c -0.56,0.24 -1.16,0.44 -1.76,0.44 -0.96,0 -1.38,-0.56 -1.34,-1.72 l 0.14,-5.48 h 3.04 l 0.06,-1.1 h -3.06 l 0.06,-2.14 h -1.18 l -0.06,2.08 -1.38,0.32 -0.06,0.78 1.4,0.08 -0.14,5.42 c -0.06,1.92 0.72,2.88 2.46,2.88 0.66,0 1.4,-0.18 2.04,-0.48 z m 3.502,-12 c 0,-0.46 -0.28,-0.88 -0.84,-0.88 -0.56,0 -0.84,0.42 -0.84,0.88 0,0.48 0.28,0.92 0.84,0.92 0.56,0 0.84,-0.44 0.84,-0.92 z m -0.22,12.18 v -9.42 l -1.24,0.26 v 9.16 z m 10.199,0 v -6.28 c 0,-2 -1.08,-3.14 -2.92,-3.14 -0.96,0 -2.16,0.54 -3.12,1.5 v -1.5 l -1.24,0.26 v 9.16 h 1.24 v -6.94 c 0.76,-0.76 1.78,-1.3 2.78,-1.3 1.38,0 2.02,0.72 2.02,2.32 v 5.92 z m 9.178,0 -3.16,-4.74 2.92,-4.42 h -1.38 l -2.24,3.56 -2.28,-3.56 h -1.38 l 2.96,4.46 -3.16,4.7 h 1.4 l 2.46,-3.86 2.48,3.86 z"
     fill="#112353"
     id="path125" />
  <rect
     x="1"
     y="63"
     width="251"
     height="36"
     fill="#cc3333"
     id="rect127" />
  <rect
     x="368"
     y="63"
     width="39"
     height="36"
     fill="#e08585"
     id="rect129" />
  <rect
     x="309"
     y="63"
     width="59"
     height="36"
     fill="#d65c5c"
     id="rect131" />
  <rect
     x="252"
     y="63"
     width="57"
     height="36"
     fill="#992626"
     id="rect133" />
  <rect
     x="407"
     y="63"
     width="7"
     height="36"
     fill="#ffc1c1"
     id="rect135" />
  <rect
     x="418"
     y="63"
     width="8"
     height="36"
     fill="#ffe6e6"
     id="rect137" />
  <rect
     x="414"
     y="63"
     width="4"
     height="36"
     fill="#ffd3d3"
     id="rect139" />
  <line
     x1="368.5"
     y1="90"
     x2="368.5"
     y2="177"
     stroke="#e08585"
     id="line141" />
  <line
     x1="309.5"
     y1="89.522797"
     x2="309.5"
     y2="205.52299"
     stroke="#d65c5c"
     id="line143" />
  <line
     x1="252.5"
     y1="94"
     x2="252.5"
     y2="237"
     stroke="#992626"
     id="line145" />
  <line
     x1="407.5"
     y1="89.522797"
     x2="407.5"
     y2="156.52299"
     stroke="#ffc1c1"
     id="line147" />
  <line
     x1="417.5"
     y1="93.522797"
     x2="417.5"
     y2="129.52299"
     stroke="#ffd3d3"
     id="line149" />
  <line
     x1="425.5"
     y1="91.522797"
     x2="425.5"
     y2="106.523"
     stroke="#ffe5e5"
     id="line151" />
</svg>
