<?xml version="1.0" encoding="UTF-8" standalone="no"?>
<svg
   width="544"
   height="161.66"
   viewBox="0 0 544 161.66"
   fill="none"
   version="1.1"
   id="svg27"
   sodipodi:docname="Group 453.svg"
   inkscape:version="1.1.1 (c3084ef, 2021-09-22)"
   xmlns:inkscape="http://www.inkscape.org/namespaces/inkscape"
   xmlns:sodipodi="http://sodipodi.sourceforge.net/DTD/sodipodi-0.dtd"
   xmlns="http://www.w3.org/2000/svg"
   xmlns:svg="http://www.w3.org/2000/svg">
  <defs
     id="defs31" />
  <sodipodi:namedview
     id="namedview29"
     pagecolor="#ffffff"
     bordercolor="#666666"
     borderopacity="1.0"
     inkscape:pageshadow="2"
     inkscape:pageopacity="0.0"
     inkscape:pagecheckerboard="0"
     showgrid="false"
     fit-margin-top="0"
     fit-margin-left="0"
     fit-margin-right="0"
     fit-margin-bottom="0"
     inkscape:zoom="2.0857664"
     inkscape:cx="267.28784"
     inkscape:cy="76.950131"
     inkscape:window-width="1920"
     inkscape:window-height="1027"
     inkscape:window-x="1440"
     inkscape:window-y="25"
     inkscape:window-maximized="1"
     inkscape:current-layer="svg27" />
  <path
     d="m 20.5019,74.748 -0.108,-3.564 h -3.42 v -13.68 h -4.32 l -10.69198,14.688 0.468,2.556 H 12.9419 v 6.696 h 4.032 V 74.748 Z M 13.0859,71.22 H 6.71392 l 6.37198,-8.964 z m 20.9107,-7.668 c 2.16,-0.72 3.924,-2.664 3.924,-5.148 0,-3.528 -2.592,-6.156 -7.416,-6.156 -5.148,0 -7.92,2.772 -7.92,6.552 0,2.664 1.872,4.212 4.104,5.256 -2.34,0.576 -4.428,2.628 -4.428,5.328 0,3.6 2.952,6.156 7.956,6.156 5.364,0 8.064,-2.952 8.064,-6.588 0,-2.772 -1.944,-4.32 -4.284,-5.4 z M 31.3326,62.4 c -2.628,-0.972 -4.644,-1.98 -4.644,-3.852 0,-1.692 1.332,-3.06 3.672,-3.06 2.016,0 3.564,1.26 3.564,3.348 0,1.476 -1.008,2.808 -2.592,3.564 z m -2.016,2.808 c 2.7,1.008 4.932,2.016 4.932,4.068 0,1.908 -1.368,3.024 -3.816,3.024 -2.448,0 -4.104,-1.368 -4.104,-3.348 0,-1.584 1.116,-2.988 2.988,-3.744 z m 17.5176,7.524 c 0,-1.584 -1.152,-2.772 -2.808,-2.772 -1.692,0 -2.88,1.188 -2.88,2.772 0,1.584 1.188,2.808 2.88,2.808 1.656,0 2.808,-1.224 2.808,-2.808 z m 21.3044,2.016 -0.108,-3.564 h -3.42 v -13.68 h -4.32 l -10.692,14.688 0.468,2.556 h 10.512 v 6.696 h 4.032 v -6.696 z m -7.416,-3.528 h -6.372 l 6.372,-8.964 z M 81.4173,57.792 c 0,-3.528 -2.304,-6.156 -6.156,-6.156 -3.816,0 -6.156,2.628 -6.156,6.156 0,3.456 2.304,6.084 6.12,6.084 3.852,0 6.192,-2.628 6.192,-6.084 z m 12.024,-5.796 h -3.204 L 71.9493,75.54 h 3.204 z m 2.808,17.748 c 0,-3.456 -2.304,-6.084 -6.12,-6.084 -3.852,0 -6.156,2.628 -6.156,6.084 0,3.528 2.268,6.156 6.12,6.156 3.816,0 6.156,-2.628 6.156,-6.156 z M 78.5733,57.792 c 0,2.124 -1.26,3.708 -3.312,3.708 -2.088,0 -3.348,-1.584 -3.348,-3.708 0,-2.196 1.26,-3.78 3.348,-3.78 2.052,0 3.312,1.548 3.312,3.78 z m 14.832,11.952 c 0,2.232 -1.26,3.78 -3.276,3.78 -2.088,0 -3.348,-1.548 -3.348,-3.78 0,-2.088 1.26,-3.708 3.312,-3.708 2.052,0 3.312,1.584 3.312,3.708 z"
     fill="#112353"
     id="path9" />
  <path
     d="m 222.859,75.748 -0.108,-3.564 h -3.42 v -13.68 h -4.32 l -10.692,14.688 0.468,2.556 h 10.512 v 6.696 h 4.032 v -6.696 z m -7.416,-3.528 h -6.372 l 6.372,-8.964 z m 19.903,-9.54 -9.72,19.764 h 4.212 l 9.9,-20.448 v -3.132 h -15.732 l -0.108,3.816 z m 10.998,11.052 c 0,-1.584 -1.152,-2.772 -2.808,-2.772 -1.692,0 -2.88,1.188 -2.88,2.772 0,1.584 1.188,2.808 2.88,2.808 1.656,0 2.808,-1.224 2.808,-2.808 z m 7.065,-5.724 0.72,-5.436 h 8.856 l -0.108,-3.708 h -12.204 l -1.512,12.168 0.792,0.792 c 1.224,-0.396 2.52,-0.648 4.464,-0.648 3.276,0 4.86,1.764 4.86,3.852 0,2.52 -1.836,4.068 -4.5,4.068 -2.016,0 -4.428,-0.828 -5.904,-1.584 l -0.54,3.78 c 1.692,0.864 4.248,1.44 6.516,1.44 5.04,0 8.604,-3.276 8.604,-7.992 0,-3.996 -2.916,-6.876 -7.92,-6.876 -1.008,0 -1.548,0.108 -2.124,0.144 z m 23.651,-9.216 c 0,-3.528 -2.304,-6.156 -6.156,-6.156 -3.816,0 -6.156,2.628 -6.156,6.156 0,3.456 2.304,6.084 6.12,6.084 3.852,0 6.192,-2.628 6.192,-6.084 z m 12.024,-5.796 H 285.88 L 267.592,76.54 h 3.204 z m 2.808,17.748 c 0,-3.456 -2.304,-6.084 -6.12,-6.084 -3.852,0 -6.156,2.628 -6.156,6.084 0,3.528 2.268,6.156 6.12,6.156 3.816,0 6.156,-2.628 6.156,-6.156 z M 274.216,58.792 c 0,2.124 -1.26,3.708 -3.312,3.708 -2.088,0 -3.348,-1.584 -3.348,-3.708 0,-2.196 1.26,-3.78 3.348,-3.78 2.052,0 3.312,1.548 3.312,3.78 z m 14.832,11.952 c 0,2.232 -1.26,3.78 -3.276,3.78 -2.088,0 -3.348,-1.548 -3.348,-3.78 0,-2.088 1.26,-3.708 3.312,-3.708 2.052,0 3.312,1.584 3.312,3.708 z"
     fill="#112353"
     id="path11" />
  <path
     d="m 116.766,82 h 1.3 l -0.4,-12.5 h -1.7 l -4.16,11.04 -4.22,-11.04 h -1.72 l -0.42,12.5 h 1.26 l 0.22,-10.94 4.14,10.86 h 1.4 l 4.1,-10.84 z m 4.695,-4.54 6.2,-0.04 c 0.12,-0.4 0.2,-0.98 0.2,-1.46 0,-2.06 -1.32,-3.38 -3.34,-3.38 -2.48,0 -4.32,2.04 -4.32,4.92 0,2.78 1.78,4.76 4.42,4.76 1.14,0 2.16,-0.3 2.94,-0.78 l -0.24,-1.14 c -0.7,0.46 -1.66,0.76 -2.66,0.76 -1.92,0 -3.16,-1.48 -3.2,-3.54 z m 0.08,-0.98 c 0.2,-1.52 1.26,-2.78 2.9,-2.78 1.44,0 2.2,0.96 2.2,2.36 0,0.1 0,0.3 -0.02,0.4 z M 137.476,82 v -6.28 c 0,-2 -1.08,-3.14 -2.92,-3.14 -0.96,0 -2.16,0.54 -3.12,1.5 v -1.5 l -1.24,0.26 V 82 h 1.24 v -6.94 c 0.76,-0.76 1.78,-1.3 2.78,-1.3 1.38,0 2.02,0.72 2.02,2.32 V 82 Z"
     fill="#112353"
     id="path13" />
  <path
     d="m 308.171,70 3.36,11 h 1.24 l 3.5,-12.5 h -1.28 l -2.8,10.68 -3.24,-10.68 h -1.52 l -3.18,10.68 -2.92,-10.68 h -1.32 l 3.56,12.5 h 1.22 z m 17.773,6.4 c 0,-2.94 -1.84,-4.82 -4.4,-4.82 -2.56,0 -4.52,1.94 -4.52,4.86 0,2.94 1.88,4.82 4.42,4.82 2.54,0 4.5,-1.94 4.5,-4.86 z m -1.22,0.04 c 0,2.16 -1.28,3.7 -3.22,3.7 -1.94,0 -3.24,-1.5 -3.24,-3.74 0,-2.16 1.28,-3.7 3.22,-3.7 1.94,0 3.24,1.5 3.24,3.74 z M 340.929,81 v -6.26 c 0,-2.02 -1.08,-3.16 -2.82,-3.16 -1.06,0 -2.22,0.5 -3.24,1.52 -0.44,-1.02 -1.34,-1.52 -2.48,-1.52 -0.94,0 -1.96,0.4 -2.9,1.26 0,-0.08 0,-1.26 0,-1.26 l -1.24,0.26 V 81 h 1.24 v -7.18 c 0.7,-0.62 1.58,-1.06 2.54,-1.06 1.32,0 1.94,0.74 1.94,2.34 V 81 h 1.24 v -6.24 c 0,-0.22 -0.02,-0.7 -0.04,-0.82 0.7,-0.66 1.6,-1.18 2.58,-1.18 1.32,0 1.94,0.74 1.94,2.34 V 81 Z m 3.487,-4.54 6.2,-0.04 c 0.12,-0.4 0.2,-0.98 0.2,-1.46 0,-2.06 -1.32,-3.38 -3.34,-3.38 -2.48,0 -4.32,2.04 -4.32,4.92 0,2.78 1.78,4.76 4.42,4.76 1.14,0 2.16,-0.3 2.94,-0.78 l -0.24,-1.14 c -0.7,0.46 -1.66,0.76 -2.66,0.76 -1.92,0 -3.16,-1.48 -3.2,-3.54 z m 0.08,-0.98 c 0.2,-1.52 1.26,-2.78 2.9,-2.78 1.44,0 2.2,0.96 2.2,2.36 0,0.1 0,0.3 -0.02,0.4 z M 360.431,81 v -6.28 c 0,-2 -1.08,-3.14 -2.92,-3.14 -0.96,0 -2.16,0.54 -3.12,1.5 v -1.5 l -1.24,0.26 V 81 h 1.24 v -6.94 c 0.76,-0.76 1.78,-1.3 2.78,-1.3 1.38,0 2.02,0.72 2.02,2.32 V 81 Z"
     fill="#112353"
     id="path15" />
  <path
     d="m 420.092,93 -0.036,-3.636 h -8.496 c 4.68,-2.916 7.704,-5.112 7.704,-8.568 0,-3.24 -2.628,-5.436 -6.768,-5.436 -2.736,0 -5.292,0.972 -7.128,2.34 l 1.152,3.312 c 1.764,-1.224 3.456,-1.98 5.148,-1.98 1.98,0 3.096,1.008 3.096,2.448 0,2.376 -3.852,4.644 -9.18,8.316 V 93 Z m 8.443,-2.268 c 0,-1.584 -1.152,-2.772 -2.808,-2.772 -1.692,0 -2.88,1.188 -2.88,2.772 0,1.584 1.188,2.808 2.88,2.808 1.656,0 2.808,-1.224 2.808,-2.808 z m 19.378,-5.508 c 0,-5.58 -3.06,-9.864 -8.496,-9.864 -5.22,0 -8.352,3.528 -8.352,8.064 0,4.32 2.988,6.948 6.768,6.948 2.412,0 4.248,-0.936 5.508,-2.196 l 0.108,0.072 c -1.044,3.96 -4.86,6.444 -9.9,7.524 l 1.116,3.636 c 8.604,-1.584 13.248,-7.632 13.248,-14.184 z m -4.464,-1.368 c 0,0.54 -0.036,1.152 -0.144,1.584 -0.828,0.756 -2.412,1.584 -4.104,1.584 -2.268,0 -3.816,-1.584 -3.816,-3.996 0,-2.52 1.512,-4.212 3.888,-4.212 2.628,0 4.176,2.376 4.176,5.04 z m 18.791,-8.064 c 0,-3.528 -2.304,-6.156 -6.156,-6.156 -3.816,0 -6.156,2.628 -6.156,6.156 0,3.456 2.304,6.084 6.12,6.084 3.852,0 6.192,-2.628 6.192,-6.084 z m 12.024,-5.796 H 471.06 L 452.772,93.54 h 3.204 z m 2.808,17.748 c 0,-3.456 -2.304,-6.084 -6.12,-6.084 -3.852,0 -6.156,2.628 -6.156,6.084 0,3.528 2.268,6.156 6.12,6.156 3.816,0 6.156,-2.628 6.156,-6.156 z M 459.396,75.792 c 0,2.124 -1.26,3.708 -3.312,3.708 -2.088,0 -3.348,-1.584 -3.348,-3.708 0,-2.196 1.26,-3.78 3.348,-3.78 2.052,0 3.312,1.548 3.312,3.78 z m 14.832,11.952 c 0,2.232 -1.26,3.78 -3.276,3.78 -2.088,0 -3.348,-1.548 -3.348,-3.78 0,-2.088 1.26,-3.708 3.312,-3.708 2.052,0 3.312,1.584 3.312,3.708 z M 414.14,119.22 407.04,108.5 H 405.6 V 121 h 1.24 v -10.7 l 7.16,10.82 h 1.38 V 108.5 h -1.24 z m 12.628,-2.82 c 0,-2.94 -1.84,-4.82 -4.4,-4.82 -2.56,0 -4.52,1.94 -4.52,4.86 0,2.94 1.88,4.82 4.42,4.82 2.54,0 4.5,-1.94 4.5,-4.86 z m -1.22,0.04 c 0,2.16 -1.28,3.7 -3.22,3.7 -1.94,0 -3.24,-1.5 -3.24,-3.74 0,-2.16 1.28,-3.7 3.22,-3.7 1.94,0 3.24,1.5 3.24,3.74 z m 10.805,4.56 v -6.28 c 0,-2 -1.08,-3.14 -2.92,-3.14 -0.96,0 -2.16,0.54 -3.12,1.5 v -1.5 l -1.24,0.26 V 121 h 1.24 v -6.94 c 0.76,-0.76 1.78,-1.3 2.78,-1.3 1.38,0 2.02,0.72 2.02,2.32 V 121 Z m 10.817,-4.7 c 0,-2.74 -1.58,-4.66 -4,-4.66 -1.18,0 -2.14,0.58 -2.76,1.16 0,-0.06 0,-5.54 0,-5.54 l -1.24,0.26 v 13.78 l 1.24,-0.54 c 0.6,0.28 1.5,0.5 2.24,0.5 2.64,0 4.52,-2.08 4.52,-4.96 z m -1.28,0.06 c 0,2.2 -1.22,3.78 -3.18,3.78 -0.88,0 -1.74,-0.28 -2.3,-0.72 0,0 0,-5.68 0,-5.62 0.66,-0.6 1.52,-1.02 2.52,-1.02 1.82,0 2.96,1.5 2.96,3.58 z m 4.975,-7.54 c 0,-0.46 -0.28,-0.88 -0.84,-0.88 -0.56,0 -0.84,0.42 -0.84,0.88 0,0.48 0.28,0.92 0.84,0.92 0.56,0 0.84,-0.44 0.84,-0.92 z m -0.22,12.18 v -9.42 l -1.24,0.26 V 121 Z m 10.2,0 v -6.28 c 0,-2 -1.08,-3.14 -2.92,-3.14 -0.96,0 -2.16,0.54 -3.12,1.5 v -1.5 l -1.24,0.26 V 121 h 1.24 v -6.94 c 0.76,-0.76 1.78,-1.3 2.78,-1.3 1.38,0 2.02,0.72 2.02,2.32 V 121 Z m 7.598,-2.02 c -0.56,0.64 -1.4,1.2 -2.38,1.2 -1.08,0 -1.88,-0.62 -1.88,-1.6 0,-1.22 1.12,-1.92 4.26,-2.28 z m 0.08,0.92 c 0.14,0.9 0.8,1.38 2,1.3 l 0.08,-1.02 c -0.8,0.02 -0.92,-0.26 -0.92,-0.92 0,0 0,-4.34 0,-4.4 0.02,-2.32 -1.16,-3.28 -3.28,-3.28 -1.2,0 -2.58,0.52 -3.4,1.1 l 0.28,1.16 c 0.78,-0.58 2,-1.1 3,-1.1 1.52,0 2.16,0.74 2.16,2.18 0,0.06 0,0.54 0,0.54 -4.26,0.24 -5.56,1.6 -5.56,3.26 0,1.46 1.22,2.54 2.9,2.54 1.08,0 2.06,-0.6 2.68,-1.36 z m 5.169,-4.78 c 0.72,-1.64 1.62,-2.36 2.58,-2.36 0.52,0 1,0.16 1.4,0.4 l 0.32,-1.16 c -0.42,-0.24 -1,-0.42 -1.6,-0.42 -1.2,0 -2.1,0.78 -2.7,1.96 v -1.96 l -1.24,0.26 V 121 h 1.24 z m 13.142,-3.28 h -1.3 l -2.82,7.56 -2.88,-7.56 h -1.34 l 3.58,9.02 -0.62,1.62 c -0.66,1.74 -1.18,2.12 -1.88,2.12 -0.5,0 -0.96,-0.16 -1.4,-0.4 l -0.38,1.14 c 0.56,0.24 1.08,0.42 1.78,0.42 1.24,0 2.12,-0.64 2.96,-2.88 l 0.74,-1.98 z m 10.847,7.14 c -0.56,0.64 -1.4,1.2 -2.38,1.2 -1.08,0 -1.88,-0.62 -1.88,-1.6 0,-1.22 1.12,-1.92 4.26,-2.28 z m 0.08,0.92 c 0.14,0.9 0.8,1.38 2,1.3 l 0.08,-1.02 c -0.8,0.02 -0.92,-0.26 -0.92,-0.92 0,0 0,-4.34 0,-4.4 0.02,-2.32 -1.16,-3.28 -3.28,-3.28 -1.2,0 -2.58,0.52 -3.4,1.1 l 0.28,1.16 c 0.78,-0.58 2,-1.1 3,-1.1 1.52,0 2.16,0.74 2.16,2.18 0,0.06 0,0.54 0,0.54 -4.26,0.24 -5.56,1.6 -5.56,3.26 0,1.46 1.22,2.54 2.9,2.54 1.08,0 2.06,-0.6 2.68,-1.36 z m 11.209,1.1 v -6.28 c 0,-2 -1.08,-3.14 -2.92,-3.14 -0.96,0 -2.16,0.54 -3.12,1.5 v -1.5 l -1.24,0.26 V 121 h 1.24 v -6.94 c 0.76,-0.76 1.78,-1.3 2.78,-1.3 1.38,0 2.02,0.72 2.02,2.32 V 121 Z m 8.978,-8.86 c -0.6,-0.28 -1.44,-0.5 -2.22,-0.5 -2.64,0 -4.54,2.02 -4.54,4.86 0,2.78 1.64,4.76 4.1,4.76 1.14,0 2.06,-0.56 2.66,-1.12 0,0.04 0,0.86 0,0.86 h 1.24 v -13.74 l -1.24,0.26 z m 0,1.32 c 0,0 0,5.68 0,5.64 -0.64,0.6 -1.5,1.02 -2.44,1.02 -1.86,0 -3.04,-1.52 -3.04,-3.64 0,-2.16 1.24,-3.72 3.2,-3.72 0.88,0 1.72,0.26 2.28,0.7 z M 415.24,148.02 v -5.24 h -4.86 v 1.16 H 414 v 3.4 c -0.8,0.44 -1.82,0.76 -3,0.76 -2.86,0 -4.76,-2.06 -4.76,-5.36 0,-3.4 2,-5.34 4.72,-5.34 1.3,0 2.62,0.44 3.56,1.04 l 0.42,-1.16 c -0.92,-0.56 -2.42,-1.04 -3.96,-1.04 -3.5,0 -6.04,2.56 -6.04,6.54 0,3.96 2.42,6.48 6.04,6.48 1.42,0 3.04,-0.42 4.26,-1.24 z m 3.36,-3.56 6.2,-0.04 c 0.12,-0.4 0.2,-0.98 0.2,-1.46 0,-2.06 -1.32,-3.38 -3.34,-3.38 -2.48,0 -4.32,2.04 -4.32,4.92 0,2.78 1.78,4.76 4.42,4.76 1.14,0 2.16,-0.3 2.94,-0.78 l -0.24,-1.14 c -0.7,0.46 -1.66,0.76 -2.66,0.76 -1.92,0 -3.16,-1.48 -3.2,-3.54 z m 0.08,-0.98 c 0.2,-1.52 1.26,-2.78 2.9,-2.78 1.44,0 2.2,0.96 2.2,2.36 0,0.1 0,0.3 -0.02,0.4 z m 15.935,5.52 v -6.28 c 0,-2 -1.08,-3.14 -2.92,-3.14 -0.96,0 -2.16,0.54 -3.12,1.5 v -1.5 l -1.24,0.26 V 149 h 1.24 v -6.94 c 0.76,-0.76 1.78,-1.3 2.78,-1.3 1.38,0 2.02,0.72 2.02,2.32 V 149 Z m 8.977,-8.86 c -0.6,-0.28 -1.44,-0.5 -2.22,-0.5 -2.64,0 -4.54,2.02 -4.54,4.86 0,2.78 1.64,4.76 4.1,4.76 1.14,0 2.06,-0.56 2.66,-1.12 0,0.04 0,0.86 0,0.86 h 1.24 v -13.74 l -1.24,0.26 z m 0,1.32 c 0,0 0,5.68 0,5.64 -0.64,0.6 -1.5,1.02 -2.44,1.02 -1.86,0 -3.04,-1.52 -3.04,-3.64 0,-2.16 1.24,-3.72 3.2,-3.72 0.88,0 1.72,0.26 2.28,0.7 z m 4.774,3 6.2,-0.04 c 0.12,-0.4 0.2,-0.98 0.2,-1.46 0,-2.06 -1.32,-3.38 -3.34,-3.38 -2.48,0 -4.32,2.04 -4.32,4.92 0,2.78 1.78,4.76 4.42,4.76 1.14,0 2.16,-0.3 2.94,-0.78 l -0.24,-1.14 c -0.7,0.46 -1.66,0.76 -2.66,0.76 -1.92,0 -3.16,-1.48 -3.2,-3.54 z m 0.08,-0.98 c 0.2,-1.52 1.26,-2.78 2.9,-2.78 1.44,0 2.2,0.96 2.2,2.36 0,0.1 0,0.3 -0.02,0.4 z m 9.894,-0.36 c 0.72,-1.64 1.62,-2.36 2.58,-2.36 0.52,0 1,0.16 1.4,0.4 l 0.32,-1.16 c -0.42,-0.24 -1,-0.42 -1.6,-0.42 -1.2,0 -2.1,0.78 -2.7,1.96 v -1.96 l -1.24,0.26 V 149 h 1.24 z M 476.5,149 v -1.18 h -6.28 v -4.5 h 5.24 v -1.16 h -5.24 v -4.48 h 6.28 v -1.18 h -7.56 V 149 Z m 8.777,0 -3.16,-4.74 2.92,-4.42 h -1.38 l -2.24,3.56 -2.28,-3.56 h -1.38 l 2.96,4.46 -3.16,4.7 h 1.4 l 2.46,-3.86 2.48,3.86 z m 2.751,-8.24 c 0,-0.06 0,-1.22 0,-1.22 l -1.24,0.26 v 13.86 h 1.24 v -4.88 c 0.6,0.28 1.52,0.48 2.24,0.48 2.64,0 4.52,-2.04 4.52,-4.88 0,-2.78 -1.62,-4.74 -4.1,-4.74 -1.12,0 -2.04,0.54 -2.66,1.12 z m 0,1.04 c 0.66,-0.6 1.52,-1.02 2.46,-1.02 1.86,0 3.02,1.5 3.02,3.62 0,2.16 -1.22,3.74 -3.18,3.74 -0.88,0 -1.74,-0.28 -2.3,-0.72 0,0 0,-5.68 0,-5.62 z m 13.833,5.18 c -0.56,0.64 -1.4,1.2 -2.38,1.2 -1.08,0 -1.88,-0.62 -1.88,-1.6 0,-1.22 1.12,-1.92 4.26,-2.28 z m 0.08,0.92 c 0.14,0.9 0.8,1.38 2,1.3 l 0.08,-1.02 c -0.8,0.02 -0.92,-0.26 -0.92,-0.92 0,0 0,-4.34 0,-4.4 0.02,-2.32 -1.16,-3.28 -3.28,-3.28 -1.2,0 -2.58,0.52 -3.4,1.1 l 0.28,1.16 c 0.78,-0.58 2,-1.1 3,-1.1 1.52,0 2.16,0.74 2.16,2.18 0,0.06 0,0.54 0,0.54 -4.26,0.24 -5.56,1.6 -5.56,3.26 0,1.46 1.22,2.54 2.9,2.54 1.08,0 2.06,-0.6 2.68,-1.36 z m 11.209,1.1 v -6.28 c 0,-2 -1.08,-3.14 -2.92,-3.14 -0.96,0 -2.16,0.54 -3.12,1.5 v -1.5 l -1.24,0.26 V 149 h 1.24 v -6.94 c 0.76,-0.76 1.78,-1.3 2.78,-1.3 1.38,0 2.02,0.72 2.02,2.32 V 149 Z m 8.317,-2.5 c 0,-1.7 -1.4,-2.3 -2.7,-2.68 -1.18,-0.36 -2.26,-0.68 -2.26,-1.72 0,-0.88 0.72,-1.4 1.84,-1.4 0.8,0 1.74,0.26 2.5,0.68 l 0.36,-1.12 c -0.78,-0.4 -1.78,-0.68 -2.78,-0.68 -1.72,0 -3.1,0.98 -3.1,2.64 0,1.6 1.4,2.22 2.66,2.6 1.14,0.36 2.3,0.68 2.3,1.78 0,1 -0.96,1.54 -2.06,1.54 -0.94,0 -1.92,-0.32 -2.7,-0.84 l -0.34,1.14 c 0.78,0.5 1.92,0.82 3,0.82 1.84,0 3.28,-1.08 3.28,-2.76 z m 3.715,-9.68 c 0,-0.46 -0.28,-0.88 -0.84,-0.88 -0.56,0 -0.84,0.42 -0.84,0.88 0,0.48 0.28,0.92 0.84,0.92 0.56,0 0.84,-0.44 0.84,-0.92 z m -0.22,12.18 v -9.42 l -1.24,0.26 V 149 Z m 9.879,-9.16 h -1.3 l -2.8,7.56 -2.9,-7.56 h -1.34 l 3.62,9.18 h 1.12 z m 2.079,4.62 6.2,-0.04 c 0.12,-0.4 0.2,-0.98 0.2,-1.46 0,-2.06 -1.32,-3.38 -3.34,-3.38 -2.48,0 -4.32,2.04 -4.32,4.92 0,2.78 1.78,4.76 4.42,4.76 1.14,0 2.16,-0.3 2.94,-0.78 l -0.24,-1.14 c -0.7,0.46 -1.66,0.76 -2.66,0.76 -1.92,0 -3.16,-1.48 -3.2,-3.54 z m 0.08,-0.98 c 0.2,-1.52 1.26,-2.78 2.9,-2.78 1.44,0 2.2,0.96 2.2,2.36 0,0.1 0,0.3 -0.02,0.4 z"
     fill="#112353"
     id="path17" />
  <rect
     x="0"
     width="202"
     height="36"
     fill="#cc3333"
     id="rect19"
     y="0" />
  <rect
     x="202"
     width="207"
     height="36"
     fill="#992626"
     id="rect21"
     y="0" />
  <rect
     x="409"
     width="16"
     height="36"
     fill="#ffc1c1"
     id="rect23"
     y="0" />
  <line
     x1="409.5"
     y1="28"
     x2="409.5"
     y2="60"
     stroke="#ffc1c1"
     id="line25" />
</svg>
