<?xml version="1.0" encoding="UTF-8" standalone="no"?>
<svg
   width="548"
   height="200"
   viewBox="0 0 548 200"
   fill="none"
   version="1.1"
   id="svg196"
   sodipodi:docname="contractorGender.svg"
   inkscape:version="1.1.1 (c3084ef, 2021-09-22)"
   xmlns:inkscape="http://www.inkscape.org/namespaces/inkscape"
   xmlns:sodipodi="http://sodipodi.sourceforge.net/DTD/sodipodi-0.dtd"
   xmlns="http://www.w3.org/2000/svg"
   xmlns:svg="http://www.w3.org/2000/svg">
  <defs
     id="defs200" />
  <sodipodi:namedview
     id="namedview198"
     pagecolor="#ffffff"
     bordercolor="#666666"
     borderopacity="1.0"
     inkscape:pageshadow="2"
     inkscape:pageopacity="0.0"
     inkscape:pagecheckerboard="0"
     showgrid="false"
     inkscape:zoom="2.0565693"
     inkscape:cx="269.13753"
     inkscape:cy="101.86868"
     inkscape:window-width="1296"
     inkscape:window-height="847"
     inkscape:window-x="1565"
     inkscape:window-y="66"
     inkscape:window-maximized="0"
     inkscape:current-layer="svg196" />
  <path
     d="m 20.556913,138.7205 -0.108,-3.564 h -3.42 v -13.68 h -4.32 l -10.6919797,14.688 0.468,2.556 H 12.996913 v 6.696 h 4.032 v -6.696 z m -7.416,-3.528 H 6.7689333 l 6.3719797,-8.964 z m 20.9107,-7.668 c 2.16,-0.72 3.924,-2.664 3.924,-5.148 0,-3.528 -2.592,-6.156 -7.416,-6.156 -5.148,0 -7.92,2.772 -7.92,6.552 0,2.664 1.872,4.212 4.104,5.256 -2.34,0.576 -4.428,2.628 -4.428,5.328 0,3.6 2.952,6.156 7.956,6.156 5.364,0 8.064,-2.952 8.064,-6.588 0,-2.772 -1.944,-4.32 -4.284,-5.4 z m -2.664,-1.152 c -2.628,-0.972 -4.644,-1.98 -4.644,-3.852 0,-1.692 1.332,-3.06 3.672,-3.06 2.016,0 3.564,1.26 3.564,3.348 0,1.476 -1.008,2.808 -2.592,3.564 z m -2.016,2.808 c 2.7,1.008 4.932,2.016 4.932,4.068 0,1.908 -1.368,3.024 -3.816,3.024 -2.448,0 -4.104,-1.368 -4.104,-3.348 0,-1.584 1.116,-2.988 2.988,-3.744 z m 17.5176,7.524 c 0,-1.584 -1.152,-2.772 -2.808,-2.772 -1.692,0 -2.88,1.188 -2.88,2.772 0,1.584 1.188,2.808 2.88,2.808 1.656,0 2.808,-1.224 2.808,-2.808 z m 21.3044,2.016 -0.108,-3.564 h -3.42 v -13.68 h -4.32 l -10.692,14.688 0.468,2.556 h 10.512 v 6.696 h 4.032 v -6.696 z m -7.416,-3.528 h -6.372 l 6.372,-8.964 z m 20.6947,-13.428 c 0,-3.528 -2.304,-6.156 -6.156,-6.156 -3.816,0 -6.156,2.628 -6.156,6.156 0,3.456 2.304,6.084 6.12,6.084 3.852,0 6.192,-2.628 6.192,-6.084 z m 12.024,-5.796 h -3.204 l -18.288,23.544 h 3.204 z m 2.808,17.748 c 0,-3.456 -2.304,-6.084 -6.12,-6.084 -3.852,0 -6.156,2.628 -6.156,6.084 0,3.528 2.268,6.156 6.12,6.156 3.816,0 6.156,-2.628 6.156,-6.156 z m -17.676,-11.952 c 0,2.124 -1.26,3.708 -3.312,3.708 -2.088,0 -3.348,-1.584 -3.348,-3.708 0,-2.196 1.26,-3.78 3.348,-3.78 2.052,0 3.312,1.548 3.312,3.78 z m 14.832,11.952 c 0,2.232 -1.26,3.78 -3.276,3.78 -2.088,0 -3.348,-1.548 -3.348,-3.78 0,-2.088 1.26,-3.708 3.312,-3.708 2.052,0 3.312,1.584 3.312,3.708 z"
     fill="#112353"
     id="path176" />
  <path
     d="m 222.91401,139.7205 -0.108,-3.564 h -3.42 v -13.68 h -4.32 l -10.692,14.688 0.468,2.556 h 10.512 v 6.696 h 4.032 v -6.696 z m -7.416,-3.528 h -6.372 l 6.372,-8.964 z m 19.903,-9.54 -9.72,19.764 h 4.212 l 9.9,-20.448 v -3.132 h -15.732 l -0.108,3.816 z m 10.998,11.052 c 0,-1.584 -1.152,-2.772 -2.808,-2.772 -1.692,0 -2.88,1.188 -2.88,2.772 0,1.584 1.188,2.808 2.88,2.808 1.656,0 2.808,-1.224 2.808,-2.808 z m 7.065,-5.724 0.72,-5.436 h 8.856 l -0.108,-3.708 h -12.204 l -1.512,12.168 0.792,0.792 c 1.224,-0.396 2.52,-0.648 4.464,-0.648 3.276,0 4.86,1.764 4.86,3.852 0,2.52 -1.836,4.068 -4.5,4.068 -2.016,0 -4.428,-0.828 -5.904,-1.584 l -0.54,3.78 c 1.692,0.864 4.248,1.44 6.516,1.44 5.04,0 8.604,-3.276 8.604,-7.992 0,-3.996 -2.916,-6.876 -7.92,-6.876 -1.008,0 -1.548,0.108 -2.124,0.144 z m 23.651,-9.216 c 0,-3.528 -2.304,-6.156 -6.156,-6.156 -3.816,0 -6.156,2.628 -6.156,6.156 0,3.456 2.304,6.084 6.12,6.084 3.852,0 6.192,-2.628 6.192,-6.084 z m 12.024,-5.796 h -3.204 l -18.288,23.544 h 3.204 z m 2.808,17.748 c 0,-3.456 -2.304,-6.084 -6.12,-6.084 -3.852,0 -6.156,2.628 -6.156,6.084 0,3.528 2.268,6.156 6.12,6.156 3.816,0 6.156,-2.628 6.156,-6.156 z m -17.676,-11.952 c 0,2.124 -1.26,3.708 -3.312,3.708 -2.088,0 -3.348,-1.584 -3.348,-3.708 0,-2.196 1.26,-3.78 3.348,-3.78 2.052,0 3.312,1.548 3.312,3.78 z m 14.832,11.952 c 0,2.232 -1.26,3.78 -3.276,3.78 -2.088,0 -3.348,-1.548 -3.348,-3.78 0,-2.088 1.26,-3.708 3.312,-3.708 2.052,0 3.312,1.584 3.312,3.708 z"
     fill="#112353"
     id="path178" />
  <path
     d="m 194.49601,29.740494 v -8.176 h -7.756 v 2.884 h 4.592 v 3.36 c -0.868,0.392 -2.072,0.7 -3.304,0.7 -3.584,0 -5.74,-2.436 -5.74,-6.356 0,-3.78 2.268,-6.160001 5.74,-6.160001 1.736,0 3.5,0.588 5.04,1.54 l 1.092,-2.968 c -1.568,-0.952 -4.06,-1.512 -6.188,-1.512 -5.432,0 -9.128,3.556 -9.128,9.212001 0,5.684 3.724,9.128 9.1,9.128 2.212,0 4.676,-0.588 6.552,-1.652 z m 5.831,-4.592 c 0,0 8.428,-0.112 8.456,-0.112 0.168,-0.56 0.28,-1.456 0.28,-2.156 0,-3.164 -1.904,-5.236001 -5.32,-5.236001 -3.864,0 -6.664,2.800001 -6.664,7.000001 0,4.116 2.744,6.748 6.888,6.748 1.736,0 3.444,-0.392 4.676,-1.064 l -0.42,-2.744 c -1.176,0.728 -2.66,1.176 -4.032,1.176 -2.296,0 -3.724,-1.428 -3.864,-3.528 z m 0.084,-1.932 c 0.168,-1.596 1.26,-3.08 3.08,-3.08 1.708,0 2.464,1.092 2.464,2.828 0,0.028 0,0.168 0,0.224 z m 23.1,7.756 v -8.876 c 0,-2.772 -1.54,-4.452001 -4.144,-4.452001 -1.568,0 -3.108,0.812001 -4.256,2.072001 0,-0.084 0,-2.044001 0,-2.044001 l -3.304,0.448001 v 12.852 h 3.304 v -9.212 c 0.644,-0.616 1.708,-1.204 2.856,-1.204 1.484,0 2.24,0.644 2.24,2.548 v 7.868 z m 11.957,-12.908 c -0.812,-0.252 -1.82,-0.420001 -2.744,-0.420001 -3.668,0 -6.524,2.856001 -6.524,6.972001 0,4.004 2.212,6.776 5.628,6.776 1.596,0 2.772,-0.84 3.64,-1.68 0,0.14 0,1.26 0,1.26 h 3.304 V 11.820493 l -3.304,0.448 z m 0,2.968 c 0,0 0,6.608 0,6.496 -0.728,0.672 -1.568,1.064 -2.66,1.064 -1.988,0 -3.248,-1.596 -3.248,-4.116 0,-2.38 1.26,-4.2 3.472,-4.2 0.98,0 1.792,0.28 2.436,0.756 z m 9.32,4.116 c 0,0 8.428,-0.112 8.456,-0.112 0.168,-0.56 0.28,-1.456 0.28,-2.156 0,-3.164 -1.904,-5.236001 -5.32,-5.236001 -3.864,0 -6.664,2.800001 -6.664,7.000001 0,4.116 2.744,6.748 6.888,6.748 1.736,0 3.444,-0.392 4.676,-1.064 l -0.42,-2.744 c -1.176,0.728 -2.66,1.176 -4.032,1.176 -2.296,0 -3.724,-1.428 -3.864,-3.528 z m 0.084,-1.932 c 0.168,-1.596 1.26,-3.08 3.08,-3.08 1.708,0 2.464,1.092 2.464,2.828 0,0.028 0,0.168 0,0.224 z m 14.7,-0.224 c 0.868,-1.568 1.932,-2.296 3.08,-2.296 0.616,0 1.232,0.168 1.848,0.504 l 0.728,-2.968 c -0.7,-0.42 -1.512,-0.588001 -2.296,-0.588001 -1.512,0 -2.548,0.756001 -3.36,2.128001 v -2.100001 l -3.304,0.476001 v 12.824 h 3.304 z"
     fill="#112353"
     id="path180" />
  <path
     d="m 116.82101,145.9725 h 1.3 l -0.4,-12.5 h -1.7 l -4.16,11.04 -4.22,-11.04 h -1.72 l -0.42,12.5 h 1.26 l 0.22,-10.94 4.14,10.86 h 1.4 l 4.1,-10.84 z m 4.695,-4.54 6.2,-0.04 c 0.12,-0.4 0.2,-0.98 0.2,-1.46 0,-2.06 -1.32,-3.38 -3.34,-3.38 -2.48,0 -4.32,2.04 -4.32,4.92 0,2.78 1.78,4.76 4.42,4.76 1.14,0 2.16,-0.3 2.94,-0.78 l -0.24,-1.14 c -0.7,0.46 -1.66,0.76 -2.66,0.76 -1.92,0 -3.16,-1.48 -3.2,-3.54 z m 0.08,-0.98 c 0.2,-1.52 1.26,-2.78 2.9,-2.78 1.44,0 2.2,0.96 2.2,2.36 0,0.1 0,0.3 -0.02,0.4 z m 15.935,5.52 v -6.28 c 0,-2 -1.08,-3.14 -2.92,-3.14 -0.96,0 -2.16,0.54 -3.12,1.5 v -1.5 l -1.24,0.26 v 9.16 h 1.24 v -6.94 c 0.76,-0.76 1.78,-1.3 2.78,-1.3 1.38,0 2.02,0.72 2.02,2.32 v 5.92 z"
     fill="#112353"
     id="path182" />
  <path
     d="m 308.22601,133.9725 3.36,11 h 1.24 l 3.5,-12.5 h -1.28 l -2.8,10.68 -3.24,-10.68 h -1.52 l -3.18,10.68 -2.92,-10.68 h -1.32 l 3.56,12.5 h 1.22 z m 17.773,6.4 c 0,-2.94 -1.84,-4.82 -4.4,-4.82 -2.56,0 -4.52,1.94 -4.52,4.86 0,2.94 1.88,4.82 4.42,4.82 2.54,0 4.5,-1.94 4.5,-4.86 z m -1.22,0.04 c 0,2.16 -1.28,3.7 -3.22,3.7 -1.94,0 -3.24,-1.5 -3.24,-3.74 0,-2.16 1.28,-3.7 3.22,-3.7 1.94,0 3.24,1.5 3.24,3.74 z m 16.205,4.56 v -6.26 c 0,-2.02 -1.08,-3.16 -2.82,-3.16 -1.06,0 -2.22,0.5 -3.24,1.52 -0.44,-1.02 -1.34,-1.52 -2.48,-1.52 -0.94,0 -1.96,0.4 -2.9,1.26 0,-0.08 0,-1.26 0,-1.26 l -1.24,0.26 v 9.16 h 1.24 v -7.18 c 0.7,-0.62 1.58,-1.06 2.54,-1.06 1.32,0 1.94,0.74 1.94,2.34 v 5.9 h 1.24 v -6.24 c 0,-0.22 -0.02,-0.7 -0.04,-0.82 0.7,-0.66 1.6,-1.18 2.58,-1.18 1.32,0 1.94,0.74 1.94,2.34 v 5.9 z m 3.487,-4.54 6.2,-0.04 c 0.12,-0.4 0.2,-0.98 0.2,-1.46 0,-2.06 -1.32,-3.38 -3.34,-3.38 -2.48,0 -4.32,2.04 -4.32,4.92 0,2.78 1.78,4.76 4.42,4.76 1.14,0 2.16,-0.3 2.94,-0.78 l -0.24,-1.14 c -0.7,0.46 -1.66,0.76 -2.66,0.76 -1.92,0 -3.16,-1.48 -3.2,-3.54 z m 0.08,-0.98 c 0.2,-1.52 1.26,-2.78 2.9,-2.78 1.44,0 2.2,0.96 2.2,2.36 0,0.1 0,0.3 -0.02,0.4 z m 15.935,5.52 v -6.28 c 0,-2 -1.08,-3.14 -2.92,-3.14 -0.96,0 -2.16,0.54 -3.12,1.5 v -1.5 l -1.24,0.26 v 9.16 h 1.24 v -6.94 c 0.76,-0.76 1.78,-1.3 2.78,-1.3 1.38,0 2.02,0.72 2.02,2.32 v 5.92 z"
     fill="#112353"
     id="path184" />
  <path
     d="m 412.15501,139.9725 v -1.18 c 0,0 -5.36,0 -5.4,0 2.7,-2.04 4.94,-3.46 4.94,-5.64 0,-1.7 -1.34,-2.88 -3.28,-2.88 -1.34,0 -2.46,0.52 -3.4,1.26 l 0.44,1.06 c 0.88,-0.68 1.84,-1.16 2.84,-1.16 1.3,0 2.1,0.82 2.1,1.88 0,1.6 -2.08,3.02 -5.4,5.52 v 1.14 z m 3.589,-0.78 c 0,-0.54 -0.42,-1 -1,-1 -0.58,0 -1,0.46 -1,1 0,0.54 0.42,1.04 1,1.04 0.58,0 1,-0.5 1,-1.04 z m 9.835,-3.9 c 0,-2.76 -1.54,-5.02 -4.24,-5.02 -2.52,0 -4.12,1.76 -4.12,4.12 0,2.4 1.72,3.72 3.62,3.72 1.4,0 2.48,-0.58 3.36,-1.4 l 0.04,0.02 c -0.58,2.54 -2.62,4.6 -5.98,5.4 l 0.36,1.16 c 4.76,-1.1 6.96,-4.68 6.96,-8 z m -1.3,-0.26 c 0,0.22 -0.02,0.46 -0.06,0.66 -0.82,0.78 -1.9,1.32 -3.14,1.32 -1.44,0 -2.6,-1 -2.6,-2.68 0,-1.7 1.08,-2.92 2.8,-2.92 1.92,0 3,1.66 3,3.62 z m 9.118,-4.7 c 0,-1.82 -1.26,-3.34 -3.32,-3.34 -2.04,0 -3.32,1.52 -3.32,3.34 0,1.78 1.28,3.3 3.32,3.3 2.06,0 3.32,-1.52 3.32,-3.3 z m 6.1,-3.14 h -1.08 l -10.14,13.08 h 1.1 z m 1.5,9.94 c 0,-1.78 -1.28,-3.3 -3.32,-3.3 -2.06,0 -3.32,1.52 -3.32,3.3 0,1.82 1.26,3.34 3.32,3.34 2.04,0 3.32,-1.52 3.32,-3.34 z m -8.5,-6.8 c 0,1.3 -0.9,2.44 -2.42,2.44 -1.5,0 -2.4,-1.14 -2.4,-2.44 0,-1.38 0.9,-2.48 2.4,-2.48 1.52,0 2.42,1.1 2.42,2.48 z m 7.6,6.8 c 0,1.38 -0.9,2.48 -2.42,2.48 -1.5,0 -2.4,-1.1 -2.4,-2.48 0,-1.3 0.9,-2.44 2.4,-2.44 1.52,0 2.42,1.14 2.42,2.44 z m 15.914,1.06 -7.1,-10.72 h -1.44 v 12.5 h 1.24 v -10.7 l 7.16,10.82 h 1.38 v -12.62 h -1.24 z m 12.628,-2.82 c 0,-2.94 -1.84,-4.82 -4.4,-4.82 -2.56,0 -4.52,1.94 -4.52,4.86 0,2.94 1.88,4.82 4.42,4.82 2.54,0 4.5,-1.94 4.5,-4.86 z m -1.22,0.04 c 0,2.16 -1.28,3.7 -3.22,3.7 -1.94,0 -3.24,-1.5 -3.24,-3.74 0,-2.16 1.28,-3.7 3.22,-3.7 1.94,0 3.24,1.5 3.24,3.74 z m 10.805,4.56 v -6.28 c 0,-2 -1.08,-3.14 -2.92,-3.14 -0.96,0 -2.16,0.54 -3.12,1.5 v -1.5 l -1.24,0.26 v 9.16 h 1.24 v -6.94 c 0.76,-0.76 1.78,-1.3 2.78,-1.3 1.38,0 2.02,0.72 2.02,2.32 v 5.92 z m 10.818,-4.7 c 0,-2.74 -1.58,-4.66 -4,-4.66 -1.18,0 -2.14,0.58 -2.76,1.16 0,-0.06 0,-5.54 0,-5.54 l -1.24,0.26 v 13.78 l 1.24,-0.54 c 0.6,0.28 1.5,0.5 2.24,0.5 2.64,0 4.52,-2.08 4.52,-4.96 z m -1.28,0.06 c 0,2.2 -1.22,3.78 -3.18,3.78 -0.88,0 -1.74,-0.28 -2.3,-0.72 0,0 0,-5.68 0,-5.62 0.66,-0.6 1.52,-1.02 2.52,-1.02 1.82,0 2.96,1.5 2.96,3.58 z m 4.975,-7.54 c 0,-0.46 -0.28,-0.88 -0.84,-0.88 -0.56,0 -0.84,0.42 -0.84,0.88 0,0.48 0.28,0.92 0.84,0.92 0.56,0 0.84,-0.44 0.84,-0.92 z m -0.22,12.18 v -9.42 l -1.24,0.26 v 9.16 z m 10.199,0 v -6.28 c 0,-2 -1.08,-3.14 -2.92,-3.14 -0.96,0 -2.16,0.54 -3.12,1.5 v -1.5 l -1.24,0.26 v 9.16 h 1.24 v -6.94 c 0.76,-0.76 1.78,-1.3 2.78,-1.3 1.38,0 2.02,0.72 2.02,2.32 v 5.92 z m 7.598,-2.02 c -0.56,0.64 -1.4,1.2 -2.38,1.2 -1.08,0 -1.88,-0.62 -1.88,-1.6 0,-1.22 1.12,-1.92 4.26,-2.28 z m 0.08,0.92 c 0.14,0.9 0.8,1.38 2,1.3 l 0.08,-1.02 c -0.8,0.02 -0.92,-0.26 -0.92,-0.92 0,0 0,-4.34 0,-4.4 0.02,-2.32 -1.16,-3.28 -3.28,-3.28 -1.2,0 -2.58,0.52 -3.4,1.1 l 0.28,1.16 c 0.78,-0.58 2,-1.1 3,-1.1 1.52,0 2.16,0.74 2.16,2.18 0,0.06 0,0.54 0,0.54 -4.26,0.24 -5.56,1.6 -5.56,3.26 0,1.46 1.22,2.54 2.9,2.54 1.08,0 2.06,-0.6 2.68,-1.36 z m 5.169,-4.78 c 0.72,-1.64 1.62,-2.36 2.58,-2.36 0.52,0 1,0.16 1.4,0.4 l 0.32,-1.16 c -0.42,-0.24 -1,-0.42 -1.6,-0.42 -1.2,0 -2.1,0.78 -2.7,1.96 v -1.96 l -1.24,0.26 v 9.16 h 1.24 z m 13.142,-3.28 h -1.3 l -2.82,7.56 -2.88,-7.56 h -1.34 l 3.58,9.02 -0.62,1.62 c -0.66,1.74 -1.18,2.12 -1.88,2.12 -0.5,0 -0.96,-0.16 -1.4,-0.4 l -0.38,1.14 c 0.56,0.24 1.08,0.42 1.78,0.42 1.24,0 2.12,-0.64 2.96,-2.88 l 0.74,-1.98 z m -118.43,35.14 c -0.56,0.64 -1.4,1.2 -2.38,1.2 -1.08,0 -1.88,-0.62 -1.88,-1.6 0,-1.22 1.12,-1.92 4.26,-2.28 z m 0.08,0.92 c 0.14,0.9 0.8,1.38 2,1.3 l 0.08,-1.02 c -0.8,0.02 -0.92,-0.26 -0.92,-0.92 0,0 0,-4.34 0,-4.4 0.02,-2.32 -1.16,-3.28 -3.28,-3.28 -1.2,0 -2.58,0.52 -3.4,1.1 l 0.28,1.16 c 0.78,-0.58 2,-1.1 3,-1.1 1.52,0 2.16,0.74 2.16,2.18 0,0.06 0,0.54 0,0.54 -4.26,0.24 -5.56,1.6 -5.56,3.26 0,1.46 1.22,2.54 2.9,2.54 1.08,0 2.06,-0.6 2.68,-1.36 z m 11.209,1.1 v -6.28 c 0,-2 -1.08,-3.14 -2.92,-3.14 -0.96,0 -2.16,0.54 -3.12,1.5 v -1.5 l -1.24,0.26 v 9.16 h 1.24 v -6.94 c 0.76,-0.76 1.78,-1.3 2.78,-1.3 1.38,0 2.02,0.72 2.02,2.32 v 5.92 z m 8.978,-8.86 c -0.6,-0.28 -1.44,-0.5 -2.22,-0.5 -2.64,0 -4.54,2.02 -4.54,4.86 0,2.78 1.64,4.76 4.1,4.76 1.14,0 2.06,-0.56 2.66,-1.12 0,0.04 0,0.86 0,0.86 h 1.24 v -13.74 l -1.24,0.26 z m 0,1.32 c 0,0 0,5.68 0,5.64 -0.64,0.6 -1.5,1.02 -2.44,1.02 -1.86,0 -3.04,-1.52 -3.04,-3.64 0,-2.16 1.24,-3.72 3.2,-3.72 0.88,0 1.72,0.26 2.28,0.7 z m 18.464,6.56 v -5.24 h -4.86 v 1.16 h 3.62 v 3.4 c -0.8,0.44 -1.82,0.76 -3,0.76 -2.86,0 -4.76,-2.06 -4.76,-5.36 0,-3.4 2,-5.34 4.72,-5.34 1.3,0 2.62,0.44 3.56,1.04 l 0.42,-1.16 c -0.92,-0.56 -2.42,-1.04 -3.96,-1.04 -3.5,0 -6.04,2.56 -6.04,6.54 0,3.96 2.42,6.48 6.04,6.48 1.42,0 3.04,-0.42 4.26,-1.24 z m 3.36,-3.56 6.2,-0.04 c 0.12,-0.4 0.2,-0.98 0.2,-1.46 0,-2.06 -1.32,-3.38 -3.34,-3.38 -2.48,0 -4.32,2.04 -4.32,4.92 0,2.78 1.78,4.76 4.42,4.76 1.14,0 2.16,-0.3 2.94,-0.78 l -0.24,-1.14 c -0.7,0.46 -1.66,0.76 -2.66,0.76 -1.92,0 -3.16,-1.48 -3.2,-3.54 z m 0.08,-0.98 c 0.2,-1.52 1.26,-2.78 2.9,-2.78 1.44,0 2.2,0.96 2.2,2.36 0,0.1 0,0.3 -0.02,0.4 z m 15.934,5.52 v -6.28 c 0,-2 -1.08,-3.14 -2.92,-3.14 -0.96,0 -2.16,0.54 -3.12,1.5 v -1.5 l -1.24,0.26 v 9.16 h 1.24 v -6.94 c 0.76,-0.76 1.78,-1.3 2.78,-1.3 1.38,0 2.02,0.72 2.02,2.32 v 5.92 z m 8.978,-8.86 c -0.6,-0.28 -1.44,-0.5 -2.22,-0.5 -2.64,0 -4.54,2.02 -4.54,4.86 0,2.78 1.64,4.76 4.1,4.76 1.14,0 2.06,-0.56 2.66,-1.12 0,0.04 0,0.86 0,0.86 h 1.24 v -13.74 l -1.24,0.26 z m 0,1.32 c 0,0 0,5.68 0,5.64 -0.64,0.6 -1.5,1.02 -2.44,1.02 -1.86,0 -3.04,-1.52 -3.04,-3.64 0,-2.16 1.24,-3.72 3.2,-3.72 0.88,0 1.72,0.26 2.28,0.7 z m 4.774,3 6.2,-0.04 c 0.12,-0.4 0.2,-0.98 0.2,-1.46 0,-2.06 -1.32,-3.38 -3.34,-3.38 -2.48,0 -4.32,2.04 -4.32,4.92 0,2.78 1.78,4.76 4.42,4.76 1.14,0 2.16,-0.3 2.94,-0.78 l -0.24,-1.14 c -0.7,0.46 -1.66,0.76 -2.66,0.76 -1.92,0 -3.16,-1.48 -3.2,-3.54 z m 0.08,-0.98 c 0.2,-1.52 1.26,-2.78 2.9,-2.78 1.44,0 2.2,0.96 2.2,2.36 0,0.1 0,0.3 -0.02,0.4 z m 9.894,-0.36 c 0.72,-1.64 1.62,-2.36 2.58,-2.36 0.52,0 1,0.16 1.4,0.4 l 0.32,-1.16 c -0.42,-0.24 -1,-0.42 -1.6,-0.42 -1.2,0 -2.1,0.78 -2.7,1.96 v -1.96 l -1.24,0.26 v 9.16 h 1.24 z m -78.891,33.88 v -1.18 h -6.28 v -4.5 h 5.24 v -1.16 h -5.24 v -4.48 h 6.28 v -1.18 h -7.56 v 12.5 z m 8.777,0 -3.16,-4.74 2.92,-4.42 h -1.38 l -2.24,3.56 -2.28,-3.56 h -1.38 l 2.96,4.46 -3.16,4.7 h 1.4 l 2.46,-3.86 2.48,3.86 z m 2.751,-8.24 c 0,-0.06 0,-1.22 0,-1.22 l -1.24,0.26 v 13.86 h 1.24 v -4.88 c 0.6,0.28 1.52,0.48 2.24,0.48 2.64,0 4.52,-2.04 4.52,-4.88 0,-2.78 -1.62,-4.74 -4.1,-4.74 -1.12,0 -2.04,0.54 -2.66,1.12 z m 0,1.04 c 0.66,-0.6 1.52,-1.02 2.46,-1.02 1.86,0 3.02,1.5 3.02,3.62 0,2.16 -1.22,3.74 -3.18,3.74 -0.88,0 -1.74,-0.28 -2.3,-0.72 0,0 0,-5.68 0,-5.62 z m 13.833,5.18 c -0.56,0.64 -1.4,1.2 -2.38,1.2 -1.08,0 -1.88,-0.62 -1.88,-1.6 0,-1.22 1.12,-1.92 4.26,-2.28 z m 0.08,0.92 c 0.14,0.9 0.8,1.38 2,1.3 l 0.08,-1.02 c -0.8,0.02 -0.92,-0.26 -0.92,-0.92 0,0 0,-4.34 0,-4.4 0.02,-2.32 -1.16,-3.28 -3.28,-3.28 -1.2,0 -2.58,0.52 -3.4,1.1 l 0.28,1.16 c 0.78,-0.58 2,-1.1 3,-1.1 1.52,0 2.16,0.74 2.16,2.18 0,0.06 0,0.54 0,0.54 -4.26,0.24 -5.56,1.6 -5.56,3.26 0,1.46 1.22,2.54 2.9,2.54 1.08,0 2.06,-0.6 2.68,-1.36 z m 11.209,1.1 v -6.28 c 0,-2 -1.08,-3.14 -2.92,-3.14 -0.96,0 -2.16,0.54 -3.12,1.5 v -1.5 l -1.24,0.26 v 9.16 h 1.24 v -6.94 c 0.76,-0.76 1.78,-1.3 2.78,-1.3 1.38,0 2.02,0.72 2.02,2.32 v 5.92 z m 8.318,-2.5 c 0,-1.7 -1.4,-2.3 -2.7,-2.68 -1.18,-0.36 -2.26,-0.68 -2.26,-1.72 0,-0.88 0.72,-1.4 1.84,-1.4 0.8,0 1.74,0.26 2.5,0.68 l 0.36,-1.12 c -0.78,-0.4 -1.78,-0.68 -2.78,-0.68 -1.72,0 -3.1,0.98 -3.1,2.64 0,1.6 1.4,2.22 2.66,2.6 1.14,0.36 2.3,0.68 2.3,1.78 0,1 -0.96,1.54 -2.06,1.54 -0.94,0 -1.92,-0.32 -2.7,-0.84 l -0.341,1.14 c 0.781,0.5 1.921,0.82 3.001,0.82 1.84,0 3.28,-1.08 3.28,-2.76 z m 3.714,-9.68 c 0,-0.46 -0.28,-0.88 -0.84,-0.88 -0.56,0 -0.84,0.42 -0.84,0.88 0,0.48 0.28,0.92 0.84,0.92 0.56,0 0.84,-0.44 0.84,-0.92 z m -0.22,12.18 v -9.42 l -1.24,0.26 v 9.16 z m 9.88,-9.16 h -1.3 l -2.8,7.56 -2.9,-7.56 h -1.34 l 3.62,9.18 h 1.12 z m 2.078,4.62 6.2,-0.04 c 0.12,-0.4 0.2,-0.98 0.2,-1.46 0,-2.06 -1.32,-3.38 -3.34,-3.38 -2.48,0 -4.32,2.04 -4.32,4.92 0,2.78 1.78,4.76 4.42,4.76 1.14,0 2.16,-0.3 2.94,-0.78 l -0.24,-1.14 c -0.7,0.46 -1.66,0.76 -2.66,0.76 -1.92,0 -3.16,-1.48 -3.2,-3.54 z m 0.08,-0.98 c 0.2,-1.52 1.26,-2.78 2.9,-2.78 1.44,0 2.2,0.96 2.2,2.36 0,0.1 0,0.3 -0.02,0.4 z"
     fill="#112353"
     id="path186" />
  <rect
     x="0.055013333"
     y="63.972492"
     width="202"
     height="36"
     fill="#cc3333"
     id="rect188" />
  <rect
     x="202.05501"
     y="63.972492"
     width="207"
     height="36"
     fill="#992626"
     id="rect190" />
  <rect
     x="409.05502"
     y="63.972492"
     width="16"
     height="36"
     fill="#ffc1c1"
     id="rect192" />
  <line
     x1="409.55502"
     y1="91.972488"
     x2="409.55502"
     y2="123.97249"
     stroke="#ffc1c1"
     id="line194" />
</svg>
