<svg width="529" height="137" viewBox="0 0 529 137" fill="none" xmlns="http://www.w3.org/2000/svg">
<path d="M20.5569 75.7205L20.4489 72.1565H17.0289V58.4765H12.7089L2.01697 73.1645L2.48497 75.7205H12.9969V82.4165H17.0289V75.7205H20.5569ZM13.1409 72.1925H6.76897L13.1409 63.2285V72.1925ZM34.0516 64.5245C36.2116 63.8045 37.9756 61.8605 37.9756 59.3765C37.9756 55.8485 35.3836 53.2205 30.5596 53.2205C25.4116 53.2205 22.6396 55.9925 22.6396 59.7725C22.6396 62.4365 24.5116 63.9845 26.7436 65.0285C24.4036 65.6045 22.3156 67.6565 22.3156 70.3565C22.3156 73.9565 25.2676 76.5125 30.2716 76.5125C35.6356 76.5125 38.3356 73.5605 38.3356 69.9245C38.3356 67.1525 36.3916 65.6045 34.0516 64.5245ZM31.3876 63.3725C28.7596 62.4005 26.7436 61.3925 26.7436 59.5205C26.7436 57.8285 28.0756 56.4605 30.4156 56.4605C32.4316 56.4605 33.9796 57.7205 33.9796 59.8085C33.9796 61.2845 32.9716 62.6165 31.3876 63.3725V63.3725ZM29.3716 66.1805C32.0716 67.1885 34.3036 68.1965 34.3036 70.2485C34.3036 72.1565 32.9356 73.2725 30.4876 73.2725C28.0396 73.2725 26.3836 71.9045 26.3836 69.9245C26.3836 68.3405 27.4996 66.9365 29.3716 66.1805V66.1805ZM46.8892 73.7045C46.8892 72.1205 45.7372 70.9325 44.0812 70.9325C42.3892 70.9325 41.2012 72.1205 41.2012 73.7045C41.2012 75.2885 42.3892 76.5125 44.0812 76.5125C45.7372 76.5125 46.8892 75.2885 46.8892 73.7045ZM68.1936 75.7205L68.0856 72.1565H64.6656V58.4765H60.3456L49.6536 73.1645L50.1216 75.7205H60.6336V82.4165H64.6656V75.7205H68.1936ZM60.7776 72.1925H54.4056L60.7776 63.2285V72.1925ZM81.4724 58.7645C81.4724 55.2365 79.1684 52.6085 75.3164 52.6085C71.5004 52.6085 69.1604 55.2365 69.1604 58.7645C69.1604 62.2205 71.4643 64.8485 75.2803 64.8485C79.1323 64.8485 81.4724 62.2205 81.4724 58.7645V58.7645ZM93.4964 52.9685H90.2924L72.0043 76.5125H75.2084L93.4964 52.9685ZM96.3044 70.7165C96.3044 67.2605 94.0003 64.6325 90.1843 64.6325C86.3323 64.6325 84.0284 67.2605 84.0284 70.7165C84.0284 74.2445 86.2964 76.8725 90.1484 76.8725C93.9644 76.8725 96.3044 74.2445 96.3044 70.7165ZM78.6283 58.7645C78.6283 60.8885 77.3684 62.4725 75.3164 62.4725C73.2284 62.4725 71.9684 60.8885 71.9684 58.7645C71.9684 56.5685 73.2284 54.9845 75.3164 54.9845C77.3684 54.9845 78.6283 56.5325 78.6283 58.7645ZM93.4604 70.7165C93.4604 72.9485 92.2003 74.4965 90.1843 74.4965C88.0963 74.4965 86.8363 72.9485 86.8363 70.7165C86.8363 68.6285 88.0964 67.0085 90.1484 67.0085C92.2004 67.0085 93.4604 68.5925 93.4604 70.7165Z" fill="#112353"/>
<path d="M222.914 76.7205L222.806 73.1565H219.386V59.4765H215.066L204.374 74.1645L204.842 76.7205H215.354V83.4165H219.386V76.7205H222.914ZM215.498 73.1925H209.126L215.498 64.2285V73.1925ZM235.401 63.6525L225.681 83.4165H229.893L239.793 62.9685V59.8365H224.061L223.953 63.6525H235.401ZM246.399 74.7045C246.399 73.1205 245.247 71.9325 243.591 71.9325C241.899 71.9325 240.711 73.1205 240.711 74.7045C240.711 76.2885 241.899 77.5125 243.591 77.5125C245.247 77.5125 246.399 76.2885 246.399 74.7045ZM253.464 68.9805L254.184 63.5445H263.04L262.932 59.8365H250.728L249.216 72.0045L250.008 72.7965C251.232 72.4005 252.528 72.1485 254.472 72.1485C257.748 72.1485 259.332 73.9125 259.332 76.0005C259.332 78.5205 257.496 80.0685 254.832 80.0685C252.816 80.0685 250.404 79.2405 248.928 78.4845L248.388 82.2645C250.08 83.1285 252.636 83.7045 254.904 83.7045C259.944 83.7045 263.508 80.4285 263.508 75.7125C263.508 71.7165 260.592 68.8365 255.588 68.8365C254.58 68.8365 254.04 68.9445 253.464 68.9805V68.9805ZM277.115 59.7645C277.115 56.2365 274.811 53.6085 270.959 53.6085C267.143 53.6085 264.803 56.2365 264.803 59.7645C264.803 63.2205 267.107 65.8485 270.923 65.8485C274.775 65.8485 277.115 63.2205 277.115 59.7645V59.7645ZM289.139 53.9685H285.935L267.647 77.5125H270.851L289.139 53.9685ZM291.947 71.7165C291.947 68.2605 289.643 65.6325 285.827 65.6325C281.975 65.6325 279.671 68.2605 279.671 71.7165C279.671 75.2445 281.939 77.8725 285.791 77.8725C289.607 77.8725 291.947 75.2445 291.947 71.7165ZM274.271 59.7645C274.271 61.8885 273.011 63.4725 270.959 63.4725C268.871 63.4725 267.611 61.8885 267.611 59.7645C267.611 57.5685 268.871 55.9845 270.959 55.9845C273.011 55.9845 274.271 57.5325 274.271 59.7645ZM289.103 71.7165C289.103 73.9485 287.843 75.4965 285.827 75.4965C283.739 75.4965 282.479 73.9485 282.479 71.7165C282.479 69.6285 283.739 68.0085 285.791 68.0085C287.843 68.0085 289.103 69.5925 289.103 71.7165Z" fill="#112353"/>
<path d="M116.821 82.9725H118.121L117.721 70.4725H116.021L111.861 81.5125L107.641 70.4725H105.921L105.501 82.9725H106.761L106.981 72.0325L111.121 82.8925H112.521L116.621 72.0525L116.821 82.9725ZM121.516 78.4325L127.716 78.3925C127.836 77.9925 127.916 77.4125 127.916 76.9325C127.916 74.8725 126.596 73.5525 124.576 73.5525C122.096 73.5525 120.256 75.5925 120.256 78.4725C120.256 81.2525 122.036 83.2325 124.676 83.2325C125.816 83.2325 126.836 82.9325 127.616 82.4525L127.376 81.3125C126.676 81.7725 125.716 82.0725 124.716 82.0725C122.796 82.0725 121.556 80.5925 121.516 78.5325V78.4325ZM121.596 77.4525C121.796 75.9325 122.856 74.6725 124.496 74.6725C125.936 74.6725 126.696 75.6325 126.696 77.0325C126.696 77.1325 126.696 77.3325 126.676 77.4325L121.596 77.4525ZM137.531 82.9725V76.6925C137.531 74.6925 136.451 73.5525 134.611 73.5525C133.651 73.5525 132.451 74.0925 131.491 75.0525V73.5525L130.251 73.8125V82.9725H131.491V76.0325C132.251 75.2725 133.271 74.7325 134.271 74.7325C135.651 74.7325 136.291 75.4525 136.291 77.0525V82.9725H137.531Z" fill="#112353"/>
<path d="M308.226 70.9725L311.586 81.9725H312.826L316.326 69.4725H315.046L312.246 80.1525L309.006 69.4725H307.486L304.306 80.1525L301.386 69.4725H300.066L303.626 81.9725H304.846L308.226 70.9725ZM325.999 77.3725C325.999 74.4325 324.159 72.5525 321.599 72.5525C319.039 72.5525 317.079 74.4925 317.079 77.4125C317.079 80.3525 318.959 82.2325 321.499 82.2325C324.039 82.2325 325.999 80.2925 325.999 77.3725V77.3725ZM324.779 77.4125C324.779 79.5725 323.499 81.1125 321.559 81.1125C319.619 81.1125 318.319 79.6125 318.319 77.3725C318.319 75.2125 319.599 73.6725 321.539 73.6725C323.479 73.6725 324.779 75.1725 324.779 77.4125ZM340.984 81.9725V75.7125C340.984 73.6925 339.904 72.5525 338.164 72.5525C337.104 72.5525 335.944 73.0525 334.924 74.0725C334.484 73.0525 333.584 72.5525 332.444 72.5525C331.504 72.5525 330.484 72.9525 329.544 73.8125C329.544 73.7325 329.544 72.5525 329.544 72.5525L328.304 72.8125V81.9725H329.544V74.7925C330.244 74.1725 331.124 73.7325 332.084 73.7325C333.404 73.7325 334.024 74.4725 334.024 76.0725V81.9725H335.264V75.7325C335.264 75.5125 335.244 75.0325 335.224 74.9125C335.924 74.2525 336.824 73.7325 337.804 73.7325C339.124 73.7325 339.744 74.4725 339.744 76.0725V81.9725H340.984ZM344.471 77.4325L350.671 77.3925C350.791 76.9925 350.871 76.4125 350.871 75.9325C350.871 73.8725 349.551 72.5525 347.531 72.5525C345.051 72.5525 343.211 74.5925 343.211 77.4725C343.211 80.2525 344.991 82.2325 347.631 82.2325C348.771 82.2325 349.791 81.9325 350.571 81.4525L350.331 80.3125C349.631 80.7725 348.671 81.0725 347.671 81.0725C345.751 81.0725 344.511 79.5925 344.471 77.5325V77.4325ZM344.551 76.4525C344.751 74.9325 345.811 73.6725 347.451 73.6725C348.891 73.6725 349.651 74.6325 349.651 76.0325C349.651 76.1325 349.651 76.3325 349.631 76.4325L344.551 76.4525ZM360.486 81.9725V75.6925C360.486 73.6925 359.406 72.5525 357.566 72.5525C356.606 72.5525 355.406 73.0925 354.446 74.0525V72.5525L353.206 72.8125V81.9725H354.446V75.0325C355.206 74.2725 356.226 73.7325 357.226 73.7325C358.606 73.7325 359.246 74.4525 359.246 76.0525V81.9725H360.486Z" fill="#112353"/>
<path d="M412.155 76.9725V75.7925C412.155 75.7925 406.795 75.7925 406.755 75.7925C409.455 73.7525 411.695 72.3325 411.695 70.1525C411.695 68.4525 410.355 67.2725 408.415 67.2725C407.075 67.2725 405.955 67.7925 405.015 68.5325L405.455 69.5925C406.335 68.9125 407.295 68.4325 408.295 68.4325C409.595 68.4325 410.395 69.2525 410.395 70.3125C410.395 71.9125 408.315 73.3325 404.995 75.8325V76.9725H412.155ZM415.744 76.1925C415.744 75.6525 415.324 75.1925 414.744 75.1925C414.164 75.1925 413.744 75.6525 413.744 76.1925C413.744 76.7325 414.164 77.2325 414.744 77.2325C415.324 77.2325 415.744 76.7325 415.744 76.1925ZM425.579 72.2925C425.579 69.5325 424.039 67.2725 421.339 67.2725C418.819 67.2725 417.219 69.0325 417.219 71.3925C417.219 73.7925 418.939 75.1125 420.839 75.1125C422.239 75.1125 423.319 74.5325 424.199 73.7125L424.239 73.7325C423.659 76.2725 421.619 78.3325 418.259 79.1325L418.619 80.2925C423.379 79.1925 425.579 75.6125 425.579 72.2925ZM424.279 72.0325C424.279 72.2525 424.259 72.4925 424.219 72.6925C423.399 73.4725 422.319 74.0125 421.079 74.0125C419.639 74.0125 418.479 73.0125 418.479 71.3325C418.479 69.6325 419.559 68.4125 421.279 68.4125C423.199 68.4125 424.279 70.0725 424.279 72.0325ZM433.397 67.3325C433.397 65.5125 432.137 63.9925 430.077 63.9925C428.037 63.9925 426.757 65.5125 426.757 67.3325C426.757 69.1125 428.037 70.6325 430.077 70.6325C432.137 70.6325 433.397 69.1125 433.397 67.3325ZM439.497 64.1925H438.417L428.277 77.2725H429.377L439.497 64.1925ZM440.997 74.1325C440.997 72.3525 439.717 70.8325 437.677 70.8325C435.617 70.8325 434.357 72.3525 434.357 74.1325C434.357 75.9525 435.617 77.4725 437.677 77.4725C439.717 77.4725 440.997 75.9525 440.997 74.1325ZM432.497 67.3325C432.497 68.6325 431.597 69.7725 430.077 69.7725C428.577 69.7725 427.677 68.6325 427.677 67.3325C427.677 65.9525 428.577 64.8525 430.077 64.8525C431.597 64.8525 432.497 65.9525 432.497 67.3325ZM440.097 74.1325C440.097 75.5125 439.197 76.6125 437.677 76.6125C436.177 76.6125 435.277 75.5125 435.277 74.1325C435.277 72.8325 436.177 71.6925 437.677 71.6925C439.197 71.6925 440.097 72.8325 440.097 74.1325ZM456.011 75.1925L448.911 64.4725H447.471V76.9725H448.711V66.2725L455.871 77.0925H457.251V64.4725H456.011V75.1925ZM468.639 72.3725C468.639 69.4325 466.799 67.5525 464.239 67.5525C461.679 67.5525 459.719 69.4925 459.719 72.4125C459.719 75.3525 461.599 77.2325 464.139 77.2325C466.679 77.2325 468.639 75.2925 468.639 72.3725V72.3725ZM467.419 72.4125C467.419 74.5725 466.139 76.1125 464.199 76.1125C462.259 76.1125 460.959 74.6125 460.959 72.3725C460.959 70.2125 462.239 68.6725 464.179 68.6725C466.119 68.6725 467.419 70.1725 467.419 72.4125ZM478.224 76.9725V70.6925C478.224 68.6925 477.144 67.5525 475.304 67.5525C474.344 67.5525 473.144 68.0925 472.184 69.0525V67.5525L470.944 67.8125V76.9725H472.184V70.0325C472.944 69.2725 473.964 68.7325 474.964 68.7325C476.344 68.7325 476.984 69.4525 476.984 71.0525V76.9725H478.224ZM489.042 72.2725C489.042 69.5325 487.462 67.6125 485.042 67.6125C483.862 67.6125 482.902 68.1925 482.282 68.7725C482.282 68.7125 482.282 63.2325 482.282 63.2325L481.042 63.4925V77.2725L482.282 76.7325C482.882 77.0125 483.782 77.2325 484.522 77.2325C487.162 77.2325 489.042 75.1525 489.042 72.2725ZM487.762 72.3325C487.762 74.5325 486.542 76.1125 484.582 76.1125C483.702 76.1125 482.842 75.8325 482.282 75.3925C482.282 75.3925 482.282 69.7125 482.282 69.7725C482.942 69.1725 483.802 68.7525 484.802 68.7525C486.622 68.7525 487.762 70.2525 487.762 72.3325V72.3325ZM492.737 64.7925C492.737 64.3325 492.457 63.9125 491.897 63.9125C491.337 63.9125 491.057 64.3325 491.057 64.7925C491.057 65.2725 491.337 65.7125 491.897 65.7125C492.457 65.7125 492.737 65.2725 492.737 64.7925ZM492.517 76.9725V67.5525L491.277 67.8125V76.9725H492.517ZM502.716 76.9725V70.6925C502.716 68.6925 501.636 67.5525 499.796 67.5525C498.836 67.5525 497.636 68.0925 496.676 69.0525V67.5525L495.436 67.8125V76.9725H496.676V70.0325C497.436 69.2725 498.456 68.7325 499.456 68.7325C500.836 68.7325 501.476 69.4525 501.476 71.0525V76.9725H502.716ZM510.314 74.9525C509.754 75.5925 508.914 76.1525 507.934 76.1525C506.854 76.1525 506.054 75.5325 506.054 74.5525C506.054 73.3325 507.174 72.6325 510.314 72.2725V74.9525ZM510.394 75.8725C510.534 76.7725 511.194 77.2525 512.394 77.1725L512.474 76.1525C511.674 76.1725 511.554 75.8925 511.554 75.2325C511.554 75.2325 511.554 70.8925 511.554 70.8325C511.574 68.5125 510.394 67.5525 508.274 67.5525C507.074 67.5525 505.694 68.0725 504.874 68.6525L505.154 69.8125C505.934 69.2325 507.154 68.7125 508.154 68.7125C509.674 68.7125 510.314 69.4525 510.314 70.8925C510.314 70.9525 510.314 71.4325 510.314 71.4325C506.054 71.6725 504.754 73.0325 504.754 74.6925C504.754 76.1525 505.974 77.2325 507.654 77.2325C508.734 77.2325 509.714 76.6325 510.334 75.8725H510.394ZM515.563 71.0925C516.283 69.4525 517.183 68.7325 518.143 68.7325C518.663 68.7325 519.143 68.8925 519.543 69.1325L519.863 67.9725C519.443 67.7325 518.863 67.5525 518.263 67.5525C517.063 67.5525 516.163 68.3325 515.563 69.5125V67.5525L514.323 67.8125V76.9725H515.563V71.0925ZM528.705 67.8125H527.405L524.585 75.3725L521.705 67.8125H520.365L523.945 76.8325L523.325 78.4525C522.665 80.1925 522.145 80.5725 521.445 80.5725C520.945 80.5725 520.485 80.4125 520.045 80.1725L519.665 81.3125C520.225 81.5525 520.745 81.7325 521.445 81.7325C522.685 81.7325 523.565 81.0925 524.405 78.8525L525.145 76.8725L528.705 67.8125ZM410.275 102.952C409.715 103.592 408.875 104.152 407.895 104.152C406.815 104.152 406.015 103.533 406.015 102.553C406.015 101.333 407.135 100.633 410.275 100.273V102.952ZM410.355 103.872C410.495 104.772 411.155 105.253 412.355 105.173L412.435 104.152C411.635 104.172 411.515 103.892 411.515 103.232C411.515 103.232 411.515 98.8925 411.515 98.8325C411.535 96.5125 410.355 95.5525 408.235 95.5525C407.035 95.5525 405.655 96.0725 404.835 96.6525L405.115 97.8125C405.895 97.2325 407.115 96.7125 408.115 96.7125C409.635 96.7125 410.275 97.4525 410.275 98.8925C410.275 98.9525 410.275 99.4325 410.275 99.4325C406.015 99.6725 404.715 101.033 404.715 102.693C404.715 104.153 405.935 105.232 407.615 105.232C408.695 105.232 409.675 104.632 410.295 103.872H410.355ZM421.564 104.973V98.6925C421.564 96.6925 420.484 95.5525 418.644 95.5525C417.684 95.5525 416.484 96.0925 415.524 97.0525V95.5525L414.284 95.8125V104.973H415.524V98.0325C416.284 97.2725 417.304 96.7325 418.304 96.7325C419.684 96.7325 420.324 97.4525 420.324 99.0525V104.973H421.564ZM430.542 96.1125C429.942 95.8325 429.102 95.6125 428.322 95.6125C425.682 95.6125 423.782 97.6325 423.782 100.473C423.782 103.253 425.422 105.232 427.882 105.232C429.022 105.232 429.942 104.673 430.542 104.113C430.542 104.153 430.542 104.973 430.542 104.973H431.782V91.2325L430.542 91.4925V96.1125ZM430.542 97.4325C430.542 97.4325 430.542 103.112 430.542 103.072C429.902 103.672 429.042 104.092 428.102 104.092C426.242 104.092 425.062 102.572 425.062 100.452C425.062 98.2925 426.302 96.7325 428.262 96.7325C429.142 96.7325 429.982 96.9925 430.542 97.4325V97.4325ZM449.006 103.992V98.7525H444.146V99.9125H447.766V103.312C446.966 103.752 445.946 104.072 444.766 104.072C441.906 104.072 440.006 102.012 440.006 98.7125C440.006 95.3125 442.006 93.3725 444.726 93.3725C446.026 93.3725 447.346 93.8125 448.286 94.4125L448.706 93.2525C447.786 92.6925 446.286 92.2125 444.746 92.2125C441.246 92.2125 438.706 94.7725 438.706 98.7525C438.706 102.713 441.126 105.232 444.746 105.232C446.166 105.232 447.786 104.812 449.006 103.992V103.992ZM452.366 100.432L458.566 100.393C458.686 99.9925 458.766 99.4125 458.766 98.9325C458.766 96.8725 457.446 95.5525 455.426 95.5525C452.946 95.5525 451.106 97.5925 451.106 100.473C451.106 103.253 452.886 105.232 455.526 105.232C456.666 105.232 457.686 104.932 458.466 104.452L458.226 103.312C457.526 103.773 456.566 104.072 455.566 104.072C453.646 104.072 452.406 102.593 452.366 100.533V100.432ZM452.446 99.4525C452.646 97.9325 453.706 96.6725 455.346 96.6725C456.786 96.6725 457.546 97.6325 457.546 99.0325C457.546 99.1325 457.546 99.3325 457.526 99.4325L452.446 99.4525ZM468.38 104.973V98.6925C468.38 96.6925 467.3 95.5525 465.46 95.5525C464.5 95.5525 463.3 96.0925 462.34 97.0525V95.5525L461.1 95.8125V104.973H462.34V98.0325C463.1 97.2725 464.12 96.7325 465.12 96.7325C466.5 96.7325 467.14 97.4525 467.14 99.0525V104.973H468.38ZM477.358 96.1125C476.758 95.8325 475.918 95.6125 475.138 95.6125C472.498 95.6125 470.598 97.6325 470.598 100.473C470.598 103.253 472.238 105.232 474.698 105.232C475.838 105.232 476.758 104.673 477.358 104.113C477.358 104.153 477.358 104.973 477.358 104.973H478.598V91.2325L477.358 91.4925V96.1125ZM477.358 97.4325C477.358 97.4325 477.358 103.112 477.358 103.072C476.718 103.672 475.858 104.092 474.918 104.092C473.058 104.092 471.878 102.572 471.878 100.452C471.878 98.2925 473.118 96.7325 475.078 96.7325C475.958 96.7325 476.798 96.9925 477.358 97.4325V97.4325ZM482.132 100.432L488.332 100.393C488.452 99.9925 488.532 99.4125 488.532 98.9325C488.532 96.8725 487.212 95.5525 485.192 95.5525C482.712 95.5525 480.872 97.5925 480.872 100.473C480.872 103.253 482.652 105.232 485.292 105.232C486.432 105.232 487.452 104.932 488.232 104.452L487.992 103.312C487.292 103.773 486.332 104.072 485.332 104.072C483.412 104.072 482.172 102.593 482.132 100.533V100.432ZM482.212 99.4525C482.412 97.9325 483.472 96.6725 485.112 96.6725C486.552 96.6725 487.312 97.6325 487.312 99.0325C487.312 99.1325 487.312 99.3325 487.292 99.4325L482.212 99.4525ZM492.106 99.0925C492.826 97.4525 493.726 96.7325 494.686 96.7325C495.206 96.7325 495.686 96.8925 496.086 97.1325L496.406 95.9725C495.986 95.7325 495.406 95.5525 494.806 95.5525C493.606 95.5525 492.706 96.3325 492.106 97.5125V95.5525L490.866 95.8125V104.973H492.106V99.0925ZM413.215 132.973V131.792H406.935V127.292H412.175V126.133H406.935V121.652H413.215V120.473H405.655V132.973H413.215ZM421.992 132.973L418.832 128.232L421.752 123.812H420.372L418.132 127.372L415.852 123.812H414.472L417.432 128.273L414.272 132.973H415.672L418.132 129.113L420.612 132.973H421.992ZM424.743 124.732C424.743 124.672 424.743 123.512 424.743 123.512L423.503 123.773V137.633H424.743V132.753C425.343 133.033 426.263 133.232 426.983 133.232C429.623 133.232 431.503 131.192 431.503 128.352C431.503 125.572 429.883 123.613 427.403 123.613C426.283 123.613 425.363 124.152 424.743 124.732V124.732ZM424.743 125.773C425.403 125.173 426.263 124.753 427.203 124.753C429.063 124.753 430.223 126.252 430.223 128.372C430.223 130.532 429.003 132.113 427.043 132.113C426.163 132.113 425.303 131.833 424.743 131.393C424.743 131.393 424.743 125.713 424.743 125.773V125.773ZM438.576 130.952C438.016 131.592 437.176 132.152 436.196 132.152C435.116 132.152 434.316 131.533 434.316 130.553C434.316 129.333 435.436 128.633 438.576 128.273V130.952ZM438.656 131.872C438.796 132.772 439.456 133.253 440.656 133.173L440.736 132.152C439.936 132.172 439.816 131.892 439.816 131.232C439.816 131.232 439.816 126.893 439.816 126.833C439.836 124.513 438.656 123.553 436.536 123.553C435.336 123.553 433.956 124.072 433.136 124.652L433.416 125.812C434.196 125.233 435.416 124.712 436.416 124.712C437.936 124.712 438.576 125.453 438.576 126.893C438.576 126.953 438.576 127.432 438.576 127.432C434.316 127.672 433.016 129.033 433.016 130.693C433.016 132.153 434.236 133.232 435.916 133.232C436.996 133.232 437.976 132.632 438.596 131.872H438.656ZM449.865 132.973V126.693C449.865 124.693 448.785 123.553 446.945 123.553C445.985 123.553 444.785 124.093 443.825 125.053V123.553L442.585 123.812V132.973H443.825V126.033C444.585 125.273 445.605 124.732 446.605 124.732C447.985 124.732 448.625 125.453 448.625 127.053V132.973H449.865ZM458.183 130.473C458.183 128.773 456.783 128.172 455.483 127.792C454.303 127.432 453.223 127.112 453.223 126.072C453.223 125.192 453.943 124.673 455.063 124.673C455.863 124.673 456.803 124.932 457.563 125.352L457.923 124.232C457.143 123.832 456.143 123.553 455.143 123.553C453.423 123.553 452.043 124.533 452.043 126.193C452.043 127.793 453.443 128.412 454.703 128.792C455.843 129.152 457.003 129.472 457.003 130.572C457.003 131.572 456.043 132.113 454.943 132.113C454.003 132.113 453.023 131.793 452.243 131.273L451.902 132.413C452.683 132.913 453.823 133.232 454.903 133.232C456.743 133.232 458.183 132.153 458.183 130.473V130.473ZM461.897 120.792C461.897 120.332 461.617 119.913 461.057 119.913C460.497 119.913 460.217 120.332 460.217 120.792C460.217 121.272 460.497 121.712 461.057 121.712C461.617 121.712 461.897 121.272 461.897 120.792ZM461.677 132.973V123.553L460.437 123.812V132.973H461.677ZM471.557 123.812H470.257L467.457 131.372L464.557 123.812H463.217L466.837 132.992H467.957L471.557 123.812ZM473.635 128.432L479.835 128.393C479.955 127.993 480.035 127.412 480.035 126.932C480.035 124.872 478.715 123.553 476.695 123.553C474.215 123.553 472.375 125.593 472.375 128.473C472.375 131.253 474.155 133.232 476.795 133.232C477.935 133.232 478.955 132.932 479.735 132.452L479.495 131.312C478.795 131.773 477.835 132.072 476.835 132.072C474.915 132.072 473.675 130.593 473.635 128.533V128.432ZM473.715 127.452C473.915 125.932 474.975 124.673 476.615 124.673C478.055 124.673 478.815 125.633 478.815 127.033C478.815 127.133 478.815 127.332 478.795 127.432L473.715 127.452Z" fill="#112353"/>
<path d="M202.055 0.972488H0.0550537V36.9725H202.055V0.972488Z" fill="#CC3333"/>
<path d="M409.055 0.972488H202.055V36.9725H409.055V0.972488Z" fill="#992626"/>
<path d="M425.055 0.972488H409.055V36.9725H425.055V0.972488Z" fill="#FFC1C1"/>
<path d="M409.555 28.9725V60.9725" stroke="#FFC1C1"/>
</svg>
