<svg width="25" height="26" viewBox="0 0 25 26" fill="currentColor" xmlns="http://www.w3.org/2000/svg">
<path d="M24.6147 18.3796V23.8276C24.6147 23.9365 24.5989 24.0371 24.5759 24.1303C24.4669 24.6655 23.9947 25.0676 23.4364 25.0676H1.17099C0.57399 25.0676 0.0787342 24.6098 0.0157422 24.0286C7.73743e-08 23.9583 0 23.8966 0 23.8191V18.3711C0 17.7281 0.526752 17.2086 1.1625 17.2086C1.47975 17.2086 1.77525 17.3406 1.9835 17.5501C2.193 17.7596 2.325 18.0539 2.325 18.3711V22.7341H22.2971V18.3711C22.2971 17.7281 22.8238 17.2086 23.4596 17.2086C23.7768 17.2086 24.0723 17.3406 24.2806 17.5501C24.4828 17.7669 24.6148 18.0611 24.6148 18.3796L24.6147 18.3796Z" fill="white"/>
<path d="M19.0124 12.923L13.3003 18.6351C13.2931 18.6508 13.2773 18.6581 13.2689 18.6665C13.0594 18.876 12.7881 19.008 12.5169 19.0468C12.4938 19.0468 12.4708 19.0541 12.4466 19.0541C12.4006 19.0613 12.3534 19.0613 12.3074 19.0613L12.1754 19.0541C12.1524 19.0541 12.1294 19.0468 12.1051 19.0468C11.8266 19.008 11.5626 18.8761 11.3531 18.6665C11.3459 18.6593 11.3301 18.6435 11.3217 18.6351L5.6096 12.923C5.34561 12.659 5.21484 12.3103 5.21484 11.9615C5.21484 11.6128 5.34684 11.264 5.6096 11C6.13635 10.4733 6.99734 10.4733 7.53135 11L10.9643 14.433L10.9679 1.85625C10.9679 1.11275 11.5807 0.5 12.3242 0.5C12.6959 0.5 13.0374 0.655 13.2857 0.894754C13.5339 1.143 13.6804 1.476 13.6804 1.85625V14.4342L17.1134 11.0013C17.6401 10.4745 18.5011 10.4745 19.0351 11.0013C19.5389 11.5365 19.5389 12.3963 19.0121 12.923H19.0124Z" fill="white"/>
</svg>
