<svg width="25" height="25" viewBox="0 0 25 25" fill="none" xmlns="http://www.w3.org/2000/svg">
<path d="M24.6147 17.8796V23.3276C24.6147 23.4365 24.5989 23.5371 24.5759 23.6303C24.4669 24.1655 23.9947 24.5676 23.4364 24.5676H1.17099C0.57399 24.5676 0.0787342 24.1098 0.0157422 23.5286C7.73743e-08 23.4583 0 23.3966 0 23.3191V17.8711C0 17.2281 0.526752 16.7086 1.1625 16.7086C1.47975 16.7086 1.77525 16.8406 1.9835 17.0501C2.193 17.2596 2.325 17.5539 2.325 17.8711V22.2341H22.2971V17.8711C22.2971 17.2281 22.8238 16.7086 23.4596 16.7086C23.7768 16.7086 24.0723 16.8406 24.2806 17.0501C24.4828 17.2669 24.6148 17.5611 24.6148 17.8796L24.6147 17.8796Z" fill="#CC3333"/>
<path d="M19.0124 12.423L13.3003 18.1351C13.2931 18.1508 13.2773 18.1581 13.2689 18.1665C13.0594 18.376 12.7881 18.508 12.5169 18.5468C12.4938 18.5468 12.4708 18.5541 12.4466 18.5541C12.4006 18.5613 12.3534 18.5613 12.3074 18.5613L12.1754 18.5541C12.1524 18.5541 12.1294 18.5468 12.1051 18.5468C11.8266 18.508 11.5626 18.3761 11.3531 18.1665C11.3459 18.1593 11.3301 18.1435 11.3217 18.1351L5.6096 12.423C5.34561 12.159 5.21484 11.8103 5.21484 11.4615C5.21484 11.1128 5.34684 10.764 5.6096 10.5C6.13635 9.97326 6.99734 9.97326 7.53135 10.5L10.9643 13.933L10.9679 1.35625C10.9679 0.612746 11.5807 0 12.3242 0C12.6959 0 13.0374 0.155 13.2857 0.394754C13.5339 0.642996 13.6804 0.976004 13.6804 1.35625V13.9342L17.1134 10.5013C17.6401 9.9745 18.5011 9.9745 19.0351 10.5013C19.5389 11.0365 19.5389 11.8963 19.0121 12.423H19.0124Z" fill="#CC3333"/>
</svg>
