<svg width="560" height="202" viewBox="0 0 560 202" fill="none" xmlns="http://www.w3.org/2000/svg">
<path d="M3.63147 60.676C3.63147 66.22 6.69147 70.54 12.1275 70.54C17.3475 70.54 20.4795 67.048 20.4795 62.548C20.4795 58.192 17.5275 55.492 13.7835 55.492C11.2275 55.492 9.42747 56.428 8.09547 57.724L7.98747 57.652C9.10347 53.692 12.9555 51.172 17.9955 50.128L16.8795 46.456C8.31147 48.04 3.63147 54.124 3.63147 60.676ZM8.09547 62.044C8.09547 61.504 8.13147 60.892 8.23947 60.424C9.06747 59.704 10.6515 58.876 12.3435 58.876C14.6115 58.876 16.1595 60.46 16.1595 62.872C16.1595 65.392 14.6475 67.084 12.2715 67.084C9.64347 67.084 8.09547 64.708 8.09547 62.044ZM34.8424 58.552C37.0024 57.832 38.7664 55.888 38.7664 53.404C38.7664 49.876 36.1744 47.248 31.3504 47.248C26.2024 47.248 23.4304 50.02 23.4304 53.8C23.4304 56.464 25.3024 58.012 27.5344 59.056C25.1944 59.632 23.1064 61.684 23.1064 64.384C23.1064 67.984 26.0584 70.54 31.0624 70.54C36.4264 70.54 39.1264 67.588 39.1264 63.952C39.1264 61.18 37.1824 59.632 34.8424 58.552ZM32.1784 57.4C29.5504 56.428 27.5344 55.42 27.5344 53.548C27.5344 51.856 28.8664 50.488 31.2064 50.488C33.2224 50.488 34.7704 51.748 34.7704 53.836C34.7704 55.312 33.7624 56.644 32.1784 57.4ZM30.1624 60.208C32.8624 61.216 35.0944 62.224 35.0944 64.276C35.0944 66.184 33.7264 67.3 31.2784 67.3C28.8304 67.3 27.1744 65.932 27.1744 63.952C27.1744 62.368 28.2904 60.964 30.1624 60.208ZM47.68 67.732C47.68 66.148 46.528 64.96 44.872 64.96C43.18 64.96 41.992 66.148 41.992 67.732C41.992 69.316 43.18 70.54 44.872 70.54C46.528 70.54 47.68 69.316 47.68 67.732ZM54.7453 62.008L55.4653 56.572H64.3213L64.2133 52.864H52.0093L50.4973 65.032L51.2893 65.824C52.5133 65.428 53.8093 65.176 55.7533 65.176C59.0293 65.176 60.6133 66.94 60.6133 69.028C60.6133 71.548 58.7773 73.096 56.1133 73.096C54.0973 73.096 51.6853 72.268 50.2093 71.512L49.6693 75.292C51.3613 76.156 53.9173 76.732 56.1853 76.732C61.2253 76.732 64.7893 73.456 64.7893 68.74C64.7893 64.744 61.8733 61.864 56.8693 61.864C55.8613 61.864 55.3213 61.972 54.7453 62.008ZM78.3959 52.792C78.3959 49.264 76.0919 46.636 72.2399 46.636C68.4239 46.636 66.0839 49.264 66.0839 52.792C66.0839 56.248 68.3879 58.876 72.2039 58.876C76.0559 58.876 78.3959 56.248 78.3959 52.792ZM90.4199 46.996H87.2159L68.9279 70.54H72.1319L90.4199 46.996ZM93.2279 64.744C93.2279 61.288 90.9239 58.66 87.1079 58.66C83.2559 58.66 80.9519 61.288 80.9519 64.744C80.9519 68.272 83.2199 70.9 87.0719 70.9C90.8879 70.9 93.2279 68.272 93.2279 64.744ZM75.5519 52.792C75.5519 54.916 74.2919 56.5 72.2399 56.5C70.1519 56.5 68.8919 54.916 68.8919 52.792C68.8919 50.596 70.1519 49.012 72.2399 49.012C74.2919 49.012 75.5519 50.56 75.5519 52.792ZM90.3839 64.744C90.3839 66.976 89.1239 68.524 87.1079 68.524C85.0199 68.524 83.7599 66.976 83.7599 64.744C83.7599 62.656 85.0199 61.036 87.0719 61.036C89.1239 61.036 90.3839 62.62 90.3839 64.744Z" fill="#112353"/>
<path d="M109.457 60.472L112.817 71.472H114.057L117.557 58.972H116.277L113.477 69.652L110.237 58.972H108.717L105.537 69.652L102.617 58.972H101.297L104.857 71.472H106.077L109.457 60.472ZM127.087 71.472V65.192C127.087 63.192 126.007 62.052 124.227 62.052C123.207 62.052 122.007 62.552 121.047 63.512C121.047 63.472 121.047 57.732 121.047 57.732L119.807 57.992V71.472H121.047V64.532C121.807 63.772 122.827 63.232 123.887 63.232C125.207 63.232 125.847 63.952 125.847 65.552V71.472H127.087ZM131.385 59.292C131.385 58.832 131.105 58.412 130.545 58.412C129.985 58.412 129.705 58.832 129.705 59.292C129.705 59.772 129.985 60.212 130.545 60.212C131.105 60.212 131.385 59.772 131.385 59.292ZM131.165 71.472V62.052L129.925 62.312V71.472H131.165ZM138.645 71.292L138.425 70.212C137.865 70.452 137.265 70.652 136.665 70.652C135.705 70.652 135.285 70.092 135.325 68.932L135.465 63.452H138.505L138.565 62.352H135.505L135.565 60.212H134.385L134.325 62.292L132.945 62.612L132.885 63.392L134.285 63.472L134.145 68.892C134.085 70.812 134.865 71.772 136.605 71.772C137.265 71.772 138.005 71.592 138.645 71.292ZM141.229 66.932L147.429 66.892C147.549 66.492 147.629 65.912 147.629 65.432C147.629 63.372 146.309 62.052 144.289 62.052C141.809 62.052 139.969 64.092 139.969 66.972C139.969 69.752 141.749 71.732 144.389 71.732C145.529 71.732 146.549 71.432 147.329 70.952L147.089 69.812C146.389 70.272 145.429 70.572 144.429 70.572C142.509 70.572 141.269 69.092 141.229 67.032V66.932ZM141.309 65.952C141.509 64.432 142.569 63.172 144.209 63.172C145.649 63.172 146.409 64.132 146.409 65.532C146.409 65.632 146.409 65.832 146.389 65.932L141.309 65.952Z" fill="#112353"/>
<path d="M292 0H0V36H292V0Z" fill="#006AC3"/>
<path d="M414 0H385V36H414V0Z" fill="#619CE3"/>
<path d="M385 0H351V36H385V0Z" fill="#3379CC"/>
<path d="M351 0H292V36H351V0Z" fill="#112353"/>
<path d="M425 0H419V36H425V0Z" fill="#D5ECFE"/>
<path d="M417 0H414V36H417V0Z" fill="#82B6F4"/>
<path d="M419 0H417V36H419V0Z" fill="#A3CCFE"/>
<path d="M385.5 30V117" stroke="#619CE3"/>
<path d="M351.5 30V146" stroke="#3379CC"/>
<path d="M292.5 34V177" stroke="#112353"/>
<path d="M414.5 29.5228V96.523" stroke="#82B6F4"/>
<path d="M418.5 33.5228V69.523" stroke="#A3CCFE"/>
<path d="M424.5 31.5228V46.523" stroke="#D5ECFE"/>
<path d="M378.005 125.76L372.425 137.68H373.685L379.345 125.54V124.54H371.445L371.385 125.76H378.005ZM381.894 133.22C381.894 132.68 381.474 132.22 380.894 132.22C380.314 132.22 379.894 132.68 379.894 133.22C379.894 133.76 380.314 134.26 380.894 134.26C381.474 134.26 381.894 133.76 381.894 133.22ZM392.699 133.7L392.639 132.52H390.739V124.24H389.659L383.239 132.84L383.399 133.7H389.539V137.68H390.739V133.7H392.699ZM389.539 132.52H384.839L389.539 126.22V132.52ZM399.899 124.36C399.899 122.54 398.639 121.02 396.579 121.02C394.539 121.02 393.259 122.54 393.259 124.36C393.259 126.14 394.539 127.66 396.579 127.66C398.639 127.66 399.899 126.14 399.899 124.36ZM405.999 121.22H404.919L394.779 134.3H395.879L405.999 121.22ZM407.499 131.16C407.499 129.38 406.219 127.86 404.179 127.86C402.119 127.86 400.859 129.38 400.859 131.16C400.859 132.98 402.119 134.5 404.179 134.5C406.219 134.5 407.499 132.98 407.499 131.16ZM398.999 124.36C398.999 125.66 398.099 126.8 396.579 126.8C395.079 126.8 394.179 125.66 394.179 124.36C394.179 122.98 395.079 121.88 396.579 121.88C398.099 121.88 398.999 122.98 398.999 124.36ZM406.599 131.16C406.599 132.54 405.699 133.64 404.179 133.64C402.679 133.64 401.779 132.54 401.779 131.16C401.779 129.86 402.679 128.72 404.179 128.72C405.699 128.72 406.599 129.86 406.599 131.16ZM419.733 127.6C421.393 127.18 422.133 125.98 422.133 124.76C422.133 122.86 420.873 121.5 417.873 121.5H413.973V134H418.033C421.193 134 422.533 132.56 422.533 130.52C422.533 129.06 421.573 127.96 419.733 127.6ZM420.853 124.86C420.853 126.34 419.613 127.16 417.733 127.16C417.733 127.16 415.273 127.16 415.253 127.16V122.66H417.933C419.913 122.66 420.853 123.52 420.853 124.86ZM421.253 130.52C421.253 131.94 420.333 132.84 418.133 132.84H415.253V128.32H417.813C420.033 128.32 421.253 129.06 421.253 130.52ZM426.049 134V120.26L424.809 120.52V134H426.049ZM433.71 131.98C433.15 132.62 432.31 133.18 431.33 133.18C430.25 133.18 429.45 132.56 429.45 131.58C429.45 130.36 430.57 129.66 433.71 129.3V131.98ZM433.79 132.9C433.93 133.8 434.59 134.28 435.79 134.2L435.87 133.18C435.07 133.2 434.95 132.92 434.95 132.26C434.95 132.26 434.95 127.92 434.95 127.86C434.97 125.54 433.79 124.58 431.67 124.58C430.47 124.58 429.09 125.1 428.27 125.68L428.55 126.84C429.33 126.26 430.55 125.74 431.55 125.74C433.07 125.74 433.71 126.48 433.71 127.92C433.71 127.98 433.71 128.46 433.71 128.46C429.45 128.7 428.15 130.06 428.15 131.72C428.15 133.18 429.37 134.26 431.05 134.26C432.13 134.26 433.11 133.66 433.73 132.9H433.79ZM444.439 133.48L444.179 132.34C443.479 132.8 442.559 133.1 441.639 133.1C439.699 133.1 438.399 131.64 438.399 129.4C438.399 127.22 439.639 125.74 441.619 125.74C442.579 125.74 443.459 126.02 444.159 126.48L444.479 125.36C443.699 124.86 442.739 124.58 441.619 124.58C439.019 124.58 437.119 126.58 437.119 129.44C437.119 132.28 438.839 134.26 441.599 134.26C442.659 134.26 443.659 133.96 444.439 133.48ZM448.023 129.44L452.143 134H453.723L449.303 129.2L453.703 124.84H452.143L448.023 129.06H447.983V120.26L446.743 120.52V134H447.983V129.44H448.023Z" fill="#112353"/>
<path d="M287.609 198H288.829V188.3L285.229 189.62L285.289 190.76L287.609 189.88V198ZM300.653 197.7L300.593 196.52H298.693V188.24H297.613L291.193 196.84L291.353 197.7H297.493V201.68H298.693V197.7H300.653ZM297.493 196.52H292.793L297.493 190.22V196.52ZM307.852 188.36C307.852 186.54 306.592 185.02 304.532 185.02C302.492 185.02 301.212 186.54 301.212 188.36C301.212 190.14 302.492 191.66 304.532 191.66C306.592 191.66 307.852 190.14 307.852 188.36ZM313.952 185.22H312.872L302.732 198.3H303.832L313.952 185.22ZM315.452 195.16C315.452 193.38 314.172 191.86 312.132 191.86C310.072 191.86 308.812 193.38 308.812 195.16C308.812 196.98 310.072 198.5 312.132 198.5C314.172 198.5 315.452 196.98 315.452 195.16ZM306.952 188.36C306.952 189.66 306.052 190.8 304.532 190.8C303.032 190.8 302.132 189.66 302.132 188.36C302.132 186.98 303.032 185.88 304.532 185.88C306.052 185.88 306.952 186.98 306.952 188.36ZM314.552 195.16C314.552 196.54 313.652 197.64 312.132 197.64C310.632 197.64 309.732 196.54 309.732 195.16C309.732 193.86 310.632 192.72 312.132 192.72C313.652 192.72 314.552 193.86 314.552 195.16ZM326.866 185.5H325.366L320.626 198H321.926L323.246 194.42H328.906L330.226 198H331.526L326.866 185.5ZM328.466 193.26H323.686L326.086 186.76L328.466 193.26ZM338.77 195.5C338.77 193.8 337.37 193.2 336.07 192.82C334.89 192.46 333.81 192.14 333.81 191.1C333.81 190.22 334.53 189.7 335.65 189.7C336.45 189.7 337.39 189.96 338.15 190.38L338.51 189.26C337.73 188.86 336.73 188.58 335.73 188.58C334.01 188.58 332.63 189.56 332.63 191.22C332.63 192.82 334.03 193.44 335.29 193.82C336.43 194.18 337.59 194.5 337.59 195.6C337.59 196.6 336.63 197.14 335.53 197.14C334.59 197.14 333.61 196.82 332.83 196.3L332.49 197.44C333.27 197.94 334.41 198.26 335.49 198.26C337.33 198.26 338.77 197.18 338.77 195.5ZM342.484 185.82C342.484 185.36 342.204 184.94 341.644 184.94C341.084 184.94 340.804 185.36 340.804 185.82C340.804 186.3 341.084 186.74 341.644 186.74C342.204 186.74 342.484 186.3 342.484 185.82ZM342.264 198V188.58L341.024 188.84V198H342.264ZM349.964 195.98C349.404 196.62 348.564 197.18 347.584 197.18C346.504 197.18 345.704 196.56 345.704 195.58C345.704 194.36 346.824 193.66 349.964 193.3V195.98ZM350.044 196.9C350.184 197.8 350.844 198.28 352.044 198.2L352.124 197.18C351.324 197.2 351.204 196.92 351.204 196.26C351.204 196.26 351.204 191.92 351.204 191.86C351.224 189.54 350.044 188.58 347.924 188.58C346.724 188.58 345.344 189.1 344.524 189.68L344.804 190.84C345.584 190.26 346.804 189.74 347.804 189.74C349.324 189.74 349.964 190.48 349.964 191.92C349.964 191.98 349.964 192.46 349.964 192.46C345.704 192.7 344.404 194.06 344.404 195.72C344.404 197.18 345.624 198.26 347.304 198.26C348.384 198.26 349.364 197.66 349.984 196.9H350.044ZM361.253 198V191.72C361.253 189.72 360.173 188.58 358.333 188.58C357.373 188.58 356.173 189.12 355.213 190.08V188.58L353.973 188.84V198H355.213V191.06C355.973 190.3 356.993 189.76 357.993 189.76C359.373 189.76 360.013 190.48 360.013 192.08V198H361.253Z" fill="#112353"/>
<path d="M416.904 103.752C416.904 101.124 415.032 99.27 412.548 99.27C410.082 99.27 408.228 101.124 408.228 103.752C408.228 106.38 410.082 108.234 412.548 108.234C415.032 108.234 416.904 106.38 416.904 103.752ZM415.788 103.752C415.788 105.696 414.456 107.172 412.548 107.172C410.658 107.172 409.344 105.696 409.344 103.752C409.344 101.808 410.658 100.332 412.548 100.332C414.456 100.332 415.788 101.808 415.788 103.752ZM419.905 107.298C419.905 106.812 419.527 106.398 419.005 106.398C418.483 106.398 418.105 106.812 418.105 107.298C418.105 107.784 418.483 108.234 419.005 108.234C419.527 108.234 419.905 107.784 419.905 107.298ZM429.631 107.73L429.577 106.668H427.867V99.216H426.895L421.117 106.956L421.261 107.73H426.787V111.312H427.867V107.73H429.631ZM426.787 106.668H422.557L426.787 100.998V106.668ZM436.11 99.324C436.11 97.686 434.976 96.318 433.122 96.318C431.286 96.318 430.134 97.686 430.134 99.324C430.134 100.926 431.286 102.294 433.122 102.294C434.976 102.294 436.11 100.926 436.11 99.324ZM441.6 96.498H440.628L431.502 108.27H432.492L441.6 96.498ZM442.95 105.444C442.95 103.842 441.798 102.474 439.962 102.474C438.108 102.474 436.974 103.842 436.974 105.444C436.974 107.082 438.108 108.45 439.962 108.45C441.798 108.45 442.95 107.082 442.95 105.444ZM435.3 99.324C435.3 100.494 434.49 101.52 433.122 101.52C431.772 101.52 430.962 100.494 430.962 99.324C430.962 98.082 431.772 97.092 433.122 97.092C434.49 97.092 435.3 98.082 435.3 99.324ZM442.14 105.444C442.14 106.686 441.33 107.676 439.962 107.676C438.612 107.676 437.802 106.686 437.802 105.444C437.802 104.274 438.612 103.248 439.962 103.248C441.33 103.248 442.14 104.274 442.14 105.444ZM456.463 106.398L450.073 96.75H448.777V108H449.893V98.37L456.337 108.108H457.579V96.75H456.463V106.398ZM464.642 106.182C464.138 106.758 463.382 107.262 462.5 107.262C461.528 107.262 460.808 106.704 460.808 105.822C460.808 104.724 461.816 104.094 464.642 103.77V106.182ZM464.714 107.01C464.84 107.82 465.434 108.252 466.514 108.18L466.586 107.262C465.866 107.28 465.758 107.028 465.758 106.434C465.758 106.434 465.758 102.528 465.758 102.474C465.776 100.386 464.714 99.522 462.806 99.522C461.726 99.522 460.484 99.99 459.746 100.512L459.998 101.556C460.7 101.034 461.798 100.566 462.698 100.566C464.066 100.566 464.642 101.232 464.642 102.528C464.642 102.582 464.642 103.014 464.642 103.014C460.808 103.23 459.638 104.454 459.638 105.948C459.638 107.262 460.736 108.234 462.248 108.234C463.22 108.234 464.102 107.694 464.66 107.01H464.714ZM472.354 107.838L472.156 106.866C471.652 107.082 471.112 107.262 470.572 107.262C469.708 107.262 469.33 106.758 469.366 105.714L469.492 100.782H472.228L472.282 99.792H469.528L469.582 97.866H468.52L468.466 99.738L467.224 100.026L467.17 100.728L468.43 100.8L468.304 105.678C468.25 107.406 468.952 108.27 470.518 108.27C471.112 108.27 471.778 108.108 472.354 107.838ZM475.506 97.038C475.506 96.624 475.254 96.246 474.75 96.246C474.246 96.246 473.994 96.624 473.994 97.038C473.994 97.47 474.246 97.866 474.75 97.866C475.254 97.866 475.506 97.47 475.506 97.038ZM475.308 108V99.522L474.192 99.756V108H475.308ZM484.2 99.756H483.03L480.51 106.56L477.9 99.756H476.694L479.952 108.018H480.96L484.2 99.756ZM486.071 103.914L491.651 103.878C491.759 103.518 491.831 102.996 491.831 102.564C491.831 100.71 490.643 99.522 488.825 99.522C486.593 99.522 484.937 101.358 484.937 103.95C484.937 106.452 486.539 108.234 488.915 108.234C489.941 108.234 490.859 107.964 491.561 107.532L491.345 106.506C490.715 106.92 489.851 107.19 488.951 107.19C487.223 107.19 486.107 105.858 486.071 104.004V103.914ZM486.143 103.032C486.323 101.664 487.277 100.53 488.753 100.53C490.049 100.53 490.733 101.394 490.733 102.654C490.733 102.744 490.733 102.924 490.715 103.014L486.143 103.032Z" fill="#112353"/>
<path d="M424.908 78.221C424.908 75.593 423.036 73.739 420.552 73.739C418.086 73.739 416.232 75.593 416.232 78.221C416.232 80.849 418.086 82.703 420.552 82.703C423.036 82.703 424.908 80.849 424.908 78.221ZM423.792 78.221C423.792 80.165 422.46 81.641 420.552 81.641C418.662 81.641 417.348 80.165 417.348 78.221C417.348 76.277 418.662 74.801 420.552 74.801C422.46 74.801 423.792 76.277 423.792 78.221ZM427.909 81.767C427.909 81.281 427.531 80.867 427.009 80.867C426.487 80.867 426.109 81.281 426.109 81.767C426.109 82.253 426.487 82.703 427.009 82.703C427.531 82.703 427.909 82.253 427.909 81.767ZM432.801 79.463C434.133 78.959 435.267 77.897 435.267 76.511C435.267 74.891 434.025 73.739 432.027 73.739C430.803 73.739 429.651 74.279 428.841 74.927L429.255 75.863C430.029 75.251 430.965 74.783 431.919 74.783C433.233 74.783 434.079 75.449 434.079 76.655C434.079 78.077 432.513 78.977 430.353 79.499V80.417C430.929 80.309 431.469 80.255 431.991 80.255C433.449 80.291 434.511 81.047 434.511 82.415C434.511 83.891 433.377 84.773 431.793 84.773C430.731 84.773 429.759 84.449 429.147 84.071L428.859 85.097C429.561 85.529 430.713 85.799 431.757 85.799C433.917 85.799 435.681 84.449 435.681 82.325C435.681 80.885 434.619 79.607 432.801 79.463ZM442.286 73.793C442.286 72.155 441.152 70.787 439.298 70.787C437.462 70.787 436.31 72.155 436.31 73.793C436.31 75.395 437.462 76.763 439.298 76.763C441.152 76.763 442.286 75.395 442.286 73.793ZM447.776 70.967H446.804L437.678 82.739H438.668L447.776 70.967ZM449.126 79.913C449.126 78.311 447.974 76.943 446.138 76.943C444.284 76.943 443.15 78.311 443.15 79.913C443.15 81.551 444.284 82.919 446.138 82.919C447.974 82.919 449.126 81.551 449.126 79.913ZM441.476 73.793C441.476 74.963 440.666 75.989 439.298 75.989C437.948 75.989 437.138 74.963 437.138 73.793C437.138 72.551 437.948 71.561 439.298 71.561C440.666 71.561 441.476 72.551 441.476 73.793ZM448.316 79.913C448.316 81.155 447.506 82.145 446.138 82.145C444.788 82.145 443.978 81.155 443.978 79.913C443.978 78.743 444.788 77.717 446.138 77.717C447.506 77.717 448.316 78.743 448.316 79.913ZM462.171 74.729C462.171 72.659 460.749 71.219 457.779 71.219C457.635 71.219 454.953 71.219 454.953 71.219V82.469H456.105V78.509L457.635 78.491C460.425 78.455 462.171 77.195 462.171 74.729ZM460.983 74.783C460.983 76.529 459.831 77.375 457.707 77.411L456.105 77.447V72.281C456.105 72.281 457.599 72.281 457.743 72.281C459.849 72.281 460.983 73.181 460.983 74.783ZM468.357 80.651C467.853 81.227 467.097 81.731 466.215 81.731C465.243 81.731 464.523 81.173 464.523 80.291C464.523 79.193 465.531 78.563 468.357 78.239V80.651ZM468.429 81.479C468.555 82.289 469.149 82.721 470.229 82.649L470.301 81.731C469.581 81.749 469.473 81.497 469.473 80.903C469.473 80.903 469.473 76.997 469.473 76.943C469.491 74.855 468.429 73.991 466.521 73.991C465.441 73.991 464.199 74.459 463.461 74.981L463.713 76.025C464.415 75.503 465.513 75.035 466.413 75.035C467.781 75.035 468.357 75.701 468.357 76.997C468.357 77.051 468.357 77.483 468.357 77.483C464.523 77.699 463.353 78.923 463.353 80.417C463.353 81.731 464.451 82.703 465.963 82.703C466.935 82.703 467.817 82.163 468.375 81.479H468.429ZM478.013 82.001L477.779 80.975C477.149 81.389 476.321 81.659 475.493 81.659C473.747 81.659 472.577 80.345 472.577 78.329C472.577 76.367 473.693 75.035 475.475 75.035C476.339 75.035 477.131 75.287 477.761 75.701L478.049 74.693C477.347 74.243 476.483 73.991 475.475 73.991C473.135 73.991 471.425 75.791 471.425 78.365C471.425 80.921 472.973 82.703 475.457 82.703C476.411 82.703 477.311 82.433 478.013 82.001ZM481.418 71.507C481.418 71.093 481.166 70.715 480.662 70.715C480.158 70.715 479.906 71.093 479.906 71.507C479.906 71.939 480.158 72.335 480.662 72.335C481.166 72.335 481.418 71.939 481.418 71.507ZM481.22 82.469V73.991L480.104 74.225V82.469H481.22ZM490.436 71.507C490.436 71.093 490.166 70.715 489.68 70.715C489.176 70.715 488.924 71.093 488.924 71.507C488.924 71.939 489.176 72.335 489.68 72.335C490.166 72.335 490.436 71.939 490.436 71.507ZM488.078 70.301C487.7 70.121 487.124 69.941 486.566 69.941C485.126 69.941 484.118 70.733 484.082 72.911L484.064 74.207L482.822 74.495L482.75 75.197L484.082 75.287V82.469H485.18V75.251H487.718L487.772 74.261H485.18V72.893C485.18 71.561 485.63 70.967 486.548 70.967C486.998 70.967 487.43 71.129 487.808 71.309C487.808 71.327 488.078 70.319 488.078 70.301ZM490.238 82.469V73.991L489.122 74.225V82.469H490.238ZM498.878 82.001L498.644 80.975C498.014 81.389 497.186 81.659 496.358 81.659C494.612 81.659 493.442 80.345 493.442 78.329C493.442 76.367 494.558 75.035 496.34 75.035C497.204 75.035 497.996 75.287 498.626 75.701L498.914 74.693C498.212 74.243 497.348 73.991 496.34 73.991C494 73.991 492.29 75.791 492.29 78.365C492.29 80.921 493.838 82.703 496.322 82.703C497.276 82.703 498.176 82.433 498.878 82.001ZM506.361 82.469V71.219H505.227V82.469H506.361ZM514.093 80.219C514.093 78.689 512.833 78.149 511.663 77.807C510.601 77.483 509.629 77.195 509.629 76.259C509.629 75.467 510.277 74.999 511.285 74.999C512.005 74.999 512.851 75.233 513.535 75.611L513.859 74.603C513.157 74.243 512.257 73.991 511.357 73.991C509.809 73.991 508.567 74.873 508.567 76.367C508.567 77.807 509.827 78.365 510.961 78.707C511.987 79.031 513.031 79.319 513.031 80.309C513.031 81.209 512.167 81.695 511.177 81.695C510.331 81.695 509.449 81.407 508.747 80.939L508.441 81.965C509.143 82.415 510.169 82.703 511.141 82.703C512.797 82.703 514.093 81.731 514.093 80.219ZM517.22 82.469V70.103L516.104 70.337V82.469H517.22ZM524.115 80.651C523.611 81.227 522.855 81.731 521.973 81.731C521.001 81.731 520.281 81.173 520.281 80.291C520.281 79.193 521.289 78.563 524.115 78.239V80.651ZM524.187 81.479C524.313 82.289 524.907 82.721 525.987 82.649L526.059 81.731C525.339 81.749 525.231 81.497 525.231 80.903C525.231 80.903 525.231 76.997 525.231 76.943C525.249 74.855 524.187 73.991 522.279 73.991C521.199 73.991 519.957 74.459 519.219 74.981L519.471 76.025C520.173 75.503 521.271 75.035 522.171 75.035C523.539 75.035 524.115 75.701 524.115 76.997C524.115 77.051 524.115 77.483 524.115 77.483C520.281 77.699 519.111 78.923 519.111 80.417C519.111 81.731 520.209 82.703 521.721 82.703C522.693 82.703 523.575 82.163 524.133 81.479H524.187ZM534.275 82.469V76.817C534.275 75.017 533.303 73.991 531.647 73.991C530.783 73.991 529.703 74.477 528.839 75.341V73.991L527.723 74.225V82.469H528.839V76.223C529.523 75.539 530.441 75.053 531.341 75.053C532.583 75.053 533.159 75.701 533.159 77.141V82.469H534.275ZM542.355 74.495C541.815 74.243 541.059 74.045 540.357 74.045C537.981 74.045 536.271 75.863 536.271 78.419C536.271 80.921 537.747 82.703 539.961 82.703C540.987 82.703 541.815 82.199 542.355 81.695C542.355 81.731 542.355 82.469 542.355 82.469H543.471V70.103L542.355 70.337V74.495ZM542.355 75.683C542.355 75.683 542.355 80.795 542.355 80.759C541.779 81.299 541.005 81.677 540.159 81.677C538.485 81.677 537.423 80.309 537.423 78.401C537.423 76.457 538.539 75.053 540.303 75.053C541.095 75.053 541.851 75.287 542.355 75.683ZM546.651 78.383L552.231 78.347C552.339 77.987 552.411 77.465 552.411 77.033C552.411 75.179 551.223 73.991 549.405 73.991C547.173 73.991 545.517 75.827 545.517 78.419C545.517 80.921 547.119 82.703 549.495 82.703C550.521 82.703 551.439 82.433 552.141 82.001L551.925 80.975C551.295 81.389 550.431 81.659 549.531 81.659C547.803 81.659 546.687 80.327 546.651 78.473V78.383ZM546.723 77.501C546.903 76.133 547.857 74.999 549.333 74.999C550.629 74.999 551.313 75.863 551.313 77.123C551.313 77.213 551.313 77.393 551.295 77.483L546.723 77.501ZM555.628 77.177C556.276 75.701 557.086 75.053 557.95 75.053C558.418 75.053 558.85 75.197 559.21 75.413L559.498 74.369C559.12 74.153 558.598 73.991 558.058 73.991C556.978 73.991 556.168 74.693 555.628 75.755V73.991L554.512 74.225V82.469H555.628V77.177Z" fill="#112353"/>
<path d="M423.736 59.725H424.834V50.995L421.594 52.183L421.648 53.209L423.736 52.417V59.725ZM428.932 59.023C428.932 58.537 428.554 58.123 428.032 58.123C427.51 58.123 427.132 58.537 427.132 59.023C427.132 59.509 427.51 59.959 428.032 59.959C428.554 59.959 428.932 59.509 428.932 59.023ZM433.823 56.719C435.155 56.215 436.289 55.153 436.289 53.767C436.289 52.147 435.047 50.995 433.049 50.995C431.825 50.995 430.673 51.535 429.863 52.183L430.277 53.119C431.051 52.507 431.987 52.039 432.941 52.039C434.255 52.039 435.101 52.705 435.101 53.911C435.101 55.333 433.535 56.233 431.375 56.755V57.673C431.951 57.565 432.491 57.511 433.013 57.511C434.471 57.547 435.533 58.303 435.533 59.671C435.533 61.147 434.399 62.029 432.815 62.029C431.753 62.029 430.781 61.705 430.169 61.327L429.881 62.353C430.583 62.785 431.735 63.055 432.779 63.055C434.939 63.055 436.703 61.705 436.703 59.581C436.703 58.141 435.641 56.863 433.823 56.719ZM443.309 51.049C443.309 49.411 442.175 48.043 440.321 48.043C438.485 48.043 437.333 49.411 437.333 51.049C437.333 52.651 438.485 54.019 440.321 54.019C442.175 54.019 443.309 52.651 443.309 51.049ZM448.799 48.223H447.827L438.701 59.995H439.691L448.799 48.223ZM450.149 57.169C450.149 55.567 448.997 54.199 447.161 54.199C445.307 54.199 444.173 55.567 444.173 57.169C444.173 58.807 445.307 60.175 447.161 60.175C448.997 60.175 450.149 58.807 450.149 57.169ZM442.499 51.049C442.499 52.219 441.688 53.245 440.321 53.245C438.971 53.245 438.161 52.219 438.161 51.049C438.161 49.807 438.971 48.817 440.321 48.817C441.688 48.817 442.499 49.807 442.499 51.049ZM449.339 57.169C449.339 58.411 448.529 59.401 447.161 59.401C445.811 59.401 445.001 58.411 445.001 57.169C445.001 55.999 445.811 54.973 447.161 54.973C448.529 54.973 449.339 55.999 449.339 57.169ZM466.451 54.055C466.451 50.581 464.057 48.241 460.925 48.241C457.703 48.241 455.381 50.689 455.381 54.127C455.381 57.601 457.775 59.959 460.907 59.959C464.129 59.959 466.451 57.493 466.451 54.055ZM465.281 54.127C465.281 56.971 463.463 58.933 460.961 58.933C458.405 58.933 456.551 56.953 456.551 54.055C456.551 51.211 458.369 49.267 460.889 49.267C463.445 49.267 465.281 51.229 465.281 54.127ZM472.697 59.563L472.499 58.591C471.995 58.807 471.455 58.987 470.915 58.987C470.051 58.987 469.673 58.483 469.709 57.439L469.835 52.507H472.571L472.625 51.517H469.871L469.925 49.591H468.863L468.809 51.463L467.567 51.751L467.513 52.453L468.773 52.525L468.647 57.403C468.593 59.131 469.295 59.995 470.861 59.995C471.455 59.995 472.121 59.833 472.697 59.563ZM481.069 59.725V54.073C481.069 52.273 480.097 51.247 478.495 51.247C477.577 51.247 476.497 51.697 475.633 52.561C475.633 52.525 475.633 47.359 475.633 47.359L474.517 47.593V59.725H475.633V53.479C476.317 52.795 477.235 52.309 478.189 52.309C479.377 52.309 479.953 52.957 479.953 54.397V59.725H481.069ZM484.199 55.639L489.779 55.603C489.887 55.243 489.959 54.721 489.959 54.289C489.959 52.435 488.771 51.247 486.953 51.247C484.721 51.247 483.065 53.083 483.065 55.675C483.065 58.177 484.667 59.959 487.043 59.959C488.069 59.959 488.987 59.689 489.689 59.257L489.473 58.231C488.843 58.645 487.979 58.915 487.079 58.915C485.351 58.915 484.235 57.583 484.199 55.729V55.639ZM484.271 54.757C484.451 53.389 485.405 52.255 486.881 52.255C488.177 52.255 488.861 53.119 488.861 54.379C488.861 54.469 488.861 54.649 488.843 54.739L484.271 54.757ZM493.176 54.433C493.824 52.957 494.634 52.309 495.498 52.309C495.966 52.309 496.398 52.453 496.758 52.669L497.046 51.625C496.668 51.409 496.146 51.247 495.606 51.247C494.526 51.247 493.716 51.949 493.176 53.011V51.247L492.06 51.481V59.725H493.176V54.433Z" fill="#112353"/>
<path d="M349.275 160.122C347.715 159.462 346.215 158.862 346.215 157.462C346.215 156.302 347.135 155.242 348.795 155.242C350.235 155.242 351.295 156.222 351.295 157.622C351.295 158.842 350.395 159.662 349.275 160.122ZM348.355 160.942C349.935 161.622 351.495 162.222 351.495 163.742C351.495 165.042 350.615 165.942 348.795 165.942C347.055 165.942 346.015 165.002 346.015 163.562C346.015 162.262 347.095 161.382 348.355 160.942ZM350.215 160.562C351.255 160.102 352.555 159.062 352.555 157.462C352.555 155.562 351.135 154.162 348.835 154.162C346.535 154.162 344.955 155.582 344.955 157.602C344.955 159.142 346.075 159.922 347.395 160.522C346.315 160.882 344.755 161.942 344.755 163.722C344.755 165.502 346.015 167.042 348.755 167.042C351.435 167.042 352.755 165.382 352.755 163.562C352.755 162.002 351.575 161.202 350.215 160.562ZM360.6 157.142C360.6 155.322 359.34 153.802 357.28 153.802C355.24 153.802 353.96 155.322 353.96 157.142C353.96 158.922 355.24 160.442 357.28 160.442C359.34 160.442 360.6 158.922 360.6 157.142ZM366.7 154.002H365.62L355.48 167.082H356.58L366.7 154.002ZM368.2 163.942C368.2 162.162 366.92 160.642 364.88 160.642C362.82 160.642 361.56 162.162 361.56 163.942C361.56 165.762 362.82 167.282 364.88 167.282C366.92 167.282 368.2 165.762 368.2 163.942ZM359.7 157.142C359.7 158.442 358.8 159.582 357.28 159.582C355.78 159.582 354.88 158.442 354.88 157.142C354.88 155.762 355.78 154.662 357.28 154.662C358.8 154.662 359.7 155.762 359.7 157.142ZM367.3 163.942C367.3 165.322 366.4 166.422 364.88 166.422C363.38 166.422 362.48 165.322 362.48 163.942C362.48 162.642 363.38 161.502 364.88 161.502C366.4 161.502 367.3 162.642 367.3 163.942ZM382.134 166.782V165.582H375.954V154.282H374.674V166.782H382.134ZM388.845 164.762C388.285 165.402 387.445 165.962 386.465 165.962C385.385 165.962 384.585 165.342 384.585 164.362C384.585 163.142 385.705 162.442 388.845 162.082V164.762ZM388.925 165.682C389.065 166.582 389.725 167.062 390.925 166.982L391.005 165.962C390.205 165.982 390.085 165.702 390.085 165.042C390.085 165.042 390.085 160.702 390.085 160.642C390.105 158.322 388.925 157.362 386.805 157.362C385.605 157.362 384.225 157.882 383.405 158.462L383.685 159.622C384.465 159.042 385.685 158.522 386.685 158.522C388.205 158.522 388.845 159.262 388.845 160.702C388.845 160.762 388.845 161.242 388.845 161.242C384.585 161.482 383.285 162.842 383.285 164.502C383.285 165.962 384.505 167.042 386.185 167.042C387.265 167.042 388.245 166.442 388.865 165.682H388.925ZM397.414 166.602L397.194 165.522C396.634 165.762 396.034 165.962 395.434 165.962C394.474 165.962 394.054 165.402 394.094 164.242L394.234 158.762H397.274L397.334 157.662H394.274L394.334 155.522H393.154L393.094 157.602L391.714 157.922L391.654 158.702L393.054 158.782L392.914 164.202C392.854 166.122 393.634 167.082 395.374 167.082C396.034 167.082 396.774 166.902 397.414 166.602ZM400.916 154.602C400.916 154.142 400.636 153.722 400.076 153.722C399.516 153.722 399.236 154.142 399.236 154.602C399.236 155.082 399.516 155.522 400.076 155.522C400.636 155.522 400.916 155.082 400.916 154.602ZM400.696 166.782V157.362L399.456 157.622V166.782H400.696ZM410.896 166.782V160.502C410.896 158.502 409.816 157.362 407.976 157.362C407.016 157.362 405.816 157.902 404.856 158.862V157.362L403.616 157.622V166.782H404.856V159.842C405.616 159.082 406.636 158.542 407.636 158.542C409.016 158.542 409.656 159.262 409.656 160.862V166.782H410.896ZM420.073 166.782L416.913 162.042L419.833 157.622H418.453L416.213 161.182L413.933 157.622H412.553L415.513 162.082L412.353 166.782H413.753L416.213 162.922L418.693 166.782H420.073Z" fill="#112353"/>
</svg>
