<?xml version="1.0" encoding="UTF-8" standalone="no"?>
<svg
   width="560"
   height="140"
   viewBox="0 0 560 140"
   fill="none"
   version="1.1"
   id="svg32"
   sodipodi:docname="fullTimeGender.svg"
   inkscape:version="1.1.1 (c3084ef, 2021-09-22)"
   xmlns:inkscape="http://www.inkscape.org/namespaces/inkscape"
   xmlns:sodipodi="http://sodipodi.sourceforge.net/DTD/sodipodi-0.dtd"
   xmlns="http://www.w3.org/2000/svg"
   xmlns:svg="http://www.w3.org/2000/svg">
  <defs
     id="defs36" />
  <sodipodi:namedview
     id="namedview34"
     pagecolor="#ffffff"
     bordercolor="#666666"
     borderopacity="1.0"
     inkscape:pageshadow="2"
     inkscape:pageopacity="0.0"
     inkscape:pagecheckerboard="0"
     showgrid="false"
     width="560px"
     height="140px"
     inkscape:zoom="2.0125"
     inkscape:cx="359.50311"
     inkscape:cy="25.590062"
     inkscape:window-width="1296"
     inkscape:window-height="847"
     inkscape:window-x="1633"
     inkscape:window-y="129"
     inkscape:window-maximized="0"
     inkscape:current-layer="svg32" />
  <path
     d="m 1.71423,64.484278 c 0,5.544 3.06,9.864 8.49597,9.864 5.22,0 8.352,-3.492 8.352,-7.992 0,-4.356 -2.952,-7.056 -6.696,-7.056 -2.55597,0 -4.35597,0.936 -5.68797,2.232 l -0.108,-0.072 c 1.116,-3.96 4.96797,-6.48 10.00797,-7.524 l -1.116,-3.672 c -8.56797,1.584 -13.24797,7.668 -13.24797,14.22 z m 4.464,1.368 c 0,-0.54 0.036,-1.152 0.144,-1.62 0.828,-0.72 2.412,-1.548 4.10397,-1.548 2.268,0 3.816,1.584 3.816,3.996 0,2.52 -1.512,4.212 -3.888,4.212 -2.62797,0 -4.17597,-2.376 -4.17597,-5.04 z m 32.97487,7.704 -0.108,-3.564 h -3.42 v -13.68 h -4.32 l -10.692,14.688 0.468,2.556 h 10.512 v 6.696 h 4.032 v -6.696 z m -7.416,-3.528 h -6.372 l 6.372,-8.964 z m 20.6947,-13.428 c 0,-3.528 -2.304,-6.156 -6.156,-6.156 -3.816,0 -6.156,2.628 -6.156,6.156 0,3.456 2.304,6.084 6.12,6.084 3.852,0 6.192,-2.628 6.192,-6.084 z m 12.024,-5.796 h -3.204 l -18.288,23.544 h 3.204 z m 2.808,17.748 c 0,-3.456 -2.304,-6.084 -6.12,-6.084 -3.852,0 -6.156,2.628 -6.156,6.084 0,3.528 2.268,6.156 6.12,6.156 3.816,0 6.156,-2.628 6.156,-6.156 z m -17.676,-11.952 c 0,2.124 -1.26,3.708 -3.312,3.708 -2.088,0 -3.348,-1.584 -3.348,-3.708 0,-2.196 1.26,-3.78 3.348,-3.78 2.052,0 3.312,1.548 3.312,3.78 z m 14.832,11.952 c 0,2.232 -1.26,3.78 -3.276,3.78 -2.088,0 -3.348,-1.548 -3.348,-3.78 0,-2.088 1.26,-3.708 3.312,-3.708 2.052,0 3.312,1.584 3.312,3.708 z"
     fill="#112353"
     id="path20" />
  <path
     d="m 302.421,68.616278 c 2.484,-0.936 4.536,-2.988 4.536,-5.652 0,-3.456 -2.952,-5.796 -7.416,-5.796 -2.916,0 -5.292,1.008 -7.128,2.376 l 1.152,3.276 c 1.62,-1.188 3.384,-2.016 5.148,-2.016 2.34,0 3.672,1.044 3.672,2.88 0,2.592 -3.24,3.672 -6.66,4.392 v 3.276 c 1.044,-0.18 2.124,-0.252 3.096,-0.216 2.844,0.072 4.5,1.152 4.5,3.276 0,2.376 -1.836,3.636 -4.572,3.6 -2.124,0 -4.248,-0.648 -5.76,-1.62 l -0.612,3.636 c 1.728,0.936 4.104,1.512 6.588,1.512 4.824,0 8.748,-2.664 8.748,-7.236 0,-2.628 -1.764,-5.112 -5.292,-5.688 z m 7.416,-3.132 c 0,5.544 3.06,9.864 8.496,9.864 5.22,0 8.352,-3.492 8.352,-7.992 0,-4.356 -2.952,-7.056 -6.696,-7.056 -2.556,0 -4.356,0.936 -5.688,2.232 l -0.108,-0.072 c 1.116,-3.96 4.968,-6.48 10.008,-7.524 l -1.116,-3.672 c -8.568,1.584 -13.248,7.668 -13.248,14.22 z m 4.464,1.368 c 0,-0.54 0.036,-1.152 0.144,-1.62 0.828,-0.72 2.412,-1.548 4.104,-1.548 2.268,0 3.816,1.584 3.816,3.996 0,2.52 -1.512,4.212 -3.888,4.212 -2.628,0 -4.176,-2.376 -4.176,-5.04 z m 26.531,-9.252 c 0,-3.528 -2.304,-6.156 -6.156,-6.156 -3.816,0 -6.156,2.628 -6.156,6.156 0,3.456 2.304,6.084 6.12,6.084 3.852,0 6.192,-2.628 6.192,-6.084 z m 12.024,-5.796 h -3.204 l -18.288,23.544 h 3.204 z m 2.808,17.748 c 0,-3.456 -2.304,-6.084 -6.12,-6.084 -3.852,0 -6.156,2.628 -6.156,6.084 0,3.528 2.268,6.156 6.12,6.156 3.816,0 6.156,-2.628 6.156,-6.156 z m -17.676,-11.952 c 0,2.124 -1.26,3.708 -3.312,3.708 -2.088,0 -3.348,-1.584 -3.348,-3.708 0,-2.196 1.26,-3.78 3.348,-3.78 2.052,0 3.312,1.548 3.312,3.78 z m 14.832,11.952 c 0,2.232 -1.26,3.78 -3.276,3.78 -2.088,0 -3.348,-1.548 -3.348,-3.78 0,-2.088 1.26,-3.708 3.312,-3.708 2.052,0 3.312,1.584 3.312,3.708 z"
     fill="#112353"
     id="path22" />
  <path
     d="m 87.8255,74.808278 h 1.3 l -0.4,-12.5 h -1.7 l -4.1595,11.04 -4.22,-11.04 h -1.72 l -0.42,12.5 h 1.26 l 0.22,-10.94 4.14,10.86 h 1.3995 l 4.1,-10.84 z m 4.695,-4.54 6.2,-0.04 c 0.12,-0.4 0.2,-0.98 0.2,-1.46 0,-2.06 -1.32,-3.38 -3.34,-3.38 -2.48,0 -4.32,2.04 -4.32,4.92 0,2.78 1.78,4.76 4.42,4.76 1.14,0 2.16,-0.3 2.94,-0.78 l -0.24,-1.14 c -0.7,0.46 -1.66,0.76 -2.66,0.76 -1.92,0 -3.16,-1.48 -3.2,-3.54 z m 0.08,-0.98 c 0.2,-1.52 1.26,-2.78 2.9,-2.78 1.44,0 2.2,0.96 2.2,2.36 0,0.1 0,0.3 -0.02,0.4 z m 15.9345,5.52 v -6.28 c 0,-2 -1.08,-3.14 -2.92,-3.14 -0.96,0 -2.16,0.54 -3.12,1.5 v -1.5 l -1.24,0.26 v 9.16 h 1.24 v -6.94 c 0.76,-0.76 1.78,-1.3 2.78,-1.3 1.38,0 2.02,0.72 2.02,2.32 v 5.92 z"
     fill="#112353"
     id="path24" />
  <path
     d="m 371.23,62.808278 3.36,11 h 1.24 l 3.5,-12.5 h -1.28 l -2.8,10.68 -3.24,-10.68 h -1.52 l -3.18,10.68 -2.92,-10.68 h -1.32 l 3.56,12.5 h 1.22 z m 17.773,6.4 c 0,-2.94 -1.84,-4.82 -4.4,-4.82 -2.56,0 -4.52,1.94 -4.52,4.86 0,2.94 1.88,4.82 4.42,4.82 2.54,0 4.5,-1.94 4.5,-4.86 z m -1.22,0.04 c 0,2.16 -1.28,3.7 -3.22,3.7 -1.94,0 -3.24,-1.5 -3.24,-3.74 0,-2.16 1.28,-3.7 3.22,-3.7 1.94,0 3.24,1.5 3.24,3.74 z m 16.205,4.56 v -6.26 c 0,-2.02 -1.08,-3.16 -2.82,-3.16 -1.06,0 -2.22,0.5 -3.24,1.52 -0.44,-1.02 -1.34,-1.52 -2.48,-1.52 -0.94,0 -1.96,0.4 -2.9,1.26 0,-0.08 0,-1.26 0,-1.26 l -1.24,0.26 v 9.16 h 1.24 v -7.18 c 0.7,-0.62 1.58,-1.06 2.54,-1.06 1.32,0 1.94,0.74 1.94,2.34 v 5.9 h 1.24 v -6.24 c 0,-0.22 -0.02,-0.7 -0.04,-0.82 0.7,-0.66 1.6,-1.18 2.58,-1.18 1.32,0 1.94,0.74 1.94,2.34 v 5.9 z m 3.487,-4.54 6.2,-0.04 c 0.12,-0.4 0.2,-0.98 0.2,-1.46 0,-2.06 -1.32,-3.38 -3.34,-3.38 -2.48,0 -4.32,2.04 -4.32,4.92 0,2.78 1.78,4.76 4.42,4.76 1.14,0 2.16,-0.3 2.94,-0.78 l -0.24,-1.14 c -0.7,0.46 -1.66,0.76 -2.66,0.76 -1.92,0 -3.16,-1.48 -3.2,-3.54 z m 0.08,-0.98 c 0.2,-1.52 1.26,-2.78 2.9,-2.78 1.44,0 2.2,0.96 2.2,2.36 0,0.1 0,0.3 -0.02,0.4 z m 15.935,5.52 v -6.28 c 0,-2 -1.08,-3.14 -2.92,-3.14 -0.96,0 -2.16,0.54 -3.12,1.5 v -1.5 l -1.24,0.26 v 9.16 h 1.24 v -6.94 c 0.76,-0.76 1.78,-1.3 2.78,-1.3 1.38,0 2.02,0.72 2.02,2.32 v 5.92 z"
     fill="#112353"
     id="path26" />
  <path
     d="M 270.059,-0.19168609 H 0.0594482 V 35.808278 H 270.059 Z"
     fill="#006ac3"
     id="path28" />
  <path
     d="m 424.059,-0.19168609 h -154 V 35.808278 h 154 z"
     fill="#112353"
     id="path30" />
</svg>
