<svg width="425" height="83" viewBox="0 0 425 83" fill="none" xmlns="http://www.w3.org/2000/svg">
<path d="M1.71423 65.6156C1.71423 71.1596 4.77423 75.4796 10.2102 75.4796C15.4302 75.4796 18.5622 71.9876 18.5622 67.4876C18.5622 63.1316 15.6102 60.4316 11.8662 60.4316C9.31023 60.4316 7.51023 61.3676 6.17823 62.6636L6.07023 62.5916C7.18623 58.6316 11.0382 56.1116 16.0782 55.0676L14.9622 51.3956C6.39423 52.9796 1.71423 59.0636 1.71423 65.6156V65.6156ZM6.17823 66.9836C6.17823 66.4436 6.21423 65.8316 6.32223 65.3636C7.15023 64.6436 8.73423 63.8156 10.4262 63.8156C12.6942 63.8156 14.2422 65.3996 14.2422 67.8116C14.2422 70.3316 12.7302 72.0236 10.3542 72.0236C7.72623 72.0236 6.17823 69.6476 6.17823 66.9836V66.9836ZM39.1531 74.6876L39.0451 71.1236H35.6251V57.4436H31.3051L20.6131 72.1316L21.0811 74.6876H31.5931V81.3836H35.6251V74.6876H39.1531ZM31.7371 71.1596H25.3651L31.7371 62.1956V71.1596ZM52.4318 57.7316C52.4318 54.2036 50.1278 51.5756 46.2758 51.5756C42.4598 51.5756 40.1198 54.2036 40.1198 57.7316C40.1198 61.1876 42.4238 63.8156 46.2398 63.8156C50.0918 63.8156 52.4318 61.1876 52.4318 57.7316ZM64.4558 51.9356H61.2518L42.9638 75.4796H46.1678L64.4558 51.9356ZM67.2638 69.6836C67.2638 66.2276 64.9598 63.5996 61.1438 63.5996C57.2918 63.5996 54.9878 66.2276 54.9878 69.6836C54.9878 73.2116 57.2558 75.8396 61.1078 75.8396C64.9238 75.8396 67.2638 73.2116 67.2638 69.6836ZM49.5878 57.7316C49.5878 59.8556 48.3278 61.4396 46.2758 61.4396C44.1878 61.4396 42.9278 59.8556 42.9278 57.7316C42.9278 55.5356 44.1878 53.9516 46.2758 53.9516C48.3278 53.9516 49.5878 55.4996 49.5878 57.7316ZM64.4198 69.6836C64.4198 71.9156 63.1598 73.4636 61.1438 73.4636C59.0558 73.4636 57.7958 71.9156 57.7958 69.6836C57.7958 67.5956 59.0558 65.9756 61.1078 65.9756C63.1598 65.9756 64.4198 67.5596 64.4198 69.6836Z" fill="#112353"/>
<path d="M302.421 69.7476C304.905 68.8116 306.957 66.7596 306.957 64.0956C306.957 60.6396 304.005 58.2996 299.541 58.2996C296.625 58.2996 294.249 59.3076 292.413 60.6756L293.565 63.9516C295.185 62.7636 296.949 61.9356 298.713 61.9356C301.053 61.9356 302.385 62.9796 302.385 64.8156C302.385 67.4076 299.145 68.4876 295.725 69.2076V72.4836C296.769 72.3036 297.849 72.2316 298.821 72.2676C301.665 72.3396 303.321 73.4196 303.321 75.5436C303.321 77.9196 301.485 79.1796 298.749 79.1436C296.625 79.1436 294.501 78.4956 292.989 77.5236L292.377 81.1596C294.105 82.0956 296.481 82.6716 298.965 82.6716C303.789 82.6716 307.713 80.0076 307.713 75.4356C307.713 72.8076 305.949 70.3236 302.421 69.7476V69.7476ZM309.837 66.6156C309.837 72.1596 312.897 76.4796 318.333 76.4796C323.553 76.4796 326.685 72.9876 326.685 68.4876C326.685 64.1316 323.733 61.4316 319.989 61.4316C317.433 61.4316 315.633 62.3676 314.301 63.6636L314.193 63.5916C315.309 59.6316 319.161 57.1116 324.201 56.0676L323.085 52.3956C314.517 53.9796 309.837 60.0636 309.837 66.6156V66.6156ZM314.301 67.9836C314.301 67.4436 314.337 66.8316 314.445 66.3636C315.273 65.6436 316.857 64.8156 318.549 64.8156C320.817 64.8156 322.365 66.3996 322.365 68.8116C322.365 71.3316 320.853 73.0236 318.477 73.0236C315.849 73.0236 314.301 70.6476 314.301 67.9836ZM340.832 58.7316C340.832 55.2036 338.528 52.5756 334.676 52.5756C330.86 52.5756 328.52 55.2036 328.52 58.7316C328.52 62.1876 330.824 64.8156 334.64 64.8156C338.492 64.8156 340.832 62.1876 340.832 58.7316ZM352.856 52.9356H349.652L331.364 76.4796H334.568L352.856 52.9356ZM355.664 70.6836C355.664 67.2276 353.36 64.5996 349.544 64.5996C345.692 64.5996 343.388 67.2276 343.388 70.6836C343.388 74.2116 345.656 76.8396 349.508 76.8396C353.324 76.8396 355.664 74.2116 355.664 70.6836ZM337.988 58.7316C337.988 60.8556 336.728 62.4396 334.676 62.4396C332.588 62.4396 331.328 60.8556 331.328 58.7316C331.328 56.5356 332.588 54.9516 334.676 54.9516C336.728 54.9516 337.988 56.4996 337.988 58.7316ZM352.82 70.6836C352.82 72.9156 351.56 74.4636 349.544 74.4636C347.456 74.4636 346.196 72.9156 346.196 70.6836C346.196 68.5956 347.456 66.9756 349.508 66.9756C351.56 66.9756 352.82 68.5596 352.82 70.6836Z" fill="#112353"/>
<path d="M87.8255 75.9396H89.1255L88.7255 63.4396H87.0255L82.866 74.4796L78.646 63.4396H76.926L76.506 75.9396H77.766L77.986 64.9996L82.126 75.8596H83.5255L87.6255 65.0196L87.8255 75.9396ZM92.5205 71.3996L98.7205 71.3596C98.8405 70.9596 98.9205 70.3796 98.9205 69.8996C98.9205 67.8396 97.6005 66.5196 95.5805 66.5196C93.1005 66.5196 91.2605 68.5596 91.2605 71.4396C91.2605 74.2196 93.0405 76.1996 95.6805 76.1996C96.8205 76.1996 97.8405 75.8996 98.6205 75.4196L98.3805 74.2796C97.6805 74.7396 96.7205 75.0396 95.7205 75.0396C93.8005 75.0396 92.5605 73.5596 92.5205 71.4996V71.3996ZM92.6005 70.4196C92.8005 68.8996 93.8605 67.6396 95.5005 67.6396C96.9405 67.6396 97.7005 68.5996 97.7005 69.9996C97.7005 70.0996 97.7005 70.2996 97.6805 70.3996L92.6005 70.4196ZM108.535 75.9396V69.6596C108.535 67.6596 107.455 66.5196 105.615 66.5196C104.655 66.5196 103.455 67.0596 102.495 68.0196V66.5196L101.255 66.7796V75.9396H102.495V68.9996C103.255 68.2396 104.275 67.6996 105.275 67.6996C106.655 67.6996 107.295 68.4196 107.295 70.0196V75.9396H108.535Z" fill="#112353"/>
<path d="M371.23 63.9396L374.59 74.9396H375.83L379.33 62.4396H378.05L375.25 73.1196L372.01 62.4396H370.49L367.31 73.1196L364.39 62.4396H363.07L366.63 74.9396H367.85L371.23 63.9396ZM389.003 70.3396C389.003 67.3996 387.163 65.5196 384.603 65.5196C382.043 65.5196 380.083 67.4596 380.083 70.3796C380.083 73.3196 381.963 75.1996 384.503 75.1996C387.043 75.1996 389.003 73.2596 389.003 70.3396V70.3396ZM387.783 70.3796C387.783 72.5396 386.503 74.0796 384.563 74.0796C382.623 74.0796 381.323 72.5796 381.323 70.3396C381.323 68.1796 382.603 66.6396 384.543 66.6396C386.483 66.6396 387.783 68.1396 387.783 70.3796ZM403.988 74.9396V68.6796C403.988 66.6596 402.908 65.5196 401.168 65.5196C400.108 65.5196 398.948 66.0196 397.928 67.0396C397.488 66.0196 396.588 65.5196 395.448 65.5196C394.508 65.5196 393.488 65.9196 392.548 66.7796C392.548 66.6996 392.548 65.5196 392.548 65.5196L391.308 65.7796V74.9396H392.548V67.7596C393.248 67.1396 394.128 66.6996 395.088 66.6996C396.408 66.6996 397.028 67.4396 397.028 69.0396V74.9396H398.268V68.6996C398.268 68.4796 398.248 67.9996 398.228 67.8796C398.928 67.2196 399.828 66.6996 400.808 66.6996C402.128 66.6996 402.748 67.4396 402.748 69.0396V74.9396H403.988ZM407.475 70.3996L413.675 70.3596C413.795 69.9596 413.875 69.3796 413.875 68.8996C413.875 66.8396 412.555 65.5196 410.535 65.5196C408.055 65.5196 406.215 67.5596 406.215 70.4396C406.215 73.2196 407.995 75.1996 410.635 75.1996C411.775 75.1996 412.795 74.8996 413.575 74.4196L413.335 73.2796C412.635 73.7396 411.675 74.0396 410.675 74.0396C408.755 74.0396 407.515 72.5596 407.475 70.4996V70.3996ZM407.555 69.4196C407.755 67.8996 408.815 66.6396 410.455 66.6396C411.895 66.6396 412.655 67.5996 412.655 68.9996C412.655 69.0996 412.655 69.2996 412.635 69.3996L407.555 69.4196ZM423.49 74.9396V68.6596C423.49 66.6596 422.41 65.5196 420.57 65.5196C419.61 65.5196 418.41 66.0596 417.45 67.0196V65.5196L416.21 65.7796V74.9396H417.45V67.9996C418.21 67.2396 419.23 66.6996 420.23 66.6996C421.61 66.6996 422.25 67.4196 422.25 69.0196V74.9396H423.49Z" fill="#112353"/>
<path d="M270.059 0.939636H0.0594482V36.9396H270.059V0.939636Z" fill="#006AC3"/>
<path d="M424.059 0.939636H270.059V36.9396H424.059V0.939636Z" fill="#112353"/>
</svg>
