<svg width="560" height="268" viewBox="0 0 560 268" fill="none" xmlns="http://www.w3.org/2000/svg">
<path d="M3.63141 120.676C3.63141 126.22 6.69141 130.54 12.1274 130.54C17.3474 130.54 20.4794 127.048 20.4794 122.548C20.4794 118.192 17.5274 115.492 13.7834 115.492C11.2274 115.492 9.42741 116.428 8.09541 117.724L7.98741 117.652C9.10341 113.692 12.9554 111.172 17.9954 110.128L16.8794 106.456C8.31141 108.04 3.63141 114.124 3.63141 120.676ZM8.09541 122.044C8.09541 121.504 8.13141 120.892 8.23941 120.424C9.06741 119.704 10.6514 118.876 12.3434 118.876C14.6114 118.876 16.1594 120.46 16.1594 122.872C16.1594 125.392 14.6474 127.084 12.2714 127.084C9.64341 127.084 8.09541 124.708 8.09541 122.044ZM34.8423 118.552C37.0023 117.832 38.7663 115.888 38.7663 113.404C38.7663 109.876 36.1743 107.248 31.3503 107.248C26.2023 107.248 23.4303 110.02 23.4303 113.8C23.4303 116.464 25.3023 118.012 27.5343 119.056C25.1943 119.632 23.1063 121.684 23.1063 124.384C23.1063 127.984 26.0583 130.54 31.0623 130.54C36.4263 130.54 39.1263 127.588 39.1263 123.952C39.1263 121.18 37.1823 119.632 34.8423 118.552ZM32.1783 117.4C29.5503 116.428 27.5343 115.42 27.5343 113.548C27.5343 111.856 28.8663 110.488 31.2063 110.488C33.2223 110.488 34.7703 111.748 34.7703 113.836C34.7703 115.312 33.7623 116.644 32.1783 117.4ZM30.1623 120.208C32.8623 121.216 35.0943 122.224 35.0943 124.276C35.0943 126.184 33.7263 127.3 31.2783 127.3C28.8303 127.3 27.1743 125.932 27.1743 123.952C27.1743 122.368 28.2903 120.964 30.1623 120.208ZM47.6799 127.732C47.6799 126.148 46.5279 124.96 44.8719 124.96C43.1799 124.96 41.9919 126.148 41.9919 127.732C41.9919 129.316 43.1799 130.54 44.8719 130.54C46.5279 130.54 47.6799 129.316 47.6799 127.732ZM54.7452 122.008L55.4652 116.572H64.3212L64.2132 112.864H52.0092L50.4972 125.032L51.2892 125.824C52.5132 125.428 53.8092 125.176 55.7532 125.176C59.0292 125.176 60.6132 126.94 60.6132 129.028C60.6132 131.548 58.7772 133.096 56.1132 133.096C54.0972 133.096 51.6852 132.268 50.2092 131.512L49.6692 135.292C51.3612 136.156 53.9172 136.732 56.1852 136.732C61.2252 136.732 64.7892 133.456 64.7892 128.74C64.7892 124.744 61.8732 121.864 56.8692 121.864C55.8612 121.864 55.3212 121.972 54.7452 122.008ZM78.3958 112.792C78.3958 109.264 76.0918 106.636 72.2398 106.636C68.4238 106.636 66.0838 109.264 66.0838 112.792C66.0838 116.248 68.3878 118.876 72.2038 118.876C76.0558 118.876 78.3958 116.248 78.3958 112.792ZM90.4198 106.996H87.2158L68.9278 130.54H72.1318L90.4198 106.996ZM93.2278 124.744C93.2278 121.288 90.9238 118.66 87.1078 118.66C83.2558 118.66 80.9518 121.288 80.9518 124.744C80.9518 128.272 83.2198 130.9 87.0718 130.9C90.8878 130.9 93.2278 128.272 93.2278 124.744ZM75.5518 112.792C75.5518 114.916 74.2918 116.5 72.2398 116.5C70.1518 116.5 68.8918 114.916 68.8918 112.792C68.8918 110.596 70.1518 109.012 72.2398 109.012C74.2918 109.012 75.5518 110.56 75.5518 112.792ZM90.3838 124.744C90.3838 126.976 89.1238 128.524 87.1078 128.524C85.0198 128.524 83.7598 126.976 83.7598 124.744C83.7598 122.656 85.0198 121.036 87.0718 121.036C89.1238 121.036 90.3838 122.62 90.3838 124.744Z" fill="#112353"/>
<path d="M198.104 23.756L200.624 23.588L204.516 30H208.408L203.816 22.86C206.196 22.048 207.596 20.312 207.596 17.82C207.596 14.6 205.244 12.5 200.82 12.5C200.876 12.5 194.688 12.5 194.688 12.5V30H198.104V23.756ZM198.076 21.068V15.356C198.076 15.356 200.26 15.356 200.288 15.356C202.724 15.356 204.096 16.224 204.096 18.044C204.096 19.948 202.724 20.9 200.624 21.012L198.076 21.068ZM217.511 28.516C217.987 29.804 219.135 30.56 221.599 30.28L221.851 27.788C220.871 27.732 220.703 27.592 220.703 26.612V21.992C220.787 18.436 219.247 16.672 215.271 16.672C213.143 16.672 211.127 17.4 209.867 18.184L210.539 20.788C211.911 20.004 213.507 19.416 214.823 19.416C216.671 19.416 217.399 20.144 217.399 21.88V22.188C211.491 22.384 209.755 24.4 209.755 26.78C209.755 28.824 211.435 30.42 213.759 30.42C215.355 30.42 216.475 29.636 217.399 28.516H217.511ZM217.399 26.892C216.811 27.536 215.971 28.012 214.935 28.012C213.759 28.012 213.003 27.312 213.003 26.332C213.003 24.96 214.179 24.316 217.399 23.924V26.892ZM234.52 29.356L233.988 26.668C232.98 27.312 231.748 27.676 230.404 27.676C228.22 27.676 226.736 26.136 226.736 23.504C226.736 21.012 228.024 19.388 230.404 19.388C231.608 19.388 232.84 19.752 233.904 20.424L234.604 17.764C233.428 17.064 231.916 16.672 230.152 16.672C226.092 16.672 223.348 19.388 223.348 23.588C223.348 27.816 225.84 30.42 230.04 30.42C231.776 30.42 233.4 30.028 234.52 29.356ZM239.611 24.176C239.611 24.176 248.039 24.064 248.067 24.064C248.235 23.504 248.347 22.608 248.347 21.908C248.347 18.744 246.443 16.672 243.027 16.672C239.163 16.672 236.363 19.472 236.363 23.672C236.363 27.788 239.107 30.42 243.251 30.42C244.987 30.42 246.695 30.028 247.927 29.356L247.507 26.612C246.331 27.34 244.847 27.788 243.475 27.788C241.179 27.788 239.751 26.36 239.611 24.26V24.176ZM239.695 22.244C239.863 20.648 240.955 19.164 242.775 19.164C244.483 19.164 245.239 20.256 245.239 21.992C245.239 22.02 245.239 22.16 245.239 22.216L239.695 22.244Z" fill="#112353"/>
<path d="M109.457 120.472L112.817 131.472H114.057L117.557 118.972H116.277L113.477 129.652L110.237 118.972H108.717L105.537 129.652L102.617 118.972H101.297L104.857 131.472H106.077L109.457 120.472ZM127.087 131.472V125.192C127.087 123.192 126.007 122.052 124.227 122.052C123.207 122.052 122.007 122.552 121.047 123.512C121.047 123.472 121.047 117.732 121.047 117.732L119.807 117.992V131.472H121.047V124.532C121.807 123.772 122.827 123.232 123.887 123.232C125.207 123.232 125.847 123.952 125.847 125.552V131.472H127.087ZM131.385 119.292C131.385 118.832 131.105 118.412 130.545 118.412C129.985 118.412 129.705 118.832 129.705 119.292C129.705 119.772 129.985 120.212 130.545 120.212C131.105 120.212 131.385 119.772 131.385 119.292ZM131.165 131.472V122.052L129.925 122.312V131.472H131.165ZM138.645 131.292L138.425 130.212C137.865 130.452 137.265 130.652 136.665 130.652C135.705 130.652 135.285 130.092 135.325 128.932L135.465 123.452H138.505L138.565 122.352H135.505L135.565 120.212H134.385L134.325 122.292L132.945 122.612L132.885 123.392L134.285 123.472L134.145 128.892C134.085 130.812 134.865 131.772 136.605 131.772C137.265 131.772 138.005 131.592 138.645 131.292ZM141.229 126.932L147.429 126.892C147.549 126.492 147.629 125.912 147.629 125.432C147.629 123.372 146.309 122.052 144.289 122.052C141.809 122.052 139.969 124.092 139.969 126.972C139.969 129.752 141.749 131.732 144.389 131.732C145.529 131.732 146.549 131.432 147.329 130.952L147.089 129.812C146.389 130.272 145.429 130.572 144.429 130.572C142.509 130.572 141.269 129.092 141.229 127.032V126.932ZM141.309 125.952C141.509 124.432 142.569 123.172 144.209 123.172C145.649 123.172 146.409 124.132 146.409 125.532C146.409 125.632 146.409 125.832 146.389 125.932L141.309 125.952Z" fill="#112353"/>
<rect y="60" width="292" height="36" fill="#006AC3"/>
<rect x="385" y="60" width="29" height="36" fill="#619CE3"/>
<rect x="351" y="60" width="34" height="36" fill="#3379CC"/>
<rect x="292" y="60" width="59" height="36" fill="#112353"/>
<rect x="419" y="60" width="6" height="36" fill="#D5ECFE"/>
<rect x="414" y="60" width="3" height="36" fill="#82B6F4"/>
<rect x="417" y="60" width="2" height="36" fill="#A3CCFE"/>
<line x1="385.5" y1="90" x2="385.5" y2="177" stroke="#619CE3"/>
<line x1="351.5" y1="90" x2="351.5" y2="206" stroke="#3379CC"/>
<line x1="292.5" y1="94" x2="292.5" y2="237" stroke="#112353"/>
<line x1="414.5" y1="89.5228" x2="414.5" y2="156.523" stroke="#82B6F4"/>
<line x1="418.5" y1="93.5228" x2="418.5" y2="129.523" stroke="#A3CCFE"/>
<line x1="424.5" y1="91.5228" x2="424.5" y2="106.523" stroke="#D5ECFE"/>
<path d="M378.005 185.76L372.425 197.68H373.685L379.345 185.54V184.54H371.445L371.385 185.76H378.005ZM381.894 193.22C381.894 192.68 381.474 192.22 380.894 192.22C380.314 192.22 379.894 192.68 379.894 193.22C379.894 193.76 380.314 194.26 380.894 194.26C381.474 194.26 381.894 193.76 381.894 193.22ZM392.699 193.7L392.639 192.52H390.739V184.24H389.659L383.239 192.84L383.399 193.7H389.539V197.68H390.739V193.7H392.699ZM389.539 192.52H384.839L389.539 186.22V192.52ZM399.899 184.36C399.899 182.54 398.639 181.02 396.579 181.02C394.539 181.02 393.259 182.54 393.259 184.36C393.259 186.14 394.539 187.66 396.579 187.66C398.639 187.66 399.899 186.14 399.899 184.36ZM405.999 181.22H404.919L394.779 194.3H395.879L405.999 181.22ZM407.499 191.16C407.499 189.38 406.219 187.86 404.179 187.86C402.119 187.86 400.859 189.38 400.859 191.16C400.859 192.98 402.119 194.5 404.179 194.5C406.219 194.5 407.499 192.98 407.499 191.16ZM398.999 184.36C398.999 185.66 398.099 186.8 396.579 186.8C395.079 186.8 394.179 185.66 394.179 184.36C394.179 182.98 395.079 181.88 396.579 181.88C398.099 181.88 398.999 182.98 398.999 184.36ZM406.599 191.16C406.599 192.54 405.699 193.64 404.179 193.64C402.679 193.64 401.779 192.54 401.779 191.16C401.779 189.86 402.679 188.72 404.179 188.72C405.699 188.72 406.599 189.86 406.599 191.16ZM419.733 187.6C421.393 187.18 422.133 185.98 422.133 184.76C422.133 182.86 420.873 181.5 417.873 181.5H413.973V194H418.033C421.193 194 422.533 192.56 422.533 190.52C422.533 189.06 421.573 187.96 419.733 187.6ZM420.853 184.86C420.853 186.34 419.613 187.16 417.733 187.16C417.733 187.16 415.273 187.16 415.253 187.16V182.66H417.933C419.913 182.66 420.853 183.52 420.853 184.86ZM421.253 190.52C421.253 191.94 420.333 192.84 418.133 192.84H415.253V188.32H417.813C420.033 188.32 421.253 189.06 421.253 190.52ZM426.049 194V180.26L424.809 180.52V194H426.049ZM433.71 191.98C433.15 192.62 432.31 193.18 431.33 193.18C430.25 193.18 429.45 192.56 429.45 191.58C429.45 190.36 430.57 189.66 433.71 189.3V191.98ZM433.79 192.9C433.93 193.8 434.59 194.28 435.79 194.2L435.87 193.18C435.07 193.2 434.95 192.92 434.95 192.26C434.95 192.26 434.95 187.92 434.95 187.86C434.97 185.54 433.79 184.58 431.67 184.58C430.47 184.58 429.09 185.1 428.27 185.68L428.55 186.84C429.33 186.26 430.55 185.74 431.55 185.74C433.07 185.74 433.71 186.48 433.71 187.92C433.71 187.98 433.71 188.46 433.71 188.46C429.45 188.7 428.15 190.06 428.15 191.72C428.15 193.18 429.37 194.26 431.05 194.26C432.13 194.26 433.11 193.66 433.73 192.9H433.79ZM444.439 193.48L444.179 192.34C443.479 192.8 442.559 193.1 441.639 193.1C439.699 193.1 438.399 191.64 438.399 189.4C438.399 187.22 439.639 185.74 441.619 185.74C442.579 185.74 443.459 186.02 444.159 186.48L444.479 185.36C443.699 184.86 442.739 184.58 441.619 184.58C439.019 184.58 437.119 186.58 437.119 189.44C437.119 192.28 438.839 194.26 441.599 194.26C442.659 194.26 443.659 193.96 444.439 193.48ZM448.023 189.44L452.143 194H453.723L449.303 189.2L453.703 184.84H452.143L448.023 189.06H447.983V180.26L446.743 180.52V194H447.983V189.44H448.023Z" fill="#112353"/>
<path d="M287.609 258H288.829V248.3L285.229 249.62L285.289 250.76L287.609 249.88V258ZM300.653 257.7L300.593 256.52H298.693V248.24H297.613L291.193 256.84L291.353 257.7H297.493V261.68H298.693V257.7H300.653ZM297.493 256.52H292.793L297.493 250.22V256.52ZM307.852 248.36C307.852 246.54 306.592 245.02 304.532 245.02C302.492 245.02 301.212 246.54 301.212 248.36C301.212 250.14 302.492 251.66 304.532 251.66C306.592 251.66 307.852 250.14 307.852 248.36ZM313.952 245.22H312.872L302.732 258.3H303.832L313.952 245.22ZM315.452 255.16C315.452 253.38 314.172 251.86 312.132 251.86C310.072 251.86 308.812 253.38 308.812 255.16C308.812 256.98 310.072 258.5 312.132 258.5C314.172 258.5 315.452 256.98 315.452 255.16ZM306.952 248.36C306.952 249.66 306.052 250.8 304.532 250.8C303.032 250.8 302.132 249.66 302.132 248.36C302.132 246.98 303.032 245.88 304.532 245.88C306.052 245.88 306.952 246.98 306.952 248.36ZM314.552 255.16C314.552 256.54 313.652 257.64 312.132 257.64C310.632 257.64 309.732 256.54 309.732 255.16C309.732 253.86 310.632 252.72 312.132 252.72C313.652 252.72 314.552 253.86 314.552 255.16ZM326.866 245.5H325.366L320.626 258H321.926L323.246 254.42H328.906L330.226 258H331.526L326.866 245.5ZM328.466 253.26H323.686L326.086 246.76L328.466 253.26ZM338.77 255.5C338.77 253.8 337.37 253.2 336.07 252.82C334.89 252.46 333.81 252.14 333.81 251.1C333.81 250.22 334.53 249.7 335.65 249.7C336.45 249.7 337.39 249.96 338.15 250.38L338.51 249.26C337.73 248.86 336.73 248.58 335.73 248.58C334.01 248.58 332.63 249.56 332.63 251.22C332.63 252.82 334.03 253.44 335.29 253.82C336.43 254.18 337.59 254.5 337.59 255.6C337.59 256.6 336.63 257.14 335.53 257.14C334.59 257.14 333.61 256.82 332.83 256.3L332.49 257.44C333.27 257.94 334.41 258.26 335.49 258.26C337.33 258.26 338.77 257.18 338.77 255.5ZM342.484 245.82C342.484 245.36 342.204 244.94 341.644 244.94C341.084 244.94 340.804 245.36 340.804 245.82C340.804 246.3 341.084 246.74 341.644 246.74C342.204 246.74 342.484 246.3 342.484 245.82ZM342.264 258V248.58L341.024 248.84V258H342.264ZM349.964 255.98C349.404 256.62 348.564 257.18 347.584 257.18C346.504 257.18 345.704 256.56 345.704 255.58C345.704 254.36 346.824 253.66 349.964 253.3V255.98ZM350.044 256.9C350.184 257.8 350.844 258.28 352.044 258.2L352.124 257.18C351.324 257.2 351.204 256.92 351.204 256.26C351.204 256.26 351.204 251.92 351.204 251.86C351.224 249.54 350.044 248.58 347.924 248.58C346.724 248.58 345.344 249.1 344.524 249.68L344.804 250.84C345.584 250.26 346.804 249.74 347.804 249.74C349.324 249.74 349.964 250.48 349.964 251.92C349.964 251.98 349.964 252.46 349.964 252.46C345.704 252.7 344.404 254.06 344.404 255.72C344.404 257.18 345.624 258.26 347.304 258.26C348.384 258.26 349.364 257.66 349.984 256.9H350.044ZM361.253 258V251.72C361.253 249.72 360.173 248.58 358.333 248.58C357.373 248.58 356.173 249.12 355.213 250.08V248.58L353.973 248.84V258H355.213V251.06C355.973 250.3 356.993 249.76 357.993 249.76C359.373 249.76 360.013 250.48 360.013 252.08V258H361.253Z" fill="#112353"/>
<path d="M416.904 163.752C416.904 161.124 415.032 159.27 412.548 159.27C410.082 159.27 408.228 161.124 408.228 163.752C408.228 166.38 410.082 168.234 412.548 168.234C415.032 168.234 416.904 166.38 416.904 163.752ZM415.788 163.752C415.788 165.696 414.456 167.172 412.548 167.172C410.658 167.172 409.344 165.696 409.344 163.752C409.344 161.808 410.658 160.332 412.548 160.332C414.456 160.332 415.788 161.808 415.788 163.752ZM419.905 167.298C419.905 166.812 419.527 166.398 419.005 166.398C418.483 166.398 418.105 166.812 418.105 167.298C418.105 167.784 418.483 168.234 419.005 168.234C419.527 168.234 419.905 167.784 419.905 167.298ZM429.631 167.73L429.577 166.668H427.867V159.216H426.895L421.117 166.956L421.261 167.73H426.787V171.312H427.867V167.73H429.631ZM426.787 166.668H422.557L426.787 160.998V166.668ZM436.11 159.324C436.11 157.686 434.976 156.318 433.122 156.318C431.286 156.318 430.134 157.686 430.134 159.324C430.134 160.926 431.286 162.294 433.122 162.294C434.976 162.294 436.11 160.926 436.11 159.324ZM441.6 156.498H440.628L431.502 168.27H432.492L441.6 156.498ZM442.95 165.444C442.95 163.842 441.798 162.474 439.962 162.474C438.108 162.474 436.974 163.842 436.974 165.444C436.974 167.082 438.108 168.45 439.962 168.45C441.798 168.45 442.95 167.082 442.95 165.444ZM435.3 159.324C435.3 160.494 434.49 161.52 433.122 161.52C431.772 161.52 430.962 160.494 430.962 159.324C430.962 158.082 431.772 157.092 433.122 157.092C434.49 157.092 435.3 158.082 435.3 159.324ZM442.14 165.444C442.14 166.686 441.33 167.676 439.962 167.676C438.612 167.676 437.802 166.686 437.802 165.444C437.802 164.274 438.612 163.248 439.962 163.248C441.33 163.248 442.14 164.274 442.14 165.444ZM456.463 166.398L450.073 156.75H448.777V168H449.893V158.37L456.337 168.108H457.579V156.75H456.463V166.398ZM464.642 166.182C464.138 166.758 463.382 167.262 462.5 167.262C461.528 167.262 460.808 166.704 460.808 165.822C460.808 164.724 461.816 164.094 464.642 163.77V166.182ZM464.714 167.01C464.84 167.82 465.434 168.252 466.514 168.18L466.586 167.262C465.866 167.28 465.758 167.028 465.758 166.434C465.758 166.434 465.758 162.528 465.758 162.474C465.776 160.386 464.714 159.522 462.806 159.522C461.726 159.522 460.484 159.99 459.746 160.512L459.998 161.556C460.7 161.034 461.798 160.566 462.698 160.566C464.066 160.566 464.642 161.232 464.642 162.528C464.642 162.582 464.642 163.014 464.642 163.014C460.808 163.23 459.638 164.454 459.638 165.948C459.638 167.262 460.736 168.234 462.248 168.234C463.22 168.234 464.102 167.694 464.66 167.01H464.714ZM472.354 167.838L472.156 166.866C471.652 167.082 471.112 167.262 470.572 167.262C469.708 167.262 469.33 166.758 469.366 165.714L469.492 160.782H472.228L472.282 159.792H469.528L469.582 157.866H468.52L468.466 159.738L467.224 160.026L467.17 160.728L468.43 160.8L468.304 165.678C468.25 167.406 468.952 168.27 470.518 168.27C471.112 168.27 471.778 168.108 472.354 167.838ZM475.506 157.038C475.506 156.624 475.254 156.246 474.75 156.246C474.246 156.246 473.994 156.624 473.994 157.038C473.994 157.47 474.246 157.866 474.75 157.866C475.254 157.866 475.506 157.47 475.506 157.038ZM475.308 168V159.522L474.192 159.756V168H475.308ZM484.2 159.756H483.03L480.51 166.56L477.9 159.756H476.694L479.952 168.018H480.96L484.2 159.756ZM486.071 163.914L491.651 163.878C491.759 163.518 491.831 162.996 491.831 162.564C491.831 160.71 490.643 159.522 488.825 159.522C486.593 159.522 484.937 161.358 484.937 163.95C484.937 166.452 486.539 168.234 488.915 168.234C489.941 168.234 490.859 167.964 491.561 167.532L491.345 166.506C490.715 166.92 489.851 167.19 488.951 167.19C487.223 167.19 486.107 165.858 486.071 164.004V163.914ZM486.143 163.032C486.323 161.664 487.277 160.53 488.753 160.53C490.049 160.53 490.733 161.394 490.733 162.654C490.733 162.744 490.733 162.924 490.715 163.014L486.143 163.032Z" fill="#112353"/>
<path d="M424.908 138.221C424.908 135.593 423.036 133.739 420.552 133.739C418.086 133.739 416.232 135.593 416.232 138.221C416.232 140.849 418.086 142.703 420.552 142.703C423.036 142.703 424.908 140.849 424.908 138.221ZM423.792 138.221C423.792 140.165 422.46 141.641 420.552 141.641C418.662 141.641 417.348 140.165 417.348 138.221C417.348 136.277 418.662 134.801 420.552 134.801C422.46 134.801 423.792 136.277 423.792 138.221ZM427.909 141.767C427.909 141.281 427.531 140.867 427.009 140.867C426.487 140.867 426.109 141.281 426.109 141.767C426.109 142.253 426.487 142.703 427.009 142.703C427.531 142.703 427.909 142.253 427.909 141.767ZM432.801 139.463C434.133 138.959 435.267 137.897 435.267 136.511C435.267 134.891 434.025 133.739 432.027 133.739C430.803 133.739 429.651 134.279 428.841 134.927L429.255 135.863C430.029 135.251 430.965 134.783 431.919 134.783C433.233 134.783 434.079 135.449 434.079 136.655C434.079 138.077 432.513 138.977 430.353 139.499V140.417C430.929 140.309 431.469 140.255 431.991 140.255C433.449 140.291 434.511 141.047 434.511 142.415C434.511 143.891 433.377 144.773 431.793 144.773C430.731 144.773 429.759 144.449 429.147 144.071L428.859 145.097C429.561 145.529 430.713 145.799 431.757 145.799C433.917 145.799 435.681 144.449 435.681 142.325C435.681 140.885 434.619 139.607 432.801 139.463ZM442.286 133.793C442.286 132.155 441.152 130.787 439.298 130.787C437.462 130.787 436.31 132.155 436.31 133.793C436.31 135.395 437.462 136.763 439.298 136.763C441.152 136.763 442.286 135.395 442.286 133.793ZM447.776 130.967H446.804L437.678 142.739H438.668L447.776 130.967ZM449.126 139.913C449.126 138.311 447.974 136.943 446.138 136.943C444.284 136.943 443.15 138.311 443.15 139.913C443.15 141.551 444.284 142.919 446.138 142.919C447.974 142.919 449.126 141.551 449.126 139.913ZM441.476 133.793C441.476 134.963 440.666 135.989 439.298 135.989C437.948 135.989 437.138 134.963 437.138 133.793C437.138 132.551 437.948 131.561 439.298 131.561C440.666 131.561 441.476 132.551 441.476 133.793ZM448.316 139.913C448.316 141.155 447.506 142.145 446.138 142.145C444.788 142.145 443.978 141.155 443.978 139.913C443.978 138.743 444.788 137.717 446.138 137.717C447.506 137.717 448.316 138.743 448.316 139.913ZM462.171 134.729C462.171 132.659 460.749 131.219 457.779 131.219C457.635 131.219 454.953 131.219 454.953 131.219V142.469H456.105V138.509L457.635 138.491C460.425 138.455 462.171 137.195 462.171 134.729ZM460.983 134.783C460.983 136.529 459.831 137.375 457.707 137.411L456.105 137.447V132.281C456.105 132.281 457.599 132.281 457.743 132.281C459.849 132.281 460.983 133.181 460.983 134.783ZM468.357 140.651C467.853 141.227 467.097 141.731 466.215 141.731C465.243 141.731 464.523 141.173 464.523 140.291C464.523 139.193 465.531 138.563 468.357 138.239V140.651ZM468.429 141.479C468.555 142.289 469.149 142.721 470.229 142.649L470.301 141.731C469.581 141.749 469.473 141.497 469.473 140.903C469.473 140.903 469.473 136.997 469.473 136.943C469.491 134.855 468.429 133.991 466.521 133.991C465.441 133.991 464.199 134.459 463.461 134.981L463.713 136.025C464.415 135.503 465.513 135.035 466.413 135.035C467.781 135.035 468.357 135.701 468.357 136.997C468.357 137.051 468.357 137.483 468.357 137.483C464.523 137.699 463.353 138.923 463.353 140.417C463.353 141.731 464.451 142.703 465.963 142.703C466.935 142.703 467.817 142.163 468.375 141.479H468.429ZM478.013 142.001L477.779 140.975C477.149 141.389 476.321 141.659 475.493 141.659C473.747 141.659 472.577 140.345 472.577 138.329C472.577 136.367 473.693 135.035 475.475 135.035C476.339 135.035 477.131 135.287 477.761 135.701L478.049 134.693C477.347 134.243 476.483 133.991 475.475 133.991C473.135 133.991 471.425 135.791 471.425 138.365C471.425 140.921 472.973 142.703 475.457 142.703C476.411 142.703 477.311 142.433 478.013 142.001ZM481.418 131.507C481.418 131.093 481.166 130.715 480.662 130.715C480.158 130.715 479.906 131.093 479.906 131.507C479.906 131.939 480.158 132.335 480.662 132.335C481.166 132.335 481.418 131.939 481.418 131.507ZM481.22 142.469V133.991L480.104 134.225V142.469H481.22ZM490.436 131.507C490.436 131.093 490.166 130.715 489.68 130.715C489.176 130.715 488.924 131.093 488.924 131.507C488.924 131.939 489.176 132.335 489.68 132.335C490.166 132.335 490.436 131.939 490.436 131.507ZM488.078 130.301C487.7 130.121 487.124 129.941 486.566 129.941C485.126 129.941 484.118 130.733 484.082 132.911L484.064 134.207L482.822 134.495L482.75 135.197L484.082 135.287V142.469H485.18V135.251H487.718L487.772 134.261H485.18V132.893C485.18 131.561 485.63 130.967 486.548 130.967C486.998 130.967 487.43 131.129 487.808 131.309C487.808 131.327 488.078 130.319 488.078 130.301ZM490.238 142.469V133.991L489.122 134.225V142.469H490.238ZM498.878 142.001L498.644 140.975C498.014 141.389 497.186 141.659 496.358 141.659C494.612 141.659 493.442 140.345 493.442 138.329C493.442 136.367 494.558 135.035 496.34 135.035C497.204 135.035 497.996 135.287 498.626 135.701L498.914 134.693C498.212 134.243 497.348 133.991 496.34 133.991C494 133.991 492.29 135.791 492.29 138.365C492.29 140.921 493.838 142.703 496.322 142.703C497.276 142.703 498.176 142.433 498.878 142.001ZM506.361 142.469V131.219H505.227V142.469H506.361ZM514.093 140.219C514.093 138.689 512.833 138.149 511.663 137.807C510.601 137.483 509.629 137.195 509.629 136.259C509.629 135.467 510.277 134.999 511.285 134.999C512.005 134.999 512.851 135.233 513.535 135.611L513.859 134.603C513.157 134.243 512.257 133.991 511.357 133.991C509.809 133.991 508.567 134.873 508.567 136.367C508.567 137.807 509.827 138.365 510.961 138.707C511.987 139.031 513.031 139.319 513.031 140.309C513.031 141.209 512.167 141.695 511.177 141.695C510.331 141.695 509.449 141.407 508.747 140.939L508.441 141.965C509.143 142.415 510.169 142.703 511.141 142.703C512.797 142.703 514.093 141.731 514.093 140.219ZM517.22 142.469V130.103L516.104 130.337V142.469H517.22ZM524.115 140.651C523.611 141.227 522.855 141.731 521.973 141.731C521.001 141.731 520.281 141.173 520.281 140.291C520.281 139.193 521.289 138.563 524.115 138.239V140.651ZM524.187 141.479C524.313 142.289 524.907 142.721 525.987 142.649L526.059 141.731C525.339 141.749 525.231 141.497 525.231 140.903C525.231 140.903 525.231 136.997 525.231 136.943C525.249 134.855 524.187 133.991 522.279 133.991C521.199 133.991 519.957 134.459 519.219 134.981L519.471 136.025C520.173 135.503 521.271 135.035 522.171 135.035C523.539 135.035 524.115 135.701 524.115 136.997C524.115 137.051 524.115 137.483 524.115 137.483C520.281 137.699 519.111 138.923 519.111 140.417C519.111 141.731 520.209 142.703 521.721 142.703C522.693 142.703 523.575 142.163 524.133 141.479H524.187ZM534.275 142.469V136.817C534.275 135.017 533.303 133.991 531.647 133.991C530.783 133.991 529.703 134.477 528.839 135.341V133.991L527.723 134.225V142.469H528.839V136.223C529.523 135.539 530.441 135.053 531.341 135.053C532.583 135.053 533.159 135.701 533.159 137.141V142.469H534.275ZM542.355 134.495C541.815 134.243 541.059 134.045 540.357 134.045C537.981 134.045 536.271 135.863 536.271 138.419C536.271 140.921 537.747 142.703 539.961 142.703C540.987 142.703 541.815 142.199 542.355 141.695C542.355 141.731 542.355 142.469 542.355 142.469H543.471V130.103L542.355 130.337V134.495ZM542.355 135.683C542.355 135.683 542.355 140.795 542.355 140.759C541.779 141.299 541.005 141.677 540.159 141.677C538.485 141.677 537.423 140.309 537.423 138.401C537.423 136.457 538.539 135.053 540.303 135.053C541.095 135.053 541.851 135.287 542.355 135.683ZM546.651 138.383L552.231 138.347C552.339 137.987 552.411 137.465 552.411 137.033C552.411 135.179 551.223 133.991 549.405 133.991C547.173 133.991 545.517 135.827 545.517 138.419C545.517 140.921 547.119 142.703 549.495 142.703C550.521 142.703 551.439 142.433 552.141 142.001L551.925 140.975C551.295 141.389 550.431 141.659 549.531 141.659C547.803 141.659 546.687 140.327 546.651 138.473V138.383ZM546.723 137.501C546.903 136.133 547.857 134.999 549.333 134.999C550.629 134.999 551.313 135.863 551.313 137.123C551.313 137.213 551.313 137.393 551.295 137.483L546.723 137.501ZM555.628 137.177C556.276 135.701 557.086 135.053 557.95 135.053C558.418 135.053 558.85 135.197 559.21 135.413L559.498 134.369C559.12 134.153 558.598 133.991 558.058 133.991C556.978 133.991 556.168 134.693 555.628 135.755V133.991L554.512 134.225V142.469H555.628V137.177Z" fill="#112353"/>
<path d="M423.736 119.725H424.834V110.995L421.594 112.183L421.648 113.209L423.736 112.417V119.725ZM428.932 119.023C428.932 118.537 428.554 118.123 428.032 118.123C427.51 118.123 427.132 118.537 427.132 119.023C427.132 119.509 427.51 119.959 428.032 119.959C428.554 119.959 428.932 119.509 428.932 119.023ZM433.823 116.719C435.155 116.215 436.289 115.153 436.289 113.767C436.289 112.147 435.047 110.995 433.049 110.995C431.825 110.995 430.673 111.535 429.863 112.183L430.277 113.119C431.051 112.507 431.987 112.039 432.941 112.039C434.255 112.039 435.101 112.705 435.101 113.911C435.101 115.333 433.535 116.233 431.375 116.755V117.673C431.951 117.565 432.491 117.511 433.013 117.511C434.471 117.547 435.533 118.303 435.533 119.671C435.533 121.147 434.399 122.029 432.815 122.029C431.753 122.029 430.781 121.705 430.169 121.327L429.881 122.353C430.583 122.785 431.735 123.055 432.779 123.055C434.939 123.055 436.703 121.705 436.703 119.581C436.703 118.141 435.641 116.863 433.823 116.719ZM443.309 111.049C443.309 109.411 442.175 108.043 440.321 108.043C438.485 108.043 437.333 109.411 437.333 111.049C437.333 112.651 438.485 114.019 440.321 114.019C442.175 114.019 443.309 112.651 443.309 111.049ZM448.799 108.223H447.827L438.701 119.995H439.691L448.799 108.223ZM450.149 117.169C450.149 115.567 448.997 114.199 447.161 114.199C445.307 114.199 444.173 115.567 444.173 117.169C444.173 118.807 445.307 120.175 447.161 120.175C448.997 120.175 450.149 118.807 450.149 117.169ZM442.499 111.049C442.499 112.219 441.688 113.245 440.321 113.245C438.971 113.245 438.161 112.219 438.161 111.049C438.161 109.807 438.971 108.817 440.321 108.817C441.688 108.817 442.499 109.807 442.499 111.049ZM449.339 117.169C449.339 118.411 448.529 119.401 447.161 119.401C445.811 119.401 445.001 118.411 445.001 117.169C445.001 115.999 445.811 114.973 447.161 114.973C448.529 114.973 449.339 115.999 449.339 117.169ZM466.451 114.055C466.451 110.581 464.057 108.241 460.925 108.241C457.703 108.241 455.381 110.689 455.381 114.127C455.381 117.601 457.775 119.959 460.907 119.959C464.129 119.959 466.451 117.493 466.451 114.055ZM465.281 114.127C465.281 116.971 463.463 118.933 460.961 118.933C458.405 118.933 456.551 116.953 456.551 114.055C456.551 111.211 458.369 109.267 460.889 109.267C463.445 109.267 465.281 111.229 465.281 114.127ZM472.697 119.563L472.499 118.591C471.995 118.807 471.455 118.987 470.915 118.987C470.051 118.987 469.673 118.483 469.709 117.439L469.835 112.507H472.571L472.625 111.517H469.871L469.925 109.591H468.863L468.809 111.463L467.567 111.751L467.513 112.453L468.773 112.525L468.647 117.403C468.593 119.131 469.295 119.995 470.861 119.995C471.455 119.995 472.121 119.833 472.697 119.563ZM481.069 119.725V114.073C481.069 112.273 480.097 111.247 478.495 111.247C477.577 111.247 476.497 111.697 475.633 112.561C475.633 112.525 475.633 107.359 475.633 107.359L474.517 107.593V119.725H475.633V113.479C476.317 112.795 477.235 112.309 478.189 112.309C479.377 112.309 479.953 112.957 479.953 114.397V119.725H481.069ZM484.199 115.639L489.779 115.603C489.887 115.243 489.959 114.721 489.959 114.289C489.959 112.435 488.771 111.247 486.953 111.247C484.721 111.247 483.065 113.083 483.065 115.675C483.065 118.177 484.667 119.959 487.043 119.959C488.069 119.959 488.987 119.689 489.689 119.257L489.473 118.231C488.843 118.645 487.979 118.915 487.079 118.915C485.351 118.915 484.235 117.583 484.199 115.729V115.639ZM484.271 114.757C484.451 113.389 485.405 112.255 486.881 112.255C488.177 112.255 488.861 113.119 488.861 114.379C488.861 114.469 488.861 114.649 488.843 114.739L484.271 114.757ZM493.176 114.433C493.824 112.957 494.634 112.309 495.498 112.309C495.966 112.309 496.398 112.453 496.758 112.669L497.046 111.625C496.668 111.409 496.146 111.247 495.606 111.247C494.526 111.247 493.716 111.949 493.176 113.011V111.247L492.06 111.481V119.725H493.176V114.433Z" fill="#112353"/>
<path d="M349.275 220.122C347.715 219.462 346.215 218.862 346.215 217.462C346.215 216.302 347.135 215.242 348.795 215.242C350.235 215.242 351.295 216.222 351.295 217.622C351.295 218.842 350.395 219.662 349.275 220.122ZM348.355 220.942C349.935 221.622 351.495 222.222 351.495 223.742C351.495 225.042 350.615 225.942 348.795 225.942C347.055 225.942 346.015 225.002 346.015 223.562C346.015 222.262 347.095 221.382 348.355 220.942ZM350.215 220.562C351.255 220.102 352.555 219.062 352.555 217.462C352.555 215.562 351.135 214.162 348.835 214.162C346.535 214.162 344.955 215.582 344.955 217.602C344.955 219.142 346.075 219.922 347.395 220.522C346.315 220.882 344.755 221.942 344.755 223.722C344.755 225.502 346.015 227.042 348.755 227.042C351.435 227.042 352.755 225.382 352.755 223.562C352.755 222.002 351.575 221.202 350.215 220.562ZM360.6 217.142C360.6 215.322 359.34 213.802 357.28 213.802C355.24 213.802 353.96 215.322 353.96 217.142C353.96 218.922 355.24 220.442 357.28 220.442C359.34 220.442 360.6 218.922 360.6 217.142ZM366.7 214.002H365.62L355.48 227.082H356.58L366.7 214.002ZM368.2 223.942C368.2 222.162 366.92 220.642 364.88 220.642C362.82 220.642 361.56 222.162 361.56 223.942C361.56 225.762 362.82 227.282 364.88 227.282C366.92 227.282 368.2 225.762 368.2 223.942ZM359.7 217.142C359.7 218.442 358.8 219.582 357.28 219.582C355.78 219.582 354.88 218.442 354.88 217.142C354.88 215.762 355.78 214.662 357.28 214.662C358.8 214.662 359.7 215.762 359.7 217.142ZM367.3 223.942C367.3 225.322 366.4 226.422 364.88 226.422C363.38 226.422 362.48 225.322 362.48 223.942C362.48 222.642 363.38 221.502 364.88 221.502C366.4 221.502 367.3 222.642 367.3 223.942ZM382.134 226.782V225.582H375.954V214.282H374.674V226.782H382.134ZM388.845 224.762C388.285 225.402 387.445 225.962 386.465 225.962C385.385 225.962 384.585 225.342 384.585 224.362C384.585 223.142 385.705 222.442 388.845 222.082V224.762ZM388.925 225.682C389.065 226.582 389.725 227.062 390.925 226.982L391.005 225.962C390.205 225.982 390.085 225.702 390.085 225.042C390.085 225.042 390.085 220.702 390.085 220.642C390.105 218.322 388.925 217.362 386.805 217.362C385.605 217.362 384.225 217.882 383.405 218.462L383.685 219.622C384.465 219.042 385.685 218.522 386.685 218.522C388.205 218.522 388.845 219.262 388.845 220.702C388.845 220.762 388.845 221.242 388.845 221.242C384.585 221.482 383.285 222.842 383.285 224.502C383.285 225.962 384.505 227.042 386.185 227.042C387.265 227.042 388.245 226.442 388.865 225.682H388.925ZM397.414 226.602L397.194 225.522C396.634 225.762 396.034 225.962 395.434 225.962C394.474 225.962 394.054 225.402 394.094 224.242L394.234 218.762H397.274L397.334 217.662H394.274L394.334 215.522H393.154L393.094 217.602L391.714 217.922L391.654 218.702L393.054 218.782L392.914 224.202C392.854 226.122 393.634 227.082 395.374 227.082C396.034 227.082 396.774 226.902 397.414 226.602ZM400.916 214.602C400.916 214.142 400.636 213.722 400.076 213.722C399.516 213.722 399.236 214.142 399.236 214.602C399.236 215.082 399.516 215.522 400.076 215.522C400.636 215.522 400.916 215.082 400.916 214.602ZM400.696 226.782V217.362L399.456 217.622V226.782H400.696ZM410.896 226.782V220.502C410.896 218.502 409.816 217.362 407.976 217.362C407.016 217.362 405.816 217.902 404.856 218.862V217.362L403.616 217.622V226.782H404.856V219.842C405.616 219.082 406.636 218.542 407.636 218.542C409.016 218.542 409.656 219.262 409.656 220.862V226.782H410.896ZM420.073 226.782L416.913 222.042L419.833 217.622H418.453L416.213 221.182L413.933 217.622H412.553L415.513 222.082L412.353 226.782H413.753L416.213 222.922L418.693 226.782H420.073Z" fill="#112353"/>
</svg>
