<svg width="36" height="25" viewBox="0 0 36 25" fill="none" xmlns="http://www.w3.org/2000/svg">
<path d="M34.412 18.694C29.654 16.588 28.172 15.184 28.172 13.156C28.172 10.504 31.136 7.54 35.972 4.108L31.994 0.441999C25.676 4.186 19.592 9.178 19.592 16.042C19.592 20.722 23.258 24.544 27.626 24.544C31.448 24.544 34.022 22.048 34.412 18.694ZM15.614 18.694C10.856 16.588 9.374 15.184 9.374 13.156C9.374 10.504 12.338 7.54 17.174 4.108L13.196 0.441999C6.878 4.186 0.794 9.178 0.794 16.042C0.794 20.722 4.46 24.544 8.828 24.544C12.65 24.544 15.224 22.048 15.614 18.694Z" fill="#CC3333"/>
</svg>
