<?xml version="1.0" encoding="utf-8"?>
<!-- Generator: Adobe Illustrator 27.9.1, SVG Export Plug-In . SVG Version: 6.00 Build 0)  -->
<svg version="1.1" id="Layer_1" xmlns="http://www.w3.org/2000/svg" xmlns:xlink="http://www.w3.org/1999/xlink" x="0px" y="0px"
	 viewBox="0 0 621.9 228.6" style="enable-background:new 0 0 621.9 228.6;" xml:space="preserve">
<style type="text/css">
	.st0{fill:#FFFFFF;}
	.st1{fill:#0042E1;}
</style>
<g>
	<g>
		<path class="st1" d="M254.9,228.6c-1.5,0-2.7-0.4-3.5-1.2c-0.8-0.8-1.5-1.5-2-2.1l-4.9-6.5c-3.8,1.3-8,1.9-12.9,1.9
			c-8.9,0-16.5-1.4-23-4.3c-6.5-2.9-11.6-7.2-15.3-13.1c-3.7-5.8-5.7-13.1-6-21.9c-0.1-4.1-0.1-8.3-0.1-12.4c0-4.1,0-8.3,0.1-12.6
			c0.3-8.7,2.3-16,6.1-21.9c3.8-5.9,8.9-10.4,15.5-13.4c6.5-3,14.2-4.5,22.8-4.5c8.8,0,16.4,1.5,23,4.5c6.5,3,11.7,7.4,15.5,13.4
			c3.8,5.9,5.8,13.2,6.1,21.9c0.2,4.2,0.3,8.4,0.3,12.6c0,4.1-0.1,8.3-0.3,12.4c-0.6,11.9-4,21.2-10.4,27.7l10.5,15
			c0.1,0.1,0.2,0.3,0.3,0.6c0.1,0.3,0.1,0.6,0.1,0.9c0.1,0.8-0.1,1.5-0.7,2.1c-0.6,0.6-1.3,0.9-2.2,0.9H254.9z M231.6,199.9
			c5.1,0,9.3-1.5,12.5-4.6c3.2-3.1,4.9-8,5.1-14.7c0.2-4.2,0.3-8.2,0.3-12c0-3.8-0.1-7.7-0.3-11.7c-0.1-4.5-0.9-8.2-2.5-11.1
			c-1.5-2.8-3.6-4.9-6.2-6.3c-2.6-1.3-5.6-2-9-2c-3.3,0-6.2,0.7-8.8,2c-2.6,1.3-4.7,3.4-6.2,6.3c-1.5,2.8-2.4,6.5-2.5,11.1
			c-0.1,4-0.1,7.9-0.1,11.7c0,3.8,0,7.8,0.1,12c0.2,6.7,1.9,11.7,5.1,14.7C222.5,198.4,226.6,199.9,231.6,199.9z"/>
		<path class="st1" d="M335.6,220.7c-8.7,0-16.3-1.4-22.8-4.3s-11.5-7.2-15.1-13.1c-3.6-5.9-5.3-13.5-5.3-22.6v-59
			c0-1.1,0.3-1.9,1-2.6c0.7-0.7,1.5-1,2.6-1h18.6c1.1,0,1.9,0.3,2.6,1c0.7,0.7,1,1.5,1,2.6v58.8c0,6.3,1.5,11,4.6,14.1
			c3,3.1,7.3,4.7,12.8,4.7c5.4,0,9.6-1.6,12.6-4.7c3-3.1,4.6-7.8,4.6-14.1v-58.8c0-1.1,0.4-1.9,1.1-2.6c0.7-0.7,1.6-1,2.5-1h18.8
			c1,0,1.8,0.3,2.5,1c0.7,0.7,1.1,1.5,1.1,2.6v59c0,9.2-1.8,16.7-5.3,22.6c-3.6,5.9-8.6,10.3-15,13.1
			C352,219.3,344.4,220.7,335.6,220.7z"/>
		<path class="st1" d="M401.7,219.3c-1.1,0-1.9-0.3-2.6-1c-0.7-0.7-1-1.5-1-2.6v-93.9c0-1.1,0.3-1.9,1-2.6c0.7-0.7,1.5-1,2.6-1H421
			c1.1,0,1.9,0.3,2.6,1c0.7,0.7,1,1.5,1,2.6v93.9c0,1.1-0.3,1.9-1,2.6c-0.7,0.7-1.5,1-2.6,1H401.7z"/>
		<path class="st1" d="M470.7,219.3c-1.1,0-1.9-0.3-2.6-1c-0.7-0.7-1-1.5-1-2.6v-74.8h-25.7c-1.1,0-1.9-0.4-2.6-1.1
			c-0.7-0.7-1-1.6-1-2.5v-15.5c0-1.1,0.3-1.9,1-2.6c0.7-0.7,1.5-1,2.6-1h77.7c1.1,0,1.9,0.3,2.6,1c0.7,0.7,1,1.5,1,2.6v15.5
			c0,1-0.3,1.8-1,2.5c-0.7,0.7-1.5,1.1-2.6,1.1h-25.7v74.8c0,1.1-0.3,1.9-1,2.6c-0.7,0.7-1.5,1-2.6,1H470.7z"/>
		<path class="st1" d="M565.5,219.3c-1,0-1.8-0.3-2.5-1c-0.7-0.7-1.1-1.5-1.1-2.6v-31.1l-33.5-61.8c-0.1-0.3-0.2-0.6-0.3-0.8
			c-0.1-0.2-0.1-0.5-0.1-0.8c0-0.8,0.3-1.5,0.9-2.1c0.6-0.6,1.4-0.9,2.2-0.9h18.1c1.4,0,2.6,0.4,3.4,1.1c0.8,0.7,1.3,1.4,1.5,2
			l20.8,37.3l20.8-37.3c0.3-0.6,0.8-1.2,1.7-2c0.8-0.7,2-1.1,3.4-1.1h18.1c0.9,0,1.6,0.3,2.2,0.9c0.6,0.6,0.9,1.3,0.9,2.1
			c0,0.3,0,0.6-0.1,0.8c-0.1,0.2-0.1,0.5-0.2,0.8l-33.7,61.8v31.1c0,1.1-0.3,1.9-1,2.6c-0.7,0.7-1.5,1-2.6,1H565.5z"/>
		<g>
			<path class="st1" d="M172.9,199.5c-0.7-0.7-1.5-1-2.6-1h-47.2v-20.1H166c1.1,0,1.9-0.4,2.6-1.1c0.7-0.7,1-1.6,1-2.5v-12.6
				c0-1.1-0.3-2-1-2.7c-0.7-0.7-1.5-1.1-2.6-1.1h-16.5h-26.5h-20.6c-2.4,0-4.4,2-4.4,4.4v52.8c0,1.1,0.3,1.9,1,2.6
				c0.7,0.7,1.5,1,2.6,1h68.6c1.1,0,1.9-0.3,2.6-1c0.7-0.7,1-1.5,1-2.6v-13.6C174,201,173.6,200.1,172.9,199.5z"/>
			<path class="st1" d="M149.6,138.9h20.9c1.1,0,1.9-0.3,2.6-1c0.7-0.7,1-1.5,1-2.6v-13.6c0-1.1-0.3-1.9-1-2.6c-0.7-0.7-1.5-1-2.6-1
				h-68.7c-1.1,0-1.9,0.3-2.6,1c-0.7,0.7-1,1.5-1,2.6V136c0,1.6,1.3,2.9,2.9,2.9h22.1H149.6z"/>
		</g>
	</g>
	<g>
		<path class="st1" d="M32.9,102.6c-1.1,0-1.9-0.3-2.6-1c-0.7-0.7-1-1.5-1-2.6V24.1H3.6c-1.1,0-1.9-0.4-2.6-1.1
			c-0.7-0.7-1-1.6-1-2.5V5.1C0,4,0.3,3.1,1,2.5c0.7-0.7,1.5-1,2.6-1h77.7c1.1,0,1.9,0.3,2.6,1c0.7,0.7,1,1.5,1,2.6v15.5
			c0,1-0.3,1.8-1,2.5c-0.7,0.7-1.5,1.1-2.6,1.1H55.6V99c0,1.1-0.3,1.9-1,2.6c-0.7,0.7-1.5,1-2.6,1H32.9z"/>
		<path class="st1" d="M231.9,104c-9.2,0-17-1.5-23.5-4.5c-6.5-3-11.6-7.4-15.2-13.1c-3.6-5.8-5.6-13-6-21.5
			c-0.1-3.9-0.1-8.2-0.1-12.7c0-4.5,0-8.9,0.1-13c0.4-8.4,2.4-15.5,6.1-21.3c3.7-5.8,8.8-10.3,15.3-13.3c6.5-3,14.3-4.6,23.3-4.6
			c6.4,0,12.2,0.8,17.6,2.4c5.4,1.6,10.1,3.9,14.2,6.9c4,3,7.2,6.7,9.5,11c2.3,4.3,3.4,9.1,3.5,14.5c0.1,0.9-0.2,1.6-0.8,2.2
			c-0.6,0.6-1.4,0.9-2.2,0.9h-19.5c-1.3,0-2.2-0.3-2.9-0.8c-0.7-0.5-1.3-1.5-1.7-3c-1.4-5.1-3.5-8.6-6.6-10.5
			c-3-1.9-6.8-2.8-11.2-2.8c-5.3,0-9.5,1.5-12.6,4.4c-3.1,2.9-4.8,7.8-5.1,14.7c-0.3,7.9-0.3,16,0,24.3c0.3,6.8,2,11.7,5.1,14.7
			c3.1,2.9,7.3,4.4,12.6,4.4c4.4,0,8.2-1,11.3-2.9c3.1-1.9,5.2-5.4,6.5-10.4c0.4-1.4,0.9-2.4,1.7-3c0.7-0.5,1.7-0.8,3-0.8h19.5
			c0.9,0,1.6,0.3,2.2,0.9c0.6,0.6,0.9,1.3,0.8,2.2c-0.1,5.4-1.3,10.2-3.5,14.5c-2.3,4.3-5.4,7.9-9.5,11s-8.8,5.3-14.2,6.9
			C244.1,103.2,238.3,104,231.9,104z"/>
		<path class="st1" d="M295.5,102.6c-1.1,0-1.9-0.3-2.6-1c-0.7-0.7-1-1.5-1-2.6V5.1c0-1.1,0.3-1.9,1-2.6c0.7-0.7,1.5-1,2.6-1h18.6
			c1.1,0,1.9,0.3,2.6,1c0.7,0.7,1,1.5,1,2.6v34.8h35.7V5.1c0-1.1,0.3-1.9,1-2.6c0.7-0.7,1.5-1,2.6-1h18.6c1.1,0,1.9,0.3,2.6,1
			c0.7,0.7,1,1.5,1,2.6V99c0,1.1-0.3,1.9-1,2.6c-0.7,0.7-1.5,1-2.6,1H357c-1.1,0-1.9-0.3-2.6-1c-0.7-0.7-1-1.5-1-2.6V63h-35.7v36
			c0,1.1-0.3,1.9-1,2.6c-0.7,0.7-1.5,1-2.6,1H295.5z"/>
		<g>
			<path class="st1" d="M136,61.7h30c1.1,0,1.9-0.4,2.6-1.1c0.7-0.7,1-1.6,1-2.5V45.5c0-1.1-0.3-2-1-2.7c-0.7-0.7-1.5-1.1-2.6-1.1
				h-42.9V22.2h47.4c1.1,0,1.9-0.3,2.6-1c0.7-0.7,1-1.5,1-2.6V5.1c0-1.1-0.3-1.9-1-2.6c-0.7-0.7-1.5-1-2.6-1h-68.7
				c-1.1,0-1.9,0.3-2.6,1c-0.7,0.7-1,1.5-1,2.6v52.2c0,2.4,2,4.4,4.4,4.4h20.6H136z"/>
			<path class="st1" d="M172.9,82.8c-0.7-0.7-1.5-1-2.6-1H136h-12.9H102c-2.1,0-3.9,1.7-3.9,3.9V99c0,1.1,0.3,1.9,1,2.6
				c0.7,0.7,1.5,1,2.6,1h68.6c1.1,0,1.9-0.3,2.6-1c0.7-0.7,1-1.5,1-2.6V85.4C174,84.3,173.6,83.5,172.9,82.8z"/>
		</g>
		<path class="st1" d="M172.9,82.8c-0.7-0.7-1.5-1-2.6-1H136h-12.9H102c-2.1,0-3.9,1.7-3.9,3.9V99c0,1.1,0.3,1.9,1,2.6
			c0.7,0.7,1.5,1,2.6,1h68.6c1.1,0,1.9-0.3,2.6-1c0.7-0.7,1-1.5,1-2.6V85.4C174,84.3,173.6,83.5,172.9,82.8z"/>
	</g>
</g>
</svg>
