<?xml version="1.0" encoding="utf-8"?>
<!-- Generator: Adobe Illustrator 24.0.1, SVG Export Plug-In . SVG Version: 6.00 Build 0)  -->
<svg version="1.1" id="Layer_1" xmlns="http://www.w3.org/2000/svg" xmlns:xlink="http://www.w3.org/1999/xlink" x="0px" y="0px"
	 viewBox="0 0 158.26 119.27" style="enable-background:new 0 0 158.26 119.27;" xml:space="preserve" preserveAspectRatio="xMidYMid meet">
<style type="text/css">
	.st0{fill:#134F89;}
	.st1{fill:none;stroke:#134F89;stroke-width:0.9943;stroke-miterlimit:10;}
	.st2{fill:#6A6D78;}
</style>
<path class="st0" d="M91.1,45.31H90.1V19.79c0-0.04-0.11-1.9,1.05-3.14c0.66-0.71,1.59-1.07,2.74-1.07h5.72v0.99h-5.72
	c-0.87,0-1.55,0.25-2.01,0.75c-0.87,0.92-0.79,2.41-0.78,2.43L91.1,45.31z"/>
<path class="st0" d="M131.09,43.83c-0.61,0.04-1.11,0.44-1.3,0.98H84.02v-7.48c0.52-0.26,0.87-0.81,0.83-1.43
	c-0.03-0.54-0.37-0.99-0.83-1.22V21.02H85v-2.97h-0.99V4.47C84.59,4.26,85,3.72,85,3.07c0-0.82-0.67-1.48-1.49-1.48
	c-0.82,0-1.48,0.67-1.48,1.48c0,0.64,0.41,1.19,0.99,1.39v13.59h-0.99v2.97h0.99v13.54c-0.69,0.16-1.19,0.8-1.14,1.54
	c0.04,0.66,0.53,1.18,1.14,1.32v7.39h-0.49c-0.76,0-1.4,0.27-1.88,0.79c-1.19,1.29-1,3.08-1,3.78l0.17,26.47l0.99-0.01l-0.17-26.51
	c0-0.8,0-2.26,0.74-3.06c0.29-0.32,0.67-0.47,1.15-0.47h47.26c0.08,0.23,0.22,0.45,0.41,0.62c0.27,0.24,0.62,0.37,0.98,0.37
	c0.03,0,0.06,0,0.1,0c0.4-0.03,0.76-0.2,1.02-0.5s0.39-0.68,0.37-1.08C132.61,44.4,131.89,43.78,131.09,43.83z"/>
<path class="st0" d="M66.4,28.65c0.03-0.39-0.1-0.78-0.37-1.08c-0.17-0.19-0.39-0.33-0.62-0.42l0-7.42
	c0.01-0.08,0.11-1.93-1.05-3.17c-0.66-0.71-1.58-1.07-2.74-1.07h-5.72v0.99h5.72c0.87,0,1.55,0.25,2.01,0.75
	c0.87,0.92,0.79,2.41,0.78,2.46v7.45c-0.54,0.19-0.94,0.69-0.98,1.3c-0.04,0.67,0.38,1.27,0.98,1.49v15.28h0.99l0-15.28
	C65.95,29.75,66.36,29.26,66.4,28.65z"/>
<path class="st0" d="M74.86,45.53c-0.49-0.53-1.12-0.79-1.88-0.79H25.73c-0.19-0.54-0.69-0.95-1.3-0.99
	c-0.39-0.03-0.78,0.1-1.08,0.37c-0.3,0.26-0.48,0.62-0.5,1.02c-0.05,0.82,0.57,1.53,1.39,1.58c0.03,0,0.07,0,0.1,0
	c0.36,0,0.7-0.13,0.98-0.37c0.19-0.17,0.33-0.38,0.41-0.62h47.26c0.48,0,0.86,0.15,1.15,0.47c0.74,0.8,0.79,2.49,0.74,3.1
	l-0.16,26.47l0.99,0.01l0.16-26.43C75.87,49.24,76.05,46.82,74.86,45.53z"/>
<path class="st0" d="M69.93,58.06c-0.14-0.71-0.77-2.05-2.13-2.05l-6.68,0c-0.05-0.01-1.3-0.2-1.3-1.32V32.63
	c0-0.94,0-2.88-2.23-2.88h-1.19V13.03c0.17-0.06,0.34-0.15,0.48-0.28c0.3-0.26,0.48-0.62,0.5-1.02s-0.1-0.78-0.37-1.08
	c-0.26-0.3-0.62-0.48-1.02-0.5c-0.82-0.05-1.52,0.57-1.58,1.39c-0.04,0.68,0.38,1.27,0.98,1.49v16.72H31.38
	c-0.17-0.58-0.69-1.03-1.32-1.07c-0.39-0.02-0.78,0.1-1.08,0.37c-0.3,0.26-0.48,0.62-0.5,1.02c-0.03,0.39,0.1,0.78,0.37,1.08
	s0.62,0.48,1.02,0.5c0.03,0,0.07,0,0.1,0c0.36,0,0.7-0.13,0.98-0.37c0.17-0.15,0.3-0.33,0.38-0.54h26.26c1.06,0,1.23,0.56,1.23,1.89
	V54.7c0,1.58,1.41,2.2,2.23,2.31h6.75c0.87,0,1.14,1.15,1.15,1.15c0,0,0,0,0,0v17.62h0.99V58.65L69.93,58.06z"/>
<path class="st0" d="M79.32,75.86h-0.99V18.8c0-1.94,0.88-5.6,4.2-5.6h26.43v0.99H82.53c-3.17,0-3.21,4.56-3.21,4.61V75.86z"/>
<g>
	<path class="st0" d="M126.53,29.13c-0.3-0.26-0.68-0.39-1.08-0.37c-0.64,0.04-1.15,0.49-1.32,1.07h-26.2
		c-2.23,0-2.23,1.95-2.23,2.88v22.07c0,1.09-1.17,1.3-1.23,1.31h-6.75c-1.36,0-1.99,1.34-2.14,2.14v17.62h0.99V58.73l-0.01-0.4
		c0-0.01,0.26-1.25,1.16-1.25l6.82,0c0.75-0.11,2.16-0.73,2.16-2.3V32.71c0-1.33,0.17-1.89,1.23-1.89h26.27
		c0.23,0.53,0.75,0.91,1.35,0.91c0.03,0,0.07,0,0.1,0c0.82-0.05,1.44-0.76,1.39-1.58C127.01,29.75,126.83,29.39,126.53,29.13z"/>
	<path class="st0" d="M99.12,13.11v16.7h0.99v-16.7c0.61-0.22,1.03-0.81,0.99-1.49c-0.05-0.82-0.79-1.43-1.58-1.39h0
		c-0.82,0.05-1.44,0.76-1.39,1.58C98.17,12.42,98.58,12.91,99.12,13.11z"/>
</g>
<g>

		<rect x="107.64" y="12.81" transform="matrix(-1 -4.464485e-11 4.464485e-11 -1 217.2613 27.5934)" class="st0" width="1.98" height="1.98"/>
	<path class="st0" d="M110.12,15.28h-2.97v-2.97h2.97V15.28z M108.14,14.29h0.98v-0.98h-0.98V14.29z"/>
</g>
<path class="st0" d="M76.68,5.46c-0.82,0-1.49,0.67-1.49,1.49c0,0.64,0.41,1.19,0.99,1.39v6.63c-0.65-1.05-1.66-1.85-3.21-1.85
	H48.36v-0.89h-2.97v2.97h2.97v-1.09h24.62c3.16,0,3.21,4.42,3.21,4.61v6.01v51.05h0.99V24.73v-6.01V8.34
	c0.57-0.21,0.99-0.75,0.99-1.39C78.17,6.12,77.5,5.46,76.68,5.46z"/>
<polygon class="st0" points="73.48,5.28 73.48,2.31 70.51,2.31 70.51,5.28 71.49,5.28 71.49,35.59 70.51,35.59 70.51,38.56
	71.49,38.56 71.49,45.23 72.49,45.23 72.49,38.56 73.48,38.56 73.48,35.59 72.49,35.59 72.49,5.28 "/>
<path class="st0" d="M129.22,35.68v-2.97h-2.97v0.99h-22.56c-0.62,0-1.15,0.22-1.54,0.64c-0.82,0.9-0.7,2.37-0.69,2.49v5.28
	c-0.01,0.17,0,0.28,0,0.33v8.14c0,1.42-1.4,1.71-1.48,1.73h-6.18c-1.89,0-2.39,1.67-2.39,2.56v3.38c0,1.11-0.9,1.68-1.18,1.84h-3.42
	c-3.13,0-3.13,2.71-3.13,3.6v12.19h0.99V63.67c0-1.26,0.17-2.6,2.14-2.6h3.54l0.2-0.04c0.08-0.03,1.86-0.84,1.86-2.79v-3.37
	c0-0.16,0.05-1.56,1.4-1.56l6.26-0.01c0.83-0.14,2.39-0.88,2.39-2.71l0-8.43c0.01-0.36,0.1-1.04,0.54-1.52
	c0.35-0.39,0.89-0.58,1.59-0.58h20.16c0.08,0.23,0.22,0.45,0.41,0.62c0.27,0.24,0.62,0.37,0.98,0.37c0.03,0,0.07,0,0.1,0
	c0.39-0.03,0.76-0.2,1.02-0.5c0.26-0.3,0.39-0.68,0.37-1.08c-0.05-0.82-0.74-1.44-1.58-1.39c-0.61,0.04-1.11,0.44-1.3,0.99H104.6
	c-0.89,0-1.6,0.26-2.14,0.74l0-3.01c-0.03-0.33-0.01-1.29,0.43-1.78c0.19-0.21,0.46-0.31,0.8-0.31h22.56v0.99H129.22z"/>
<path class="st0" d="M68.7,59.99h-3.42c-0.28-0.15-1.18-0.73-1.18-1.84v-3.38c0-0.88-0.5-2.56-2.39-2.56l-6.09,0.01
	c-0.16-0.03-1.56-0.32-1.56-1.73l0-8.12c0-0.03,0.01-0.17,0-0.37l0-5.21c0.02-0.17,0.13-1.64-0.69-2.54
	c-0.38-0.42-0.91-0.64-1.54-0.64h-23v-0.99h-2.97v2.97h2.97v-0.99h23c0.34,0,0.61,0.1,0.8,0.31c0.44,0.48,0.46,1.45,0.43,1.82v2.96
	c-0.54-0.48-1.25-0.74-2.14-0.74H30.75c-0.06-0.17-0.16-0.34-0.28-0.48c-0.26-0.3-0.62-0.48-1.02-0.5
	c-0.81-0.04-1.53,0.57-1.58,1.39c-0.05,0.82,0.57,1.53,1.39,1.58c0.03,0,0.06,0,0.1,0c0.63,0,1.17-0.41,1.38-0.99h20.18
	c0.7,0,1.24,0.19,1.59,0.58c0.44,0.48,0.53,1.14,0.55,1.5v8.45c0,1.83,1.56,2.58,2.47,2.72h6.18c1.34,0,1.4,1.4,1.4,1.56v3.38
	c0,1.95,1.79,2.76,1.86,2.79l3.74,0.04c1.97,0,2.14,1.34,2.14,2.6v12.19h0.99V63.59C71.83,62.7,71.83,59.99,68.7,59.99z"/>
<path class="st0" d="M134.69,53.18c-0.26-0.3-0.62-0.48-1.02-0.5c-0.67-0.04-1.27,0.38-1.49,0.98H85.37c-1.08,0-1.83,0.4-2.34,0.93
	v-1.71c0-0.92,0.27-2.47,2.05-2.47h5.19h36.97v0.99h2.97v-2.97h-2.97v0.99H90.27h-2.55l0-22.72h0l0-1.15
	c0.06-0.72,0.26-1.59,0.76-2.15c0.39-0.44,0.92-0.65,1.62-0.65h29.31v0.99h2.97v-2.97h-2.97v0.99H90.1c-0.98,0-1.78,0.33-2.36,0.98
	c-0.01,0.01-0.01,0.02-0.02,0.03l0-12.73c-0.01-0.64,0.02-1.92,0.69-2.7c0.36-0.42,1.31-0.56,2.02-0.56h5.6
	c0.23,0.53,0.75,0.91,1.37,0.91c0.82,0,1.49-0.67,1.49-1.48s-0.67-1.49-1.49-1.49c-0.67,0-1.24,0.45-1.42,1.07h-5.55
	c-1,0-2.22,0.27-2.77,0.91c-1.1,1.28-0.94,3.4-0.93,3.42v15.37c-0.06,0.69,0,1.2,0,1.22v22.72h-1.64c-2.25,0-3.05,1.79-3.05,3.46
	v22.97h0.99V57.02c0.01-0.24,0.15-2.36,2.34-2.36h20.13l0,2.86c-0.04,2.9,1.36,3.54,2.55,3.56c0.74,0.01,3.48,0.02,6.81,0.02
	c5.05,0,11.43-0.01,14.2-0.02c0.08,0.24,0.22,0.46,0.42,0.63c0.27,0.24,0.62,0.37,0.98,0.37c0.03,0,0.07,0,0.1,0
	c0.39-0.03,0.76-0.2,1.02-0.5c0.26-0.3,0.39-0.68,0.37-1.08c-0.03-0.39-0.2-0.76-0.5-1.02c-0.3-0.26-0.68-0.39-1.08-0.37
	c-0.39,0.03-0.76,0.2-1.02,0.5c-0.12,0.14-0.21,0.3-0.28,0.47c-4.6,0.01-19.14,0.03-21,0c-1.11-0.02-1.59-0.81-1.57-2.55l0-2.88
	h25.69c0.19,0.54,0.69,0.95,1.3,0.99c0.03,0,0.06,0,0.1,0c0.78,0,1.43-0.6,1.48-1.39C135.09,53.86,134.96,53.48,134.69,53.18z"/>
<path class="st0" d="M70.43,49.34h-1.64l0-22.67c0.01-0.05,0.05-0.55,0-1.21L68.78,10.1c0.01-0.09,0.15-2.09-0.95-3.37
	c-0.55-0.64-1.62-1.03-2.61-1.03h-5.7c-0.21-0.57-0.75-0.99-1.39-0.99c-0.82,0-1.48,0.67-1.48,1.49s0.67,1.48,1.48,1.48
	c0.64,0,1.19-0.41,1.39-0.99h5.7c0.7,0,1.5,0.27,1.86,0.68c0.8,0.93,0.73,2.56,0.72,2.65v12.66c-0.01-0.01-0.01-0.02-0.02-0.03
	c-0.58-0.65-1.38-0.98-2.36-0.98H36.1v-0.99h-2.97v2.97h2.97v-0.99H65.4c0.7,0,1.23,0.21,1.62,0.65c0.53,0.59,0.71,1.48,0.76,2.19
	v1.11v22.72H28.27v-1.17H25.3v2.97h2.97v-0.8h42.15c1.79,0,2.06,1.55,2.06,2.47v1.71c-0.52-0.54-1.26-0.93-2.34-0.93H23.33
	c-0.19-0.54-0.69-0.95-1.3-0.99c-0.4-0.02-0.78,0.1-1.08,0.37s-0.48,0.62-0.5,1.02c-0.05,0.82,0.57,1.52,1.39,1.58
	c0.03,0,0.06,0,0.1,0c0.36,0,0.7-0.13,0.98-0.37c0.19-0.17,0.33-0.38,0.41-0.62h25.69l0,2.88c0.02,1.75-0.46,2.53-1.57,2.55
	c-1.85,0.03-16.38,0.02-20.99,0.02c-0.06-0.18-0.16-0.34-0.28-0.48c-0.26-0.3-0.62-0.48-1.02-0.5c-0.4-0.02-0.78,0.1-1.08,0.37
	c-0.3,0.26-0.48,0.62-0.5,1.02s0.1,0.78,0.37,1.08c0.26,0.3,0.62,0.48,1.02,0.5c0.03,0,0.06,0,0.1,0c0.63,0,1.17-0.41,1.38-0.99
	c1.99,0,5.84,0.01,9.74,0.01c5.09,0,10.23-0.01,11.29-0.02c1.18-0.02,2.59-0.66,2.55-3.56l0-2.86h20.13c2.19,0,2.33,2.12,2.34,2.36
	v18.84h0.99V52.8C73.48,51.13,72.68,49.34,70.43,49.34z"/>
<g>
	<path class="st2" d="M8.58,84.98h-6.4V84h13.85v0.98h-6.4v16.17H8.58V84.98z"/>
	<path class="st2" d="M18.87,84h9.39v0.98h-8.33v7.03h6.84V93h-6.84v7.18h8.8v0.98h-9.85V84z"/>
	<path class="st2" d="M40.22,83.71c4.07,0,6.13,2.16,6.13,2.16l-0.64,0.78c0,0-2.03-1.94-5.46-1.94c-4.21,0-7.42,3.31-7.42,7.74
		c0,4.46,3.19,7.99,7.5,7.99c3.68,0,5.81-2.33,5.81-2.33l0.66,0.73c0,0-2.3,2.6-6.47,2.6c-5,0-8.6-4.02-8.6-8.99
		S35.39,83.71,40.22,83.71z"/>
	<path class="st2" d="M50.86,84h1.05v8.06H62.8V84h1.05v17.15H62.8v-8.11H51.91v8.11h-1.05V84z"/>
	<path class="st2" d="M68.85,83.86H78.9v2.11h-7.62v5.42h6.2v2.11h-6.2v5.56h8.04v2.11H68.85V83.86z"/>
	<path class="st2" d="M90.01,83.56c5.02,0,8.89,3.85,8.89,8.85c0,2.18-0.78,4.19-2.03,5.71l2.06,1.96l-1.42,1.52l-2.01-2.01
		c-1.49,1.2-3.38,1.86-5.49,1.86c-5,0-8.87-3.99-8.87-9.04C81.14,87.41,85.01,83.56,90.01,83.56z M90.01,99.22
		c1.3,0,2.74-0.47,3.75-1.27l-2.03-1.99l1.42-1.52l1.98,2.01c0.78-1.08,1.27-2.52,1.27-4.04c0-3.82-2.79-6.64-6.39-6.64
		c-3.58,0-6.37,2.82-6.37,6.64C83.63,96.28,86.43,99.22,90.01,99.22z"/>
	<path class="st2" d="M101.85,83.86h2.43v11.17c0,2.65,1.71,4.19,4.36,4.19c2.67,0,4.41-1.54,4.41-4.24V83.86h2.43v11.17
		c0,3.85-2.77,6.42-6.81,6.42s-6.81-2.57-6.81-6.42V83.86z"/>
	<path class="st2" d="M119.94,83.86h2.43v17.3h-2.43V83.86z"/>
	<path class="st2" d="M130.77,85.96h-5.93v-2.11h14.29v2.11h-5.93v15.19h-2.43V85.96z"/>
	<path class="st2" d="M145.25,93.83l-5.81-9.97h2.74l3.21,5.69c0.54,0.96,1.05,2.18,1.05,2.18h0.05c0,0,0.52-1.2,1.05-2.18
		l3.16-5.69h2.74l-5.78,9.97v7.33h-2.43V93.83z"/>
	<path class="st2" d="M19,106.19c2.37,0,3.57,1.28,3.57,1.28l-0.52,0.72c0,0-1.16-1.1-3.02-1.1c-2.33,0-3.99,1.81-3.99,4.15
		c0,2.37,1.67,4.3,4.02,4.3c2,0,3.22-1.33,3.22-1.33l0.56,0.69c0,0-1.35,1.54-3.8,1.54c-2.94,0-5.02-2.3-5.02-5.19
		C14.02,108.38,16.16,106.19,19,106.19z"/>
	<path class="st2" d="M30.75,106.19c2.81,0,5.05,2.22,5.05,5.07c0,2.91-2.24,5.19-5.05,5.19s-5.05-2.29-5.05-5.19
		C25.7,108.41,27.94,106.19,30.75,106.19z M30.75,115.55c2.23,0,4.04-1.86,4.04-4.29c0-2.37-1.81-4.16-4.04-4.16
		c-2.24,0-4.04,1.79-4.04,4.16C26.71,113.69,28.5,115.55,30.75,115.55z"/>
	<path class="st2" d="M39.42,106.36h0.97v9.05H45v0.88h-5.58V106.36z"/>
	<path class="st2" d="M48.15,106.36h0.97v9.05h4.6v0.88h-5.58V106.36z"/>
	<path class="st2" d="M61.77,113.12h-3.99l-1.13,3.16h-1.03l3.64-9.92h1.04l3.64,9.92h-1.03L61.77,113.12z M59.76,107.39
		c0,0-0.21,0.82-0.38,1.29l-1.33,3.6h3.42l-1.3-3.6c-0.17-0.47-0.38-1.29-0.38-1.29H59.76z"/>
	<path class="st2" d="M66.98,106.36h3.39c1.57,0,2.68,0.95,2.68,2.5c0,1.03-0.49,1.78-1.26,2.16v0.03c1.02,0.28,1.67,1.26,1.67,2.46
		c0,1.76-1.31,2.78-2.98,2.78h-3.5V106.36z M70.37,110.67c1,0,1.68-0.71,1.68-1.74c0-1.02-0.64-1.69-1.69-1.69h-2.4v3.43H70.37z
		 M70.49,115.41c1.2,0,1.95-0.75,1.95-1.93s-0.8-1.96-1.96-1.96h-2.53v3.9H70.49z"/>
	<path class="st2" d="M81.61,106.19c2.81,0,5.05,2.22,5.05,5.07c0,2.91-2.24,5.19-5.05,5.19c-2.81,0-5.05-2.29-5.05-5.19
		C76.55,108.41,78.8,106.19,81.61,106.19z M81.61,115.55c2.23,0,4.04-1.86,4.04-4.29c0-2.37-1.81-4.16-4.04-4.16
		c-2.24,0-4.04,1.79-4.04,4.16C77.57,113.69,79.36,115.55,81.61,115.55z"/>
	<path class="st2" d="M90.28,106.36h2.94c1.02,0,1.47,0.1,1.86,0.27c0.93,0.41,1.5,1.35,1.5,2.55c0,1.34-0.76,2.37-1.88,2.68v0.03
		c0,0,0.1,0.13,0.25,0.4l2.16,3.99h-1.12l-2.24-4.18h-2.5v4.18h-0.97V106.36z M93.61,111.23c1.2,0,1.96-0.78,1.96-2.02
		c0-0.82-0.32-1.43-0.9-1.74c-0.29-0.16-0.65-0.24-1.41-0.24h-2.01v4H93.61z"/>
	<path class="st2" d="M105.45,113.12h-3.99l-1.13,3.16H99.3l3.64-9.92h1.04l3.64,9.92h-1.03L105.45,113.12z M103.45,107.39
		c0,0-0.21,0.82-0.38,1.29l-1.33,3.6h3.42l-1.3-3.6c-0.17-0.47-0.38-1.29-0.38-1.29H103.45z"/>
	<path class="st2" d="M112.9,107.24h-3.57v-0.88h8.1v0.88h-3.56v9.05h-0.97V107.24z"/>
	<path class="st2" d="M120.38,106.36h0.97v9.92h-0.97V106.36z"/>
	<path class="st2" d="M124.38,106.36h1.04l2.75,7.54c0.18,0.51,0.38,1.28,0.38,1.28h0.03c0,0,0.2-0.78,0.38-1.28l2.75-7.54h1.04
		l-3.69,9.92h-1.02L124.38,106.36z"/>
	<path class="st2" d="M135.78,106.36h5.59v0.88h-4.62v3.61h3.77v0.88h-3.77v3.68h4.87v0.88h-5.84V106.36z"/>
</g>
</svg>